%TF.GenerationSoftware,KiCad,Pcbnew,9.0.4*%
%TF.CreationDate,2026-01-09T15:46:23-05:00*%
%TF.ProjectId,x18-tool-board,7831382d-746f-46f6-9c2d-626f6172642e,rev?*%
%TF.SameCoordinates,Original*%
%TF.FileFunction,Copper,L1,Top*%
%TF.FilePolarity,Positive*%
%FSLAX46Y46*%
G04 Gerber Fmt 4.6, Leading zero omitted, Abs format (unit mm)*
G04 Created by KiCad (PCBNEW 9.0.4) date 2026-01-09 15:46:23*
%MOMM*%
%LPD*%
G01*
G04 APERTURE LIST*
G04 Aperture macros list*
%AMRoundRect*
0 Rectangle with rounded corners*
0 $1 Rounding radius*
0 $2 $3 $4 $5 $6 $7 $8 $9 X,Y pos of 4 corners*
0 Add a 4 corners polygon primitive as box body*
4,1,4,$2,$3,$4,$5,$6,$7,$8,$9,$2,$3,0*
0 Add four circle primitives for the rounded corners*
1,1,$1+$1,$2,$3*
1,1,$1+$1,$4,$5*
1,1,$1+$1,$6,$7*
1,1,$1+$1,$8,$9*
0 Add four rect primitives between the rounded corners*
20,1,$1+$1,$2,$3,$4,$5,0*
20,1,$1+$1,$4,$5,$6,$7,0*
20,1,$1+$1,$6,$7,$8,$9,0*
20,1,$1+$1,$8,$9,$2,$3,0*%
G04 Aperture macros list end*
%TA.AperFunction,EtchedComponent*%
%ADD10C,0.000000*%
%TD*%
%TA.AperFunction,SMDPad,CuDef*%
%ADD11RoundRect,0.237500X-0.237500X0.250000X-0.237500X-0.250000X0.237500X-0.250000X0.237500X0.250000X0*%
%TD*%
%TA.AperFunction,SMDPad,CuDef*%
%ADD12C,4.000000*%
%TD*%
%TA.AperFunction,SMDPad,CuDef*%
%ADD13RoundRect,0.237500X0.237500X-0.250000X0.237500X0.250000X-0.237500X0.250000X-0.237500X-0.250000X0*%
%TD*%
%TA.AperFunction,ComponentPad*%
%ADD14R,1.950000X1.950000*%
%TD*%
%TA.AperFunction,ComponentPad*%
%ADD15C,1.950000*%
%TD*%
%TA.AperFunction,SMDPad,CuDef*%
%ADD16RoundRect,0.237500X-0.250000X-0.237500X0.250000X-0.237500X0.250000X0.237500X-0.250000X0.237500X0*%
%TD*%
%TA.AperFunction,SMDPad,CuDef*%
%ADD17RoundRect,0.237500X-0.237500X0.300000X-0.237500X-0.300000X0.237500X-0.300000X0.237500X0.300000X0*%
%TD*%
%TA.AperFunction,SMDPad,CuDef*%
%ADD18RoundRect,0.237500X0.250000X0.237500X-0.250000X0.237500X-0.250000X-0.237500X0.250000X-0.237500X0*%
%TD*%
%TA.AperFunction,ComponentPad*%
%ADD19R,1.700000X1.700000*%
%TD*%
%TA.AperFunction,ComponentPad*%
%ADD20C,1.700000*%
%TD*%
%TA.AperFunction,SMDPad,CuDef*%
%ADD21R,2.921000X1.320800*%
%TD*%
%TA.AperFunction,SMDPad,CuDef*%
%ADD22R,2.449195X2.179396*%
%TD*%
%TA.AperFunction,SMDPad,CuDef*%
%ADD23RoundRect,0.237500X-0.300000X-0.237500X0.300000X-0.237500X0.300000X0.237500X-0.300000X0.237500X0*%
%TD*%
%TA.AperFunction,SMDPad,CuDef*%
%ADD24R,2.209800X1.041400*%
%TD*%
%TA.AperFunction,SMDPad,CuDef*%
%ADD25RoundRect,0.237500X0.300000X0.237500X-0.300000X0.237500X-0.300000X-0.237500X0.300000X-0.237500X0*%
%TD*%
%TA.AperFunction,SMDPad,CuDef*%
%ADD26R,1.000000X1.500000*%
%TD*%
%TA.AperFunction,SMDPad,CuDef*%
%ADD27RoundRect,0.250000X-0.325000X-0.450000X0.325000X-0.450000X0.325000X0.450000X-0.325000X0.450000X0*%
%TD*%
%TA.AperFunction,SMDPad,CuDef*%
%ADD28R,1.320800X2.921000*%
%TD*%
%TA.AperFunction,SMDPad,CuDef*%
%ADD29RoundRect,0.075000X0.075000X-0.662500X0.075000X0.662500X-0.075000X0.662500X-0.075000X-0.662500X0*%
%TD*%
%TA.AperFunction,SMDPad,CuDef*%
%ADD30RoundRect,0.075000X0.662500X-0.075000X0.662500X0.075000X-0.662500X0.075000X-0.662500X-0.075000X0*%
%TD*%
%TA.AperFunction,ComponentPad*%
%ADD31C,1.574800*%
%TD*%
%TA.AperFunction,SMDPad,CuDef*%
%ADD32RoundRect,0.250000X0.325000X0.450000X-0.325000X0.450000X-0.325000X-0.450000X0.325000X-0.450000X0*%
%TD*%
%TA.AperFunction,SMDPad,CuDef*%
%ADD33RoundRect,0.250000X-0.450000X0.350000X-0.450000X-0.350000X0.450000X-0.350000X0.450000X0.350000X0*%
%TD*%
%TA.AperFunction,SMDPad,CuDef*%
%ADD34RoundRect,0.237500X0.237500X-0.300000X0.237500X0.300000X-0.237500X0.300000X-0.237500X-0.300000X0*%
%TD*%
%TA.AperFunction,ComponentPad*%
%ADD35C,1.778000*%
%TD*%
%TA.AperFunction,ComponentPad*%
%ADD36C,2.336800*%
%TD*%
%TA.AperFunction,ComponentPad*%
%ADD37C,1.650000*%
%TD*%
%TA.AperFunction,SMDPad,CuDef*%
%ADD38RoundRect,0.112500X0.112500X0.237500X-0.112500X0.237500X-0.112500X-0.237500X0.112500X-0.237500X0*%
%TD*%
%TA.AperFunction,ComponentPad*%
%ADD39R,2.100000X2.100000*%
%TD*%
%TA.AperFunction,ComponentPad*%
%ADD40C,2.100000*%
%TD*%
%TA.AperFunction,ViaPad*%
%ADD41C,0.500000*%
%TD*%
%TA.AperFunction,ViaPad*%
%ADD42C,0.600000*%
%TD*%
%TA.AperFunction,ViaPad*%
%ADD43C,1.000000*%
%TD*%
%TA.AperFunction,ViaPad*%
%ADD44C,1.200000*%
%TD*%
%TA.AperFunction,ViaPad*%
%ADD45C,2.000000*%
%TD*%
%TA.AperFunction,Conductor*%
%ADD46C,1.500000*%
%TD*%
%TA.AperFunction,Conductor*%
%ADD47C,1.000000*%
%TD*%
%TA.AperFunction,Conductor*%
%ADD48C,0.400000*%
%TD*%
%TA.AperFunction,Conductor*%
%ADD49C,0.200000*%
%TD*%
%TA.AperFunction,Conductor*%
%ADD50C,0.800000*%
%TD*%
%TA.AperFunction,Conductor*%
%ADD51C,0.600000*%
%TD*%
%TA.AperFunction,Conductor*%
%ADD52C,0.250000*%
%TD*%
%TA.AperFunction,Conductor*%
%ADD53C,0.203200*%
%TD*%
G04 APERTURE END LIST*
D10*
%TA.AperFunction,EtchedComponent*%
%TO.C,JP1*%
G36*
X236990000Y-52890000D02*
G01*
X236490000Y-52890000D01*
X236490000Y-52290000D01*
X236990000Y-52290000D01*
X236990000Y-52890000D01*
G37*
%TD.AperFunction*%
%TD*%
D11*
%TO.P,R8,1*%
%TO.N,/I2C1_SDA*%
X166500000Y-73587500D03*
%TO.P,R8,2*%
%TO.N,+3.3V*%
X166500000Y-75412500D03*
%TD*%
D12*
%TO.P,TP5,1,1*%
%TO.N,GND*%
X167000000Y-82000000D03*
%TD*%
D11*
%TO.P,R7,1*%
%TO.N,/I2C1_SCL*%
X172000000Y-73587500D03*
%TO.P,R7,2*%
%TO.N,+3.3V*%
X172000000Y-75412500D03*
%TD*%
D13*
%TO.P,R3,1*%
%TO.N,Net-(U1-TRIM)*%
X198500000Y-59825000D03*
%TO.P,R3,2*%
%TO.N,6V_GND*%
X198500000Y-58000000D03*
%TD*%
D14*
%TO.P,Servo5,1,Pin_1*%
%TO.N,+6V*%
X216105000Y-93000000D03*
D15*
%TO.P,Servo5,2,Pin_2*%
%TO.N,6V_GND*%
X221185000Y-93000000D03*
%TO.P,Servo5,3,Pin_3*%
%TO.N,/TIM2_CH2*%
X226265000Y-93000000D03*
%TD*%
D16*
%TO.P,R5,1*%
%TO.N,Net-(D4-A)*%
X172537500Y-89000000D03*
%TO.P,R5,2*%
%TO.N,+3.3V*%
X174362500Y-89000000D03*
%TD*%
D17*
%TO.P,C8,1*%
%TO.N,+3.3V*%
X179500000Y-71500000D03*
%TO.P,C8,2*%
%TO.N,GND*%
X179500000Y-73225000D03*
%TD*%
D18*
%TO.P,R6,1*%
%TO.N,+3.3V*%
X182412500Y-77000000D03*
%TO.P,R6,2*%
%TO.N,/RST*%
X180587500Y-77000000D03*
%TD*%
D19*
%TO.P,J11,1,Pin_1*%
%TO.N,/TIM1_CH4*%
X208600000Y-36260000D03*
D20*
%TO.P,J11,2,Pin_2*%
%TO.N,6V_GND*%
X208600000Y-38800000D03*
%TD*%
D19*
%TO.P,J14,1,Pin_1*%
%TO.N,/TIM2_CH3*%
X243275000Y-86500000D03*
D20*
%TO.P,J14,2,Pin_2*%
%TO.N,6V_GND*%
X240735000Y-86500000D03*
%TD*%
D14*
%TO.P,Servo3,1,Pin_1*%
%TO.N,+6V*%
X240800000Y-32200000D03*
D15*
%TO.P,Servo3,2,Pin_2*%
%TO.N,6V_GND*%
X235720000Y-32200000D03*
%TO.P,Servo3,3,Pin_3*%
%TO.N,/TIM1_CH3*%
X230640000Y-32200000D03*
%TD*%
D21*
%TO.P,C7,1*%
%TO.N,+6V*%
X220575900Y-81060000D03*
%TO.P,C7,2*%
%TO.N,6V_GND*%
X215064100Y-81060000D03*
%TD*%
D17*
%TO.P,C11,1*%
%TO.N,+3.3V*%
X179000000Y-64137500D03*
%TO.P,C11,2*%
%TO.N,GND*%
X179000000Y-65862500D03*
%TD*%
%TO.P,C14,1*%
%TO.N,+3.3V*%
X192550000Y-56750000D03*
%TO.P,C14,2*%
%TO.N,GND*%
X192550000Y-58475000D03*
%TD*%
D14*
%TO.P,Servo2,1,Pin_1*%
%TO.N,+6V*%
X250000000Y-43000000D03*
D15*
%TO.P,Servo2,2,Pin_2*%
%TO.N,6V_GND*%
X250000000Y-37920000D03*
%TO.P,Servo2,3,Pin_3*%
%TO.N,/TIM1_CH2*%
X250000000Y-32840000D03*
%TD*%
D22*
%TO.P,C1,1*%
%TO.N,+12V*%
X237480000Y-68386494D03*
%TO.P,C1,2*%
%TO.N,GND*%
X237480000Y-62813506D03*
%TD*%
D23*
%TO.P,C5,1*%
%TO.N,+6V*%
X203967500Y-75250000D03*
%TO.P,C5,2*%
%TO.N,6V_GND*%
X205692500Y-75250000D03*
%TD*%
D12*
%TO.P,TP2,1,1*%
%TO.N,+3.3V*%
X167500000Y-94500000D03*
%TD*%
D24*
%TO.P,SW2,1,1*%
%TO.N,GND*%
X185349500Y-80000000D03*
%TO.P,SW2,2,2*%
%TO.N,/RST*%
X180650500Y-80000000D03*
%TD*%
D25*
%TO.P,C12,1*%
%TO.N,+3.3V*%
X182662500Y-66400000D03*
%TO.P,C12,2*%
%TO.N,GND*%
X180937500Y-66400000D03*
%TD*%
D19*
%TO.P,J2,1,Pin_1*%
%TO.N,+3.3V*%
X171500000Y-29920000D03*
D20*
%TO.P,J2,2,Pin_2*%
%TO.N,/SYS_SWCLK*%
X171500000Y-32460000D03*
%TO.P,J2,3,Pin_3*%
%TO.N,GND*%
X171500000Y-35000000D03*
%TO.P,J2,4,Pin_4*%
%TO.N,/SYS_SWDIO*%
X171500000Y-37540000D03*
%TO.P,J2,5,Pin_5*%
%TO.N,/RST*%
X171500000Y-40080000D03*
%TD*%
D14*
%TO.P,Servo4,1,Pin_1*%
%TO.N,+6V*%
X224280000Y-32337500D03*
D15*
%TO.P,Servo4,2,Pin_2*%
%TO.N,6V_GND*%
X219200000Y-32337500D03*
%TO.P,Servo4,3,Pin_3*%
%TO.N,/TIM1_CH4*%
X214120000Y-32337500D03*
%TD*%
D26*
%TO.P,JP1,1,A*%
%TO.N,GND*%
X237390000Y-52590000D03*
%TO.P,JP1,2,B*%
%TO.N,Net-(JP1-B)*%
X236090000Y-52590000D03*
%TD*%
D27*
%TO.P,D4,1,K*%
%TO.N,GND*%
X168450000Y-89000000D03*
%TO.P,D4,2,A*%
%TO.N,Net-(D4-A)*%
X170500000Y-89000000D03*
%TD*%
D19*
%TO.P,J15,1,Pin_1*%
%TO.N,/GPIO_breakout6*%
X176000000Y-40920000D03*
D20*
%TO.P,J15,2,Pin_2*%
%TO.N,/GPIO_breakout5*%
X176000000Y-43460000D03*
%TO.P,J15,3,Pin_3*%
%TO.N,/GPIO_breakout4*%
X176000000Y-46000000D03*
%TO.P,J15,4,Pin_4*%
%TO.N,/GPIO_breakout3*%
X176000000Y-48540000D03*
%TO.P,J15,5,Pin_5*%
%TO.N,/GPIO_breakout2*%
X176000000Y-51080000D03*
%TO.P,J15,6,Pin_6*%
%TO.N,/GPIO_breakout1*%
X176000000Y-53620000D03*
%TO.P,J15,7,Pin_7*%
%TO.N,GND*%
X176000000Y-56160000D03*
%TD*%
D19*
%TO.P,J6,1,Pin_1*%
%TO.N,/CS_TOOLS_BOARD*%
X202000000Y-90000000D03*
D20*
%TO.P,J6,2,Pin_2*%
%TO.N,/SPI1_SCK*%
X202000000Y-87460000D03*
%TO.P,J6,3,Pin_3*%
%TO.N,/SPI1_MISO*%
X202000000Y-84920000D03*
%TO.P,J6,4,Pin_4*%
%TO.N,/SPI1_MOSI*%
X202000000Y-82380000D03*
%TO.P,J6,5,Pin_5*%
%TO.N,GND*%
X202000000Y-79840000D03*
%TD*%
D19*
%TO.P,J12,1,Pin_1*%
%TO.N,/TIM2_CH2*%
X226275000Y-86500000D03*
D20*
%TO.P,J12,2,Pin_2*%
%TO.N,6V_GND*%
X223735000Y-86500000D03*
%TD*%
D28*
%TO.P,C4,1*%
%TO.N,+6V*%
X221480000Y-39320000D03*
%TO.P,C4,2*%
%TO.N,6V_GND*%
X221480000Y-44831800D03*
%TD*%
D19*
%TO.P,J1,1,Pin_1*%
%TO.N,/I2C1_SCL*%
X176500000Y-59960000D03*
D20*
%TO.P,J1,2,Pin_2*%
%TO.N,/I2C1_SDA*%
X176500000Y-62500000D03*
%TO.P,J1,3,Pin_3*%
%TO.N,GND*%
X176500000Y-65040000D03*
%TD*%
D19*
%TO.P,J8,1,Pin_1*%
%TO.N,/TIM1_CH2*%
X243500000Y-43525000D03*
D20*
%TO.P,J8,2,Pin_2*%
%TO.N,6V_GND*%
X243500000Y-40985000D03*
%TD*%
D14*
%TO.P,Servo1,1,Pin_1*%
%TO.N,+6V*%
X250000000Y-92080000D03*
D15*
%TO.P,Servo1,2,Pin_2*%
%TO.N,6V_GND*%
X250000000Y-87000000D03*
%TO.P,Servo1,3,Pin_3*%
%TO.N,/TIM1_CH1*%
X250000000Y-81920000D03*
%TD*%
D17*
%TO.P,C13,1*%
%TO.N,+3.3V*%
X194100000Y-56800000D03*
%TO.P,C13,2*%
%TO.N,GND*%
X194100000Y-58525000D03*
%TD*%
D29*
%TO.P,U4,1,VBAT*%
%TO.N,+3.3V*%
X183750000Y-64162500D03*
%TO.P,U4,2,PC13*%
%TO.N,unconnected-(U4-PC13-Pad2)*%
X184250000Y-64162500D03*
%TO.P,U4,3,PC14*%
%TO.N,unconnected-(U4-PC14-Pad3)*%
X184750000Y-64162500D03*
%TO.P,U4,4,PC15*%
%TO.N,unconnected-(U4-PC15-Pad4)*%
X185250000Y-64162500D03*
%TO.P,U4,5,PF0*%
%TO.N,Net-(U4-PF0)*%
X185750000Y-64162500D03*
%TO.P,U4,6,PF1*%
%TO.N,unconnected-(U4-PF1-Pad6)*%
X186250000Y-64162500D03*
%TO.P,U4,7,NRST*%
%TO.N,/RST*%
X186750000Y-64162500D03*
%TO.P,U4,8,VSSA*%
%TO.N,GND*%
X187250000Y-64162500D03*
%TO.P,U4,9,VDDA*%
%TO.N,+3.3V*%
X187750000Y-64162500D03*
%TO.P,U4,10,PA0*%
%TO.N,unconnected-(U4-PA0-Pad10)*%
X188250000Y-64162500D03*
%TO.P,U4,11,PA1*%
%TO.N,/TIM2_CH2*%
X188750000Y-64162500D03*
%TO.P,U4,12,PA2*%
%TO.N,/TIM2_CH3*%
X189250000Y-64162500D03*
D30*
%TO.P,U4,13,PA3*%
%TO.N,unconnected-(U4-PA3-Pad13)*%
X190662500Y-62750000D03*
%TO.P,U4,14,PA4*%
%TO.N,/CS_TOOLS_BOARD*%
X190662500Y-62250000D03*
%TO.P,U4,15,PA5*%
%TO.N,/SPI1_SCK*%
X190662500Y-61750000D03*
%TO.P,U4,16,PA6*%
%TO.N,/SPI1_MISO*%
X190662500Y-61250000D03*
%TO.P,U4,17,PA7*%
%TO.N,/SPI1_MOSI*%
X190662500Y-60750000D03*
%TO.P,U4,18,PB0*%
%TO.N,/SALERT*%
X190662500Y-60250000D03*
%TO.P,U4,19,PB1*%
%TO.N,unconnected-(U4-PB1-Pad19)*%
X190662500Y-59750000D03*
%TO.P,U4,20,PB2*%
%TO.N,unconnected-(U4-PB2-Pad20)*%
X190662500Y-59250000D03*
%TO.P,U4,21,PB10*%
%TO.N,unconnected-(U4-PB10-Pad21)*%
X190662500Y-58750000D03*
%TO.P,U4,22,PB11*%
%TO.N,unconnected-(U4-PB11-Pad22)*%
X190662500Y-58250000D03*
%TO.P,U4,23,VSS*%
%TO.N,GND*%
X190662500Y-57750000D03*
%TO.P,U4,24,VDD*%
%TO.N,+3.3V*%
X190662500Y-57250000D03*
D29*
%TO.P,U4,25,PB12*%
%TO.N,unconnected-(U4-PB12-Pad25)*%
X189250000Y-55837500D03*
%TO.P,U4,26,PB13*%
%TO.N,unconnected-(U4-PB13-Pad26)*%
X188750000Y-55837500D03*
%TO.P,U4,27,PB14*%
%TO.N,Net-(U4-PB14)*%
X188250000Y-55837500D03*
%TO.P,U4,28,PB15*%
%TO.N,Net-(U4-PB15)*%
X187750000Y-55837500D03*
%TO.P,U4,29,PA8*%
%TO.N,/TIM1_CH1*%
X187250000Y-55837500D03*
%TO.P,U4,30,PA9*%
%TO.N,/TIM1_CH2*%
X186750000Y-55837500D03*
%TO.P,U4,31,PA10*%
%TO.N,/TIM1_CH3*%
X186250000Y-55837500D03*
%TO.P,U4,32,PA11*%
%TO.N,/TIM1_CH4*%
X185750000Y-55837500D03*
%TO.P,U4,33,PA12*%
%TO.N,unconnected-(U4-PA12-Pad33)*%
X185250000Y-55837500D03*
%TO.P,U4,34,PA13*%
%TO.N,/SYS_SWDIO*%
X184750000Y-55837500D03*
%TO.P,U4,35,VSS*%
%TO.N,GND*%
X184250000Y-55837500D03*
%TO.P,U4,36,VDDIO2*%
%TO.N,+3.3V*%
X183750000Y-55837500D03*
D30*
%TO.P,U4,37,PA14*%
%TO.N,/SYS_SWCLK*%
X182337500Y-57250000D03*
%TO.P,U4,38,PA15*%
%TO.N,/GPIO_breakout6*%
X182337500Y-57750000D03*
%TO.P,U4,39,PB3*%
%TO.N,/GPIO_breakout5*%
X182337500Y-58250000D03*
%TO.P,U4,40,PB4*%
%TO.N,/GPIO_breakout4*%
X182337500Y-58750000D03*
%TO.P,U4,41,PB5*%
%TO.N,/GPIO_breakout3*%
X182337500Y-59250000D03*
%TO.P,U4,42,PB6*%
%TO.N,/GPIO_breakout2*%
X182337500Y-59750000D03*
%TO.P,U4,43,PB7*%
%TO.N,/GPIO_breakout1*%
X182337500Y-60250000D03*
%TO.P,U4,44,PF11*%
%TO.N,GND*%
X182337500Y-60750000D03*
%TO.P,U4,45,PB8*%
%TO.N,/I2C1_SCL*%
X182337500Y-61250000D03*
%TO.P,U4,46,PB9*%
%TO.N,/I2C1_SDA*%
X182337500Y-61750000D03*
%TO.P,U4,47,VSS*%
%TO.N,GND*%
X182337500Y-62250000D03*
%TO.P,U4,48,VDD*%
%TO.N,+3.3V*%
X182337500Y-62750000D03*
%TD*%
D31*
%TO.P,J13,1,1*%
%TO.N,unconnected-(J13-Pad1)*%
X196499999Y-73999999D03*
%TO.P,J13,2,2*%
%TO.N,/RST*%
X193500000Y-73999999D03*
%TO.P,J13,3,3*%
%TO.N,/SPI1_MISO*%
X190500001Y-73999999D03*
%TO.P,J13,4,4*%
%TO.N,/SPI1_MOSI*%
X196499999Y-71000000D03*
%TO.P,J13,5,5*%
%TO.N,/CS_TOOLS_BOARD*%
X193500000Y-71000000D03*
%TO.P,J13,6,6*%
%TO.N,/SPI1_SCK*%
X190500001Y-71000000D03*
%TD*%
D21*
%TO.P,C18,1*%
%TO.N,+6V*%
X236805900Y-81760000D03*
%TO.P,C18,2*%
%TO.N,6V_GND*%
X231294100Y-81760000D03*
%TD*%
D32*
%TO.P,D1,1,K*%
%TO.N,6V_GND*%
X212050000Y-90000000D03*
%TO.P,D1,2,A*%
%TO.N,Net-(D1-A)*%
X210000000Y-90000000D03*
%TD*%
D12*
%TO.P,TP1,1,1*%
%TO.N,6V_GND*%
X208400000Y-30200000D03*
%TD*%
D32*
%TO.P,D2,1,K*%
%TO.N,GND*%
X196722500Y-53220000D03*
%TO.P,D2,2,A*%
%TO.N,Net-(D2-A)*%
X194672500Y-53220000D03*
%TD*%
D18*
%TO.P,R2,1*%
%TO.N,Net-(D3-A)*%
X192732699Y-51225200D03*
%TO.P,R2,2*%
%TO.N,Net-(U4-PB15)*%
X190907699Y-51225200D03*
%TD*%
D33*
%TO.P,R10,1*%
%TO.N,6V_GND*%
X208200000Y-43800000D03*
%TO.P,R10,2*%
%TO.N,GND*%
X208200000Y-45800000D03*
%TD*%
D34*
%TO.P,C15,1*%
%TO.N,+3.3V*%
X181900000Y-51102500D03*
%TO.P,C15,2*%
%TO.N,GND*%
X181900000Y-49377500D03*
%TD*%
D23*
%TO.P,C9,1*%
%TO.N,/RST*%
X180637500Y-75500000D03*
%TO.P,C9,2*%
%TO.N,GND*%
X182362500Y-75500000D03*
%TD*%
%TO.P,C17,1*%
%TO.N,+3.3V*%
X183550000Y-71500000D03*
%TO.P,C17,2*%
%TO.N,GND*%
X185275000Y-71500000D03*
%TD*%
D35*
%TO.P,U1,1,VIN(+)*%
%TO.N,+12V*%
X231881100Y-70120000D03*
%TO.P,U1,2,ON/OFF*%
%TO.N,Net-(JP1-B)*%
X231881100Y-62500000D03*
%TO.P,U1,3,VIN(-)/GND*%
%TO.N,GND*%
X231881100Y-54880000D03*
D36*
%TO.P,U1,4,VOUT(-)/GND*%
%TO.N,6V_GND*%
X203941100Y-54880000D03*
D35*
%TO.P,U1,6,TRIM*%
%TO.N,Net-(U1-TRIM)*%
X203941100Y-62500000D03*
%TO.P,U1,7,SENSE+*%
%TO.N,+6V*%
X203941100Y-66310000D03*
D36*
%TO.P,U1,8,VOUT(+)*%
X203941100Y-70120000D03*
%TD*%
D19*
%TO.P,J3,1,Pin_1*%
%TO.N,/TIM1_CH1*%
X242000000Y-78725000D03*
D20*
%TO.P,J3,2,Pin_2*%
%TO.N,6V_GND*%
X242000000Y-81265000D03*
%TD*%
D34*
%TO.P,C10,1*%
%TO.N,+3.3V*%
X183750000Y-51115000D03*
%TO.P,C10,2*%
%TO.N,GND*%
X183750000Y-49390000D03*
%TD*%
D37*
%TO.P,J4,1*%
%TO.N,/RST*%
X183920000Y-34040000D03*
%TO.P,J4,2*%
%TO.N,/SYS_SWCLK*%
X183920000Y-31500000D03*
%TO.P,J4,3*%
%TO.N,unconnected-(J4-Pad3)*%
X186460000Y-34040000D03*
%TO.P,J4,4*%
%TO.N,/SYS_SWDIO*%
X186460000Y-31500000D03*
%TO.P,J4,5*%
%TO.N,GND*%
X189000000Y-34040000D03*
%TO.P,J4,6*%
X189000000Y-31500000D03*
%TO.P,J4,7*%
%TO.N,+3.3V*%
X191540000Y-34040000D03*
%TO.P,J4,8*%
X191540000Y-31500000D03*
%TO.P,J4,9*%
%TO.N,unconnected-(J4-Pad9)*%
X194080000Y-34040000D03*
%TO.P,J4,10*%
%TO.N,unconnected-(J4-Pad10)*%
X194080000Y-31500000D03*
%TD*%
D13*
%TO.P,R9,1*%
%TO.N,/SALERT*%
X196200000Y-59800000D03*
%TO.P,R9,2*%
%TO.N,+3.3V*%
X196200000Y-57975000D03*
%TD*%
D34*
%TO.P,C6,1*%
%TO.N,+6V*%
X200000000Y-65000000D03*
%TO.P,C6,2*%
%TO.N,6V_GND*%
X200000000Y-63275000D03*
%TD*%
D38*
%TO.P,Y1,1,V+*%
%TO.N,+3.3V*%
X177650000Y-71500000D03*
%TO.P,Y1,2,CLOCK*%
%TO.N,Net-(U4-PF0)*%
X176350000Y-71500000D03*
%TO.P,Y1,3,GND*%
%TO.N,GND*%
X177000000Y-73500000D03*
%TD*%
D18*
%TO.P,R1,1*%
%TO.N,Net-(D2-A)*%
X192437500Y-53000000D03*
%TO.P,R1,2*%
%TO.N,Net-(U4-PB14)*%
X190612500Y-53000000D03*
%TD*%
D19*
%TO.P,J10,1,Pin_1*%
%TO.N,/TIM1_CH3*%
X232275000Y-38400000D03*
D20*
%TO.P,J10,2,Pin_2*%
%TO.N,6V_GND*%
X229735000Y-38400000D03*
%TD*%
D32*
%TO.P,D3,1,K*%
%TO.N,GND*%
X196700000Y-51000000D03*
%TO.P,D3,2,A*%
%TO.N,Net-(D3-A)*%
X194650000Y-51000000D03*
%TD*%
D18*
%TO.P,R4,1*%
%TO.N,Net-(D1-A)*%
X208375000Y-89960000D03*
%TO.P,R4,2*%
%TO.N,+6V*%
X206550000Y-89960000D03*
%TD*%
D12*
%TO.P,TP4,1,1*%
%TO.N,+6V*%
X208500000Y-94000000D03*
%TD*%
D23*
%TO.P,C16,1*%
%TO.N,+3.3V*%
X183637500Y-70000000D03*
%TO.P,C16,2*%
%TO.N,GND*%
X185362500Y-70000000D03*
%TD*%
D14*
%TO.P,Servo6,1,Pin_1*%
%TO.N,+6V*%
X232500000Y-93000000D03*
D15*
%TO.P,Servo6,2,Pin_2*%
%TO.N,6V_GND*%
X237580000Y-93000000D03*
%TO.P,Servo6,3,Pin_3*%
%TO.N,/TIM2_CH3*%
X242660000Y-93000000D03*
%TD*%
D39*
%TO.P,J9,01,01*%
%TO.N,GND*%
X172320000Y-54120000D03*
D40*
%TO.P,J9,02,02*%
X172320000Y-58310000D03*
%TO.P,J9,03,03*%
X172320000Y-62500000D03*
%TO.P,J9,04,04*%
X172320000Y-66690000D03*
%TO.P,J9,05,05*%
%TO.N,/I2C1_SCL*%
X172320000Y-70880000D03*
%TO.P,J9,06,06*%
%TO.N,+5V*%
X166680000Y-54120000D03*
%TO.P,J9,07,07*%
X166680000Y-58310000D03*
%TO.P,J9,08,08*%
X166680000Y-62500000D03*
%TO.P,J9,09,09*%
X166680000Y-66690000D03*
%TO.P,J9,10,10*%
%TO.N,/I2C1_SDA*%
X166680000Y-70880000D03*
%TD*%
D39*
%TO.P,J7,01,01*%
%TO.N,GND*%
X252320000Y-54120000D03*
D40*
%TO.P,J7,02,02*%
X252320000Y-58310000D03*
%TO.P,J7,03,03*%
X252320000Y-62500000D03*
%TO.P,J7,04,04*%
X252320000Y-66690000D03*
%TO.P,J7,05,05*%
X252320000Y-70880000D03*
%TO.P,J7,06,06*%
%TO.N,+12V*%
X246680000Y-54120000D03*
%TO.P,J7,07,07*%
X246680000Y-58310000D03*
%TO.P,J7,08,08*%
X246680000Y-62500000D03*
%TO.P,J7,09,09*%
X246680000Y-66690000D03*
%TO.P,J7,10,10*%
%TO.N,/SALERT*%
X246680000Y-70880000D03*
%TD*%
D41*
%TO.N,GND*%
X185600000Y-72800000D03*
D42*
X184650000Y-58000000D03*
X187250000Y-61000000D03*
D43*
X181900000Y-47490000D03*
X179000000Y-67410000D03*
D44*
X179500000Y-74250000D03*
D43*
X187809314Y-81440686D03*
D42*
X195000000Y-59600000D03*
X239010000Y-52590000D03*
D43*
X180937500Y-67882500D03*
X208200000Y-47800000D03*
X183750000Y-47752500D03*
X196760000Y-54900000D03*
D42*
X167000000Y-85500000D03*
X184450000Y-60750000D03*
D43*
X184000000Y-75500000D03*
D42*
X166250000Y-89000000D03*
D44*
X177000000Y-75250000D03*
D42*
X184200000Y-61600000D03*
X187500000Y-57750000D03*
D45*
%TO.N,+6V*%
X223930000Y-81080000D03*
D44*
X206550000Y-91450000D03*
D43*
X212000000Y-94000000D03*
D45*
X221540000Y-36310000D03*
X239280000Y-83420000D03*
D43*
%TO.N,+3.3V*%
X184040000Y-77010000D03*
X171750000Y-94500000D03*
X181900000Y-53262500D03*
X166500000Y-76500000D03*
D44*
X172000000Y-76500000D03*
X195800000Y-56600000D03*
D43*
X181200000Y-64400000D03*
X174362500Y-90362500D03*
D42*
X179000000Y-70000000D03*
D44*
X180500000Y-71500000D03*
D43*
X176230000Y-91245000D03*
D44*
X184000000Y-73200000D03*
X177830000Y-86882500D03*
D42*
%TO.N,/RST*%
X185250000Y-67000000D03*
%TO.N,/CS_TOOLS_BOARD*%
X192500000Y-63500000D03*
X194101000Y-65250000D03*
%TO.N,/SALERT*%
X210250000Y-77500000D03*
X243890000Y-73670000D03*
D45*
%TO.N,6V_GND*%
X228340000Y-81760000D03*
X211780000Y-81190000D03*
D43*
X200000000Y-58000000D03*
D44*
X212050000Y-88300000D03*
D45*
X223350000Y-47070000D03*
D44*
X208400000Y-33400000D03*
D43*
X207390000Y-75270000D03*
X208200000Y-41757600D03*
X200000000Y-61250000D03*
%TD*%
D46*
%TO.N,+12V*%
X237480000Y-69110468D02*
X236470468Y-70120000D01*
X237480000Y-68386494D02*
X237480000Y-69110468D01*
X236470468Y-70120000D02*
X231881100Y-70120000D01*
D47*
%TO.N,GND*%
X185349500Y-80000000D02*
X186368628Y-80000000D01*
X180937500Y-67882500D02*
X180937500Y-66400000D01*
X183750000Y-49390000D02*
X183750000Y-47752500D01*
X182362500Y-75500000D02*
X184000000Y-75500000D01*
D48*
X192550000Y-58475000D02*
X192550000Y-59550000D01*
D46*
X236530000Y-54880000D02*
X231881100Y-54880000D01*
D48*
X185275000Y-71500000D02*
X185275000Y-72475000D01*
X192600000Y-59600000D02*
X194200000Y-59600000D01*
X194200000Y-59600000D02*
X194200000Y-58625000D01*
D46*
X237600000Y-55950000D02*
X236530000Y-54880000D01*
D49*
X184250000Y-57600000D02*
X184650000Y-58000000D01*
X190662500Y-57750000D02*
X187500000Y-57750000D01*
D48*
X185275000Y-72475000D02*
X185600000Y-72800000D01*
D47*
X167000000Y-82000000D02*
X167000000Y-85500000D01*
D49*
X184250000Y-55837500D02*
X184250000Y-57600000D01*
D47*
X179500000Y-73225000D02*
X179500000Y-74250000D01*
D46*
X237600000Y-62693506D02*
X237600000Y-55950000D01*
D47*
X237390000Y-52590000D02*
X239010000Y-52590000D01*
D49*
X183550000Y-62250000D02*
X184200000Y-61600000D01*
D47*
X186368628Y-80000000D02*
X187809314Y-81440686D01*
D50*
X196700000Y-51000000D02*
X196700000Y-52850000D01*
D47*
X196722500Y-54862500D02*
X196722500Y-53220000D01*
D51*
X208200000Y-45800000D02*
X208200000Y-47800000D01*
D49*
X187250000Y-64162500D02*
X187250000Y-61000000D01*
D48*
X185362500Y-71412500D02*
X185275000Y-71500000D01*
D47*
X196760000Y-54900000D02*
X196722500Y-54862500D01*
D49*
X182337500Y-60750000D02*
X184450000Y-60750000D01*
X182337500Y-62250000D02*
X183550000Y-62250000D01*
D47*
X181900000Y-49377500D02*
X181900000Y-47490000D01*
D48*
X185362500Y-70000000D02*
X185362500Y-71412500D01*
D46*
X237480000Y-62813506D02*
X237600000Y-62693506D01*
D48*
X194200000Y-58625000D02*
X194100000Y-58525000D01*
D47*
X179000000Y-67410000D02*
X179000000Y-65862500D01*
D48*
X192550000Y-59550000D02*
X192600000Y-59600000D01*
X194200000Y-59600000D02*
X195000000Y-59600000D01*
D47*
X177000000Y-73500000D02*
X177000000Y-75250000D01*
X168450000Y-89000000D02*
X166250000Y-89000000D01*
D50*
X196700000Y-52850000D02*
X196550000Y-53000000D01*
D47*
%TO.N,+6V*%
X221400000Y-39240000D02*
X221480000Y-39320000D01*
X221540000Y-39260000D02*
X221480000Y-39320000D01*
D46*
X203941100Y-75171000D02*
X203967500Y-75197400D01*
D47*
X221480000Y-38827378D02*
X221480000Y-39320000D01*
D46*
X204275000Y-70453900D02*
X203941100Y-70120000D01*
X200000000Y-65000000D02*
X202631100Y-65000000D01*
D47*
X208500000Y-94000000D02*
X212000000Y-94000000D01*
X223910000Y-81060000D02*
X223930000Y-81080000D01*
D46*
X203941100Y-70120000D02*
X203941100Y-75171000D01*
D47*
X206550000Y-89960000D02*
X206550000Y-91450000D01*
X237620000Y-81760000D02*
X239280000Y-83420000D01*
D46*
X202631100Y-65000000D02*
X203941100Y-66310000D01*
D47*
X236805900Y-81760000D02*
X237620000Y-81760000D01*
X220575900Y-81060000D02*
X223910000Y-81060000D01*
X221540000Y-36310000D02*
X221540000Y-39260000D01*
%TO.N,+3.3V*%
X166500000Y-75412500D02*
X166500000Y-76500000D01*
D49*
X185498943Y-67601000D02*
X187750000Y-65349943D01*
D52*
X179000000Y-64137500D02*
X180937500Y-64137500D01*
D49*
X187750000Y-65349943D02*
X187750000Y-64162500D01*
D47*
X194100000Y-56800000D02*
X195600000Y-56800000D01*
D49*
X185029000Y-67601000D02*
X185498943Y-67601000D01*
D47*
X183550000Y-70087500D02*
X183637500Y-70000000D01*
X184000000Y-73200000D02*
X183550000Y-72750000D01*
X194100000Y-56800000D02*
X192600000Y-56800000D01*
X182412500Y-77000000D02*
X184030000Y-77000000D01*
D52*
X180387500Y-62750000D02*
X179000000Y-64137500D01*
D47*
X183550000Y-72750000D02*
X183550000Y-71500000D01*
X172000000Y-75412500D02*
X172000000Y-76500000D01*
D52*
X182337500Y-62750000D02*
X180387500Y-62750000D01*
X190662500Y-57250000D02*
X191750000Y-57250000D01*
D47*
X181900000Y-51102500D02*
X183400000Y-51102500D01*
X179500000Y-71500000D02*
X180500000Y-71500000D01*
D52*
X183750000Y-64162500D02*
X183750000Y-65312500D01*
D47*
X174362500Y-89000000D02*
X174362500Y-90250000D01*
D52*
X183750000Y-55837500D02*
X183750000Y-51115000D01*
X182662500Y-65862500D02*
X181200000Y-64400000D01*
D47*
X195600000Y-56800000D02*
X195800000Y-56600000D01*
D51*
X177650000Y-71350000D02*
X179000000Y-70000000D01*
D49*
X183637500Y-68992500D02*
X185029000Y-67601000D01*
D47*
X196200000Y-57975000D02*
X196200000Y-57000000D01*
D52*
X182662500Y-66400000D02*
X182662500Y-65862500D01*
D47*
X183550000Y-71500000D02*
X183550000Y-70087500D01*
D52*
X180937500Y-64137500D02*
X181200000Y-64400000D01*
D47*
X167500000Y-94500000D02*
X171750000Y-94500000D01*
D52*
X183750000Y-65312500D02*
X182662500Y-66400000D01*
X191750000Y-57250000D02*
X192262500Y-56737500D01*
D49*
X183637500Y-70000000D02*
X183637500Y-68992500D01*
D47*
X174362500Y-90250000D02*
X174362500Y-90362500D01*
D51*
X177650000Y-71500000D02*
X177650000Y-71350000D01*
D47*
X196200000Y-57000000D02*
X195800000Y-56600000D01*
X192600000Y-56800000D02*
X192550000Y-56750000D01*
X181900000Y-53262500D02*
X181900000Y-51102500D01*
X184030000Y-77000000D02*
X184040000Y-77010000D01*
D49*
%TO.N,/RST*%
X180587500Y-75550000D02*
X180637500Y-75500000D01*
X186750000Y-65000000D02*
X185250000Y-66500000D01*
X185250000Y-66500000D02*
X185250000Y-67000000D01*
X180650500Y-77063000D02*
X180587500Y-77000000D01*
X180637500Y-75500000D02*
X181607305Y-74530195D01*
X180750000Y-76950000D02*
X180700000Y-77000000D01*
X181607305Y-74530195D02*
X181607305Y-70076519D01*
X180650500Y-80000000D02*
X180650500Y-77063000D01*
X180587500Y-77000000D02*
X180587500Y-75550000D01*
X186750000Y-64162500D02*
X186750000Y-65000000D01*
X184683824Y-67000000D02*
X185250000Y-67000000D01*
X181607305Y-70076519D02*
X184683824Y-67000000D01*
D51*
%TO.N,Net-(D1-A)*%
X208375000Y-89960000D02*
X209960000Y-89960000D01*
X209960000Y-89960000D02*
X210000000Y-90000000D01*
D49*
%TO.N,Net-(D2-A)*%
X192437500Y-53000000D02*
X194250000Y-53000000D01*
X194250000Y-53000000D02*
X194500000Y-53250000D01*
%TO.N,Net-(D3-A)*%
X192732699Y-51225200D02*
X194424800Y-51225200D01*
X194424800Y-51225200D02*
X194650000Y-51000000D01*
D48*
%TO.N,Net-(D4-A)*%
X172537500Y-89000000D02*
X170500000Y-89000000D01*
D49*
%TO.N,/I2C1_SCL*%
X177790000Y-61250000D02*
X176500000Y-59960000D01*
D47*
X172000000Y-73587500D02*
X172000000Y-71200000D01*
X172000000Y-71200000D02*
X172320000Y-70880000D01*
D49*
X176500000Y-60230603D02*
X176500000Y-59960000D01*
X182337500Y-61250000D02*
X177790000Y-61250000D01*
D51*
%TO.N,/SYS_SWDIO*%
X183261000Y-28301000D02*
X168199000Y-28301000D01*
X166000000Y-30500000D02*
X166000000Y-36500000D01*
X186460000Y-31500000D02*
X183261000Y-28301000D01*
X167040000Y-37540000D02*
X171500000Y-37540000D01*
D49*
X184750000Y-55837500D02*
X184750000Y-37342405D01*
D51*
X168199000Y-28301000D02*
X166000000Y-30500000D01*
D49*
X184750000Y-37342405D02*
X187586000Y-34506405D01*
X187586000Y-34506405D02*
X187586000Y-32626000D01*
D51*
X166000000Y-36500000D02*
X167040000Y-37540000D01*
D49*
X187586000Y-32626000D02*
X186460000Y-31500000D01*
D51*
%TO.N,/SYS_SWCLK*%
X183920000Y-31500000D02*
X172460000Y-31500000D01*
X172460000Y-31500000D02*
X171500000Y-32460000D01*
D49*
X180699000Y-38853405D02*
X185334000Y-34218405D01*
X185334000Y-34218405D02*
X185334000Y-32914000D01*
X181300000Y-57250000D02*
X180699000Y-56649000D01*
X180699000Y-56649000D02*
X180699000Y-38853405D01*
X182337500Y-57250000D02*
X181300000Y-57250000D01*
X185334000Y-32914000D02*
X183920000Y-31500000D01*
D53*
%TO.N,/TIM1_CH1*%
X198000000Y-57000000D02*
X199400000Y-57000000D01*
X197500000Y-57500000D02*
X198000000Y-57000000D01*
X197240000Y-49740000D02*
X190360000Y-49740000D01*
X240725000Y-78725000D02*
X238250000Y-76250000D01*
D49*
X242000000Y-78725000D02*
X246805000Y-78725000D01*
D53*
X187250000Y-52850000D02*
X187250000Y-55837500D01*
X238250000Y-76250000D02*
X203000000Y-76250000D01*
X203000000Y-76250000D02*
X201200000Y-74450000D01*
X200000000Y-56400000D02*
X200000000Y-52500000D01*
X201200000Y-67080000D02*
X200430000Y-66310000D01*
X200430000Y-66310000D02*
X198920000Y-66310000D01*
X201200000Y-74450000D02*
X201200000Y-67080000D01*
D49*
X246805000Y-78725000D02*
X250000000Y-81920000D01*
D53*
X200000000Y-52500000D02*
X197240000Y-49740000D01*
X198920000Y-66310000D02*
X197500000Y-64890000D01*
X242000000Y-78725000D02*
X240725000Y-78725000D01*
X197500000Y-64890000D02*
X197500000Y-57500000D01*
X190360000Y-49740000D02*
X187250000Y-52850000D01*
X199400000Y-57000000D02*
X200000000Y-56400000D01*
%TO.N,/SPI1_MISO*%
X195000000Y-62250000D02*
X195000000Y-71588400D01*
D49*
X190500001Y-73499999D02*
X190687401Y-73312599D01*
D53*
X194000000Y-61250000D02*
X195000000Y-62250000D01*
D49*
X201420002Y-84920000D02*
X202000000Y-84920000D01*
D53*
X191875000Y-72625000D02*
X190500001Y-73999999D01*
D49*
X190500001Y-73999999D02*
X201420002Y-84920000D01*
X190687401Y-73312599D02*
X190754501Y-73312599D01*
D53*
X193963400Y-72625000D02*
X191875000Y-72625000D01*
X195000000Y-71588400D02*
X193963400Y-72625000D01*
D49*
X190500001Y-73999999D02*
X190500001Y-73499999D01*
D53*
X190662500Y-61250000D02*
X194000000Y-61250000D01*
D49*
%TO.N,/SPI1_SCK*%
X189260000Y-74720000D02*
X202000000Y-87460000D01*
D53*
X193301000Y-68199001D02*
X190500001Y-71000000D01*
D49*
X189260000Y-72240002D02*
X189260000Y-74720000D01*
D53*
X193301000Y-63168214D02*
X193301000Y-68199001D01*
X190662500Y-61750000D02*
X191882786Y-61750000D01*
X191882786Y-61750000D02*
X193301000Y-63168214D01*
D49*
X190500001Y-71000000D02*
X189260000Y-72240002D01*
D53*
%TO.N,/SPI1_MOSI*%
X196500000Y-61401000D02*
X195849000Y-60750000D01*
X195849000Y-60750000D02*
X190662500Y-60750000D01*
D49*
X196499999Y-71000000D02*
X195411599Y-72088400D01*
X195411599Y-72088400D02*
X195411599Y-75791599D01*
X195411599Y-75791599D02*
X202000000Y-82380000D01*
D53*
X196499999Y-71000000D02*
X196500000Y-61401000D01*
D49*
%TO.N,/CS_TOOLS_BOARD*%
X192500000Y-63250000D02*
X192500000Y-63500000D01*
X190662500Y-62250000D02*
X191500000Y-62250000D01*
X194101000Y-70399000D02*
X194101000Y-65250000D01*
X191500000Y-62250000D02*
X192500000Y-63250000D01*
X193500000Y-71000000D02*
X194101000Y-70399000D01*
%TO.N,/TIM1_CH2*%
X247880000Y-34960000D02*
X247880000Y-39145000D01*
X250000000Y-32840000D02*
X247880000Y-34960000D01*
D53*
X186750000Y-51884200D02*
X186750000Y-55837500D01*
X197780000Y-49280000D02*
X189354200Y-49280000D01*
X243500000Y-43525000D02*
X243500000Y-45500000D01*
X199500000Y-51000000D02*
X197780000Y-49280000D01*
X238000000Y-51000000D02*
X199500000Y-51000000D01*
X189354200Y-49280000D02*
X186750000Y-51884200D01*
X243500000Y-45500000D02*
X238000000Y-51000000D01*
D49*
X247880000Y-39145000D02*
X243500000Y-43525000D01*
D53*
%TO.N,/TIM1_CH4*%
X185750000Y-51400000D02*
X185750000Y-55837500D01*
D49*
X210197500Y-36260000D02*
X208600000Y-36260000D01*
D53*
X200890000Y-36260000D02*
X185750000Y-51400000D01*
X208600000Y-36260000D02*
X200890000Y-36260000D01*
D49*
X214120000Y-32337500D02*
X210197500Y-36260000D01*
%TO.N,/TIM2_CH2*%
X203285200Y-92151000D02*
X205500000Y-89936200D01*
X226265000Y-88765000D02*
X226265000Y-93000000D01*
X200583900Y-92151000D02*
X203285200Y-92151000D01*
X226500000Y-86725000D02*
X226275000Y-86500000D01*
X209651000Y-85349000D02*
X225124000Y-85349000D01*
X205500000Y-89936200D02*
X205500000Y-89500000D01*
X205500000Y-89500000D02*
X209651000Y-85349000D01*
X188750000Y-64162500D02*
X188750000Y-65250000D01*
X225124000Y-85349000D02*
X226275000Y-86500000D01*
X186500000Y-78067100D02*
X200583900Y-92151000D01*
X226275000Y-88755000D02*
X226275000Y-86500000D01*
X226265000Y-88765000D02*
X226275000Y-88755000D01*
X186500000Y-67500000D02*
X186500000Y-78067100D01*
X188750000Y-65250000D02*
X186500000Y-67500000D01*
%TO.N,/GPIO_breakout3*%
X178802000Y-51342000D02*
X178802000Y-57802000D01*
X176000000Y-48540000D02*
X178802000Y-51342000D01*
X178802000Y-57802000D02*
X180250000Y-59250000D01*
X180250000Y-59250000D02*
X182337500Y-59250000D01*
%TO.N,/GPIO_breakout2*%
X179817100Y-59750000D02*
X178401000Y-58333900D01*
X178401000Y-58333900D02*
X178401000Y-53481000D01*
X182337500Y-59750000D02*
X179817100Y-59750000D01*
X178401000Y-53481000D02*
X176000000Y-51080000D01*
%TO.N,/GPIO_breakout1*%
X179750000Y-60250000D02*
X182337500Y-60250000D01*
X178000000Y-55620000D02*
X178000000Y-58500000D01*
X178000000Y-58500000D02*
X179750000Y-60250000D01*
X176000000Y-53620000D02*
X178000000Y-55620000D01*
%TO.N,/GPIO_breakout5*%
X180750000Y-58250000D02*
X182337500Y-58250000D01*
X179604000Y-47064000D02*
X179604000Y-57104000D01*
X176000000Y-43460000D02*
X179604000Y-47064000D01*
X179604000Y-57104000D02*
X180750000Y-58250000D01*
%TO.N,/GPIO_breakout4*%
X182337500Y-58750000D02*
X180317100Y-58750000D01*
X179203000Y-57635900D02*
X179203000Y-49203000D01*
X179203000Y-49203000D02*
X176000000Y-46000000D01*
X180317100Y-58750000D02*
X179203000Y-57635900D01*
D47*
%TO.N,Net-(JP1-B)*%
X236090000Y-52590000D02*
X229570000Y-52590000D01*
X228660000Y-53500000D02*
X228660000Y-59278900D01*
X228660000Y-59278900D02*
X231881100Y-62500000D01*
X229570000Y-52590000D02*
X228660000Y-53500000D01*
D49*
%TO.N,Net-(U4-PB14)*%
X190316176Y-53000000D02*
X190612500Y-53000000D01*
X188250000Y-55066176D02*
X190316176Y-53000000D01*
X188250000Y-55837500D02*
X188250000Y-55066176D01*
%TO.N,Net-(U4-PB15)*%
X187750000Y-55837500D02*
X187750000Y-54382899D01*
X187750000Y-54382899D02*
X190907699Y-51225200D01*
%TO.N,Net-(U1-TRIM)*%
X201266100Y-59825000D02*
X203941100Y-62500000D01*
X198500000Y-59825000D02*
X201266100Y-59825000D01*
D53*
%TO.N,/TIM1_CH3*%
X207774952Y-48510000D02*
X207867552Y-48602600D01*
X225990000Y-48510000D02*
X232275000Y-42225000D01*
X232275000Y-42225000D02*
X232275000Y-38400000D01*
X189330000Y-48510000D02*
X207774952Y-48510000D01*
D49*
X232275000Y-38400000D02*
X232275000Y-33835000D01*
D53*
X207867552Y-48602600D02*
X208532448Y-48602600D01*
X208532448Y-48602600D02*
X208625048Y-48510000D01*
X186250000Y-55837500D02*
X186250000Y-51590000D01*
D49*
X232275000Y-33835000D02*
X230640000Y-32200000D01*
D53*
X186250000Y-51590000D02*
X189330000Y-48510000D01*
X208625048Y-48510000D02*
X225990000Y-48510000D01*
D49*
%TO.N,/TIM2_CH3*%
X243275000Y-86500000D02*
X243275000Y-92385000D01*
X188609601Y-70201130D02*
X188609601Y-79609601D01*
X205099000Y-89770100D02*
X205099000Y-89333900D01*
X242775000Y-87000000D02*
X243275000Y-86500000D01*
X200750000Y-91750000D02*
X203119100Y-91750000D01*
X209484900Y-84948000D02*
X229448000Y-84948000D01*
X239607240Y-87000000D02*
X240258240Y-87651000D01*
X241862760Y-87000000D02*
X242775000Y-87000000D01*
X231500000Y-87000000D02*
X239607240Y-87000000D01*
X240258240Y-87651000D02*
X241211760Y-87651000D01*
X189250000Y-69560731D02*
X188609601Y-70201130D01*
X243275000Y-92385000D02*
X242660000Y-93000000D01*
X229448000Y-84948000D02*
X231500000Y-87000000D01*
X205099000Y-89333900D02*
X209484900Y-84948000D01*
X188609601Y-79609601D02*
X200750000Y-91750000D01*
X241211760Y-87651000D02*
X241862760Y-87000000D01*
X189250000Y-64162500D02*
X189250000Y-69560731D01*
X203119100Y-91750000D02*
X205099000Y-89770100D01*
D53*
%TO.N,Net-(U4-PF0)*%
X185750000Y-65099943D02*
X181829943Y-69020000D01*
X185750000Y-64162500D02*
X185750000Y-65099943D01*
X181829943Y-69020000D02*
X178105000Y-69020000D01*
X176350000Y-70775000D02*
X176350000Y-71500000D01*
X178105000Y-69020000D02*
X176350000Y-70775000D01*
D49*
%TO.N,/GPIO_breakout6*%
X180817100Y-57750000D02*
X180005000Y-56937900D01*
X180005000Y-44925000D02*
X176000000Y-40920000D01*
X180005000Y-56937900D02*
X180005000Y-44925000D01*
X182337500Y-57750000D02*
X180817100Y-57750000D01*
D47*
%TO.N,/I2C1_SDA*%
X166500000Y-71060000D02*
X166680000Y-70880000D01*
D49*
X177250000Y-61750000D02*
X176500000Y-62500000D01*
X166680000Y-70880000D02*
X166680000Y-70050603D01*
X182337500Y-61750000D02*
X177250000Y-61750000D01*
D47*
X166500000Y-73587500D02*
X166500000Y-71060000D01*
D49*
%TO.N,/SALERT*%
X200500000Y-67500000D02*
X200000000Y-67000000D01*
X190662500Y-60250000D02*
X195750000Y-60250000D01*
X203250000Y-77500000D02*
X200500000Y-74750000D01*
X200500000Y-74750000D02*
X200500000Y-67500000D01*
X210250000Y-77500000D02*
X203250000Y-77500000D01*
X200000000Y-67000000D02*
X198650000Y-67000000D01*
X197000000Y-65350000D02*
X197000000Y-60512500D01*
X195750000Y-60250000D02*
X196200000Y-59800000D01*
X198650000Y-67000000D02*
X197000000Y-65350000D01*
X197000000Y-60512500D02*
X196287500Y-59800000D01*
X196287500Y-59800000D02*
X196200000Y-59800000D01*
D47*
%TO.N,6V_GND*%
X211780000Y-81190000D02*
X214934100Y-81190000D01*
X214934100Y-81190000D02*
X215064100Y-81060000D01*
X231294100Y-81760000D02*
X228340000Y-81760000D01*
X208400000Y-30200000D02*
X208400000Y-33400000D01*
X223225578Y-47070000D02*
X223350000Y-47070000D01*
D50*
X207390000Y-75270000D02*
X205712500Y-75270000D01*
D47*
X200000000Y-63275000D02*
X200000000Y-61250000D01*
D50*
X205712500Y-75270000D02*
X205692500Y-75250000D01*
D47*
X198500000Y-58000000D02*
X200000000Y-58000000D01*
X221480000Y-45324422D02*
X223225578Y-47070000D01*
X221420000Y-44891800D02*
X221480000Y-44831800D01*
X221480000Y-44831800D02*
X221480000Y-45324422D01*
X212050000Y-90000000D02*
X212050000Y-88300000D01*
D51*
X208200000Y-41757600D02*
X208200000Y-43800000D01*
%TD*%
M02*
