%TF.GenerationSoftware,KiCad,Pcbnew,9.0.4*%
%TF.CreationDate,2026-01-09T15:46:24-05:00*%
%TF.ProjectId,x18-tool-board,7831382d-746f-46f6-9c2d-626f6172642e,rev?*%
%TF.SameCoordinates,Original*%
%TF.FileFunction,Soldermask,Top*%
%TF.FilePolarity,Negative*%
%FSLAX46Y46*%
G04 Gerber Fmt 4.6, Leading zero omitted, Abs format (unit mm)*
G04 Created by KiCad (PCBNEW 9.0.4) date 2026-01-09 15:46:24*
%MOMM*%
%LPD*%
G01*
G04 APERTURE LIST*
G04 Aperture macros list*
%AMRoundRect*
0 Rectangle with rounded corners*
0 $1 Rounding radius*
0 $2 $3 $4 $5 $6 $7 $8 $9 X,Y pos of 4 corners*
0 Add a 4 corners polygon primitive as box body*
4,1,4,$2,$3,$4,$5,$6,$7,$8,$9,$2,$3,0*
0 Add four circle primitives for the rounded corners*
1,1,$1+$1,$2,$3*
1,1,$1+$1,$4,$5*
1,1,$1+$1,$6,$7*
1,1,$1+$1,$8,$9*
0 Add four rect primitives between the rounded corners*
20,1,$1+$1,$2,$3,$4,$5,0*
20,1,$1+$1,$4,$5,$6,$7,0*
20,1,$1+$1,$6,$7,$8,$9,0*
20,1,$1+$1,$8,$9,$2,$3,0*%
G04 Aperture macros list end*
%ADD10RoundRect,0.237500X-0.237500X0.250000X-0.237500X-0.250000X0.237500X-0.250000X0.237500X0.250000X0*%
%ADD11C,4.000000*%
%ADD12RoundRect,0.237500X0.237500X-0.250000X0.237500X0.250000X-0.237500X0.250000X-0.237500X-0.250000X0*%
%ADD13RoundRect,0.102000X-0.975000X-0.975000X0.975000X-0.975000X0.975000X0.975000X-0.975000X0.975000X0*%
%ADD14C,2.154000*%
%ADD15RoundRect,0.237500X-0.250000X-0.237500X0.250000X-0.237500X0.250000X0.237500X-0.250000X0.237500X0*%
%ADD16RoundRect,0.237500X-0.237500X0.300000X-0.237500X-0.300000X0.237500X-0.300000X0.237500X0.300000X0*%
%ADD17RoundRect,0.237500X0.250000X0.237500X-0.250000X0.237500X-0.250000X-0.237500X0.250000X-0.237500X0*%
%ADD18R,1.700000X1.700000*%
%ADD19C,1.700000*%
%ADD20RoundRect,0.102000X0.975000X0.975000X-0.975000X0.975000X-0.975000X-0.975000X0.975000X-0.975000X0*%
%ADD21R,2.921000X1.320800*%
%ADD22RoundRect,0.102000X0.975000X-0.975000X0.975000X0.975000X-0.975000X0.975000X-0.975000X-0.975000X0*%
%ADD23R,2.449195X2.179396*%
%ADD24RoundRect,0.237500X-0.300000X-0.237500X0.300000X-0.237500X0.300000X0.237500X-0.300000X0.237500X0*%
%ADD25R,2.209800X1.041400*%
%ADD26RoundRect,0.237500X0.300000X0.237500X-0.300000X0.237500X-0.300000X-0.237500X0.300000X-0.237500X0*%
%ADD27R,1.000000X1.500000*%
%ADD28RoundRect,0.250000X-0.325000X-0.450000X0.325000X-0.450000X0.325000X0.450000X-0.325000X0.450000X0*%
%ADD29R,1.320800X2.921000*%
%ADD30RoundRect,0.075000X0.075000X-0.662500X0.075000X0.662500X-0.075000X0.662500X-0.075000X-0.662500X0*%
%ADD31RoundRect,0.075000X0.662500X-0.075000X0.662500X0.075000X-0.662500X0.075000X-0.662500X-0.075000X0*%
%ADD32C,1.066800*%
%ADD33C,1.574800*%
%ADD34RoundRect,0.250000X0.325000X0.450000X-0.325000X0.450000X-0.325000X-0.450000X0.325000X-0.450000X0*%
%ADD35RoundRect,0.250000X-0.450000X0.350000X-0.450000X-0.350000X0.450000X-0.350000X0.450000X0.350000X0*%
%ADD36RoundRect,0.237500X0.237500X-0.300000X0.237500X0.300000X-0.237500X0.300000X-0.237500X-0.300000X0*%
%ADD37C,1.778000*%
%ADD38C,2.336800*%
%ADD39C,1.854000*%
%ADD40RoundRect,0.112500X0.112500X0.237500X-0.112500X0.237500X-0.112500X-0.237500X0.112500X-0.237500X0*%
%ADD41RoundRect,0.102000X-1.050000X1.050000X-1.050000X-1.050000X1.050000X-1.050000X1.050000X1.050000X0*%
%ADD42C,2.304000*%
G04 APERTURE END LIST*
%TO.C,JP1*%
G36*
X236890000Y-53340000D02*
G01*
X236590000Y-53340000D01*
X236590000Y-51840000D01*
X236890000Y-51840000D01*
X236890000Y-53340000D01*
G37*
%TD*%
D10*
%TO.C,R8*%
X166500000Y-73587500D03*
X166500000Y-75412500D03*
%TD*%
D11*
%TO.C,TP5*%
X167000000Y-82000000D03*
%TD*%
D10*
%TO.C,R7*%
X172000000Y-73587500D03*
X172000000Y-75412500D03*
%TD*%
D12*
%TO.C,R3*%
X198500000Y-59825000D03*
X198500000Y-58000000D03*
%TD*%
D13*
%TO.C,Servo5*%
X216105000Y-93000000D03*
D14*
X221185000Y-93000000D03*
X226265000Y-93000000D03*
%TD*%
D15*
%TO.C,R5*%
X172537500Y-89000000D03*
X174362500Y-89000000D03*
%TD*%
D16*
%TO.C,C8*%
X179500000Y-71500000D03*
X179500000Y-73225000D03*
%TD*%
D17*
%TO.C,R6*%
X182412500Y-77000000D03*
X180587500Y-77000000D03*
%TD*%
D18*
%TO.C,J11*%
X208600000Y-36260000D03*
D19*
X208600000Y-38800000D03*
%TD*%
D18*
%TO.C,J14*%
X243275000Y-86500000D03*
D19*
X240735000Y-86500000D03*
%TD*%
D20*
%TO.C,Servo3*%
X240800000Y-32200000D03*
D14*
X235720000Y-32200000D03*
X230640000Y-32200000D03*
%TD*%
D21*
%TO.C,C7*%
X220575900Y-81060000D03*
X215064100Y-81060000D03*
%TD*%
D16*
%TO.C,C11*%
X179000000Y-64137500D03*
X179000000Y-65862500D03*
%TD*%
%TO.C,C14*%
X192550000Y-56750000D03*
X192550000Y-58475000D03*
%TD*%
D22*
%TO.C,Servo2*%
X250000000Y-43000000D03*
D14*
X250000000Y-37920000D03*
X250000000Y-32840000D03*
%TD*%
D23*
%TO.C,C1*%
X237480000Y-68386494D03*
X237480000Y-62813506D03*
%TD*%
D24*
%TO.C,C5*%
X203967500Y-75250000D03*
X205692500Y-75250000D03*
%TD*%
D11*
%TO.C,TP2*%
X167500000Y-94500000D03*
%TD*%
D25*
%TO.C,SW2*%
X185349500Y-80000000D03*
X180650500Y-80000000D03*
%TD*%
D26*
%TO.C,C12*%
X182662500Y-66400000D03*
X180937500Y-66400000D03*
%TD*%
D18*
%TO.C,J2*%
X171500000Y-29920000D03*
D19*
X171500000Y-32460000D03*
X171500000Y-35000000D03*
X171500000Y-37540000D03*
X171500000Y-40080000D03*
%TD*%
D20*
%TO.C,Servo4*%
X224280000Y-32337500D03*
D14*
X219200000Y-32337500D03*
X214120000Y-32337500D03*
%TD*%
D27*
%TO.C,JP1*%
X237390000Y-52590000D03*
X236090000Y-52590000D03*
%TD*%
D28*
%TO.C,D4*%
X168450000Y-89000000D03*
X170500000Y-89000000D03*
%TD*%
D18*
%TO.C,J15*%
X176000000Y-40920000D03*
D19*
X176000000Y-43460000D03*
X176000000Y-46000000D03*
X176000000Y-48540000D03*
X176000000Y-51080000D03*
X176000000Y-53620000D03*
X176000000Y-56160000D03*
%TD*%
D18*
%TO.C,J6*%
X202000000Y-90000000D03*
D19*
X202000000Y-87460000D03*
X202000000Y-84920000D03*
X202000000Y-82380000D03*
X202000000Y-79840000D03*
%TD*%
D18*
%TO.C,J12*%
X226275000Y-86500000D03*
D19*
X223735000Y-86500000D03*
%TD*%
D29*
%TO.C,C4*%
X221480000Y-39320000D03*
X221480000Y-44831800D03*
%TD*%
D18*
%TO.C,J1*%
X176500000Y-59960000D03*
D19*
X176500000Y-62500000D03*
X176500000Y-65040000D03*
%TD*%
D18*
%TO.C,J8*%
X243500000Y-43525000D03*
D19*
X243500000Y-40985000D03*
%TD*%
D22*
%TO.C,Servo1*%
X250000000Y-92080000D03*
D14*
X250000000Y-87000000D03*
X250000000Y-81920000D03*
%TD*%
D16*
%TO.C,C13*%
X194100000Y-56800000D03*
X194100000Y-58525000D03*
%TD*%
D30*
%TO.C,U4*%
X183750000Y-64162500D03*
X184250000Y-64162500D03*
X184750000Y-64162500D03*
X185250000Y-64162500D03*
X185750000Y-64162500D03*
X186250000Y-64162500D03*
X186750000Y-64162500D03*
X187250000Y-64162500D03*
X187750000Y-64162500D03*
X188250000Y-64162500D03*
X188750000Y-64162500D03*
X189250000Y-64162500D03*
D31*
X190662500Y-62750000D03*
X190662500Y-62250000D03*
X190662500Y-61750000D03*
X190662500Y-61250000D03*
X190662500Y-60750000D03*
X190662500Y-60250000D03*
X190662500Y-59750000D03*
X190662500Y-59250000D03*
X190662500Y-58750000D03*
X190662500Y-58250000D03*
X190662500Y-57750000D03*
X190662500Y-57250000D03*
D30*
X189250000Y-55837500D03*
X188750000Y-55837500D03*
X188250000Y-55837500D03*
X187750000Y-55837500D03*
X187250000Y-55837500D03*
X186750000Y-55837500D03*
X186250000Y-55837500D03*
X185750000Y-55837500D03*
X185250000Y-55837500D03*
X184750000Y-55837500D03*
X184250000Y-55837500D03*
X183750000Y-55837500D03*
D31*
X182337500Y-57250000D03*
X182337500Y-57750000D03*
X182337500Y-58250000D03*
X182337500Y-58750000D03*
X182337500Y-59250000D03*
X182337500Y-59750000D03*
X182337500Y-60250000D03*
X182337500Y-60750000D03*
X182337500Y-61250000D03*
X182337500Y-61750000D03*
X182337500Y-62250000D03*
X182337500Y-62750000D03*
%TD*%
D32*
%TO.C,J13*%
X187500002Y-70059999D03*
X199499998Y-70059999D03*
D33*
X196499999Y-73999999D03*
X193500000Y-73999999D03*
X190500001Y-73999999D03*
X196499999Y-71000000D03*
X193500000Y-71000000D03*
X190500001Y-71000000D03*
%TD*%
D21*
%TO.C,C18*%
X236805900Y-81760000D03*
X231294100Y-81760000D03*
%TD*%
D34*
%TO.C,D1*%
X212050000Y-90000000D03*
X210000000Y-90000000D03*
%TD*%
D11*
%TO.C,TP1*%
X208400000Y-30200000D03*
%TD*%
D34*
%TO.C,D2*%
X196722500Y-53220000D03*
X194672500Y-53220000D03*
%TD*%
D17*
%TO.C,R2*%
X192732699Y-51225200D03*
X190907699Y-51225200D03*
%TD*%
D35*
%TO.C,R10*%
X208200000Y-43800000D03*
X208200000Y-45800000D03*
%TD*%
D36*
%TO.C,C15*%
X181900000Y-51102500D03*
X181900000Y-49377500D03*
%TD*%
D24*
%TO.C,C9*%
X180637500Y-75500000D03*
X182362500Y-75500000D03*
%TD*%
%TO.C,C17*%
X183550000Y-71500000D03*
X185275000Y-71500000D03*
%TD*%
D37*
%TO.C,U1*%
X231881100Y-70120000D03*
X231881100Y-62500000D03*
X231881100Y-54880000D03*
D38*
X203941100Y-54880000D03*
D37*
X203941100Y-62500000D03*
X203941100Y-66310000D03*
D38*
X203941100Y-70120000D03*
%TD*%
D18*
%TO.C,J3*%
X242000000Y-78725000D03*
D19*
X242000000Y-81265000D03*
%TD*%
D36*
%TO.C,C10*%
X183750000Y-51115000D03*
X183750000Y-49390000D03*
%TD*%
D39*
%TO.C,J4*%
X183920000Y-34040000D03*
X183920000Y-31500000D03*
X186460000Y-34040000D03*
X186460000Y-31500000D03*
X189000000Y-34040000D03*
X189000000Y-31500000D03*
X191540000Y-34040000D03*
X191540000Y-31500000D03*
X194080000Y-34040000D03*
X194080000Y-31500000D03*
%TD*%
D12*
%TO.C,R9*%
X196200000Y-59800000D03*
X196200000Y-57975000D03*
%TD*%
D36*
%TO.C,C6*%
X200000000Y-65000000D03*
X200000000Y-63275000D03*
%TD*%
D40*
%TO.C,Y1*%
X177650000Y-71500000D03*
X176350000Y-71500000D03*
X177000000Y-73500000D03*
%TD*%
D17*
%TO.C,R1*%
X192437500Y-53000000D03*
X190612500Y-53000000D03*
%TD*%
D18*
%TO.C,J10*%
X232275000Y-38400000D03*
D19*
X229735000Y-38400000D03*
%TD*%
D34*
%TO.C,D3*%
X196700000Y-51000000D03*
X194650000Y-51000000D03*
%TD*%
D17*
%TO.C,R4*%
X208375000Y-89960000D03*
X206550000Y-89960000D03*
%TD*%
D11*
%TO.C,TP4*%
X208500000Y-94000000D03*
%TD*%
D24*
%TO.C,C16*%
X183637500Y-70000000D03*
X185362500Y-70000000D03*
%TD*%
D13*
%TO.C,Servo6*%
X232500000Y-93000000D03*
D14*
X237580000Y-93000000D03*
X242660000Y-93000000D03*
%TD*%
D41*
%TO.C,J9*%
X172320000Y-54120000D03*
D42*
X172320000Y-58310000D03*
X172320000Y-62500000D03*
X172320000Y-66690000D03*
X172320000Y-70880000D03*
X166680000Y-54120000D03*
X166680000Y-58310000D03*
X166680000Y-62500000D03*
X166680000Y-66690000D03*
X166680000Y-70880000D03*
%TD*%
D41*
%TO.C,J7*%
X252320000Y-54120000D03*
D42*
X252320000Y-58310000D03*
X252320000Y-62500000D03*
X252320000Y-66690000D03*
X252320000Y-70880000D03*
X246680000Y-54120000D03*
X246680000Y-58310000D03*
X246680000Y-62500000D03*
X246680000Y-66690000D03*
X246680000Y-70880000D03*
%TD*%
M02*
