%TF.GenerationSoftware,KiCad,Pcbnew,9.0.4*%
%TF.CreationDate,2026-01-09T15:46:23-05:00*%
%TF.ProjectId,x18-tool-board,7831382d-746f-46f6-9c2d-626f6172642e,rev?*%
%TF.SameCoordinates,Original*%
%TF.FileFunction,Copper,L4,Bot*%
%TF.FilePolarity,Positive*%
%FSLAX46Y46*%
G04 Gerber Fmt 4.6, Leading zero omitted, Abs format (unit mm)*
G04 Created by KiCad (PCBNEW 9.0.4) date 2026-01-09 15:46:23*
%MOMM*%
%LPD*%
G01*
G04 APERTURE LIST*
G04 Aperture macros list*
%AMRoundRect*
0 Rectangle with rounded corners*
0 $1 Rounding radius*
0 $2 $3 $4 $5 $6 $7 $8 $9 X,Y pos of 4 corners*
0 Add a 4 corners polygon primitive as box body*
4,1,4,$2,$3,$4,$5,$6,$7,$8,$9,$2,$3,0*
0 Add four circle primitives for the rounded corners*
1,1,$1+$1,$2,$3*
1,1,$1+$1,$4,$5*
1,1,$1+$1,$6,$7*
1,1,$1+$1,$8,$9*
0 Add four rect primitives between the rounded corners*
20,1,$1+$1,$2,$3,$4,$5,0*
20,1,$1+$1,$4,$5,$6,$7,0*
20,1,$1+$1,$6,$7,$8,$9,0*
20,1,$1+$1,$8,$9,$2,$3,0*%
G04 Aperture macros list end*
%TA.AperFunction,ComponentPad*%
%ADD10R,1.950000X1.950000*%
%TD*%
%TA.AperFunction,ComponentPad*%
%ADD11C,1.950000*%
%TD*%
%TA.AperFunction,ComponentPad*%
%ADD12R,1.700000X1.700000*%
%TD*%
%TA.AperFunction,ComponentPad*%
%ADD13C,1.700000*%
%TD*%
%TA.AperFunction,ComponentPad*%
%ADD14C,1.574800*%
%TD*%
%TA.AperFunction,ComponentPad*%
%ADD15C,1.778000*%
%TD*%
%TA.AperFunction,ComponentPad*%
%ADD16C,2.336800*%
%TD*%
%TA.AperFunction,ComponentPad*%
%ADD17C,1.650000*%
%TD*%
%TA.AperFunction,ComponentPad*%
%ADD18R,2.100000X2.100000*%
%TD*%
%TA.AperFunction,ComponentPad*%
%ADD19C,2.100000*%
%TD*%
%TA.AperFunction,SMDPad,CuDef*%
%ADD20R,1.761200X0.850800*%
%TD*%
%TA.AperFunction,SMDPad,CuDef*%
%ADD21R,1.761200X3.150799*%
%TD*%
%TA.AperFunction,SMDPad,CuDef*%
%ADD22RoundRect,0.237500X-0.237500X0.300000X-0.237500X-0.300000X0.237500X-0.300000X0.237500X0.300000X0*%
%TD*%
%TA.AperFunction,SMDPad,CuDef*%
%ADD23RoundRect,0.237500X0.237500X-0.300000X0.237500X0.300000X-0.237500X0.300000X-0.237500X-0.300000X0*%
%TD*%
%TA.AperFunction,ViaPad*%
%ADD24C,0.500000*%
%TD*%
%TA.AperFunction,ViaPad*%
%ADD25C,0.600000*%
%TD*%
%TA.AperFunction,ViaPad*%
%ADD26C,1.000000*%
%TD*%
%TA.AperFunction,ViaPad*%
%ADD27C,1.200000*%
%TD*%
%TA.AperFunction,ViaPad*%
%ADD28C,2.000000*%
%TD*%
%TA.AperFunction,Conductor*%
%ADD29C,1.000000*%
%TD*%
%TA.AperFunction,Conductor*%
%ADD30C,0.200000*%
%TD*%
G04 APERTURE END LIST*
D10*
%TO.P,Servo5,1,Pin_1*%
%TO.N,+6V*%
X216105000Y-93000000D03*
D11*
%TO.P,Servo5,2,Pin_2*%
%TO.N,6V_GND*%
X221185000Y-93000000D03*
%TO.P,Servo5,3,Pin_3*%
%TO.N,/TIM2_CH2*%
X226265000Y-93000000D03*
%TD*%
D12*
%TO.P,J11,1,Pin_1*%
%TO.N,/TIM1_CH4*%
X208600000Y-36260000D03*
D13*
%TO.P,J11,2,Pin_2*%
%TO.N,6V_GND*%
X208600000Y-38800000D03*
%TD*%
D12*
%TO.P,J14,1,Pin_1*%
%TO.N,/TIM2_CH3*%
X243275000Y-86500000D03*
D13*
%TO.P,J14,2,Pin_2*%
%TO.N,6V_GND*%
X240735000Y-86500000D03*
%TD*%
D10*
%TO.P,Servo3,1,Pin_1*%
%TO.N,+6V*%
X240800000Y-32200000D03*
D11*
%TO.P,Servo3,2,Pin_2*%
%TO.N,6V_GND*%
X235720000Y-32200000D03*
%TO.P,Servo3,3,Pin_3*%
%TO.N,/TIM1_CH3*%
X230640000Y-32200000D03*
%TD*%
D10*
%TO.P,Servo2,1,Pin_1*%
%TO.N,+6V*%
X250000000Y-43000000D03*
D11*
%TO.P,Servo2,2,Pin_2*%
%TO.N,6V_GND*%
X250000000Y-37920000D03*
%TO.P,Servo2,3,Pin_3*%
%TO.N,/TIM1_CH2*%
X250000000Y-32840000D03*
%TD*%
D12*
%TO.P,J2,1,Pin_1*%
%TO.N,+3.3V*%
X171500000Y-29920000D03*
D13*
%TO.P,J2,2,Pin_2*%
%TO.N,/SYS_SWCLK*%
X171500000Y-32460000D03*
%TO.P,J2,3,Pin_3*%
%TO.N,GND*%
X171500000Y-35000000D03*
%TO.P,J2,4,Pin_4*%
%TO.N,/SYS_SWDIO*%
X171500000Y-37540000D03*
%TO.P,J2,5,Pin_5*%
%TO.N,/RST*%
X171500000Y-40080000D03*
%TD*%
D10*
%TO.P,Servo4,1,Pin_1*%
%TO.N,+6V*%
X224280000Y-32337500D03*
D11*
%TO.P,Servo4,2,Pin_2*%
%TO.N,6V_GND*%
X219200000Y-32337500D03*
%TO.P,Servo4,3,Pin_3*%
%TO.N,/TIM1_CH4*%
X214120000Y-32337500D03*
%TD*%
D12*
%TO.P,J15,1,Pin_1*%
%TO.N,/GPIO_breakout6*%
X176000000Y-40920000D03*
D13*
%TO.P,J15,2,Pin_2*%
%TO.N,/GPIO_breakout5*%
X176000000Y-43460000D03*
%TO.P,J15,3,Pin_3*%
%TO.N,/GPIO_breakout4*%
X176000000Y-46000000D03*
%TO.P,J15,4,Pin_4*%
%TO.N,/GPIO_breakout3*%
X176000000Y-48540000D03*
%TO.P,J15,5,Pin_5*%
%TO.N,/GPIO_breakout2*%
X176000000Y-51080000D03*
%TO.P,J15,6,Pin_6*%
%TO.N,/GPIO_breakout1*%
X176000000Y-53620000D03*
%TO.P,J15,7,Pin_7*%
%TO.N,GND*%
X176000000Y-56160000D03*
%TD*%
D12*
%TO.P,J6,1,Pin_1*%
%TO.N,/CS_TOOLS_BOARD*%
X202000000Y-90000000D03*
D13*
%TO.P,J6,2,Pin_2*%
%TO.N,/SPI1_SCK*%
X202000000Y-87460000D03*
%TO.P,J6,3,Pin_3*%
%TO.N,/SPI1_MISO*%
X202000000Y-84920000D03*
%TO.P,J6,4,Pin_4*%
%TO.N,/SPI1_MOSI*%
X202000000Y-82380000D03*
%TO.P,J6,5,Pin_5*%
%TO.N,GND*%
X202000000Y-79840000D03*
%TD*%
D12*
%TO.P,J12,1,Pin_1*%
%TO.N,/TIM2_CH2*%
X226275000Y-86500000D03*
D13*
%TO.P,J12,2,Pin_2*%
%TO.N,6V_GND*%
X223735000Y-86500000D03*
%TD*%
D12*
%TO.P,J1,1,Pin_1*%
%TO.N,/I2C1_SCL*%
X176500000Y-59960000D03*
D13*
%TO.P,J1,2,Pin_2*%
%TO.N,/I2C1_SDA*%
X176500000Y-62500000D03*
%TO.P,J1,3,Pin_3*%
%TO.N,GND*%
X176500000Y-65040000D03*
%TD*%
D12*
%TO.P,J8,1,Pin_1*%
%TO.N,/TIM1_CH2*%
X243500000Y-43525000D03*
D13*
%TO.P,J8,2,Pin_2*%
%TO.N,6V_GND*%
X243500000Y-40985000D03*
%TD*%
D10*
%TO.P,Servo1,1,Pin_1*%
%TO.N,+6V*%
X250000000Y-92080000D03*
D11*
%TO.P,Servo1,2,Pin_2*%
%TO.N,6V_GND*%
X250000000Y-87000000D03*
%TO.P,Servo1,3,Pin_3*%
%TO.N,/TIM1_CH1*%
X250000000Y-81920000D03*
%TD*%
D14*
%TO.P,J13,1,1*%
%TO.N,unconnected-(J13-Pad1)*%
X196499999Y-73999999D03*
%TO.P,J13,2,2*%
%TO.N,/RST*%
X193500000Y-73999999D03*
%TO.P,J13,3,3*%
%TO.N,/SPI1_MISO*%
X190500001Y-73999999D03*
%TO.P,J13,4,4*%
%TO.N,/SPI1_MOSI*%
X196499999Y-71000000D03*
%TO.P,J13,5,5*%
%TO.N,/CS_TOOLS_BOARD*%
X193500000Y-71000000D03*
%TO.P,J13,6,6*%
%TO.N,/SPI1_SCK*%
X190500001Y-71000000D03*
%TD*%
D15*
%TO.P,U1,1,VIN(+)*%
%TO.N,+12V*%
X231881100Y-70120000D03*
%TO.P,U1,2,ON/OFF*%
%TO.N,Net-(JP1-B)*%
X231881100Y-62500000D03*
%TO.P,U1,3,VIN(-)/GND*%
%TO.N,GND*%
X231881100Y-54880000D03*
D16*
%TO.P,U1,4,VOUT(-)/GND*%
%TO.N,6V_GND*%
X203941100Y-54880000D03*
D15*
%TO.P,U1,6,TRIM*%
%TO.N,Net-(U1-TRIM)*%
X203941100Y-62500000D03*
%TO.P,U1,7,SENSE+*%
%TO.N,+6V*%
X203941100Y-66310000D03*
D16*
%TO.P,U1,8,VOUT(+)*%
X203941100Y-70120000D03*
%TD*%
D12*
%TO.P,J3,1,Pin_1*%
%TO.N,/TIM1_CH1*%
X242000000Y-78725000D03*
D13*
%TO.P,J3,2,Pin_2*%
%TO.N,6V_GND*%
X242000000Y-81265000D03*
%TD*%
D17*
%TO.P,J4,1*%
%TO.N,/RST*%
X183920000Y-34040000D03*
%TO.P,J4,2*%
%TO.N,/SYS_SWCLK*%
X183920000Y-31500000D03*
%TO.P,J4,3*%
%TO.N,unconnected-(J4-Pad3)*%
X186460000Y-34040000D03*
%TO.P,J4,4*%
%TO.N,/SYS_SWDIO*%
X186460000Y-31500000D03*
%TO.P,J4,5*%
%TO.N,GND*%
X189000000Y-34040000D03*
%TO.P,J4,6*%
X189000000Y-31500000D03*
%TO.P,J4,7*%
%TO.N,+3.3V*%
X191540000Y-34040000D03*
%TO.P,J4,8*%
X191540000Y-31500000D03*
%TO.P,J4,9*%
%TO.N,unconnected-(J4-Pad9)*%
X194080000Y-34040000D03*
%TO.P,J4,10*%
%TO.N,unconnected-(J4-Pad10)*%
X194080000Y-31500000D03*
%TD*%
D12*
%TO.P,J10,1,Pin_1*%
%TO.N,/TIM1_CH3*%
X232275000Y-38400000D03*
D13*
%TO.P,J10,2,Pin_2*%
%TO.N,6V_GND*%
X229735000Y-38400000D03*
%TD*%
D10*
%TO.P,Servo6,1,Pin_1*%
%TO.N,+6V*%
X232500000Y-93000000D03*
D11*
%TO.P,Servo6,2,Pin_2*%
%TO.N,6V_GND*%
X237580000Y-93000000D03*
%TO.P,Servo6,3,Pin_3*%
%TO.N,/TIM2_CH3*%
X242660000Y-93000000D03*
%TD*%
D18*
%TO.P,J9,01,01*%
%TO.N,GND*%
X172320000Y-54120000D03*
D19*
%TO.P,J9,02,02*%
X172320000Y-58310000D03*
%TO.P,J9,03,03*%
X172320000Y-62500000D03*
%TO.P,J9,04,04*%
X172320000Y-66690000D03*
%TO.P,J9,05,05*%
%TO.N,/I2C1_SCL*%
X172320000Y-70880000D03*
%TO.P,J9,06,06*%
%TO.N,+5V*%
X166680000Y-54120000D03*
%TO.P,J9,07,07*%
X166680000Y-58310000D03*
%TO.P,J9,08,08*%
X166680000Y-62500000D03*
%TO.P,J9,09,09*%
X166680000Y-66690000D03*
%TO.P,J9,10,10*%
%TO.N,/I2C1_SDA*%
X166680000Y-70880000D03*
%TD*%
D18*
%TO.P,J7,01,01*%
%TO.N,GND*%
X252320000Y-54120000D03*
D19*
%TO.P,J7,02,02*%
X252320000Y-58310000D03*
%TO.P,J7,03,03*%
X252320000Y-62500000D03*
%TO.P,J7,04,04*%
X252320000Y-66690000D03*
%TO.P,J7,05,05*%
X252320000Y-70880000D03*
%TO.P,J7,06,06*%
%TO.N,+12V*%
X246680000Y-54120000D03*
%TO.P,J7,07,07*%
X246680000Y-58310000D03*
%TO.P,J7,08,08*%
X246680000Y-62500000D03*
%TO.P,J7,09,09*%
X246680000Y-66690000D03*
%TO.P,J7,10,10*%
%TO.N,/SALERT*%
X246680000Y-70880000D03*
%TD*%
D20*
%TO.P,U2,1,ADJ/GND*%
%TO.N,GND*%
X180007550Y-88800000D03*
%TO.P,U2,2,OUT*%
%TO.N,+3.3V*%
X180007550Y-86500000D03*
%TO.P,U2,3,IN*%
%TO.N,+5V*%
X180007550Y-84200000D03*
D21*
%TO.P,U2,4,OUT*%
%TO.N,+3.3V*%
X186057550Y-86500000D03*
%TD*%
D22*
%TO.P,C2,1*%
%TO.N,+5V*%
X176250000Y-84137500D03*
%TO.P,C2,2*%
%TO.N,GND*%
X176250000Y-85862500D03*
%TD*%
D23*
%TO.P,C3,1*%
%TO.N,+3.3V*%
X176230000Y-89745000D03*
%TO.P,C3,2*%
%TO.N,GND*%
X176230000Y-88020000D03*
%TD*%
D24*
%TO.N,GND*%
X185600000Y-72800000D03*
D25*
X184650000Y-58000000D03*
X187250000Y-61000000D03*
D26*
X181900000Y-47490000D03*
X179000000Y-67410000D03*
D27*
X179500000Y-74250000D03*
D26*
X187809314Y-81440686D03*
D25*
X195000000Y-59600000D03*
X239010000Y-52590000D03*
D26*
X180937500Y-67882500D03*
X208200000Y-47800000D03*
X183750000Y-47752500D03*
X196760000Y-54900000D03*
D25*
X167000000Y-85500000D03*
X184450000Y-60750000D03*
D26*
X184000000Y-75500000D03*
D25*
X166250000Y-89000000D03*
D27*
X177000000Y-75250000D03*
D25*
X184200000Y-61600000D03*
X187500000Y-57750000D03*
D28*
%TO.N,+6V*%
X223930000Y-81080000D03*
D27*
X206550000Y-91450000D03*
D26*
X212000000Y-94000000D03*
D28*
X221540000Y-36310000D03*
X239280000Y-83420000D03*
D26*
%TO.N,+3.3V*%
X184040000Y-77010000D03*
X171750000Y-94500000D03*
X181900000Y-53262500D03*
X166500000Y-76500000D03*
D27*
X172000000Y-76500000D03*
X195800000Y-56600000D03*
D26*
X181200000Y-64400000D03*
X174362500Y-90362500D03*
D25*
X179000000Y-70000000D03*
D27*
X180500000Y-71500000D03*
D26*
X176230000Y-91245000D03*
D27*
X184000000Y-73200000D03*
X177830000Y-86882500D03*
D25*
%TO.N,/RST*%
X185250000Y-67000000D03*
%TO.N,/CS_TOOLS_BOARD*%
X192500000Y-63500000D03*
X194101000Y-65250000D03*
%TO.N,/SALERT*%
X210250000Y-77500000D03*
X243890000Y-73670000D03*
D28*
%TO.N,6V_GND*%
X228340000Y-81760000D03*
X211780000Y-81190000D03*
D26*
X200000000Y-58000000D03*
D27*
X212050000Y-88300000D03*
D28*
X223350000Y-47070000D03*
D27*
X208400000Y-33400000D03*
D26*
X207390000Y-75270000D03*
X208200000Y-41757600D03*
X200000000Y-61250000D03*
%TD*%
D29*
%TO.N,GND*%
X176230000Y-85882500D02*
X176250000Y-85862500D01*
X176230000Y-88020000D02*
X176230000Y-85882500D01*
%TO.N,+3.3V*%
X176230000Y-89745000D02*
X176230000Y-91245000D01*
X180007550Y-86500000D02*
X178100000Y-86500000D01*
X180007550Y-86500000D02*
X186057550Y-86500000D01*
D30*
%TO.N,/RST*%
X193500000Y-73999999D02*
X192524999Y-73999999D01*
X185250000Y-69250000D02*
X185250000Y-67000000D01*
X191025000Y-72500000D02*
X188500000Y-72500000D01*
X172580000Y-39000000D02*
X171500000Y-40080000D01*
X185250000Y-45500000D02*
X178750000Y-39000000D01*
X178750000Y-39000000D02*
X172580000Y-39000000D01*
X188500000Y-72500000D02*
X185250000Y-69250000D01*
D29*
X177540000Y-34040000D02*
X171500000Y-40080000D01*
X183920000Y-34040000D02*
X177540000Y-34040000D01*
D30*
X185250000Y-67000000D02*
X185250000Y-45500000D01*
X192524999Y-73999999D02*
X191025000Y-72500000D01*
D29*
%TO.N,+5V*%
X176312500Y-84200000D02*
X176250000Y-84137500D01*
X166680000Y-58310000D02*
X166680000Y-54120000D01*
X176250000Y-84137500D02*
X175637500Y-84137500D01*
X175637500Y-84137500D02*
X170000000Y-78500000D01*
X166680000Y-66690000D02*
X166680000Y-62500000D01*
X166680000Y-62500000D02*
X166680000Y-58310000D01*
X180007550Y-84200000D02*
X176312500Y-84200000D01*
X170000000Y-70010000D02*
X166680000Y-66690000D01*
X170000000Y-78500000D02*
X170000000Y-70010000D01*
D30*
%TO.N,/CS_TOOLS_BOARD*%
X192500000Y-63500000D02*
X192500000Y-64750000D01*
X195000000Y-84000000D02*
X201000000Y-90000000D01*
X192500000Y-64750000D02*
X193000000Y-65250000D01*
X195000000Y-72500000D02*
X195000000Y-84000000D01*
X201000000Y-90000000D02*
X202000000Y-90000000D01*
X193500000Y-71000000D02*
X195000000Y-72500000D01*
X193000000Y-65250000D02*
X194101000Y-65250000D01*
%TO.N,/SALERT*%
X210820000Y-78070000D02*
X239490000Y-78070000D01*
X239490000Y-78070000D02*
X243890000Y-73670000D01*
X210250000Y-77500000D02*
X210820000Y-78070000D01*
%TD*%
%TA.AperFunction,Conductor*%
%TO.N,GND*%
G36*
X253942539Y-28020185D02*
G01*
X253988294Y-28072989D01*
X253999500Y-28124500D01*
X253999500Y-96875500D01*
X253979815Y-96942539D01*
X253927011Y-96988294D01*
X253875500Y-96999500D01*
X165124500Y-96999500D01*
X165057461Y-96979815D01*
X165011706Y-96927011D01*
X165000500Y-96875500D01*
X165000500Y-94598543D01*
X170749499Y-94598543D01*
X170787947Y-94791829D01*
X170787950Y-94791839D01*
X170863364Y-94973907D01*
X170863371Y-94973920D01*
X170972860Y-95137781D01*
X170972863Y-95137785D01*
X171112214Y-95277136D01*
X171112218Y-95277139D01*
X171276079Y-95386628D01*
X171276092Y-95386635D01*
X171458160Y-95462049D01*
X171458165Y-95462051D01*
X171458169Y-95462051D01*
X171458170Y-95462052D01*
X171651456Y-95500500D01*
X171651459Y-95500500D01*
X171848543Y-95500500D01*
X171978582Y-95474632D01*
X172041835Y-95462051D01*
X172223914Y-95386632D01*
X172387782Y-95277139D01*
X172527139Y-95137782D01*
X172636632Y-94973914D01*
X172712051Y-94791835D01*
X172742694Y-94637785D01*
X172750500Y-94598543D01*
X172750500Y-94401456D01*
X172712052Y-94208170D01*
X172712051Y-94208169D01*
X172712051Y-94208165D01*
X172677788Y-94125446D01*
X172666645Y-94098543D01*
X210999499Y-94098543D01*
X211037947Y-94291829D01*
X211037950Y-94291839D01*
X211113364Y-94473907D01*
X211113371Y-94473920D01*
X211222860Y-94637781D01*
X211222863Y-94637785D01*
X211362214Y-94777136D01*
X211362218Y-94777139D01*
X211526079Y-94886628D01*
X211526092Y-94886635D01*
X211708160Y-94962049D01*
X211708165Y-94962051D01*
X211708169Y-94962051D01*
X211708170Y-94962052D01*
X211901456Y-95000500D01*
X211901459Y-95000500D01*
X212098543Y-95000500D01*
X212232196Y-94973914D01*
X212291835Y-94962051D01*
X212473914Y-94886632D01*
X212637782Y-94777139D01*
X212777139Y-94637782D01*
X212886632Y-94473914D01*
X212962051Y-94291835D01*
X212995148Y-94125449D01*
X213000500Y-94098543D01*
X213000500Y-93901456D01*
X212962052Y-93708170D01*
X212962051Y-93708169D01*
X212962051Y-93708165D01*
X212962049Y-93708160D01*
X212886635Y-93526092D01*
X212886628Y-93526079D01*
X212777139Y-93362218D01*
X212777136Y-93362214D01*
X212637785Y-93222863D01*
X212637781Y-93222860D01*
X212473920Y-93113371D01*
X212473907Y-93113364D01*
X212291839Y-93037950D01*
X212291829Y-93037947D01*
X212098543Y-92999500D01*
X212098541Y-92999500D01*
X211901459Y-92999500D01*
X211901457Y-92999500D01*
X211708170Y-93037947D01*
X211708160Y-93037950D01*
X211526092Y-93113364D01*
X211526079Y-93113371D01*
X211362218Y-93222860D01*
X211362214Y-93222863D01*
X211222863Y-93362214D01*
X211222860Y-93362218D01*
X211113371Y-93526079D01*
X211113364Y-93526092D01*
X211037950Y-93708160D01*
X211037947Y-93708170D01*
X210999500Y-93901456D01*
X210999500Y-93901459D01*
X210999500Y-94098541D01*
X210999500Y-94098543D01*
X210999499Y-94098543D01*
X172666645Y-94098543D01*
X172636635Y-94026092D01*
X172636633Y-94026088D01*
X172636632Y-94026086D01*
X172553357Y-93901456D01*
X172527139Y-93862217D01*
X172387785Y-93722863D01*
X172387781Y-93722860D01*
X172223920Y-93613371D01*
X172223907Y-93613364D01*
X172041839Y-93537950D01*
X172041829Y-93537947D01*
X171848543Y-93499500D01*
X171848541Y-93499500D01*
X171651459Y-93499500D01*
X171651457Y-93499500D01*
X171458170Y-93537947D01*
X171458160Y-93537950D01*
X171276092Y-93613364D01*
X171276079Y-93613371D01*
X171112218Y-93722860D01*
X171112214Y-93722863D01*
X170972863Y-93862214D01*
X170972860Y-93862218D01*
X170863371Y-94026079D01*
X170863364Y-94026092D01*
X170787950Y-94208160D01*
X170787947Y-94208170D01*
X170749500Y-94401456D01*
X170749500Y-94401459D01*
X170749500Y-94598541D01*
X170749500Y-94598543D01*
X170749499Y-94598543D01*
X165000500Y-94598543D01*
X165000500Y-90461043D01*
X173361999Y-90461043D01*
X173400447Y-90654329D01*
X173400450Y-90654339D01*
X173475864Y-90836407D01*
X173475871Y-90836420D01*
X173585360Y-91000281D01*
X173585363Y-91000285D01*
X173724714Y-91139636D01*
X173724718Y-91139639D01*
X173888579Y-91249128D01*
X173888592Y-91249135D01*
X174070660Y-91324549D01*
X174070665Y-91324551D01*
X174070669Y-91324551D01*
X174070670Y-91324552D01*
X174263956Y-91363000D01*
X174263959Y-91363000D01*
X174461043Y-91363000D01*
X174591082Y-91337132D01*
X174654335Y-91324551D01*
X174836414Y-91249132D01*
X175000282Y-91139639D01*
X175004447Y-91135474D01*
X175017819Y-91122103D01*
X175079142Y-91088618D01*
X175148834Y-91093602D01*
X175204767Y-91135474D01*
X175229184Y-91200938D01*
X175229500Y-91209784D01*
X175229500Y-91343541D01*
X175229500Y-91343543D01*
X175229499Y-91343543D01*
X175267947Y-91536829D01*
X175267950Y-91536839D01*
X175343364Y-91718907D01*
X175343371Y-91718920D01*
X175452860Y-91882781D01*
X175452863Y-91882785D01*
X175592214Y-92022136D01*
X175592218Y-92022139D01*
X175756079Y-92131628D01*
X175756092Y-92131635D01*
X175938160Y-92207049D01*
X175938165Y-92207051D01*
X175938169Y-92207051D01*
X175938170Y-92207052D01*
X176131456Y-92245500D01*
X176131459Y-92245500D01*
X176328543Y-92245500D01*
X176458582Y-92219632D01*
X176521835Y-92207051D01*
X176703914Y-92131632D01*
X176867782Y-92022139D01*
X177007139Y-91882782D01*
X177116632Y-91718914D01*
X177192051Y-91536835D01*
X177226552Y-91363389D01*
X205449500Y-91363389D01*
X205449500Y-91536611D01*
X205449536Y-91536839D01*
X205470223Y-91667455D01*
X205476598Y-91707701D01*
X205530127Y-91872445D01*
X205608768Y-92026788D01*
X205710586Y-92166928D01*
X205833072Y-92289414D01*
X205973212Y-92391232D01*
X206127555Y-92469873D01*
X206292299Y-92523402D01*
X206463389Y-92550500D01*
X206463390Y-92550500D01*
X206636610Y-92550500D01*
X206636611Y-92550500D01*
X206807701Y-92523402D01*
X206972445Y-92469873D01*
X207126788Y-92391232D01*
X207266928Y-92289414D01*
X207389414Y-92166928D01*
X207491232Y-92026788D01*
X207516531Y-91977135D01*
X214629500Y-91977135D01*
X214629500Y-94022870D01*
X214629501Y-94022876D01*
X214635908Y-94082483D01*
X214686202Y-94217328D01*
X214686206Y-94217335D01*
X214772452Y-94332544D01*
X214772455Y-94332547D01*
X214887664Y-94418793D01*
X214887671Y-94418797D01*
X215022517Y-94469091D01*
X215022516Y-94469091D01*
X215029444Y-94469835D01*
X215082127Y-94475500D01*
X217127872Y-94475499D01*
X217187483Y-94469091D01*
X217322331Y-94418796D01*
X217437546Y-94332546D01*
X217523796Y-94217331D01*
X217574091Y-94082483D01*
X217580500Y-94022873D01*
X217580499Y-92883870D01*
X219709500Y-92883870D01*
X219709500Y-93116129D01*
X219745831Y-93345514D01*
X219817601Y-93566400D01*
X219897323Y-93722861D01*
X219923039Y-93773331D01*
X220059551Y-93961224D01*
X220223776Y-94125449D01*
X220411669Y-94261961D01*
X220470288Y-94291829D01*
X220618599Y-94367398D01*
X220618601Y-94367398D01*
X220618604Y-94367400D01*
X220839486Y-94439169D01*
X220957668Y-94457886D01*
X221068871Y-94475500D01*
X221068876Y-94475500D01*
X221301129Y-94475500D01*
X221402502Y-94459443D01*
X221530514Y-94439169D01*
X221751396Y-94367400D01*
X221958331Y-94261961D01*
X222146224Y-94125449D01*
X222310449Y-93961224D01*
X222446961Y-93773331D01*
X222552400Y-93566396D01*
X222624169Y-93345514D01*
X222653158Y-93162482D01*
X222660500Y-93116129D01*
X222660500Y-92883870D01*
X224789500Y-92883870D01*
X224789500Y-93116129D01*
X224825831Y-93345514D01*
X224897601Y-93566400D01*
X224977323Y-93722861D01*
X225003039Y-93773331D01*
X225139551Y-93961224D01*
X225303776Y-94125449D01*
X225491669Y-94261961D01*
X225550288Y-94291829D01*
X225698599Y-94367398D01*
X225698601Y-94367398D01*
X225698604Y-94367400D01*
X225919486Y-94439169D01*
X226037668Y-94457886D01*
X226148871Y-94475500D01*
X226148876Y-94475500D01*
X226381129Y-94475500D01*
X226482502Y-94459443D01*
X226610514Y-94439169D01*
X226831396Y-94367400D01*
X227038331Y-94261961D01*
X227226224Y-94125449D01*
X227390449Y-93961224D01*
X227526961Y-93773331D01*
X227632400Y-93566396D01*
X227704169Y-93345514D01*
X227733158Y-93162482D01*
X227740500Y-93116129D01*
X227740500Y-92883870D01*
X227721232Y-92762222D01*
X227704169Y-92654486D01*
X227632400Y-92433604D01*
X227632398Y-92433601D01*
X227632398Y-92433599D01*
X227558931Y-92289414D01*
X227526961Y-92226669D01*
X227390449Y-92038776D01*
X227328808Y-91977135D01*
X231024500Y-91977135D01*
X231024500Y-94022870D01*
X231024501Y-94022876D01*
X231030908Y-94082483D01*
X231081202Y-94217328D01*
X231081206Y-94217335D01*
X231167452Y-94332544D01*
X231167455Y-94332547D01*
X231282664Y-94418793D01*
X231282671Y-94418797D01*
X231417517Y-94469091D01*
X231417516Y-94469091D01*
X231424444Y-94469835D01*
X231477127Y-94475500D01*
X233522872Y-94475499D01*
X233582483Y-94469091D01*
X233717331Y-94418796D01*
X233832546Y-94332546D01*
X233918796Y-94217331D01*
X233969091Y-94082483D01*
X233975500Y-94022873D01*
X233975499Y-92883870D01*
X236104500Y-92883870D01*
X236104500Y-93116129D01*
X236140831Y-93345514D01*
X236212601Y-93566400D01*
X236292323Y-93722861D01*
X236318039Y-93773331D01*
X236454551Y-93961224D01*
X236618776Y-94125449D01*
X236806669Y-94261961D01*
X236865288Y-94291829D01*
X237013599Y-94367398D01*
X237013601Y-94367398D01*
X237013604Y-94367400D01*
X237234486Y-94439169D01*
X237352668Y-94457886D01*
X237463871Y-94475500D01*
X237463876Y-94475500D01*
X237696129Y-94475500D01*
X237797502Y-94459443D01*
X237925514Y-94439169D01*
X238146396Y-94367400D01*
X238353331Y-94261961D01*
X238541224Y-94125449D01*
X238705449Y-93961224D01*
X238841961Y-93773331D01*
X238947400Y-93566396D01*
X239019169Y-93345514D01*
X239048158Y-93162482D01*
X239055500Y-93116129D01*
X239055500Y-92883870D01*
X241184500Y-92883870D01*
X241184500Y-93116129D01*
X241220831Y-93345514D01*
X241292601Y-93566400D01*
X241372323Y-93722861D01*
X241398039Y-93773331D01*
X241534551Y-93961224D01*
X241698776Y-94125449D01*
X241886669Y-94261961D01*
X241945288Y-94291829D01*
X242093599Y-94367398D01*
X242093601Y-94367398D01*
X242093604Y-94367400D01*
X242314486Y-94439169D01*
X242432668Y-94457886D01*
X242543871Y-94475500D01*
X242543876Y-94475500D01*
X242776129Y-94475500D01*
X242877502Y-94459443D01*
X243005514Y-94439169D01*
X243226396Y-94367400D01*
X243433331Y-94261961D01*
X243621224Y-94125449D01*
X243785449Y-93961224D01*
X243921961Y-93773331D01*
X244027400Y-93566396D01*
X244099169Y-93345514D01*
X244128158Y-93162482D01*
X244135500Y-93116129D01*
X244135500Y-92883870D01*
X244116232Y-92762222D01*
X244099169Y-92654486D01*
X244027400Y-92433604D01*
X244027398Y-92433601D01*
X244027398Y-92433599D01*
X243921960Y-92226668D01*
X243907708Y-92207052D01*
X243785449Y-92038776D01*
X243621224Y-91874551D01*
X243433331Y-91738039D01*
X243395808Y-91718920D01*
X243226400Y-91632601D01*
X243005514Y-91560831D01*
X242776129Y-91524500D01*
X242776124Y-91524500D01*
X242543876Y-91524500D01*
X242543871Y-91524500D01*
X242314485Y-91560831D01*
X242093599Y-91632601D01*
X241886668Y-91738039D01*
X241698773Y-91874553D01*
X241534553Y-92038773D01*
X241398039Y-92226668D01*
X241292601Y-92433599D01*
X241220831Y-92654485D01*
X241184500Y-92883870D01*
X239055500Y-92883870D01*
X239036232Y-92762222D01*
X239019169Y-92654486D01*
X238947400Y-92433604D01*
X238947398Y-92433601D01*
X238947398Y-92433599D01*
X238841960Y-92226668D01*
X238827708Y-92207052D01*
X238705449Y-92038776D01*
X238541224Y-91874551D01*
X238353331Y-91738039D01*
X238315808Y-91718920D01*
X238146400Y-91632601D01*
X237925514Y-91560831D01*
X237696129Y-91524500D01*
X237696124Y-91524500D01*
X237463876Y-91524500D01*
X237463871Y-91524500D01*
X237234485Y-91560831D01*
X237013599Y-91632601D01*
X236806668Y-91738039D01*
X236618773Y-91874553D01*
X236454553Y-92038773D01*
X236318039Y-92226668D01*
X236212601Y-92433599D01*
X236140831Y-92654485D01*
X236104500Y-92883870D01*
X233975499Y-92883870D01*
X233975499Y-91977128D01*
X233969091Y-91917517D01*
X233956135Y-91882781D01*
X233918797Y-91782671D01*
X233918793Y-91782664D01*
X233832547Y-91667455D01*
X233832544Y-91667452D01*
X233717335Y-91581206D01*
X233717328Y-91581202D01*
X233582482Y-91530908D01*
X233582483Y-91530908D01*
X233522883Y-91524501D01*
X233522881Y-91524500D01*
X233522873Y-91524500D01*
X233522864Y-91524500D01*
X231477129Y-91524500D01*
X231477123Y-91524501D01*
X231417516Y-91530908D01*
X231282671Y-91581202D01*
X231282664Y-91581206D01*
X231167455Y-91667452D01*
X231167452Y-91667455D01*
X231081206Y-91782664D01*
X231081202Y-91782671D01*
X231030908Y-91917517D01*
X231024501Y-91977116D01*
X231024501Y-91977123D01*
X231024500Y-91977135D01*
X227328808Y-91977135D01*
X227226224Y-91874551D01*
X227038331Y-91738039D01*
X227000808Y-91718920D01*
X226831400Y-91632601D01*
X226610514Y-91560831D01*
X226381129Y-91524500D01*
X226381124Y-91524500D01*
X226148876Y-91524500D01*
X226148871Y-91524500D01*
X225919485Y-91560831D01*
X225698599Y-91632601D01*
X225491668Y-91738039D01*
X225303773Y-91874553D01*
X225139553Y-92038773D01*
X225003039Y-92226668D01*
X224897601Y-92433599D01*
X224825831Y-92654485D01*
X224789500Y-92883870D01*
X222660500Y-92883870D01*
X222641232Y-92762222D01*
X222624169Y-92654486D01*
X222552400Y-92433604D01*
X222552398Y-92433601D01*
X222552398Y-92433599D01*
X222446960Y-92226668D01*
X222432708Y-92207052D01*
X222310449Y-92038776D01*
X222146224Y-91874551D01*
X221958331Y-91738039D01*
X221920808Y-91718920D01*
X221751400Y-91632601D01*
X221530514Y-91560831D01*
X221301129Y-91524500D01*
X221301124Y-91524500D01*
X221068876Y-91524500D01*
X221068871Y-91524500D01*
X220839485Y-91560831D01*
X220618599Y-91632601D01*
X220411668Y-91738039D01*
X220223773Y-91874553D01*
X220059553Y-92038773D01*
X219923039Y-92226668D01*
X219817601Y-92433599D01*
X219745831Y-92654485D01*
X219709500Y-92883870D01*
X217580499Y-92883870D01*
X217580499Y-91977128D01*
X217574091Y-91917517D01*
X217561135Y-91882781D01*
X217523797Y-91782671D01*
X217523793Y-91782664D01*
X217437547Y-91667455D01*
X217437544Y-91667452D01*
X217322335Y-91581206D01*
X217322328Y-91581202D01*
X217187482Y-91530908D01*
X217187483Y-91530908D01*
X217127883Y-91524501D01*
X217127881Y-91524500D01*
X217127873Y-91524500D01*
X217127864Y-91524500D01*
X215082129Y-91524500D01*
X215082123Y-91524501D01*
X215022516Y-91530908D01*
X214887671Y-91581202D01*
X214887664Y-91581206D01*
X214772455Y-91667452D01*
X214772452Y-91667455D01*
X214686206Y-91782664D01*
X214686202Y-91782671D01*
X214635908Y-91917517D01*
X214629501Y-91977116D01*
X214629501Y-91977123D01*
X214629500Y-91977135D01*
X207516531Y-91977135D01*
X207569873Y-91872445D01*
X207623402Y-91707701D01*
X207650500Y-91536611D01*
X207650500Y-91363389D01*
X207623402Y-91192299D01*
X207591333Y-91093602D01*
X207590853Y-91092124D01*
X207579484Y-91057135D01*
X248524500Y-91057135D01*
X248524500Y-93102870D01*
X248524501Y-93102876D01*
X248530908Y-93162483D01*
X248581202Y-93297328D01*
X248581206Y-93297335D01*
X248667452Y-93412544D01*
X248667455Y-93412547D01*
X248782664Y-93498793D01*
X248782671Y-93498797D01*
X248917517Y-93549091D01*
X248917516Y-93549091D01*
X248924444Y-93549835D01*
X248977127Y-93555500D01*
X251022872Y-93555499D01*
X251082483Y-93549091D01*
X251217331Y-93498796D01*
X251332546Y-93412546D01*
X251418796Y-93297331D01*
X251469091Y-93162483D01*
X251475500Y-93102873D01*
X251475499Y-91057128D01*
X251469091Y-90997517D01*
X251454159Y-90957483D01*
X251418797Y-90862671D01*
X251418793Y-90862664D01*
X251332547Y-90747455D01*
X251332544Y-90747452D01*
X251217335Y-90661206D01*
X251217328Y-90661202D01*
X251082482Y-90610908D01*
X251082483Y-90610908D01*
X251022883Y-90604501D01*
X251022881Y-90604500D01*
X251022873Y-90604500D01*
X251022864Y-90604500D01*
X248977129Y-90604500D01*
X248977123Y-90604501D01*
X248917516Y-90610908D01*
X248782671Y-90661202D01*
X248782664Y-90661206D01*
X248667455Y-90747452D01*
X248667452Y-90747455D01*
X248581206Y-90862664D01*
X248581202Y-90862671D01*
X248530908Y-90997517D01*
X248527679Y-91027555D01*
X248524501Y-91057123D01*
X248524500Y-91057135D01*
X207579484Y-91057135D01*
X207579482Y-91057128D01*
X207569873Y-91027555D01*
X207569871Y-91027552D01*
X207569871Y-91027550D01*
X207503797Y-90897873D01*
X207491232Y-90873212D01*
X207389414Y-90733072D01*
X207266928Y-90610586D01*
X207126788Y-90508768D01*
X206972445Y-90430127D01*
X206807701Y-90376598D01*
X206807699Y-90376597D01*
X206807698Y-90376597D01*
X206676271Y-90355781D01*
X206636611Y-90349500D01*
X206463389Y-90349500D01*
X206423728Y-90355781D01*
X206292302Y-90376597D01*
X206127552Y-90430128D01*
X205973211Y-90508768D01*
X205952606Y-90523739D01*
X205833072Y-90610586D01*
X205833070Y-90610588D01*
X205833069Y-90610588D01*
X205710588Y-90733069D01*
X205710588Y-90733070D01*
X205710586Y-90733072D01*
X205666859Y-90793256D01*
X205608768Y-90873211D01*
X205530128Y-91027552D01*
X205476597Y-91192302D01*
X205451542Y-91350498D01*
X205449500Y-91363389D01*
X177226552Y-91363389D01*
X177230500Y-91343543D01*
X177230500Y-89646456D01*
X177207882Y-89532752D01*
X177205499Y-89508560D01*
X177205499Y-89395830D01*
X177205498Y-89395813D01*
X177195174Y-89294747D01*
X177140908Y-89130984D01*
X177050340Y-88984150D01*
X176928350Y-88862160D01*
X176815339Y-88792454D01*
X176781518Y-88771593D01*
X176781513Y-88771591D01*
X176780069Y-88771112D01*
X176617753Y-88717326D01*
X176617751Y-88717325D01*
X176516678Y-88707000D01*
X175943330Y-88707000D01*
X175943312Y-88707001D01*
X175842247Y-88717325D01*
X175678484Y-88771592D01*
X175678481Y-88771593D01*
X175531648Y-88862161D01*
X175409661Y-88984148D01*
X175319093Y-89130981D01*
X175319091Y-89130986D01*
X175291719Y-89213588D01*
X175264826Y-89294747D01*
X175264826Y-89294748D01*
X175264825Y-89294748D01*
X175254500Y-89395815D01*
X175254500Y-89508564D01*
X175252117Y-89532758D01*
X175246865Y-89559158D01*
X175214478Y-89621069D01*
X175153761Y-89655641D01*
X175083992Y-89651900D01*
X175037567Y-89622645D01*
X175000285Y-89585363D01*
X175000281Y-89585360D01*
X174836420Y-89475871D01*
X174836407Y-89475864D01*
X174654339Y-89400450D01*
X174654329Y-89400447D01*
X174461043Y-89362000D01*
X174461041Y-89362000D01*
X174263959Y-89362000D01*
X174263957Y-89362000D01*
X174070670Y-89400447D01*
X174070660Y-89400450D01*
X173888592Y-89475864D01*
X173888579Y-89475871D01*
X173724718Y-89585360D01*
X173724714Y-89585363D01*
X173585363Y-89724714D01*
X173585360Y-89724718D01*
X173475871Y-89888579D01*
X173475864Y-89888592D01*
X173400450Y-90070660D01*
X173400447Y-90070670D01*
X173362000Y-90263956D01*
X173362000Y-90263959D01*
X173362000Y-90461041D01*
X173362000Y-90461043D01*
X173361999Y-90461043D01*
X165000500Y-90461043D01*
X165000500Y-86795889D01*
X176729500Y-86795889D01*
X176729500Y-86969110D01*
X176752784Y-87116124D01*
X176756598Y-87140201D01*
X176810127Y-87304945D01*
X176888768Y-87459288D01*
X176990586Y-87599428D01*
X177113072Y-87721914D01*
X177253212Y-87823732D01*
X177407555Y-87902373D01*
X177572299Y-87955902D01*
X177743389Y-87983000D01*
X177743390Y-87983000D01*
X177916610Y-87983000D01*
X177916611Y-87983000D01*
X178087701Y-87955902D01*
X178252445Y-87902373D01*
X178406788Y-87823732D01*
X178546928Y-87721914D01*
X178669414Y-87599428D01*
X178689363Y-87571969D01*
X178704154Y-87551614D01*
X178759484Y-87508948D01*
X178804471Y-87500500D01*
X179909009Y-87500500D01*
X184552451Y-87500500D01*
X184619490Y-87520185D01*
X184665245Y-87572989D01*
X184676451Y-87624500D01*
X184676451Y-88123276D01*
X184682858Y-88182883D01*
X184733152Y-88317728D01*
X184733156Y-88317735D01*
X184819402Y-88432944D01*
X184819405Y-88432947D01*
X184934614Y-88519193D01*
X184934621Y-88519197D01*
X185069467Y-88569491D01*
X185069466Y-88569491D01*
X185076394Y-88570235D01*
X185129077Y-88575900D01*
X186986022Y-88575899D01*
X187045633Y-88569491D01*
X187180481Y-88519196D01*
X187295696Y-88432946D01*
X187381946Y-88317731D01*
X187432241Y-88182883D01*
X187438650Y-88123273D01*
X187438649Y-84876728D01*
X187432241Y-84817117D01*
X187430971Y-84813713D01*
X187381947Y-84682271D01*
X187381943Y-84682264D01*
X187295697Y-84567055D01*
X187295694Y-84567052D01*
X187180485Y-84480806D01*
X187180478Y-84480802D01*
X187045632Y-84430508D01*
X187045633Y-84430508D01*
X186986033Y-84424101D01*
X186986031Y-84424100D01*
X186986023Y-84424100D01*
X186986014Y-84424100D01*
X185129079Y-84424100D01*
X185129073Y-84424101D01*
X185069466Y-84430508D01*
X184934621Y-84480802D01*
X184934614Y-84480806D01*
X184819405Y-84567052D01*
X184819402Y-84567055D01*
X184733156Y-84682264D01*
X184733152Y-84682271D01*
X184682858Y-84817117D01*
X184676451Y-84876716D01*
X184676451Y-84876723D01*
X184676450Y-84876735D01*
X184676450Y-85375500D01*
X184656765Y-85442539D01*
X184603961Y-85488294D01*
X184552450Y-85499500D01*
X178001457Y-85499500D01*
X177808170Y-85537947D01*
X177808160Y-85537950D01*
X177626092Y-85613364D01*
X177626079Y-85613371D01*
X177462219Y-85722859D01*
X177322858Y-85862221D01*
X177296702Y-85901365D01*
X177256427Y-85937186D01*
X177257368Y-85938721D01*
X177253214Y-85941266D01*
X177197716Y-85981588D01*
X177113072Y-86043086D01*
X177113070Y-86043088D01*
X177113069Y-86043088D01*
X176990588Y-86165569D01*
X176990588Y-86165570D01*
X176990586Y-86165572D01*
X176972838Y-86190000D01*
X176888768Y-86305711D01*
X176810128Y-86460052D01*
X176756597Y-86624802D01*
X176729500Y-86795889D01*
X165000500Y-86795889D01*
X165000500Y-76598543D01*
X165499499Y-76598543D01*
X165537947Y-76791829D01*
X165537950Y-76791839D01*
X165613364Y-76973907D01*
X165613371Y-76973920D01*
X165722860Y-77137781D01*
X165722863Y-77137785D01*
X165862214Y-77277136D01*
X165862218Y-77277139D01*
X166026079Y-77386628D01*
X166026092Y-77386635D01*
X166208160Y-77462049D01*
X166208165Y-77462051D01*
X166208169Y-77462051D01*
X166208170Y-77462052D01*
X166401456Y-77500500D01*
X166401459Y-77500500D01*
X166598543Y-77500500D01*
X166728582Y-77474632D01*
X166791835Y-77462051D01*
X166973914Y-77386632D01*
X167137782Y-77277139D01*
X167277139Y-77137782D01*
X167386632Y-76973914D01*
X167462051Y-76791835D01*
X167500500Y-76598541D01*
X167500500Y-76401459D01*
X167500500Y-76401456D01*
X167462052Y-76208170D01*
X167462051Y-76208169D01*
X167462051Y-76208165D01*
X167440707Y-76156635D01*
X167386635Y-76026092D01*
X167386628Y-76026079D01*
X167277139Y-75862218D01*
X167277136Y-75862214D01*
X167137785Y-75722863D01*
X167137781Y-75722860D01*
X166973920Y-75613371D01*
X166973907Y-75613364D01*
X166791839Y-75537950D01*
X166791829Y-75537947D01*
X166598543Y-75499500D01*
X166598541Y-75499500D01*
X166401459Y-75499500D01*
X166401457Y-75499500D01*
X166208170Y-75537947D01*
X166208160Y-75537950D01*
X166026092Y-75613364D01*
X166026079Y-75613371D01*
X165862218Y-75722860D01*
X165862214Y-75722863D01*
X165722863Y-75862214D01*
X165722860Y-75862218D01*
X165613371Y-76026079D01*
X165613364Y-76026092D01*
X165537950Y-76208160D01*
X165537947Y-76208170D01*
X165499500Y-76401456D01*
X165499500Y-76401459D01*
X165499500Y-76598541D01*
X165499500Y-76598543D01*
X165499499Y-76598543D01*
X165000500Y-76598543D01*
X165000500Y-71511455D01*
X165020185Y-71444416D01*
X165072989Y-71398661D01*
X165142147Y-71388717D01*
X165205703Y-71417742D01*
X165240901Y-71470830D01*
X165241235Y-71470692D01*
X165241942Y-71472401D01*
X165242430Y-71473136D01*
X165243096Y-71475185D01*
X165344911Y-71675009D01*
X165353896Y-71692642D01*
X165497339Y-71890076D01*
X165497343Y-71890081D01*
X165669918Y-72062656D01*
X165669923Y-72062660D01*
X165774109Y-72138355D01*
X165867361Y-72206106D01*
X166084815Y-72316904D01*
X166316924Y-72392321D01*
X166557973Y-72430500D01*
X166557974Y-72430500D01*
X166802026Y-72430500D01*
X166802027Y-72430500D01*
X167043076Y-72392321D01*
X167275185Y-72316904D01*
X167492639Y-72206106D01*
X167690083Y-72062655D01*
X167862655Y-71890083D01*
X168006106Y-71692639D01*
X168116904Y-71475185D01*
X168192321Y-71243076D01*
X168230500Y-71002027D01*
X168230500Y-70757973D01*
X168192321Y-70516924D01*
X168116904Y-70284815D01*
X168006106Y-70067361D01*
X167964899Y-70010644D01*
X167862660Y-69869923D01*
X167862656Y-69869918D01*
X167690081Y-69697343D01*
X167690076Y-69697339D01*
X167492642Y-69553896D01*
X167492641Y-69553895D01*
X167492639Y-69553894D01*
X167275185Y-69443096D01*
X167043076Y-69367679D01*
X167043074Y-69367678D01*
X167043072Y-69367678D01*
X166874769Y-69341021D01*
X166802027Y-69329500D01*
X166557973Y-69329500D01*
X166502093Y-69338350D01*
X166316927Y-69367678D01*
X166084812Y-69443097D01*
X165867357Y-69553896D01*
X165669923Y-69697339D01*
X165669918Y-69697343D01*
X165497343Y-69869918D01*
X165497339Y-69869923D01*
X165353896Y-70067357D01*
X165243096Y-70284813D01*
X165242430Y-70286865D01*
X165241965Y-70287544D01*
X165241235Y-70289308D01*
X165240864Y-70289154D01*
X165202991Y-70344540D01*
X165138631Y-70371736D01*
X165069785Y-70359820D01*
X165018311Y-70312574D01*
X165000500Y-70248544D01*
X165000500Y-67321455D01*
X165020185Y-67254416D01*
X165072989Y-67208661D01*
X165142147Y-67198717D01*
X165205703Y-67227742D01*
X165240901Y-67280830D01*
X165241235Y-67280692D01*
X165241942Y-67282401D01*
X165242430Y-67283136D01*
X165243096Y-67285185D01*
X165351736Y-67498404D01*
X165353896Y-67502642D01*
X165497339Y-67700076D01*
X165497343Y-67700081D01*
X165669918Y-67872656D01*
X165669923Y-67872660D01*
X165842136Y-67997779D01*
X165867361Y-68016106D01*
X166084815Y-68126904D01*
X166316924Y-68202321D01*
X166557973Y-68240500D01*
X166557974Y-68240500D01*
X166764218Y-68240500D01*
X166831257Y-68260185D01*
X166851899Y-68276819D01*
X168963181Y-70388101D01*
X168996666Y-70449424D01*
X168999500Y-70475782D01*
X168999500Y-78598540D01*
X168999499Y-78598543D01*
X169037947Y-78791829D01*
X169037950Y-78791839D01*
X169113364Y-78973907D01*
X169113371Y-78973920D01*
X169222860Y-79137781D01*
X169222863Y-79137785D01*
X169366537Y-79281459D01*
X169366559Y-79281479D01*
X174857235Y-84772155D01*
X174857264Y-84772186D01*
X174999714Y-84914636D01*
X174999718Y-84914639D01*
X175163579Y-85024128D01*
X175163586Y-85024132D01*
X175272381Y-85069196D01*
X175345664Y-85099551D01*
X175442312Y-85118775D01*
X175506190Y-85131481D01*
X175538958Y-85138000D01*
X175538959Y-85138000D01*
X175538960Y-85138000D01*
X175736040Y-85138000D01*
X175760232Y-85138000D01*
X175799235Y-85144293D01*
X175862247Y-85165174D01*
X175963323Y-85175500D01*
X176076061Y-85175499D01*
X176100254Y-85177882D01*
X176213957Y-85200500D01*
X176213959Y-85200500D01*
X180106093Y-85200500D01*
X180236132Y-85174632D01*
X180299385Y-85162051D01*
X180363875Y-85135337D01*
X180411328Y-85125899D01*
X180936021Y-85125899D01*
X180936022Y-85125899D01*
X180995633Y-85119491D01*
X181130481Y-85069196D01*
X181245696Y-84982946D01*
X181331946Y-84867731D01*
X181382241Y-84732883D01*
X181388650Y-84673273D01*
X181388649Y-83726728D01*
X181382241Y-83667117D01*
X181352542Y-83587491D01*
X181331947Y-83532271D01*
X181331943Y-83532264D01*
X181245697Y-83417055D01*
X181245694Y-83417052D01*
X181130485Y-83330806D01*
X181130478Y-83330802D01*
X180995632Y-83280508D01*
X180995633Y-83280508D01*
X180936033Y-83274101D01*
X180936031Y-83274100D01*
X180936023Y-83274100D01*
X180936015Y-83274100D01*
X180411326Y-83274100D01*
X180363874Y-83264661D01*
X180299385Y-83237949D01*
X180299379Y-83237947D01*
X180106093Y-83199500D01*
X180106091Y-83199500D01*
X176894087Y-83199500D01*
X176828990Y-83181038D01*
X176801516Y-83164092D01*
X176637753Y-83109826D01*
X176637751Y-83109825D01*
X176536684Y-83099500D01*
X176536677Y-83099500D01*
X176065782Y-83099500D01*
X175998743Y-83079815D01*
X175978101Y-83063181D01*
X171036819Y-78121899D01*
X171003334Y-78060576D01*
X171000500Y-78034218D01*
X171000500Y-77356204D01*
X171020185Y-77289165D01*
X171072989Y-77243410D01*
X171142147Y-77233466D01*
X171205703Y-77262491D01*
X171212181Y-77268523D01*
X171283072Y-77339414D01*
X171423212Y-77441232D01*
X171577555Y-77519873D01*
X171742299Y-77573402D01*
X171913389Y-77600500D01*
X171913390Y-77600500D01*
X172086610Y-77600500D01*
X172086611Y-77600500D01*
X172257701Y-77573402D01*
X172422445Y-77519873D01*
X172576788Y-77441232D01*
X172716928Y-77339414D01*
X172839414Y-77216928D01*
X172918161Y-77108543D01*
X183039499Y-77108543D01*
X183077947Y-77301829D01*
X183077950Y-77301839D01*
X183153364Y-77483907D01*
X183153371Y-77483920D01*
X183262860Y-77647781D01*
X183262863Y-77647785D01*
X183402214Y-77787136D01*
X183402218Y-77787139D01*
X183566079Y-77896628D01*
X183566092Y-77896635D01*
X183677819Y-77942913D01*
X183748165Y-77972051D01*
X183748169Y-77972051D01*
X183748170Y-77972052D01*
X183941456Y-78010500D01*
X183941459Y-78010500D01*
X184138543Y-78010500D01*
X184268582Y-77984632D01*
X184331835Y-77972051D01*
X184513914Y-77896632D01*
X184677782Y-77787139D01*
X184817139Y-77647782D01*
X184926632Y-77483914D01*
X184935688Y-77462052D01*
X184986485Y-77339414D01*
X185002051Y-77301835D01*
X185028415Y-77169297D01*
X185040500Y-77108543D01*
X185040500Y-76911456D01*
X185002052Y-76718170D01*
X185002051Y-76718169D01*
X185002051Y-76718165D01*
X184994320Y-76699500D01*
X184926635Y-76536092D01*
X184926628Y-76536079D01*
X184817139Y-76372218D01*
X184817136Y-76372214D01*
X184677785Y-76232863D01*
X184677781Y-76232860D01*
X184513920Y-76123371D01*
X184513907Y-76123364D01*
X184331839Y-76047950D01*
X184331829Y-76047947D01*
X184138543Y-76009500D01*
X184138541Y-76009500D01*
X183941459Y-76009500D01*
X183941457Y-76009500D01*
X183748170Y-76047947D01*
X183748160Y-76047950D01*
X183566092Y-76123364D01*
X183566079Y-76123371D01*
X183402218Y-76232860D01*
X183402214Y-76232863D01*
X183262863Y-76372214D01*
X183262860Y-76372218D01*
X183153371Y-76536079D01*
X183153364Y-76536092D01*
X183077950Y-76718160D01*
X183077947Y-76718170D01*
X183039500Y-76911456D01*
X183039500Y-76911459D01*
X183039500Y-77108541D01*
X183039500Y-77108543D01*
X183039499Y-77108543D01*
X172918161Y-77108543D01*
X172941232Y-77076788D01*
X173019873Y-76922445D01*
X173073402Y-76757701D01*
X173100500Y-76586611D01*
X173100500Y-76413389D01*
X173073402Y-76242299D01*
X173019873Y-76077555D01*
X172941232Y-75923212D01*
X172839414Y-75783072D01*
X172716928Y-75660586D01*
X172576788Y-75558768D01*
X172422445Y-75480127D01*
X172257701Y-75426598D01*
X172257699Y-75426597D01*
X172257698Y-75426597D01*
X172126271Y-75405781D01*
X172086611Y-75399500D01*
X171913389Y-75399500D01*
X171873728Y-75405781D01*
X171742302Y-75426597D01*
X171577552Y-75480128D01*
X171423211Y-75558768D01*
X171348067Y-75613364D01*
X171283072Y-75660586D01*
X171283070Y-75660588D01*
X171283069Y-75660588D01*
X171212181Y-75731477D01*
X171150858Y-75764962D01*
X171081166Y-75759978D01*
X171025233Y-75718106D01*
X171000816Y-75652642D01*
X171000500Y-75643796D01*
X171000500Y-73113389D01*
X182899500Y-73113389D01*
X182899500Y-73286611D01*
X182905579Y-73324990D01*
X182923241Y-73436510D01*
X182926598Y-73457701D01*
X182980127Y-73622445D01*
X183058768Y-73776788D01*
X183160586Y-73916928D01*
X183283072Y-74039414D01*
X183423212Y-74141232D01*
X183577555Y-74219873D01*
X183742299Y-74273402D01*
X183913389Y-74300500D01*
X183913390Y-74300500D01*
X184086610Y-74300500D01*
X184086611Y-74300500D01*
X184257701Y-74273402D01*
X184422445Y-74219873D01*
X184576788Y-74141232D01*
X184716928Y-74039414D01*
X184839414Y-73916928D01*
X184941232Y-73776788D01*
X185019873Y-73622445D01*
X185073402Y-73457701D01*
X185100500Y-73286611D01*
X185100500Y-73113389D01*
X185073402Y-72942299D01*
X185019873Y-72777555D01*
X184941232Y-72623212D01*
X184839414Y-72483072D01*
X184716928Y-72360586D01*
X184576788Y-72258768D01*
X184422445Y-72180127D01*
X184257701Y-72126598D01*
X184257699Y-72126597D01*
X184257698Y-72126597D01*
X184126271Y-72105781D01*
X184086611Y-72099500D01*
X183913389Y-72099500D01*
X183873728Y-72105781D01*
X183742302Y-72126597D01*
X183577552Y-72180128D01*
X183423211Y-72258768D01*
X183388377Y-72284077D01*
X183283072Y-72360586D01*
X183283070Y-72360588D01*
X183283069Y-72360588D01*
X183160588Y-72483069D01*
X183160588Y-72483070D01*
X183160586Y-72483072D01*
X183116859Y-72543256D01*
X183058768Y-72623211D01*
X182980128Y-72777552D01*
X182926597Y-72942302D01*
X182907240Y-73064519D01*
X182899500Y-73113389D01*
X171000500Y-73113389D01*
X171000500Y-72052600D01*
X171020185Y-71985561D01*
X171072989Y-71939806D01*
X171142147Y-71929862D01*
X171205703Y-71958887D01*
X171212181Y-71964919D01*
X171309918Y-72062656D01*
X171309923Y-72062660D01*
X171414109Y-72138355D01*
X171507361Y-72206106D01*
X171724815Y-72316904D01*
X171956924Y-72392321D01*
X172197973Y-72430500D01*
X172197974Y-72430500D01*
X172442026Y-72430500D01*
X172442027Y-72430500D01*
X172683076Y-72392321D01*
X172915185Y-72316904D01*
X173132639Y-72206106D01*
X173330083Y-72062655D01*
X173502655Y-71890083D01*
X173646106Y-71692639D01*
X173756904Y-71475185D01*
X173832321Y-71243076D01*
X173870500Y-71002027D01*
X173870500Y-70757973D01*
X173832321Y-70516924D01*
X173756904Y-70284815D01*
X173646106Y-70067361D01*
X173637771Y-70055890D01*
X173588412Y-69987951D01*
X173539881Y-69921153D01*
X178199500Y-69921153D01*
X178199500Y-70078846D01*
X178230261Y-70233489D01*
X178230264Y-70233501D01*
X178290602Y-70379172D01*
X178290609Y-70379185D01*
X178378210Y-70510288D01*
X178378213Y-70510292D01*
X178489707Y-70621786D01*
X178489711Y-70621789D01*
X178620814Y-70709390D01*
X178620827Y-70709397D01*
X178730164Y-70754685D01*
X178766503Y-70769737D01*
X178921153Y-70800499D01*
X178921156Y-70800500D01*
X178921158Y-70800500D01*
X179078844Y-70800500D01*
X179078845Y-70800499D01*
X179233497Y-70769737D01*
X179346166Y-70723067D01*
X179379172Y-70709397D01*
X179379172Y-70709396D01*
X179379179Y-70709394D01*
X179379184Y-70709390D01*
X179379187Y-70709389D01*
X179452225Y-70660586D01*
X179452768Y-70660222D01*
X179519445Y-70639344D01*
X179586826Y-70657828D01*
X179633516Y-70709806D01*
X179644693Y-70778776D01*
X179621978Y-70836209D01*
X179558770Y-70923207D01*
X179480128Y-71077552D01*
X179426597Y-71242302D01*
X179399500Y-71413389D01*
X179399500Y-71586610D01*
X179418048Y-71703722D01*
X179426598Y-71757701D01*
X179480127Y-71922445D01*
X179558768Y-72076788D01*
X179660586Y-72216928D01*
X179783072Y-72339414D01*
X179923212Y-72441232D01*
X180077555Y-72519873D01*
X180242299Y-72573402D01*
X180413389Y-72600500D01*
X180413390Y-72600500D01*
X180586610Y-72600500D01*
X180586611Y-72600500D01*
X180757701Y-72573402D01*
X180922445Y-72519873D01*
X181076788Y-72441232D01*
X181216928Y-72339414D01*
X181339414Y-72216928D01*
X181441232Y-72076788D01*
X181519873Y-71922445D01*
X181573402Y-71757701D01*
X181600500Y-71586611D01*
X181600500Y-71413389D01*
X181573402Y-71242299D01*
X181519873Y-71077555D01*
X181441232Y-70923212D01*
X181339414Y-70783072D01*
X181216928Y-70660586D01*
X181076788Y-70558768D01*
X180922445Y-70480127D01*
X180757701Y-70426598D01*
X180757699Y-70426597D01*
X180757698Y-70426597D01*
X180626271Y-70405781D01*
X180586611Y-70399500D01*
X180413389Y-70399500D01*
X180373728Y-70405781D01*
X180242302Y-70426597D01*
X180077552Y-70480128D01*
X179923207Y-70558770D01*
X179836209Y-70621978D01*
X179770402Y-70645458D01*
X179702349Y-70629632D01*
X179653654Y-70579526D01*
X179639779Y-70511048D01*
X179660223Y-70452768D01*
X179662458Y-70449424D01*
X179709394Y-70379179D01*
X179769737Y-70233497D01*
X179800500Y-70078842D01*
X179800500Y-69921158D01*
X179800500Y-69921155D01*
X179800499Y-69921153D01*
X179779093Y-69813539D01*
X179769737Y-69766503D01*
X179754833Y-69730521D01*
X179709397Y-69620827D01*
X179709390Y-69620814D01*
X179621789Y-69489711D01*
X179621786Y-69489707D01*
X179510292Y-69378213D01*
X179510288Y-69378210D01*
X179379185Y-69290609D01*
X179379172Y-69290602D01*
X179233501Y-69230264D01*
X179233489Y-69230261D01*
X179078845Y-69199500D01*
X179078842Y-69199500D01*
X178921158Y-69199500D01*
X178921155Y-69199500D01*
X178766510Y-69230261D01*
X178766498Y-69230264D01*
X178620827Y-69290602D01*
X178620814Y-69290609D01*
X178489711Y-69378210D01*
X178489707Y-69378213D01*
X178378213Y-69489707D01*
X178378210Y-69489711D01*
X178290609Y-69620814D01*
X178290602Y-69620827D01*
X178230264Y-69766498D01*
X178230261Y-69766510D01*
X178199500Y-69921153D01*
X173539881Y-69921153D01*
X173502660Y-69869923D01*
X173502656Y-69869918D01*
X173330081Y-69697343D01*
X173330076Y-69697339D01*
X173132642Y-69553896D01*
X173132641Y-69553895D01*
X173132639Y-69553894D01*
X172915185Y-69443096D01*
X172683076Y-69367679D01*
X172683074Y-69367678D01*
X172683072Y-69367678D01*
X172514769Y-69341021D01*
X172442027Y-69329500D01*
X172197973Y-69329500D01*
X172142093Y-69338350D01*
X171956927Y-69367678D01*
X171724812Y-69443097D01*
X171507357Y-69553896D01*
X171309924Y-69697338D01*
X171180351Y-69826911D01*
X171119028Y-69860395D01*
X171049336Y-69855411D01*
X170993403Y-69813539D01*
X170971053Y-69763423D01*
X170962051Y-69718165D01*
X170921730Y-69620821D01*
X170886635Y-69536092D01*
X170886628Y-69536079D01*
X170777139Y-69372218D01*
X170777136Y-69372214D01*
X170634686Y-69229764D01*
X170634655Y-69229735D01*
X168266819Y-66861899D01*
X168233334Y-66800576D01*
X168230500Y-66774218D01*
X168230500Y-66567973D01*
X168218104Y-66489711D01*
X168192321Y-66326924D01*
X168116904Y-66094815D01*
X168006106Y-65877361D01*
X167956858Y-65809577D01*
X167862660Y-65679923D01*
X167862656Y-65679918D01*
X167716819Y-65534081D01*
X167683334Y-65472758D01*
X167680500Y-65446400D01*
X167680500Y-64498543D01*
X180199499Y-64498543D01*
X180237947Y-64691829D01*
X180237950Y-64691839D01*
X180313364Y-64873907D01*
X180313371Y-64873920D01*
X180422860Y-65037781D01*
X180422863Y-65037785D01*
X180562214Y-65177136D01*
X180562218Y-65177139D01*
X180726079Y-65286628D01*
X180726092Y-65286635D01*
X180828000Y-65328846D01*
X180908165Y-65362051D01*
X180908169Y-65362051D01*
X180908170Y-65362052D01*
X181101456Y-65400500D01*
X181101459Y-65400500D01*
X181298543Y-65400500D01*
X181428582Y-65374632D01*
X181491835Y-65362051D01*
X181673914Y-65286632D01*
X181837782Y-65177139D01*
X181977139Y-65037782D01*
X182086632Y-64873914D01*
X182162051Y-64691835D01*
X182192133Y-64540606D01*
X182200500Y-64498543D01*
X182200500Y-64301456D01*
X182162052Y-64108170D01*
X182162051Y-64108169D01*
X182162051Y-64108165D01*
X182162049Y-64108160D01*
X182086635Y-63926092D01*
X182086628Y-63926079D01*
X181977139Y-63762218D01*
X181977136Y-63762214D01*
X181837785Y-63622863D01*
X181837781Y-63622860D01*
X181673920Y-63513371D01*
X181673907Y-63513364D01*
X181491839Y-63437950D01*
X181491829Y-63437947D01*
X181298543Y-63399500D01*
X181298541Y-63399500D01*
X181101459Y-63399500D01*
X181101457Y-63399500D01*
X180908170Y-63437947D01*
X180908160Y-63437950D01*
X180726092Y-63513364D01*
X180726079Y-63513371D01*
X180562218Y-63622860D01*
X180562214Y-63622863D01*
X180422863Y-63762214D01*
X180422860Y-63762218D01*
X180313371Y-63926079D01*
X180313364Y-63926092D01*
X180237950Y-64108160D01*
X180237947Y-64108170D01*
X180199500Y-64301456D01*
X180199500Y-64301459D01*
X180199500Y-64498541D01*
X180199500Y-64498543D01*
X180199499Y-64498543D01*
X167680500Y-64498543D01*
X167680500Y-63743600D01*
X167700185Y-63676561D01*
X167716819Y-63655919D01*
X167749878Y-63622860D01*
X167862655Y-63510083D01*
X168006106Y-63312639D01*
X168116904Y-63095185D01*
X168192321Y-62863076D01*
X168230500Y-62622027D01*
X168230500Y-62377973D01*
X168192321Y-62136924D01*
X168116904Y-61904815D01*
X168006106Y-61687361D01*
X167938861Y-61594806D01*
X167862660Y-61489923D01*
X167862656Y-61489918D01*
X167716819Y-61344081D01*
X167683334Y-61282758D01*
X167680500Y-61256400D01*
X167680500Y-59553600D01*
X167700185Y-59486561D01*
X167716819Y-59465919D01*
X167862655Y-59320083D01*
X168006106Y-59122639D01*
X168036934Y-59062135D01*
X175149500Y-59062135D01*
X175149500Y-60857870D01*
X175149501Y-60857876D01*
X175155908Y-60917483D01*
X175206202Y-61052328D01*
X175206206Y-61052335D01*
X175292452Y-61167544D01*
X175292455Y-61167547D01*
X175407664Y-61253793D01*
X175407671Y-61253797D01*
X175539082Y-61302810D01*
X175595016Y-61344681D01*
X175619433Y-61410145D01*
X175604582Y-61478418D01*
X175583431Y-61506673D01*
X175469889Y-61620215D01*
X175344951Y-61792179D01*
X175248444Y-61981585D01*
X175248443Y-61981587D01*
X175248443Y-61981588D01*
X175233643Y-62027139D01*
X175182753Y-62183760D01*
X175178272Y-62212052D01*
X175149500Y-62393713D01*
X175149500Y-62606287D01*
X175182754Y-62816243D01*
X175239117Y-62989711D01*
X175248444Y-63018414D01*
X175344951Y-63207820D01*
X175469890Y-63379786D01*
X175620213Y-63530109D01*
X175792179Y-63655048D01*
X175792181Y-63655049D01*
X175792184Y-63655051D01*
X175981588Y-63751557D01*
X176183757Y-63817246D01*
X176393713Y-63850500D01*
X176393714Y-63850500D01*
X176606286Y-63850500D01*
X176606287Y-63850500D01*
X176816243Y-63817246D01*
X177018412Y-63751557D01*
X177207816Y-63655051D01*
X177252122Y-63622861D01*
X177379786Y-63530109D01*
X177379788Y-63530106D01*
X177379792Y-63530104D01*
X177530104Y-63379792D01*
X177530106Y-63379788D01*
X177530109Y-63379786D01*
X177655048Y-63207820D01*
X177655047Y-63207820D01*
X177655051Y-63207816D01*
X177751557Y-63018412D01*
X177817246Y-62816243D01*
X177850500Y-62606287D01*
X177850500Y-62393713D01*
X177817246Y-62183757D01*
X177751557Y-61981588D01*
X177655051Y-61792184D01*
X177655049Y-61792181D01*
X177655048Y-61792179D01*
X177530109Y-61620213D01*
X177416569Y-61506673D01*
X177383084Y-61445350D01*
X177388068Y-61375658D01*
X177429940Y-61319725D01*
X177460915Y-61302810D01*
X177592331Y-61253796D01*
X177707546Y-61167546D01*
X177793796Y-61052331D01*
X177844091Y-60917483D01*
X177850500Y-60857873D01*
X177850499Y-59062128D01*
X177844091Y-59002517D01*
X177828998Y-58962051D01*
X177793797Y-58867671D01*
X177793793Y-58867664D01*
X177707547Y-58752455D01*
X177707544Y-58752452D01*
X177592335Y-58666206D01*
X177592328Y-58666202D01*
X177457482Y-58615908D01*
X177457483Y-58615908D01*
X177397883Y-58609501D01*
X177397881Y-58609500D01*
X177397873Y-58609500D01*
X177397864Y-58609500D01*
X175602129Y-58609500D01*
X175602123Y-58609501D01*
X175542516Y-58615908D01*
X175407671Y-58666202D01*
X175407664Y-58666206D01*
X175292455Y-58752452D01*
X175292452Y-58752455D01*
X175206206Y-58867664D01*
X175206202Y-58867671D01*
X175155908Y-59002517D01*
X175149501Y-59062116D01*
X175149501Y-59062123D01*
X175149500Y-59062135D01*
X168036934Y-59062135D01*
X168116904Y-58905185D01*
X168192321Y-58673076D01*
X168230500Y-58432027D01*
X168230500Y-58187973D01*
X168192321Y-57946924D01*
X168116904Y-57714815D01*
X168006106Y-57497361D01*
X167964003Y-57439411D01*
X167862660Y-57299923D01*
X167862656Y-57299918D01*
X167716819Y-57154081D01*
X167683334Y-57092758D01*
X167680500Y-57066400D01*
X167680500Y-55363600D01*
X167700185Y-55296561D01*
X167716819Y-55275919D01*
X167786455Y-55206283D01*
X167862655Y-55130083D01*
X168006106Y-54932639D01*
X168116904Y-54715185D01*
X168192321Y-54483076D01*
X168230500Y-54242027D01*
X168230500Y-53997973D01*
X168192321Y-53756924D01*
X168116904Y-53524815D01*
X168006106Y-53307361D01*
X167901917Y-53163956D01*
X167862660Y-53109923D01*
X167862656Y-53109918D01*
X167690081Y-52937343D01*
X167690076Y-52937339D01*
X167492642Y-52793896D01*
X167492641Y-52793895D01*
X167492639Y-52793894D01*
X167275185Y-52683096D01*
X167043076Y-52607679D01*
X167043074Y-52607678D01*
X167043072Y-52607678D01*
X166874769Y-52581021D01*
X166802027Y-52569500D01*
X166557973Y-52569500D01*
X166502093Y-52578350D01*
X166316927Y-52607678D01*
X166084812Y-52683097D01*
X165867357Y-52793896D01*
X165669923Y-52937339D01*
X165669918Y-52937343D01*
X165497343Y-53109918D01*
X165497339Y-53109923D01*
X165353896Y-53307357D01*
X165243096Y-53524813D01*
X165242430Y-53526865D01*
X165241965Y-53527544D01*
X165241235Y-53529308D01*
X165240864Y-53529154D01*
X165202991Y-53584540D01*
X165138631Y-53611736D01*
X165069785Y-53599820D01*
X165018311Y-53552574D01*
X165000500Y-53488544D01*
X165000500Y-37433713D01*
X170149500Y-37433713D01*
X170149500Y-37646286D01*
X170170427Y-37778418D01*
X170182754Y-37856243D01*
X170241201Y-38036124D01*
X170248444Y-38058414D01*
X170344951Y-38247820D01*
X170469890Y-38419786D01*
X170620213Y-38570109D01*
X170792182Y-38695050D01*
X170800946Y-38699516D01*
X170851742Y-38747491D01*
X170868536Y-38815312D01*
X170845998Y-38881447D01*
X170800946Y-38920484D01*
X170792182Y-38924949D01*
X170620213Y-39049890D01*
X170469890Y-39200213D01*
X170344951Y-39372179D01*
X170248444Y-39561585D01*
X170182753Y-39763760D01*
X170149500Y-39973713D01*
X170149500Y-40186286D01*
X170182753Y-40396239D01*
X170248444Y-40598414D01*
X170344951Y-40787820D01*
X170469890Y-40959786D01*
X170620213Y-41110109D01*
X170792179Y-41235048D01*
X170792181Y-41235049D01*
X170792184Y-41235051D01*
X170981588Y-41331557D01*
X171183757Y-41397246D01*
X171393713Y-41430500D01*
X171393714Y-41430500D01*
X171606286Y-41430500D01*
X171606287Y-41430500D01*
X171816243Y-41397246D01*
X172018412Y-41331557D01*
X172207816Y-41235051D01*
X172229789Y-41219086D01*
X172379786Y-41110109D01*
X172379788Y-41110106D01*
X172379792Y-41110104D01*
X172530104Y-40959792D01*
X172530106Y-40959788D01*
X172530109Y-40959786D01*
X172655048Y-40787820D01*
X172655047Y-40787820D01*
X172655051Y-40787816D01*
X172751557Y-40598412D01*
X172817246Y-40396243D01*
X172850500Y-40186287D01*
X172850500Y-40186285D01*
X172851262Y-40181475D01*
X172852321Y-40181642D01*
X172875361Y-40121172D01*
X172886416Y-40108503D01*
X173358101Y-39636819D01*
X173419424Y-39603334D01*
X173445782Y-39600500D01*
X174628540Y-39600500D01*
X174695579Y-39620185D01*
X174741334Y-39672989D01*
X174751278Y-39742147D01*
X174727807Y-39798811D01*
X174706204Y-39827668D01*
X174706202Y-39827671D01*
X174655908Y-39962517D01*
X174649501Y-40022116D01*
X174649501Y-40022123D01*
X174649500Y-40022135D01*
X174649500Y-41817870D01*
X174649501Y-41817876D01*
X174655908Y-41877483D01*
X174706202Y-42012328D01*
X174706206Y-42012335D01*
X174792452Y-42127544D01*
X174792455Y-42127547D01*
X174907664Y-42213793D01*
X174907671Y-42213797D01*
X175039082Y-42262810D01*
X175095016Y-42304681D01*
X175119433Y-42370145D01*
X175104582Y-42438418D01*
X175083431Y-42466673D01*
X174969889Y-42580215D01*
X174844951Y-42752179D01*
X174748444Y-42941585D01*
X174682753Y-43143760D01*
X174649500Y-43353713D01*
X174649500Y-43566286D01*
X174682753Y-43776239D01*
X174748444Y-43978414D01*
X174844951Y-44167820D01*
X174969890Y-44339786D01*
X175120213Y-44490109D01*
X175292182Y-44615050D01*
X175300946Y-44619516D01*
X175351742Y-44667491D01*
X175368536Y-44735312D01*
X175345998Y-44801447D01*
X175300946Y-44840484D01*
X175292182Y-44844949D01*
X175120213Y-44969890D01*
X174969890Y-45120213D01*
X174844951Y-45292179D01*
X174748444Y-45481585D01*
X174682753Y-45683760D01*
X174649500Y-45893713D01*
X174649500Y-46106286D01*
X174682753Y-46316239D01*
X174748444Y-46518414D01*
X174844951Y-46707820D01*
X174969890Y-46879786D01*
X175120213Y-47030109D01*
X175292182Y-47155050D01*
X175300946Y-47159516D01*
X175351742Y-47207491D01*
X175368536Y-47275312D01*
X175345998Y-47341447D01*
X175300946Y-47380484D01*
X175292182Y-47384949D01*
X175120213Y-47509890D01*
X174969890Y-47660213D01*
X174844951Y-47832179D01*
X174748444Y-48021585D01*
X174682753Y-48223760D01*
X174649500Y-48433713D01*
X174649500Y-48646286D01*
X174682753Y-48856239D01*
X174748444Y-49058414D01*
X174844951Y-49247820D01*
X174969890Y-49419786D01*
X175120213Y-49570109D01*
X175292182Y-49695050D01*
X175300946Y-49699516D01*
X175351742Y-49747491D01*
X175368536Y-49815312D01*
X175345998Y-49881447D01*
X175300946Y-49920484D01*
X175292182Y-49924949D01*
X175120213Y-50049890D01*
X174969890Y-50200213D01*
X174844951Y-50372179D01*
X174748444Y-50561585D01*
X174682753Y-50763760D01*
X174649500Y-50973713D01*
X174649500Y-51186286D01*
X174682753Y-51396239D01*
X174748444Y-51598414D01*
X174844951Y-51787820D01*
X174969890Y-51959786D01*
X175120213Y-52110109D01*
X175292182Y-52235050D01*
X175300946Y-52239516D01*
X175351742Y-52287491D01*
X175368536Y-52355312D01*
X175345998Y-52421447D01*
X175300946Y-52460484D01*
X175292182Y-52464949D01*
X175120213Y-52589890D01*
X174969890Y-52740213D01*
X174844951Y-52912179D01*
X174748444Y-53101585D01*
X174682753Y-53303760D01*
X174653353Y-53489389D01*
X174649500Y-53513713D01*
X174649500Y-53726287D01*
X174654353Y-53756927D01*
X174677058Y-53900285D01*
X174682754Y-53936243D01*
X174702811Y-53997973D01*
X174748444Y-54138414D01*
X174844951Y-54327820D01*
X174969890Y-54499786D01*
X175120213Y-54650109D01*
X175292179Y-54775048D01*
X175292181Y-54775049D01*
X175292184Y-54775051D01*
X175481588Y-54871557D01*
X175683757Y-54937246D01*
X175893713Y-54970500D01*
X175893714Y-54970500D01*
X176106286Y-54970500D01*
X176106287Y-54970500D01*
X176316243Y-54937246D01*
X176518412Y-54871557D01*
X176707816Y-54775051D01*
X176790210Y-54715189D01*
X176879786Y-54650109D01*
X176879788Y-54650106D01*
X176879792Y-54650104D01*
X177030104Y-54499792D01*
X177030106Y-54499788D01*
X177030109Y-54499786D01*
X177155048Y-54327820D01*
X177155047Y-54327820D01*
X177155051Y-54327816D01*
X177251557Y-54138412D01*
X177317246Y-53936243D01*
X177350500Y-53726287D01*
X177350500Y-53513713D01*
X177326319Y-53361043D01*
X180899499Y-53361043D01*
X180937947Y-53554329D01*
X180937950Y-53554339D01*
X181013364Y-53736407D01*
X181013371Y-53736420D01*
X181122860Y-53900281D01*
X181122863Y-53900285D01*
X181262214Y-54039636D01*
X181262218Y-54039639D01*
X181426079Y-54149128D01*
X181426092Y-54149135D01*
X181608160Y-54224549D01*
X181608165Y-54224551D01*
X181608169Y-54224551D01*
X181608170Y-54224552D01*
X181801456Y-54263000D01*
X181801459Y-54263000D01*
X181998543Y-54263000D01*
X182128582Y-54237132D01*
X182191835Y-54224551D01*
X182373914Y-54149132D01*
X182537782Y-54039639D01*
X182677139Y-53900282D01*
X182786632Y-53736414D01*
X182862051Y-53554335D01*
X182896729Y-53380000D01*
X182900500Y-53361043D01*
X182900500Y-53163956D01*
X182862052Y-52970670D01*
X182862051Y-52970669D01*
X182862051Y-52970665D01*
X182837828Y-52912184D01*
X182786635Y-52788592D01*
X182786628Y-52788579D01*
X182677139Y-52624718D01*
X182677136Y-52624714D01*
X182537785Y-52485363D01*
X182537781Y-52485360D01*
X182373920Y-52375871D01*
X182373907Y-52375864D01*
X182191839Y-52300450D01*
X182191829Y-52300447D01*
X181998543Y-52262000D01*
X181998541Y-52262000D01*
X181801459Y-52262000D01*
X181801457Y-52262000D01*
X181608170Y-52300447D01*
X181608160Y-52300450D01*
X181426092Y-52375864D01*
X181426079Y-52375871D01*
X181262218Y-52485360D01*
X181262214Y-52485363D01*
X181122863Y-52624714D01*
X181122860Y-52624718D01*
X181013371Y-52788579D01*
X181013364Y-52788592D01*
X180937950Y-52970660D01*
X180937947Y-52970670D01*
X180899500Y-53163956D01*
X180899500Y-53163959D01*
X180899500Y-53361041D01*
X180899500Y-53361043D01*
X180899499Y-53361043D01*
X177326319Y-53361043D01*
X177317246Y-53303757D01*
X177251557Y-53101588D01*
X177155051Y-52912184D01*
X177155049Y-52912181D01*
X177155048Y-52912179D01*
X177030109Y-52740213D01*
X176879786Y-52589890D01*
X176707820Y-52464951D01*
X176707115Y-52464591D01*
X176699054Y-52460485D01*
X176648259Y-52412512D01*
X176631463Y-52344692D01*
X176653999Y-52278556D01*
X176699054Y-52239515D01*
X176707816Y-52235051D01*
X176729789Y-52219086D01*
X176879786Y-52110109D01*
X176879788Y-52110106D01*
X176879792Y-52110104D01*
X177030104Y-51959792D01*
X177030106Y-51959788D01*
X177030109Y-51959786D01*
X177155048Y-51787820D01*
X177155047Y-51787820D01*
X177155051Y-51787816D01*
X177251557Y-51598412D01*
X177317246Y-51396243D01*
X177350500Y-51186287D01*
X177350500Y-50973713D01*
X177317246Y-50763757D01*
X177251557Y-50561588D01*
X177155051Y-50372184D01*
X177155049Y-50372181D01*
X177155048Y-50372179D01*
X177030109Y-50200213D01*
X176879786Y-50049890D01*
X176707820Y-49924951D01*
X176707115Y-49924591D01*
X176699054Y-49920485D01*
X176648259Y-49872512D01*
X176631463Y-49804692D01*
X176653999Y-49738556D01*
X176699054Y-49699515D01*
X176707816Y-49695051D01*
X176729789Y-49679086D01*
X176879786Y-49570109D01*
X176879788Y-49570106D01*
X176879792Y-49570104D01*
X177030104Y-49419792D01*
X177030106Y-49419788D01*
X177030109Y-49419786D01*
X177155048Y-49247820D01*
X177155047Y-49247820D01*
X177155051Y-49247816D01*
X177251557Y-49058412D01*
X177317246Y-48856243D01*
X177350500Y-48646287D01*
X177350500Y-48433713D01*
X177317246Y-48223757D01*
X177251557Y-48021588D01*
X177155051Y-47832184D01*
X177155049Y-47832181D01*
X177155048Y-47832179D01*
X177030109Y-47660213D01*
X176879786Y-47509890D01*
X176707820Y-47384951D01*
X176707115Y-47384591D01*
X176699054Y-47380485D01*
X176648259Y-47332512D01*
X176631463Y-47264692D01*
X176653999Y-47198556D01*
X176699054Y-47159515D01*
X176707816Y-47155051D01*
X176729789Y-47139086D01*
X176879786Y-47030109D01*
X176879788Y-47030106D01*
X176879792Y-47030104D01*
X177030104Y-46879792D01*
X177030106Y-46879788D01*
X177030109Y-46879786D01*
X177155048Y-46707820D01*
X177155047Y-46707820D01*
X177155051Y-46707816D01*
X177251557Y-46518412D01*
X177317246Y-46316243D01*
X177350500Y-46106287D01*
X177350500Y-45893713D01*
X177317246Y-45683757D01*
X177251557Y-45481588D01*
X177155051Y-45292184D01*
X177155049Y-45292181D01*
X177155048Y-45292179D01*
X177030109Y-45120213D01*
X176879786Y-44969890D01*
X176707820Y-44844951D01*
X176707115Y-44844591D01*
X176699054Y-44840485D01*
X176648259Y-44792512D01*
X176631463Y-44724692D01*
X176653999Y-44658556D01*
X176699054Y-44619515D01*
X176707816Y-44615051D01*
X176729789Y-44599086D01*
X176879786Y-44490109D01*
X176879788Y-44490106D01*
X176879792Y-44490104D01*
X177030104Y-44339792D01*
X177030106Y-44339788D01*
X177030109Y-44339786D01*
X177155048Y-44167820D01*
X177155047Y-44167820D01*
X177155051Y-44167816D01*
X177251557Y-43978412D01*
X177317246Y-43776243D01*
X177350500Y-43566287D01*
X177350500Y-43353713D01*
X177317246Y-43143757D01*
X177251557Y-42941588D01*
X177155051Y-42752184D01*
X177155049Y-42752181D01*
X177155048Y-42752179D01*
X177030109Y-42580213D01*
X176916569Y-42466673D01*
X176883084Y-42405350D01*
X176888068Y-42335658D01*
X176929940Y-42279725D01*
X176960915Y-42262810D01*
X177092331Y-42213796D01*
X177207546Y-42127546D01*
X177293796Y-42012331D01*
X177344091Y-41877483D01*
X177350500Y-41817873D01*
X177350499Y-40022128D01*
X177344091Y-39962517D01*
X177341306Y-39955051D01*
X177293797Y-39827671D01*
X177293795Y-39827668D01*
X177272193Y-39798811D01*
X177247776Y-39733346D01*
X177262628Y-39665073D01*
X177312033Y-39615668D01*
X177371460Y-39600500D01*
X178449903Y-39600500D01*
X178516942Y-39620185D01*
X178537584Y-39636819D01*
X184613181Y-45712416D01*
X184646666Y-45773739D01*
X184649500Y-45800097D01*
X184649500Y-66420234D01*
X184629815Y-66487273D01*
X184628602Y-66489125D01*
X184540609Y-66620814D01*
X184540602Y-66620827D01*
X184480264Y-66766498D01*
X184480261Y-66766510D01*
X184449500Y-66921153D01*
X184449500Y-67078846D01*
X184480261Y-67233489D01*
X184480264Y-67233501D01*
X184540602Y-67379172D01*
X184540609Y-67379185D01*
X184628602Y-67510874D01*
X184649480Y-67577551D01*
X184649500Y-67579765D01*
X184649500Y-69163330D01*
X184649499Y-69163348D01*
X184649499Y-69329054D01*
X184649498Y-69329054D01*
X184649499Y-69329057D01*
X184690423Y-69481785D01*
X184715297Y-69524868D01*
X184769477Y-69618712D01*
X184769481Y-69618717D01*
X184888349Y-69737585D01*
X184888355Y-69737590D01*
X188015139Y-72864374D01*
X188015149Y-72864385D01*
X188019479Y-72868715D01*
X188019480Y-72868716D01*
X188131284Y-72980520D01*
X188198800Y-73019500D01*
X188268215Y-73059577D01*
X188420943Y-73100500D01*
X188579057Y-73100500D01*
X189318230Y-73100500D01*
X189385269Y-73120185D01*
X189431024Y-73172989D01*
X189440968Y-73242147D01*
X189418549Y-73297384D01*
X189398492Y-73324990D01*
X189306459Y-73505614D01*
X189243813Y-73698418D01*
X189212101Y-73898639D01*
X189212101Y-74101359D01*
X189218416Y-74141231D01*
X189242262Y-74291789D01*
X189243814Y-74301583D01*
X189306458Y-74494381D01*
X189372086Y-74623183D01*
X189398493Y-74675008D01*
X189517640Y-74839003D01*
X189660996Y-74982359D01*
X189797387Y-75081451D01*
X189824995Y-75101509D01*
X190005619Y-75193542D01*
X190198417Y-75256186D01*
X190398641Y-75287899D01*
X190398642Y-75287899D01*
X190601360Y-75287899D01*
X190601361Y-75287899D01*
X190801585Y-75256186D01*
X190994383Y-75193542D01*
X191175007Y-75101509D01*
X191267086Y-75034609D01*
X191339005Y-74982359D01*
X191339007Y-74982356D01*
X191339011Y-74982354D01*
X191482356Y-74839009D01*
X191482358Y-74839005D01*
X191482361Y-74839003D01*
X191534611Y-74767084D01*
X191601511Y-74675005D01*
X191693544Y-74494381D01*
X191747895Y-74327103D01*
X191749447Y-74324834D01*
X191749644Y-74322089D01*
X191769048Y-74296167D01*
X191787332Y-74269429D01*
X191789868Y-74268357D01*
X191791516Y-74266156D01*
X191821846Y-74254843D01*
X191851691Y-74242231D01*
X191854402Y-74242700D01*
X191856980Y-74241739D01*
X191888626Y-74248623D01*
X191920537Y-74254146D01*
X191923385Y-74256184D01*
X191925253Y-74256591D01*
X191953507Y-74277742D01*
X192040138Y-74364373D01*
X192040148Y-74364384D01*
X192044478Y-74368714D01*
X192044479Y-74368715D01*
X192156283Y-74480519D01*
X192232118Y-74524302D01*
X192293214Y-74559576D01*
X192306900Y-74563243D01*
X192319015Y-74569572D01*
X192334724Y-74584713D01*
X192353354Y-74596069D01*
X192366999Y-74615822D01*
X192369321Y-74618060D01*
X192369725Y-74619769D01*
X192372084Y-74623183D01*
X192398490Y-74675006D01*
X192517639Y-74839003D01*
X192660995Y-74982359D01*
X192797386Y-75081451D01*
X192824994Y-75101509D01*
X193005618Y-75193542D01*
X193198416Y-75256186D01*
X193398640Y-75287899D01*
X193398641Y-75287899D01*
X193601359Y-75287899D01*
X193601360Y-75287899D01*
X193801584Y-75256186D01*
X193994382Y-75193542D01*
X194175006Y-75101509D01*
X194202614Y-75081450D01*
X194268419Y-75057970D01*
X194336474Y-75073795D01*
X194385169Y-75123900D01*
X194399500Y-75181768D01*
X194399500Y-83913330D01*
X194399499Y-83913348D01*
X194399499Y-84079054D01*
X194399498Y-84079054D01*
X194440423Y-84231785D01*
X194469358Y-84281900D01*
X194469359Y-84281904D01*
X194469360Y-84281904D01*
X194519479Y-84368714D01*
X194519481Y-84368717D01*
X194638349Y-84487585D01*
X194638355Y-84487590D01*
X200519478Y-90368713D01*
X200519480Y-90368716D01*
X200613182Y-90462418D01*
X200646666Y-90523739D01*
X200649500Y-90550098D01*
X200649500Y-90897869D01*
X200649501Y-90897876D01*
X200655908Y-90957483D01*
X200706202Y-91092328D01*
X200706206Y-91092335D01*
X200792452Y-91207544D01*
X200792455Y-91207547D01*
X200907664Y-91293793D01*
X200907671Y-91293797D01*
X201042517Y-91344091D01*
X201042516Y-91344091D01*
X201049444Y-91344835D01*
X201102127Y-91350500D01*
X202897872Y-91350499D01*
X202957483Y-91344091D01*
X203092331Y-91293796D01*
X203092720Y-91293504D01*
X203138478Y-91259251D01*
X203204556Y-91209784D01*
X203207546Y-91207546D01*
X203293796Y-91092331D01*
X203344091Y-90957483D01*
X203350500Y-90897873D01*
X203350499Y-89102128D01*
X203344091Y-89042517D01*
X203334547Y-89016929D01*
X203293797Y-88907671D01*
X203293793Y-88907664D01*
X203207547Y-88792455D01*
X203207544Y-88792452D01*
X203092335Y-88706206D01*
X203092328Y-88706202D01*
X202960917Y-88657189D01*
X202904983Y-88615318D01*
X202880566Y-88549853D01*
X202895418Y-88481580D01*
X202916563Y-88453332D01*
X203030104Y-88339792D01*
X203121941Y-88213389D01*
X210949500Y-88213389D01*
X210949500Y-88386610D01*
X210970499Y-88519197D01*
X210976598Y-88557701D01*
X211030127Y-88722445D01*
X211108768Y-88876788D01*
X211210586Y-89016928D01*
X211333072Y-89139414D01*
X211473212Y-89241232D01*
X211627555Y-89319873D01*
X211792299Y-89373402D01*
X211963389Y-89400500D01*
X211963390Y-89400500D01*
X212136610Y-89400500D01*
X212136611Y-89400500D01*
X212307701Y-89373402D01*
X212472445Y-89319873D01*
X212626788Y-89241232D01*
X212766928Y-89139414D01*
X212889414Y-89016928D01*
X212991232Y-88876788D01*
X213069873Y-88722445D01*
X213123402Y-88557701D01*
X213150500Y-88386611D01*
X213150500Y-88213389D01*
X213123402Y-88042299D01*
X213069873Y-87877555D01*
X212991232Y-87723212D01*
X212889414Y-87583072D01*
X212766928Y-87460586D01*
X212626788Y-87358768D01*
X212521157Y-87304947D01*
X212472447Y-87280128D01*
X212472446Y-87280127D01*
X212472445Y-87280127D01*
X212307701Y-87226598D01*
X212307699Y-87226597D01*
X212307698Y-87226597D01*
X212176271Y-87205781D01*
X212136611Y-87199500D01*
X211963389Y-87199500D01*
X211923728Y-87205781D01*
X211792302Y-87226597D01*
X211627552Y-87280128D01*
X211473211Y-87358768D01*
X211419375Y-87397883D01*
X211333072Y-87460586D01*
X211333070Y-87460588D01*
X211333069Y-87460588D01*
X211210588Y-87583069D01*
X211210588Y-87583070D01*
X211210586Y-87583072D01*
X211180487Y-87624500D01*
X211108768Y-87723211D01*
X211030128Y-87877552D01*
X210976597Y-88042302D01*
X210949500Y-88213389D01*
X203121941Y-88213389D01*
X203155051Y-88167816D01*
X203251557Y-87978412D01*
X203317246Y-87776243D01*
X203350500Y-87566287D01*
X203350500Y-87353713D01*
X203317246Y-87143757D01*
X203251557Y-86941588D01*
X203155051Y-86752184D01*
X203155049Y-86752181D01*
X203155048Y-86752179D01*
X203030109Y-86580213D01*
X202879786Y-86429890D01*
X202829992Y-86393713D01*
X222384500Y-86393713D01*
X222384500Y-86606287D01*
X222417754Y-86816243D01*
X222458481Y-86941588D01*
X222483444Y-87018414D01*
X222579951Y-87207820D01*
X222704890Y-87379786D01*
X222855213Y-87530109D01*
X223027179Y-87655048D01*
X223027181Y-87655049D01*
X223027184Y-87655051D01*
X223216588Y-87751557D01*
X223418757Y-87817246D01*
X223628713Y-87850500D01*
X223628714Y-87850500D01*
X223841286Y-87850500D01*
X223841287Y-87850500D01*
X224051243Y-87817246D01*
X224253412Y-87751557D01*
X224442816Y-87655051D01*
X224541890Y-87583070D01*
X224614784Y-87530110D01*
X224614784Y-87530109D01*
X224614792Y-87530104D01*
X224728329Y-87416566D01*
X224789648Y-87383084D01*
X224859340Y-87388068D01*
X224915274Y-87429939D01*
X224932189Y-87460917D01*
X224981202Y-87592328D01*
X224981206Y-87592335D01*
X225067452Y-87707544D01*
X225067455Y-87707547D01*
X225182664Y-87793793D01*
X225182671Y-87793797D01*
X225317517Y-87844091D01*
X225317516Y-87844091D01*
X225324444Y-87844835D01*
X225377127Y-87850500D01*
X227172872Y-87850499D01*
X227232483Y-87844091D01*
X227367331Y-87793796D01*
X227482546Y-87707546D01*
X227568796Y-87592331D01*
X227619091Y-87457483D01*
X227625500Y-87397873D01*
X227625499Y-86393713D01*
X239384500Y-86393713D01*
X239384500Y-86606287D01*
X239417754Y-86816243D01*
X239458481Y-86941588D01*
X239483444Y-87018414D01*
X239579951Y-87207820D01*
X239704890Y-87379786D01*
X239855213Y-87530109D01*
X240027179Y-87655048D01*
X240027181Y-87655049D01*
X240027184Y-87655051D01*
X240216588Y-87751557D01*
X240418757Y-87817246D01*
X240628713Y-87850500D01*
X240628714Y-87850500D01*
X240841286Y-87850500D01*
X240841287Y-87850500D01*
X241051243Y-87817246D01*
X241253412Y-87751557D01*
X241442816Y-87655051D01*
X241541890Y-87583070D01*
X241614784Y-87530110D01*
X241614784Y-87530109D01*
X241614792Y-87530104D01*
X241728329Y-87416566D01*
X241789648Y-87383084D01*
X241859340Y-87388068D01*
X241915274Y-87429939D01*
X241932189Y-87460917D01*
X241981202Y-87592328D01*
X241981206Y-87592335D01*
X242067452Y-87707544D01*
X242067455Y-87707547D01*
X242182664Y-87793793D01*
X242182671Y-87793797D01*
X242317517Y-87844091D01*
X242317516Y-87844091D01*
X242324444Y-87844835D01*
X242377127Y-87850500D01*
X244172872Y-87850499D01*
X244232483Y-87844091D01*
X244367331Y-87793796D01*
X244482546Y-87707546D01*
X244568796Y-87592331D01*
X244619091Y-87457483D01*
X244625500Y-87397873D01*
X244625499Y-86883870D01*
X248524500Y-86883870D01*
X248524500Y-87116129D01*
X248560831Y-87345514D01*
X248632601Y-87566400D01*
X248738039Y-87773331D01*
X248874551Y-87961224D01*
X249038776Y-88125449D01*
X249226669Y-88261961D01*
X249324436Y-88311776D01*
X249433599Y-88367398D01*
X249433601Y-88367398D01*
X249433604Y-88367400D01*
X249654486Y-88439169D01*
X249772668Y-88457886D01*
X249883871Y-88475500D01*
X249883876Y-88475500D01*
X250116129Y-88475500D01*
X250217502Y-88459443D01*
X250345514Y-88439169D01*
X250566396Y-88367400D01*
X250773331Y-88261961D01*
X250961224Y-88125449D01*
X251125449Y-87961224D01*
X251261961Y-87773331D01*
X251367400Y-87566396D01*
X251439169Y-87345514D01*
X251462295Y-87199500D01*
X251475500Y-87116129D01*
X251475500Y-86883870D01*
X251454642Y-86752179D01*
X251439169Y-86654486D01*
X251367400Y-86433604D01*
X251367398Y-86433601D01*
X251367398Y-86433599D01*
X251311776Y-86324436D01*
X251261961Y-86226669D01*
X251125449Y-86038776D01*
X250961224Y-85874551D01*
X250773331Y-85738039D01*
X250743539Y-85722859D01*
X250566400Y-85632601D01*
X250345514Y-85560831D01*
X250116129Y-85524500D01*
X250116124Y-85524500D01*
X249883876Y-85524500D01*
X249883871Y-85524500D01*
X249654485Y-85560831D01*
X249433599Y-85632601D01*
X249226668Y-85738039D01*
X249038773Y-85874553D01*
X248874553Y-86038773D01*
X248738039Y-86226668D01*
X248632601Y-86433599D01*
X248560831Y-86654485D01*
X248524500Y-86883870D01*
X244625499Y-86883870D01*
X244625499Y-86460055D01*
X244625499Y-85602129D01*
X244625498Y-85602123D01*
X244619091Y-85542516D01*
X244568797Y-85407671D01*
X244568793Y-85407664D01*
X244482547Y-85292455D01*
X244482544Y-85292452D01*
X244367335Y-85206206D01*
X244367328Y-85206202D01*
X244232482Y-85155908D01*
X244232483Y-85155908D01*
X244172883Y-85149501D01*
X244172881Y-85149500D01*
X244172873Y-85149500D01*
X244172864Y-85149500D01*
X242377129Y-85149500D01*
X242377123Y-85149501D01*
X242317516Y-85155908D01*
X242182671Y-85206202D01*
X242182664Y-85206206D01*
X242067455Y-85292452D01*
X242067452Y-85292455D01*
X241981206Y-85407664D01*
X241981203Y-85407669D01*
X241932189Y-85539083D01*
X241890317Y-85595016D01*
X241824853Y-85619433D01*
X241756580Y-85604581D01*
X241728326Y-85583430D01*
X241614786Y-85469890D01*
X241442820Y-85344951D01*
X241253414Y-85248444D01*
X241253413Y-85248443D01*
X241253412Y-85248443D01*
X241051243Y-85182754D01*
X241051241Y-85182753D01*
X241051240Y-85182753D01*
X240889957Y-85157208D01*
X240841287Y-85149500D01*
X240628713Y-85149500D01*
X240580042Y-85157208D01*
X240418760Y-85182753D01*
X240216585Y-85248444D01*
X240027179Y-85344951D01*
X239855213Y-85469890D01*
X239704890Y-85620213D01*
X239579951Y-85792179D01*
X239483444Y-85981585D01*
X239417753Y-86183760D01*
X239398438Y-86305711D01*
X239384500Y-86393713D01*
X227625499Y-86393713D01*
X227625499Y-85602128D01*
X227619091Y-85542517D01*
X227617810Y-85539083D01*
X227568797Y-85407671D01*
X227568793Y-85407664D01*
X227482547Y-85292455D01*
X227482544Y-85292452D01*
X227367335Y-85206206D01*
X227367328Y-85206202D01*
X227232482Y-85155908D01*
X227232483Y-85155908D01*
X227172883Y-85149501D01*
X227172881Y-85149500D01*
X227172873Y-85149500D01*
X227172864Y-85149500D01*
X225377129Y-85149500D01*
X225377123Y-85149501D01*
X225317516Y-85155908D01*
X225182671Y-85206202D01*
X225182664Y-85206206D01*
X225067455Y-85292452D01*
X225067452Y-85292455D01*
X224981206Y-85407664D01*
X224981203Y-85407669D01*
X224932189Y-85539083D01*
X224890317Y-85595016D01*
X224824853Y-85619433D01*
X224756580Y-85604581D01*
X224728326Y-85583430D01*
X224614786Y-85469890D01*
X224442820Y-85344951D01*
X224253414Y-85248444D01*
X224253413Y-85248443D01*
X224253412Y-85248443D01*
X224051243Y-85182754D01*
X224051241Y-85182753D01*
X224051240Y-85182753D01*
X223889957Y-85157208D01*
X223841287Y-85149500D01*
X223628713Y-85149500D01*
X223580042Y-85157208D01*
X223418760Y-85182753D01*
X223216585Y-85248444D01*
X223027179Y-85344951D01*
X222855213Y-85469890D01*
X222704890Y-85620213D01*
X222579951Y-85792179D01*
X222483444Y-85981585D01*
X222417753Y-86183760D01*
X222398438Y-86305711D01*
X222384500Y-86393713D01*
X202829992Y-86393713D01*
X202707820Y-86304951D01*
X202707115Y-86304591D01*
X202699054Y-86300485D01*
X202648259Y-86252512D01*
X202631463Y-86184692D01*
X202653999Y-86118556D01*
X202699054Y-86079515D01*
X202707816Y-86075051D01*
X202836462Y-85981585D01*
X202879786Y-85950109D01*
X202879788Y-85950106D01*
X202879792Y-85950104D01*
X203030104Y-85799792D01*
X203030106Y-85799788D01*
X203030109Y-85799786D01*
X203139086Y-85649789D01*
X203155051Y-85627816D01*
X203251557Y-85438412D01*
X203317246Y-85236243D01*
X203350500Y-85026287D01*
X203350500Y-84813713D01*
X203317246Y-84603757D01*
X203251557Y-84401588D01*
X203155051Y-84212184D01*
X203155049Y-84212181D01*
X203155048Y-84212179D01*
X203030109Y-84040213D01*
X202879786Y-83889890D01*
X202707820Y-83764951D01*
X202707115Y-83764591D01*
X202699054Y-83760485D01*
X202648259Y-83712512D01*
X202631463Y-83644692D01*
X202653999Y-83578556D01*
X202699054Y-83539515D01*
X202707816Y-83535051D01*
X202729789Y-83519086D01*
X202879786Y-83410109D01*
X202879788Y-83410106D01*
X202879792Y-83410104D01*
X202987994Y-83301902D01*
X237779500Y-83301902D01*
X237779500Y-83538097D01*
X237816446Y-83771368D01*
X237889433Y-83995996D01*
X237996657Y-84206433D01*
X238135483Y-84397510D01*
X238302490Y-84564517D01*
X238493567Y-84703343D01*
X238551541Y-84732882D01*
X238704003Y-84810566D01*
X238704005Y-84810566D01*
X238704008Y-84810568D01*
X238824412Y-84849689D01*
X238928631Y-84883553D01*
X239161903Y-84920500D01*
X239161908Y-84920500D01*
X239398097Y-84920500D01*
X239631368Y-84883553D01*
X239855992Y-84810568D01*
X240066433Y-84703343D01*
X240257510Y-84564517D01*
X240424517Y-84397510D01*
X240563343Y-84206433D01*
X240670568Y-83995992D01*
X240743553Y-83771368D01*
X240760065Y-83667116D01*
X240780500Y-83538097D01*
X240780500Y-83301902D01*
X240743553Y-83068631D01*
X240709689Y-82964412D01*
X240670568Y-82844008D01*
X240670566Y-82844005D01*
X240670566Y-82844003D01*
X240563342Y-82633566D01*
X240424517Y-82442490D01*
X240257510Y-82275483D01*
X240066433Y-82136657D01*
X240016801Y-82111368D01*
X239855996Y-82029433D01*
X239631368Y-81956446D01*
X239398097Y-81919500D01*
X239398092Y-81919500D01*
X239161908Y-81919500D01*
X239161903Y-81919500D01*
X238928631Y-81956446D01*
X238704003Y-82029433D01*
X238493566Y-82136657D01*
X238384550Y-82215862D01*
X238302490Y-82275483D01*
X238302488Y-82275485D01*
X238302487Y-82275485D01*
X238135485Y-82442487D01*
X238135485Y-82442488D01*
X238135483Y-82442490D01*
X238081670Y-82516557D01*
X237996657Y-82633566D01*
X237889433Y-82844003D01*
X237816446Y-83068631D01*
X237779500Y-83301902D01*
X202987994Y-83301902D01*
X203030104Y-83259792D01*
X203030106Y-83259788D01*
X203030109Y-83259786D01*
X203155048Y-83087820D01*
X203155047Y-83087820D01*
X203155051Y-83087816D01*
X203251557Y-82898412D01*
X203317246Y-82696243D01*
X203350500Y-82486287D01*
X203350500Y-82273713D01*
X203317246Y-82063757D01*
X203251557Y-81861588D01*
X203155051Y-81672184D01*
X203155049Y-81672181D01*
X203155048Y-81672179D01*
X203030109Y-81500213D01*
X202879786Y-81349890D01*
X202707820Y-81224951D01*
X202614733Y-81177521D01*
X202518414Y-81128444D01*
X202518413Y-81128443D01*
X202518412Y-81128443D01*
X202344398Y-81071902D01*
X210279500Y-81071902D01*
X210279500Y-81308097D01*
X210316446Y-81541368D01*
X210389433Y-81765996D01*
X210446552Y-81878097D01*
X210496657Y-81976433D01*
X210635483Y-82167510D01*
X210802490Y-82334517D01*
X210993567Y-82473343D01*
X211078379Y-82516557D01*
X211204003Y-82580566D01*
X211204005Y-82580566D01*
X211204008Y-82580568D01*
X211311517Y-82615500D01*
X211428631Y-82653553D01*
X211661903Y-82690500D01*
X211661908Y-82690500D01*
X211898097Y-82690500D01*
X212131368Y-82653553D01*
X212192881Y-82633566D01*
X212355992Y-82580568D01*
X212356126Y-82580500D01*
X212363719Y-82576630D01*
X212566433Y-82473343D01*
X212757510Y-82334517D01*
X212924517Y-82167510D01*
X213063343Y-81976433D01*
X213170568Y-81765992D01*
X213243553Y-81541368D01*
X213250072Y-81500208D01*
X213280500Y-81308097D01*
X213280500Y-81071902D01*
X213265379Y-80976434D01*
X213263077Y-80961902D01*
X222429500Y-80961902D01*
X222429500Y-81198097D01*
X222466446Y-81431368D01*
X222539433Y-81655996D01*
X222644187Y-81861585D01*
X222646657Y-81866433D01*
X222785483Y-82057510D01*
X222952490Y-82224517D01*
X223143567Y-82363343D01*
X223242991Y-82414002D01*
X223354003Y-82470566D01*
X223354005Y-82470566D01*
X223354008Y-82470568D01*
X223402734Y-82486400D01*
X223578631Y-82543553D01*
X223811903Y-82580500D01*
X223811908Y-82580500D01*
X224048097Y-82580500D01*
X224281368Y-82543553D01*
X224505992Y-82470568D01*
X224716433Y-82363343D01*
X224907510Y-82224517D01*
X225074517Y-82057510D01*
X225213343Y-81866433D01*
X225320568Y-81655992D01*
X225325146Y-81641902D01*
X226839500Y-81641902D01*
X226839500Y-81878097D01*
X226876446Y-82111368D01*
X226949433Y-82335996D01*
X227041433Y-82516555D01*
X227056657Y-82546433D01*
X227195483Y-82737510D01*
X227362490Y-82904517D01*
X227553567Y-83043343D01*
X227640850Y-83087816D01*
X227764003Y-83150566D01*
X227764005Y-83150566D01*
X227764008Y-83150568D01*
X227884412Y-83189689D01*
X227988631Y-83223553D01*
X228221903Y-83260500D01*
X228221908Y-83260500D01*
X228458097Y-83260500D01*
X228691368Y-83223553D01*
X228765395Y-83199500D01*
X228915992Y-83150568D01*
X229126433Y-83043343D01*
X229317510Y-82904517D01*
X229484517Y-82737510D01*
X229623343Y-82546433D01*
X229730568Y-82335992D01*
X229803553Y-82111368D01*
X229815470Y-82036129D01*
X229840500Y-81878097D01*
X229840500Y-81641902D01*
X229803553Y-81408631D01*
X229743871Y-81224951D01*
X229730568Y-81184008D01*
X229730566Y-81184005D01*
X229730566Y-81184003D01*
X229668786Y-81062754D01*
X229623343Y-80973567D01*
X229484517Y-80782490D01*
X229317510Y-80615483D01*
X229126433Y-80476657D01*
X228915996Y-80369433D01*
X228691368Y-80296446D01*
X228458097Y-80259500D01*
X228458092Y-80259500D01*
X228221908Y-80259500D01*
X228221903Y-80259500D01*
X227988631Y-80296446D01*
X227764003Y-80369433D01*
X227553566Y-80476657D01*
X227449041Y-80552600D01*
X227362490Y-80615483D01*
X227362488Y-80615485D01*
X227362487Y-80615485D01*
X227195485Y-80782487D01*
X227195485Y-80782488D01*
X227195483Y-80782490D01*
X227186719Y-80794553D01*
X227056657Y-80973566D01*
X226949433Y-81184003D01*
X226876446Y-81408631D01*
X226839500Y-81641902D01*
X225325146Y-81641902D01*
X225393553Y-81431368D01*
X225405870Y-81353604D01*
X225430500Y-81198097D01*
X225430500Y-80961902D01*
X225393553Y-80728631D01*
X225336357Y-80552601D01*
X225320568Y-80504008D01*
X225320566Y-80504005D01*
X225320566Y-80504003D01*
X225214810Y-80296447D01*
X225213343Y-80293567D01*
X225074517Y-80102490D01*
X224907510Y-79935483D01*
X224716433Y-79796657D01*
X224505996Y-79689433D01*
X224281368Y-79616446D01*
X224048097Y-79579500D01*
X224048092Y-79579500D01*
X223811908Y-79579500D01*
X223811903Y-79579500D01*
X223578631Y-79616446D01*
X223354003Y-79689433D01*
X223143566Y-79796657D01*
X223115106Y-79817335D01*
X222952490Y-79935483D01*
X222952488Y-79935485D01*
X222952487Y-79935485D01*
X222785485Y-80102487D01*
X222785485Y-80102488D01*
X222785483Y-80102490D01*
X222732696Y-80175145D01*
X222646657Y-80293566D01*
X222539433Y-80504003D01*
X222466446Y-80728631D01*
X222429500Y-80961902D01*
X213263077Y-80961902D01*
X213243553Y-80838631D01*
X213207811Y-80728631D01*
X213170568Y-80614008D01*
X213170566Y-80614005D01*
X213170566Y-80614003D01*
X213063342Y-80403566D01*
X213038542Y-80369432D01*
X212924517Y-80212490D01*
X212757510Y-80045483D01*
X212566433Y-79906657D01*
X212355996Y-79799433D01*
X212131368Y-79726446D01*
X211898097Y-79689500D01*
X211898092Y-79689500D01*
X211661908Y-79689500D01*
X211661903Y-79689500D01*
X211428631Y-79726446D01*
X211204003Y-79799433D01*
X210993566Y-79906657D01*
X210884550Y-79985862D01*
X210802490Y-80045483D01*
X210802488Y-80045485D01*
X210802487Y-80045485D01*
X210635485Y-80212487D01*
X210635485Y-80212488D01*
X210635483Y-80212490D01*
X210601328Y-80259500D01*
X210496657Y-80403566D01*
X210389433Y-80614003D01*
X210316446Y-80838631D01*
X210279500Y-81071902D01*
X202344398Y-81071902D01*
X202316243Y-81062754D01*
X202316241Y-81062753D01*
X202316240Y-81062753D01*
X202154957Y-81037208D01*
X202106287Y-81029500D01*
X201893713Y-81029500D01*
X201845042Y-81037208D01*
X201683760Y-81062753D01*
X201481585Y-81128444D01*
X201292179Y-81224951D01*
X201120213Y-81349890D01*
X200969890Y-81500213D01*
X200844951Y-81672179D01*
X200748444Y-81861585D01*
X200682753Y-82063760D01*
X200649500Y-82273713D01*
X200649500Y-82486286D01*
X200682292Y-82693331D01*
X200682754Y-82696243D01*
X200742858Y-82881224D01*
X200748444Y-82898414D01*
X200844951Y-83087820D01*
X200969890Y-83259786D01*
X201120213Y-83410109D01*
X201292182Y-83535050D01*
X201300946Y-83539516D01*
X201351742Y-83587491D01*
X201368536Y-83655312D01*
X201345998Y-83721447D01*
X201300946Y-83760484D01*
X201292182Y-83764949D01*
X201120213Y-83889890D01*
X200969890Y-84040213D01*
X200844951Y-84212179D01*
X200748444Y-84401585D01*
X200682753Y-84603760D01*
X200649500Y-84813713D01*
X200649500Y-85026286D01*
X200677996Y-85206206D01*
X200682754Y-85236243D01*
X200738452Y-85407664D01*
X200748444Y-85438414D01*
X200844951Y-85627820D01*
X200969890Y-85799786D01*
X201120213Y-85950109D01*
X201292182Y-86075050D01*
X201300946Y-86079516D01*
X201351742Y-86127491D01*
X201368536Y-86195312D01*
X201345998Y-86261447D01*
X201300946Y-86300484D01*
X201292182Y-86304949D01*
X201120213Y-86429890D01*
X200969890Y-86580213D01*
X200844951Y-86752179D01*
X200748444Y-86941585D01*
X200682753Y-87143760D01*
X200649500Y-87353713D01*
X200649500Y-87566286D01*
X200682292Y-87773331D01*
X200682754Y-87776243D01*
X200742858Y-87961224D01*
X200748444Y-87978414D01*
X200844951Y-88167820D01*
X200969890Y-88339786D01*
X201083430Y-88453326D01*
X201116915Y-88514649D01*
X201111931Y-88584341D01*
X201070059Y-88640274D01*
X201039083Y-88657189D01*
X200907669Y-88706203D01*
X200907664Y-88706206D01*
X200792249Y-88792607D01*
X200726785Y-88817025D01*
X200658512Y-88802174D01*
X200630257Y-88781022D01*
X195636819Y-83787584D01*
X195603334Y-83726261D01*
X195600500Y-83699903D01*
X195600500Y-77421153D01*
X209449500Y-77421153D01*
X209449500Y-77578846D01*
X209480261Y-77733489D01*
X209480264Y-77733501D01*
X209540602Y-77879172D01*
X209540609Y-77879185D01*
X209628210Y-78010288D01*
X209628213Y-78010292D01*
X209739707Y-78121786D01*
X209739711Y-78121789D01*
X209870814Y-78209390D01*
X209870827Y-78209397D01*
X210016498Y-78269735D01*
X210016503Y-78269737D01*
X210171158Y-78300500D01*
X210171847Y-78300637D01*
X210233758Y-78333022D01*
X210235337Y-78334573D01*
X210451284Y-78550520D01*
X210451286Y-78550521D01*
X210451290Y-78550524D01*
X210588209Y-78629573D01*
X210588216Y-78629577D01*
X210740943Y-78670501D01*
X210740945Y-78670501D01*
X210906654Y-78670501D01*
X210906670Y-78670500D01*
X239403331Y-78670500D01*
X239403347Y-78670501D01*
X239410943Y-78670501D01*
X239569054Y-78670501D01*
X239569057Y-78670501D01*
X239721785Y-78629577D01*
X239775542Y-78598540D01*
X239858716Y-78550520D01*
X239970520Y-78438716D01*
X239970520Y-78438714D01*
X239980724Y-78428511D01*
X239980728Y-78428506D01*
X240437821Y-77971412D01*
X240499142Y-77937929D01*
X240568834Y-77942913D01*
X240624767Y-77984785D01*
X240649184Y-78050249D01*
X240649500Y-78059095D01*
X240649500Y-79622870D01*
X240649501Y-79622876D01*
X240655908Y-79682483D01*
X240706202Y-79817328D01*
X240706206Y-79817335D01*
X240792452Y-79932544D01*
X240792455Y-79932547D01*
X240907664Y-80018793D01*
X240907671Y-80018797D01*
X241039082Y-80067810D01*
X241095016Y-80109681D01*
X241119433Y-80175145D01*
X241104582Y-80243418D01*
X241083431Y-80271673D01*
X240969889Y-80385215D01*
X240844951Y-80557179D01*
X240748444Y-80746585D01*
X240682753Y-80948760D01*
X240649500Y-81158713D01*
X240649500Y-81371286D01*
X240681683Y-81574486D01*
X240682754Y-81581243D01*
X240742784Y-81765996D01*
X240748444Y-81783414D01*
X240844951Y-81972820D01*
X240969890Y-82144786D01*
X241120213Y-82295109D01*
X241292179Y-82420048D01*
X241292181Y-82420049D01*
X241292184Y-82420051D01*
X241481588Y-82516557D01*
X241683757Y-82582246D01*
X241893713Y-82615500D01*
X241893714Y-82615500D01*
X242106286Y-82615500D01*
X242106287Y-82615500D01*
X242316243Y-82582246D01*
X242518412Y-82516557D01*
X242707816Y-82420051D01*
X242729789Y-82404086D01*
X242879786Y-82295109D01*
X242879788Y-82295106D01*
X242879792Y-82295104D01*
X243030104Y-82144792D01*
X243030106Y-82144788D01*
X243030109Y-82144786D01*
X243155048Y-81972820D01*
X243155047Y-81972820D01*
X243155051Y-81972816D01*
X243241133Y-81803870D01*
X248524500Y-81803870D01*
X248524500Y-82036129D01*
X248560831Y-82265514D01*
X248632601Y-82486400D01*
X248717771Y-82653553D01*
X248738039Y-82693331D01*
X248874551Y-82881224D01*
X249038776Y-83045449D01*
X249226669Y-83181961D01*
X249308298Y-83223553D01*
X249433599Y-83287398D01*
X249433601Y-83287398D01*
X249433604Y-83287400D01*
X249654486Y-83359169D01*
X249772668Y-83377886D01*
X249883871Y-83395500D01*
X249883876Y-83395500D01*
X250116129Y-83395500D01*
X250217502Y-83379443D01*
X250345514Y-83359169D01*
X250566396Y-83287400D01*
X250773331Y-83181961D01*
X250961224Y-83045449D01*
X251125449Y-82881224D01*
X251261961Y-82693331D01*
X251367400Y-82486396D01*
X251439169Y-82265514D01*
X251463583Y-82111368D01*
X251475500Y-82036129D01*
X251475500Y-81803870D01*
X251454642Y-81672179D01*
X251439169Y-81574486D01*
X251367400Y-81353604D01*
X251367398Y-81353601D01*
X251367398Y-81353599D01*
X251280986Y-81184008D01*
X251261961Y-81146669D01*
X251125449Y-80958776D01*
X250961224Y-80794551D01*
X250773331Y-80658039D01*
X250566400Y-80552601D01*
X250345514Y-80480831D01*
X250116129Y-80444500D01*
X250116124Y-80444500D01*
X249883876Y-80444500D01*
X249883871Y-80444500D01*
X249654485Y-80480831D01*
X249433599Y-80552601D01*
X249226668Y-80658039D01*
X249038773Y-80794553D01*
X248874553Y-80958773D01*
X248738039Y-81146668D01*
X248632601Y-81353599D01*
X248560831Y-81574485D01*
X248524500Y-81803870D01*
X243241133Y-81803870D01*
X243251557Y-81783412D01*
X243317246Y-81581243D01*
X243350500Y-81371287D01*
X243350500Y-81158713D01*
X243317246Y-80948757D01*
X243251557Y-80746588D01*
X243155051Y-80557184D01*
X243155049Y-80557181D01*
X243155048Y-80557179D01*
X243030109Y-80385213D01*
X242916569Y-80271673D01*
X242883084Y-80210350D01*
X242888068Y-80140658D01*
X242929940Y-80084725D01*
X242960915Y-80067810D01*
X243092331Y-80018796D01*
X243207546Y-79932546D01*
X243293796Y-79817331D01*
X243344091Y-79682483D01*
X243350500Y-79622873D01*
X243350499Y-77827128D01*
X243344091Y-77767517D01*
X243335649Y-77744884D01*
X243293797Y-77632671D01*
X243293793Y-77632664D01*
X243207547Y-77517455D01*
X243207544Y-77517452D01*
X243092335Y-77431206D01*
X243092328Y-77431202D01*
X242957482Y-77380908D01*
X242957483Y-77380908D01*
X242897883Y-77374501D01*
X242897881Y-77374500D01*
X242897873Y-77374500D01*
X242897865Y-77374500D01*
X241334096Y-77374500D01*
X241267057Y-77354815D01*
X241221302Y-77302011D01*
X241211358Y-77232853D01*
X241240383Y-77169297D01*
X241246400Y-77162834D01*
X243904664Y-74504571D01*
X243965985Y-74471088D01*
X243968152Y-74470637D01*
X243968841Y-74470500D01*
X243968842Y-74470500D01*
X244123497Y-74439737D01*
X244259585Y-74383368D01*
X244269172Y-74379397D01*
X244269172Y-74379396D01*
X244269179Y-74379394D01*
X244400289Y-74291789D01*
X244511789Y-74180289D01*
X244599394Y-74049179D01*
X244659737Y-73903497D01*
X244690500Y-73748842D01*
X244690500Y-73591158D01*
X244690500Y-73591155D01*
X244690499Y-73591153D01*
X244673484Y-73505614D01*
X244659737Y-73436503D01*
X244659735Y-73436498D01*
X244599397Y-73290827D01*
X244599390Y-73290814D01*
X244511789Y-73159711D01*
X244511786Y-73159707D01*
X244400292Y-73048213D01*
X244400288Y-73048210D01*
X244269185Y-72960609D01*
X244269172Y-72960602D01*
X244123501Y-72900264D01*
X244123489Y-72900261D01*
X243968845Y-72869500D01*
X243968842Y-72869500D01*
X243811158Y-72869500D01*
X243811155Y-72869500D01*
X243656510Y-72900261D01*
X243656498Y-72900264D01*
X243510827Y-72960602D01*
X243510814Y-72960609D01*
X243379711Y-73048210D01*
X243379707Y-73048213D01*
X243268213Y-73159707D01*
X243268210Y-73159711D01*
X243180609Y-73290814D01*
X243180602Y-73290827D01*
X243120264Y-73436498D01*
X243120261Y-73436508D01*
X243089362Y-73591848D01*
X243056977Y-73653759D01*
X243055426Y-73655337D01*
X239277584Y-77433181D01*
X239216261Y-77466666D01*
X239189903Y-77469500D01*
X211161880Y-77469500D01*
X211094841Y-77449815D01*
X211049086Y-77397011D01*
X211040263Y-77369691D01*
X211024245Y-77289165D01*
X211019737Y-77266503D01*
X211005799Y-77232853D01*
X210959397Y-77120827D01*
X210959390Y-77120814D01*
X210871789Y-76989711D01*
X210871786Y-76989707D01*
X210760292Y-76878213D01*
X210760288Y-76878210D01*
X210629185Y-76790609D01*
X210629172Y-76790602D01*
X210483501Y-76730264D01*
X210483489Y-76730261D01*
X210328845Y-76699500D01*
X210328842Y-76699500D01*
X210171158Y-76699500D01*
X210171155Y-76699500D01*
X210016510Y-76730261D01*
X210016498Y-76730264D01*
X209870827Y-76790602D01*
X209870814Y-76790609D01*
X209739711Y-76878210D01*
X209739707Y-76878213D01*
X209628213Y-76989707D01*
X209628210Y-76989711D01*
X209540609Y-77120814D01*
X209540602Y-77120827D01*
X209480264Y-77266498D01*
X209480261Y-77266510D01*
X209449500Y-77421153D01*
X195600500Y-77421153D01*
X195600500Y-75368543D01*
X206389499Y-75368543D01*
X206427947Y-75561829D01*
X206427950Y-75561839D01*
X206503364Y-75743907D01*
X206503371Y-75743920D01*
X206612860Y-75907781D01*
X206612863Y-75907785D01*
X206752214Y-76047136D01*
X206752218Y-76047139D01*
X206916079Y-76156628D01*
X206916092Y-76156635D01*
X207098160Y-76232049D01*
X207098165Y-76232051D01*
X207098169Y-76232051D01*
X207098170Y-76232052D01*
X207291456Y-76270500D01*
X207291459Y-76270500D01*
X207488543Y-76270500D01*
X207630315Y-76242299D01*
X207681835Y-76232051D01*
X207863914Y-76156632D01*
X208027782Y-76047139D01*
X208167139Y-75907782D01*
X208276632Y-75743914D01*
X208352051Y-75561835D01*
X208390500Y-75368541D01*
X208390500Y-75171459D01*
X208390500Y-75171456D01*
X208352052Y-74978170D01*
X208352051Y-74978169D01*
X208352051Y-74978165D01*
X208328731Y-74921864D01*
X208276635Y-74796092D01*
X208276628Y-74796079D01*
X208167139Y-74632218D01*
X208167136Y-74632214D01*
X208027785Y-74492863D01*
X208027781Y-74492860D01*
X207863920Y-74383371D01*
X207863907Y-74383364D01*
X207681839Y-74307950D01*
X207681829Y-74307947D01*
X207488543Y-74269500D01*
X207488541Y-74269500D01*
X207291459Y-74269500D01*
X207291457Y-74269500D01*
X207098170Y-74307947D01*
X207098160Y-74307950D01*
X206916092Y-74383364D01*
X206916079Y-74383371D01*
X206752218Y-74492860D01*
X206752214Y-74492863D01*
X206612863Y-74632214D01*
X206612860Y-74632218D01*
X206503371Y-74796079D01*
X206503364Y-74796092D01*
X206427950Y-74978160D01*
X206427947Y-74978170D01*
X206389500Y-75171456D01*
X206389500Y-75171459D01*
X206389500Y-75368541D01*
X206389500Y-75368543D01*
X206389499Y-75368543D01*
X195600500Y-75368543D01*
X195600500Y-75181769D01*
X195620185Y-75114730D01*
X195672989Y-75068975D01*
X195742147Y-75059031D01*
X195797384Y-75081450D01*
X195824993Y-75101509D01*
X196005617Y-75193542D01*
X196198415Y-75256186D01*
X196398639Y-75287899D01*
X196398640Y-75287899D01*
X196601358Y-75287899D01*
X196601359Y-75287899D01*
X196801583Y-75256186D01*
X196994381Y-75193542D01*
X197175005Y-75101509D01*
X197339009Y-74982354D01*
X197482354Y-74839009D01*
X197482356Y-74839005D01*
X197482359Y-74839003D01*
X197534609Y-74767084D01*
X197601509Y-74675005D01*
X197693542Y-74494381D01*
X197756186Y-74301583D01*
X197787899Y-74101359D01*
X197787899Y-73898639D01*
X197756186Y-73698415D01*
X197693542Y-73505617D01*
X197601509Y-73324993D01*
X197573623Y-73286611D01*
X197482359Y-73160994D01*
X197339003Y-73017638D01*
X197175008Y-72898491D01*
X197175007Y-72898490D01*
X197175005Y-72898489D01*
X196994381Y-72806456D01*
X196801583Y-72743812D01*
X196801581Y-72743811D01*
X196801579Y-72743811D01*
X196661781Y-72721669D01*
X196601359Y-72712099D01*
X196398639Y-72712099D01*
X196352223Y-72719450D01*
X196198418Y-72743811D01*
X196005614Y-72806457D01*
X195824990Y-72898490D01*
X195797384Y-72918547D01*
X195731577Y-72942026D01*
X195663524Y-72926200D01*
X195614829Y-72876093D01*
X195600500Y-72818228D01*
X195600500Y-72420945D01*
X195600500Y-72420943D01*
X195559577Y-72268216D01*
X195493694Y-72154102D01*
X195477221Y-72086201D01*
X195500074Y-72020174D01*
X195554995Y-71976984D01*
X195624549Y-71970343D01*
X195673966Y-71991784D01*
X195771520Y-72062660D01*
X195824993Y-72101510D01*
X196005617Y-72193543D01*
X196198415Y-72256187D01*
X196398639Y-72287900D01*
X196398640Y-72287900D01*
X196601358Y-72287900D01*
X196601359Y-72287900D01*
X196801583Y-72256187D01*
X196994381Y-72193543D01*
X197175005Y-72101510D01*
X197286955Y-72020174D01*
X197339003Y-71982360D01*
X197339005Y-71982357D01*
X197339009Y-71982355D01*
X197482354Y-71839010D01*
X197482356Y-71839006D01*
X197482359Y-71839004D01*
X197541431Y-71757697D01*
X197601509Y-71675006D01*
X197693542Y-71494382D01*
X197756186Y-71301584D01*
X197787899Y-71101360D01*
X197787899Y-70898640D01*
X197756186Y-70698416D01*
X197693542Y-70505618D01*
X197601509Y-70324994D01*
X197573807Y-70286865D01*
X197482359Y-70160995D01*
X197339003Y-70017639D01*
X197291032Y-69982787D01*
X198716098Y-69982787D01*
X198716098Y-70137210D01*
X198746221Y-70288646D01*
X198746224Y-70288658D01*
X198805311Y-70431308D01*
X198805318Y-70431321D01*
X198891102Y-70559705D01*
X198891105Y-70559709D01*
X199000287Y-70668891D01*
X199000291Y-70668894D01*
X199128675Y-70754678D01*
X199128688Y-70754685D01*
X199271338Y-70813772D01*
X199271343Y-70813774D01*
X199384131Y-70836209D01*
X199422786Y-70843898D01*
X199422789Y-70843899D01*
X199422791Y-70843899D01*
X199577207Y-70843899D01*
X199577208Y-70843898D01*
X199728653Y-70813774D01*
X199871314Y-70754682D01*
X199999705Y-70668894D01*
X200108893Y-70559706D01*
X200194681Y-70431315D01*
X200253773Y-70288654D01*
X200283898Y-70137206D01*
X200283898Y-70010614D01*
X202272200Y-70010614D01*
X202272200Y-70229385D01*
X202300754Y-70446283D01*
X202357377Y-70657603D01*
X202441095Y-70859715D01*
X202441100Y-70859726D01*
X202550478Y-71049173D01*
X202550489Y-71049189D01*
X202683660Y-71222741D01*
X202683666Y-71222748D01*
X202838351Y-71377433D01*
X202838358Y-71377439D01*
X202853056Y-71388717D01*
X203011919Y-71510617D01*
X203023820Y-71517488D01*
X203201373Y-71619999D01*
X203201378Y-71620001D01*
X203201381Y-71620003D01*
X203302440Y-71661863D01*
X203403496Y-71703722D01*
X203403497Y-71703722D01*
X203403499Y-71703723D01*
X203614815Y-71760345D01*
X203676167Y-71768422D01*
X203831714Y-71788900D01*
X203831715Y-71788900D01*
X204050486Y-71788900D01*
X204122785Y-71779381D01*
X204267385Y-71760345D01*
X204478701Y-71703723D01*
X204680819Y-71620003D01*
X204870281Y-71510617D01*
X205043843Y-71377438D01*
X205198538Y-71222743D01*
X205331717Y-71049181D01*
X205441103Y-70859719D01*
X205524823Y-70657601D01*
X205581445Y-70446285D01*
X205610000Y-70229385D01*
X205610000Y-70010638D01*
X230491600Y-70010638D01*
X230491600Y-70229361D01*
X230525814Y-70445376D01*
X230593397Y-70653380D01*
X230593398Y-70653383D01*
X230648734Y-70761983D01*
X230690472Y-70843899D01*
X230692695Y-70848260D01*
X230821242Y-71025193D01*
X230975906Y-71179857D01*
X231141474Y-71300147D01*
X231152843Y-71308407D01*
X231280232Y-71373315D01*
X231347716Y-71407701D01*
X231347719Y-71407702D01*
X231451721Y-71441493D01*
X231555725Y-71475286D01*
X231655772Y-71491132D01*
X231771739Y-71509500D01*
X231771744Y-71509500D01*
X231990461Y-71509500D01*
X232095182Y-71492912D01*
X232206475Y-71475286D01*
X232414483Y-71407701D01*
X232609357Y-71308407D01*
X232708701Y-71236229D01*
X232786293Y-71179857D01*
X232786295Y-71179854D01*
X232786299Y-71179852D01*
X232940952Y-71025199D01*
X232940954Y-71025195D01*
X232940957Y-71025193D01*
X233015053Y-70923207D01*
X233069507Y-70848257D01*
X233115509Y-70757973D01*
X245129500Y-70757973D01*
X245129500Y-71002026D01*
X245164458Y-71222743D01*
X245167679Y-71243076D01*
X245243096Y-71475185D01*
X245344911Y-71675009D01*
X245353896Y-71692642D01*
X245497339Y-71890076D01*
X245497343Y-71890081D01*
X245669918Y-72062656D01*
X245669923Y-72062660D01*
X245774109Y-72138355D01*
X245867361Y-72206106D01*
X246084815Y-72316904D01*
X246316924Y-72392321D01*
X246557973Y-72430500D01*
X246557974Y-72430500D01*
X246802026Y-72430500D01*
X246802027Y-72430500D01*
X247043076Y-72392321D01*
X247275185Y-72316904D01*
X247492639Y-72206106D01*
X247690083Y-72062655D01*
X247862655Y-71890083D01*
X248006106Y-71692639D01*
X248116904Y-71475185D01*
X248192321Y-71243076D01*
X248230500Y-71002027D01*
X248230500Y-70757973D01*
X248192321Y-70516924D01*
X248116904Y-70284815D01*
X248006106Y-70067361D01*
X247964899Y-70010644D01*
X247862660Y-69869923D01*
X247862656Y-69869918D01*
X247690081Y-69697343D01*
X247690076Y-69697339D01*
X247492642Y-69553896D01*
X247492641Y-69553895D01*
X247492639Y-69553894D01*
X247275185Y-69443096D01*
X247043076Y-69367679D01*
X247043074Y-69367678D01*
X247043072Y-69367678D01*
X246874769Y-69341021D01*
X246802027Y-69329500D01*
X246557973Y-69329500D01*
X246502093Y-69338350D01*
X246316927Y-69367678D01*
X246084812Y-69443097D01*
X245867357Y-69553896D01*
X245669923Y-69697339D01*
X245669918Y-69697343D01*
X245497343Y-69869918D01*
X245497339Y-69869923D01*
X245353896Y-70067357D01*
X245243097Y-70284812D01*
X245167678Y-70516927D01*
X245129500Y-70757973D01*
X233115509Y-70757973D01*
X233145854Y-70698419D01*
X233146676Y-70696806D01*
X233168801Y-70653383D01*
X233168802Y-70653380D01*
X233199543Y-70558768D01*
X233236386Y-70445375D01*
X233254012Y-70334082D01*
X233270600Y-70229361D01*
X233270600Y-70010638D01*
X233246803Y-69860395D01*
X233236386Y-69794625D01*
X233201962Y-69688676D01*
X233168802Y-69586619D01*
X233168801Y-69586616D01*
X233134415Y-69519132D01*
X233069507Y-69391743D01*
X233059677Y-69378213D01*
X232940957Y-69214806D01*
X232786293Y-69060142D01*
X232609360Y-68931595D01*
X232609359Y-68931594D01*
X232609357Y-68931593D01*
X232546925Y-68899782D01*
X232414483Y-68832298D01*
X232414480Y-68832297D01*
X232206476Y-68764714D01*
X231990461Y-68730500D01*
X231990456Y-68730500D01*
X231771744Y-68730500D01*
X231771739Y-68730500D01*
X231555723Y-68764714D01*
X231347719Y-68832297D01*
X231347716Y-68832298D01*
X231152839Y-68931595D01*
X230975906Y-69060142D01*
X230821242Y-69214806D01*
X230692695Y-69391739D01*
X230593398Y-69586616D01*
X230593397Y-69586619D01*
X230525814Y-69794623D01*
X230491600Y-70010638D01*
X205610000Y-70010638D01*
X205610000Y-70010615D01*
X205606336Y-69982787D01*
X205581565Y-69794625D01*
X205581445Y-69793715D01*
X205524823Y-69582399D01*
X205515664Y-69560288D01*
X205467122Y-69443096D01*
X205441103Y-69380281D01*
X205441101Y-69380278D01*
X205441099Y-69380273D01*
X205331721Y-69190826D01*
X205331717Y-69190819D01*
X205293376Y-69140852D01*
X205198539Y-69017258D01*
X205198533Y-69017251D01*
X205043848Y-68862566D01*
X205043841Y-68862560D01*
X204870289Y-68729389D01*
X204870287Y-68729387D01*
X204870281Y-68729383D01*
X204870276Y-68729380D01*
X204870273Y-68729378D01*
X204680826Y-68620000D01*
X204680815Y-68619995D01*
X204478703Y-68536277D01*
X204267383Y-68479654D01*
X204050486Y-68451100D01*
X204050485Y-68451100D01*
X203831715Y-68451100D01*
X203831714Y-68451100D01*
X203614816Y-68479654D01*
X203403496Y-68536277D01*
X203201384Y-68619995D01*
X203201373Y-68620000D01*
X203011926Y-68729378D01*
X203011910Y-68729389D01*
X202838358Y-68862560D01*
X202838351Y-68862566D01*
X202683666Y-69017251D01*
X202683660Y-69017258D01*
X202550489Y-69190810D01*
X202550478Y-69190826D01*
X202441100Y-69380273D01*
X202441095Y-69380284D01*
X202357377Y-69582396D01*
X202300754Y-69793716D01*
X202272200Y-70010614D01*
X200283898Y-70010614D01*
X200283898Y-69982792D01*
X200283898Y-69982789D01*
X200283897Y-69982787D01*
X200271638Y-69921158D01*
X200253773Y-69831344D01*
X200243465Y-69806458D01*
X200194684Y-69688689D01*
X200194677Y-69688676D01*
X200108893Y-69560292D01*
X200108890Y-69560288D01*
X199999708Y-69451106D01*
X199999704Y-69451103D01*
X199871320Y-69365319D01*
X199871307Y-69365312D01*
X199728657Y-69306225D01*
X199728645Y-69306222D01*
X199577208Y-69276099D01*
X199577205Y-69276099D01*
X199422791Y-69276099D01*
X199422788Y-69276099D01*
X199271350Y-69306222D01*
X199271338Y-69306225D01*
X199128688Y-69365312D01*
X199128675Y-69365319D01*
X199000291Y-69451103D01*
X199000287Y-69451106D01*
X198891105Y-69560288D01*
X198891102Y-69560292D01*
X198805318Y-69688676D01*
X198805311Y-69688689D01*
X198746224Y-69831339D01*
X198746221Y-69831351D01*
X198716098Y-69982787D01*
X197291032Y-69982787D01*
X197175008Y-69898492D01*
X197175007Y-69898491D01*
X197175005Y-69898490D01*
X196994381Y-69806457D01*
X196801583Y-69743813D01*
X196801581Y-69743812D01*
X196801579Y-69743812D01*
X196639632Y-69718162D01*
X196601359Y-69712100D01*
X196398639Y-69712100D01*
X196360366Y-69718162D01*
X196198418Y-69743812D01*
X196005614Y-69806458D01*
X195824989Y-69898492D01*
X195660994Y-70017639D01*
X195517638Y-70160995D01*
X195398491Y-70324990D01*
X195306457Y-70505615D01*
X195243811Y-70698419D01*
X195212099Y-70898640D01*
X195212099Y-71101359D01*
X195231324Y-71222743D01*
X195243812Y-71301584D01*
X195300251Y-71475286D01*
X195306457Y-71494384D01*
X195398488Y-71675005D01*
X195466721Y-71768920D01*
X195490200Y-71834727D01*
X195474374Y-71902780D01*
X195424268Y-71951475D01*
X195355790Y-71965350D01*
X195290681Y-71940000D01*
X195278721Y-71929486D01*
X194784077Y-71434842D01*
X194750592Y-71373519D01*
X194753830Y-71308835D01*
X194756187Y-71301584D01*
X194768675Y-71222743D01*
X194787900Y-71101359D01*
X194787900Y-70898640D01*
X194756187Y-70698416D01*
X194693543Y-70505618D01*
X194601510Y-70324994D01*
X194573808Y-70286865D01*
X194482360Y-70160995D01*
X194339004Y-70017639D01*
X194175009Y-69898492D01*
X194175008Y-69898491D01*
X194175006Y-69898490D01*
X193994382Y-69806457D01*
X193801584Y-69743813D01*
X193801582Y-69743812D01*
X193801580Y-69743812D01*
X193639633Y-69718162D01*
X193601360Y-69712100D01*
X193398640Y-69712100D01*
X193360367Y-69718162D01*
X193198419Y-69743812D01*
X193005615Y-69806458D01*
X192824990Y-69898492D01*
X192660995Y-70017639D01*
X192517639Y-70160995D01*
X192398492Y-70324990D01*
X192306458Y-70505615D01*
X192243812Y-70698419D01*
X192212100Y-70898640D01*
X192212100Y-71101359D01*
X192231325Y-71222743D01*
X192243813Y-71301584D01*
X192306457Y-71494382D01*
X192398489Y-71675005D01*
X192398492Y-71675009D01*
X192517639Y-71839004D01*
X192660995Y-71982360D01*
X192771521Y-72062660D01*
X192824994Y-72101510D01*
X193005618Y-72193543D01*
X193198416Y-72256187D01*
X193398640Y-72287900D01*
X193398641Y-72287900D01*
X193601359Y-72287900D01*
X193601360Y-72287900D01*
X193687898Y-72274193D01*
X193801579Y-72256188D01*
X193801580Y-72256187D01*
X193801584Y-72256187D01*
X193808835Y-72253830D01*
X193878671Y-72251828D01*
X193934842Y-72284077D01*
X194363181Y-72712416D01*
X194377884Y-72739343D01*
X194394477Y-72765162D01*
X194395368Y-72771362D01*
X194396666Y-72773739D01*
X194399500Y-72800097D01*
X194399500Y-72818229D01*
X194379815Y-72885268D01*
X194327011Y-72931023D01*
X194257853Y-72940967D01*
X194202615Y-72918548D01*
X194175005Y-72898488D01*
X193994384Y-72806457D01*
X193994383Y-72806456D01*
X193994382Y-72806456D01*
X193801584Y-72743812D01*
X193801582Y-72743811D01*
X193801580Y-72743811D01*
X193661782Y-72721669D01*
X193601360Y-72712099D01*
X193398640Y-72712099D01*
X193352224Y-72719450D01*
X193198419Y-72743811D01*
X193005615Y-72806457D01*
X192824990Y-72898491D01*
X192660993Y-73017640D01*
X192660986Y-73017646D01*
X192614112Y-73064519D01*
X192552789Y-73098003D01*
X192483097Y-73093017D01*
X192438752Y-73064517D01*
X191512590Y-72138355D01*
X191505521Y-72131286D01*
X191505520Y-72131284D01*
X191435479Y-72061243D01*
X191404708Y-72004887D01*
X191401997Y-71999923D01*
X191406981Y-71930231D01*
X191435482Y-71885884D01*
X191458185Y-71863181D01*
X191482356Y-71839010D01*
X191482358Y-71839006D01*
X191482361Y-71839004D01*
X191541433Y-71757697D01*
X191601511Y-71675006D01*
X191693544Y-71494382D01*
X191756188Y-71301584D01*
X191787901Y-71101360D01*
X191787901Y-70898640D01*
X191756188Y-70698416D01*
X191693544Y-70505618D01*
X191601511Y-70324994D01*
X191573809Y-70286865D01*
X191482361Y-70160995D01*
X191339005Y-70017639D01*
X191175010Y-69898492D01*
X191175009Y-69898491D01*
X191175007Y-69898490D01*
X190994383Y-69806457D01*
X190801585Y-69743813D01*
X190801583Y-69743812D01*
X190801581Y-69743812D01*
X190639634Y-69718162D01*
X190601361Y-69712100D01*
X190398641Y-69712100D01*
X190360368Y-69718162D01*
X190198420Y-69743812D01*
X190005616Y-69806458D01*
X189824991Y-69898492D01*
X189660996Y-70017639D01*
X189517640Y-70160995D01*
X189398493Y-70324990D01*
X189306459Y-70505615D01*
X189243813Y-70698419D01*
X189212101Y-70898640D01*
X189212101Y-71101359D01*
X189231326Y-71222743D01*
X189243814Y-71301584D01*
X189300253Y-71475286D01*
X189306459Y-71494384D01*
X189398490Y-71675005D01*
X189418550Y-71702615D01*
X189442029Y-71768422D01*
X189426203Y-71836476D01*
X189376097Y-71885170D01*
X189318231Y-71899500D01*
X188800097Y-71899500D01*
X188733058Y-71879815D01*
X188712416Y-71863181D01*
X187813461Y-70964226D01*
X187779976Y-70902903D01*
X187784960Y-70833211D01*
X187826832Y-70777278D01*
X187853688Y-70761984D01*
X187871318Y-70754682D01*
X187999709Y-70668894D01*
X188108897Y-70559706D01*
X188194685Y-70431315D01*
X188253777Y-70288654D01*
X188283902Y-70137206D01*
X188283902Y-69982792D01*
X188283902Y-69982789D01*
X188283901Y-69982787D01*
X188271642Y-69921158D01*
X188253777Y-69831344D01*
X188243469Y-69806458D01*
X188194688Y-69688689D01*
X188194681Y-69688676D01*
X188108897Y-69560292D01*
X188108894Y-69560288D01*
X187999712Y-69451106D01*
X187999708Y-69451103D01*
X187871324Y-69365319D01*
X187871311Y-69365312D01*
X187728661Y-69306225D01*
X187728649Y-69306222D01*
X187577212Y-69276099D01*
X187577209Y-69276099D01*
X187422795Y-69276099D01*
X187422792Y-69276099D01*
X187271354Y-69306222D01*
X187271342Y-69306225D01*
X187128692Y-69365312D01*
X187128679Y-69365319D01*
X187000295Y-69451103D01*
X187000291Y-69451106D01*
X186891109Y-69560288D01*
X186891106Y-69560292D01*
X186805322Y-69688676D01*
X186805314Y-69688690D01*
X186798014Y-69706315D01*
X186754171Y-69760717D01*
X186687876Y-69782779D01*
X186620177Y-69765497D01*
X186595774Y-69746539D01*
X185886819Y-69037584D01*
X185853334Y-68976261D01*
X185850500Y-68949903D01*
X185850500Y-67579765D01*
X185870185Y-67512726D01*
X185871398Y-67510874D01*
X185876899Y-67502642D01*
X185959394Y-67379179D01*
X186019737Y-67233497D01*
X186050500Y-67078842D01*
X186050500Y-66921158D01*
X186050500Y-66921155D01*
X186050499Y-66921153D01*
X186019737Y-66766503D01*
X185965423Y-66635376D01*
X185959397Y-66620827D01*
X185959390Y-66620814D01*
X185871398Y-66489125D01*
X185865747Y-66471078D01*
X185855523Y-66455169D01*
X185851071Y-66424207D01*
X185850520Y-66422447D01*
X185850500Y-66420234D01*
X185850500Y-66200638D01*
X202551600Y-66200638D01*
X202551600Y-66419361D01*
X202585814Y-66635376D01*
X202653397Y-66843380D01*
X202653398Y-66843383D01*
X202752695Y-67038260D01*
X202881242Y-67215193D01*
X203035906Y-67369857D01*
X203201474Y-67490147D01*
X203212843Y-67498407D01*
X203340232Y-67563315D01*
X203407716Y-67597701D01*
X203407719Y-67597702D01*
X203511721Y-67631493D01*
X203615725Y-67665286D01*
X203715772Y-67681132D01*
X203831739Y-67699500D01*
X203831744Y-67699500D01*
X204050461Y-67699500D01*
X204155182Y-67682912D01*
X204266475Y-67665286D01*
X204474483Y-67597701D01*
X204669357Y-67498407D01*
X204768701Y-67426229D01*
X204846293Y-67369857D01*
X204846295Y-67369854D01*
X204846299Y-67369852D01*
X205000952Y-67215199D01*
X205000954Y-67215195D01*
X205000957Y-67215193D01*
X205057329Y-67137601D01*
X205129507Y-67038257D01*
X205228801Y-66843383D01*
X205253778Y-66766510D01*
X205296386Y-66635376D01*
X205307062Y-66567973D01*
X245129500Y-66567973D01*
X245129500Y-66812027D01*
X245167679Y-67053076D01*
X245243096Y-67285185D01*
X245351736Y-67498404D01*
X245353896Y-67502642D01*
X245497339Y-67700076D01*
X245497343Y-67700081D01*
X245669918Y-67872656D01*
X245669923Y-67872660D01*
X245842136Y-67997779D01*
X245867361Y-68016106D01*
X246084815Y-68126904D01*
X246316924Y-68202321D01*
X246557973Y-68240500D01*
X246557974Y-68240500D01*
X246802026Y-68240500D01*
X246802027Y-68240500D01*
X247043076Y-68202321D01*
X247275185Y-68126904D01*
X247492639Y-68016106D01*
X247690083Y-67872655D01*
X247862655Y-67700083D01*
X248006106Y-67502639D01*
X248116904Y-67285185D01*
X248192321Y-67053076D01*
X248230500Y-66812027D01*
X248230500Y-66567973D01*
X248192321Y-66326924D01*
X248116904Y-66094815D01*
X248006106Y-65877361D01*
X247956858Y-65809577D01*
X247862660Y-65679923D01*
X247862656Y-65679918D01*
X247690081Y-65507343D01*
X247690076Y-65507339D01*
X247492642Y-65363896D01*
X247492641Y-65363895D01*
X247492639Y-65363894D01*
X247275185Y-65253096D01*
X247043076Y-65177679D01*
X247043074Y-65177678D01*
X247043072Y-65177678D01*
X246874769Y-65151021D01*
X246802027Y-65139500D01*
X246557973Y-65139500D01*
X246502093Y-65148350D01*
X246316927Y-65177678D01*
X246316924Y-65177679D01*
X246093907Y-65250142D01*
X246084812Y-65253097D01*
X245867357Y-65363896D01*
X245669923Y-65507339D01*
X245669918Y-65507343D01*
X245497343Y-65679918D01*
X245497339Y-65679923D01*
X245353896Y-65877357D01*
X245243097Y-66094812D01*
X245167678Y-66326927D01*
X245144847Y-66471078D01*
X245129500Y-66567973D01*
X205307062Y-66567973D01*
X205310906Y-66543703D01*
X205330600Y-66419361D01*
X205330600Y-66200638D01*
X205310695Y-66074971D01*
X205296386Y-65984625D01*
X205228801Y-65776617D01*
X205228801Y-65776616D01*
X205194415Y-65709132D01*
X205129507Y-65581743D01*
X205079882Y-65513439D01*
X205000957Y-65404806D01*
X204846293Y-65250142D01*
X204669360Y-65121595D01*
X204669359Y-65121594D01*
X204669357Y-65121593D01*
X204606925Y-65089782D01*
X204474483Y-65022298D01*
X204474480Y-65022297D01*
X204266476Y-64954714D01*
X204050461Y-64920500D01*
X204050456Y-64920500D01*
X203831744Y-64920500D01*
X203831739Y-64920500D01*
X203615723Y-64954714D01*
X203407719Y-65022297D01*
X203407716Y-65022298D01*
X203212839Y-65121595D01*
X203035906Y-65250142D01*
X202881242Y-65404806D01*
X202752695Y-65581739D01*
X202653398Y-65776616D01*
X202653397Y-65776619D01*
X202585814Y-65984623D01*
X202551600Y-66200638D01*
X185850500Y-66200638D01*
X185850500Y-63421153D01*
X191699500Y-63421153D01*
X191699500Y-63578846D01*
X191730261Y-63733489D01*
X191730264Y-63733501D01*
X191790602Y-63879172D01*
X191790609Y-63879185D01*
X191878602Y-64010874D01*
X191899480Y-64077551D01*
X191899500Y-64079765D01*
X191899500Y-64663330D01*
X191899499Y-64663348D01*
X191899499Y-64829054D01*
X191899498Y-64829054D01*
X191899499Y-64829057D01*
X191940423Y-64981785D01*
X191940424Y-64981786D01*
X191952307Y-65002370D01*
X191952308Y-65002371D01*
X192019475Y-65118709D01*
X192019479Y-65118714D01*
X192019480Y-65118716D01*
X192131284Y-65230520D01*
X192131285Y-65230521D01*
X192631284Y-65730520D01*
X192631286Y-65730521D01*
X192631290Y-65730524D01*
X192768209Y-65809573D01*
X192768216Y-65809577D01*
X192920943Y-65850501D01*
X192920945Y-65850501D01*
X193086654Y-65850501D01*
X193086670Y-65850500D01*
X193521234Y-65850500D01*
X193588273Y-65870185D01*
X193590125Y-65871398D01*
X193721814Y-65959390D01*
X193721827Y-65959397D01*
X193782734Y-65984625D01*
X193867503Y-66019737D01*
X194022153Y-66050499D01*
X194022156Y-66050500D01*
X194022158Y-66050500D01*
X194179844Y-66050500D01*
X194179845Y-66050499D01*
X194334497Y-66019737D01*
X194480179Y-65959394D01*
X194611289Y-65871789D01*
X194722789Y-65760289D01*
X194810394Y-65629179D01*
X194870737Y-65483497D01*
X194901500Y-65328842D01*
X194901500Y-65171158D01*
X194901500Y-65171155D01*
X194901499Y-65171153D01*
X194891069Y-65118717D01*
X194870737Y-65016503D01*
X194856357Y-64981786D01*
X194810397Y-64870827D01*
X194810390Y-64870814D01*
X194722789Y-64739711D01*
X194722786Y-64739707D01*
X194611292Y-64628213D01*
X194611288Y-64628210D01*
X194480185Y-64540609D01*
X194480172Y-64540602D01*
X194334501Y-64480264D01*
X194334489Y-64480261D01*
X194179845Y-64449500D01*
X194179842Y-64449500D01*
X194022158Y-64449500D01*
X194022155Y-64449500D01*
X193867510Y-64480261D01*
X193867498Y-64480264D01*
X193721827Y-64540602D01*
X193721814Y-64540609D01*
X193590125Y-64628602D01*
X193572078Y-64634252D01*
X193556169Y-64644477D01*
X193525207Y-64648928D01*
X193523447Y-64649480D01*
X193521234Y-64649500D01*
X193300098Y-64649500D01*
X193233059Y-64629815D01*
X193212417Y-64613181D01*
X193136819Y-64537583D01*
X193103334Y-64476260D01*
X193100500Y-64449902D01*
X193100500Y-64079765D01*
X193120185Y-64012726D01*
X193121398Y-64010874D01*
X193209390Y-63879185D01*
X193209390Y-63879184D01*
X193209394Y-63879179D01*
X193269737Y-63733497D01*
X193300500Y-63578842D01*
X193300500Y-63421158D01*
X193300500Y-63421155D01*
X193300499Y-63421153D01*
X193269737Y-63266503D01*
X193269735Y-63266498D01*
X193209397Y-63120827D01*
X193209390Y-63120814D01*
X193121789Y-62989711D01*
X193121786Y-62989707D01*
X193010292Y-62878213D01*
X193010288Y-62878210D01*
X192879185Y-62790609D01*
X192879172Y-62790602D01*
X192733501Y-62730264D01*
X192733489Y-62730261D01*
X192578845Y-62699500D01*
X192578842Y-62699500D01*
X192421158Y-62699500D01*
X192421155Y-62699500D01*
X192266510Y-62730261D01*
X192266498Y-62730264D01*
X192120827Y-62790602D01*
X192120814Y-62790609D01*
X191989711Y-62878210D01*
X191989707Y-62878213D01*
X191878213Y-62989707D01*
X191878210Y-62989711D01*
X191790609Y-63120814D01*
X191790602Y-63120827D01*
X191730264Y-63266498D01*
X191730261Y-63266510D01*
X191699500Y-63421153D01*
X185850500Y-63421153D01*
X185850500Y-62390638D01*
X202551600Y-62390638D01*
X202551600Y-62609361D01*
X202585814Y-62825376D01*
X202653397Y-63033380D01*
X202653398Y-63033383D01*
X202752695Y-63228260D01*
X202881242Y-63405193D01*
X203035906Y-63559857D01*
X203196538Y-63676561D01*
X203212843Y-63688407D01*
X203321165Y-63743600D01*
X203407716Y-63787701D01*
X203407719Y-63787702D01*
X203498648Y-63817246D01*
X203615725Y-63855286D01*
X203715772Y-63871132D01*
X203831739Y-63889500D01*
X203831744Y-63889500D01*
X204050461Y-63889500D01*
X204155182Y-63872912D01*
X204266475Y-63855286D01*
X204474483Y-63787701D01*
X204669357Y-63688407D01*
X204820159Y-63578844D01*
X204846293Y-63559857D01*
X204846295Y-63559854D01*
X204846299Y-63559852D01*
X205000952Y-63405199D01*
X205000954Y-63405195D01*
X205000957Y-63405193D01*
X205068200Y-63312639D01*
X205129507Y-63228257D01*
X205228801Y-63033383D01*
X205296386Y-62825375D01*
X205316323Y-62699500D01*
X205330600Y-62609361D01*
X205330600Y-62390638D01*
X230491600Y-62390638D01*
X230491600Y-62609361D01*
X230525814Y-62825376D01*
X230593397Y-63033380D01*
X230593398Y-63033383D01*
X230692695Y-63228260D01*
X230821242Y-63405193D01*
X230975906Y-63559857D01*
X231136538Y-63676561D01*
X231152843Y-63688407D01*
X231261165Y-63743600D01*
X231347716Y-63787701D01*
X231347719Y-63787702D01*
X231438648Y-63817246D01*
X231555725Y-63855286D01*
X231655772Y-63871132D01*
X231771739Y-63889500D01*
X231771744Y-63889500D01*
X231990461Y-63889500D01*
X232095182Y-63872912D01*
X232206475Y-63855286D01*
X232414483Y-63787701D01*
X232609357Y-63688407D01*
X232760159Y-63578844D01*
X232786293Y-63559857D01*
X232786295Y-63559854D01*
X232786299Y-63559852D01*
X232940952Y-63405199D01*
X232940954Y-63405195D01*
X232940957Y-63405193D01*
X233008200Y-63312639D01*
X233069507Y-63228257D01*
X233168801Y-63033383D01*
X233236386Y-62825375D01*
X233256323Y-62699500D01*
X233270600Y-62609361D01*
X233270600Y-62390637D01*
X233270599Y-62390635D01*
X233268594Y-62377973D01*
X245129500Y-62377973D01*
X245129500Y-62622026D01*
X245161707Y-62825375D01*
X245167679Y-62863076D01*
X245243096Y-63095185D01*
X245330390Y-63266510D01*
X245353896Y-63312642D01*
X245497339Y-63510076D01*
X245497343Y-63510081D01*
X245669918Y-63682656D01*
X245669923Y-63682660D01*
X245779421Y-63762214D01*
X245867361Y-63826106D01*
X246084815Y-63936904D01*
X246316924Y-64012321D01*
X246557973Y-64050500D01*
X246557974Y-64050500D01*
X246802026Y-64050500D01*
X246802027Y-64050500D01*
X247043076Y-64012321D01*
X247275185Y-63936904D01*
X247492639Y-63826106D01*
X247690083Y-63682655D01*
X247862655Y-63510083D01*
X248006106Y-63312639D01*
X248116904Y-63095185D01*
X248192321Y-62863076D01*
X248230500Y-62622027D01*
X248230500Y-62377973D01*
X248192321Y-62136924D01*
X248116904Y-61904815D01*
X248006106Y-61687361D01*
X247938861Y-61594806D01*
X247862660Y-61489923D01*
X247862656Y-61489918D01*
X247690081Y-61317343D01*
X247690076Y-61317339D01*
X247492642Y-61173896D01*
X247492641Y-61173895D01*
X247492639Y-61173894D01*
X247275185Y-61063096D01*
X247043076Y-60987679D01*
X247043074Y-60987678D01*
X247043072Y-60987678D01*
X246856703Y-60958160D01*
X246802027Y-60949500D01*
X246557973Y-60949500D01*
X246503297Y-60958160D01*
X246316927Y-60987678D01*
X246084812Y-61063097D01*
X245867357Y-61173896D01*
X245669923Y-61317339D01*
X245669918Y-61317343D01*
X245497343Y-61489918D01*
X245497339Y-61489923D01*
X245353896Y-61687357D01*
X245243097Y-61904812D01*
X245167678Y-62136927D01*
X245129500Y-62377973D01*
X233268594Y-62377973D01*
X233236386Y-62174623D01*
X233168802Y-61966619D01*
X233168801Y-61966616D01*
X233118830Y-61868544D01*
X233069507Y-61771743D01*
X233034762Y-61723920D01*
X232940957Y-61594806D01*
X232786293Y-61440142D01*
X232609360Y-61311595D01*
X232609359Y-61311594D01*
X232609357Y-61311593D01*
X232546925Y-61279782D01*
X232414483Y-61212298D01*
X232414480Y-61212297D01*
X232206476Y-61144714D01*
X231990461Y-61110500D01*
X231990456Y-61110500D01*
X231771744Y-61110500D01*
X231771739Y-61110500D01*
X231555723Y-61144714D01*
X231347719Y-61212297D01*
X231347716Y-61212298D01*
X231152839Y-61311595D01*
X230975906Y-61440142D01*
X230821242Y-61594806D01*
X230692695Y-61771739D01*
X230593398Y-61966616D01*
X230593397Y-61966619D01*
X230525814Y-62174623D01*
X230491600Y-62390638D01*
X205330600Y-62390638D01*
X205308403Y-62250500D01*
X205296386Y-62174625D01*
X205236963Y-61991736D01*
X205228802Y-61966619D01*
X205228801Y-61966616D01*
X205178830Y-61868544D01*
X205129507Y-61771743D01*
X205094762Y-61723920D01*
X205000957Y-61594806D01*
X204846293Y-61440142D01*
X204669360Y-61311595D01*
X204669359Y-61311594D01*
X204669357Y-61311593D01*
X204606925Y-61279782D01*
X204474483Y-61212298D01*
X204474480Y-61212297D01*
X204266476Y-61144714D01*
X204050461Y-61110500D01*
X204050456Y-61110500D01*
X203831744Y-61110500D01*
X203831739Y-61110500D01*
X203615723Y-61144714D01*
X203407719Y-61212297D01*
X203407716Y-61212298D01*
X203212839Y-61311595D01*
X203035906Y-61440142D01*
X202881242Y-61594806D01*
X202752695Y-61771739D01*
X202653398Y-61966616D01*
X202653397Y-61966619D01*
X202585814Y-62174623D01*
X202551600Y-62390638D01*
X185850500Y-62390638D01*
X185850500Y-61348543D01*
X198999499Y-61348543D01*
X199037947Y-61541829D01*
X199037950Y-61541839D01*
X199113364Y-61723907D01*
X199113371Y-61723920D01*
X199222860Y-61887781D01*
X199222863Y-61887785D01*
X199362214Y-62027136D01*
X199362218Y-62027139D01*
X199526079Y-62136628D01*
X199526092Y-62136635D01*
X199708160Y-62212049D01*
X199708165Y-62212051D01*
X199708169Y-62212051D01*
X199708170Y-62212052D01*
X199901456Y-62250500D01*
X199901459Y-62250500D01*
X200098543Y-62250500D01*
X200228582Y-62224632D01*
X200291835Y-62212051D01*
X200473914Y-62136632D01*
X200637782Y-62027139D01*
X200777139Y-61887782D01*
X200886632Y-61723914D01*
X200962051Y-61541835D01*
X201000500Y-61348541D01*
X201000500Y-61151459D01*
X201000500Y-61151456D01*
X200962052Y-60958170D01*
X200962051Y-60958169D01*
X200962051Y-60958165D01*
X200920513Y-60857883D01*
X200886635Y-60776092D01*
X200886628Y-60776079D01*
X200777139Y-60612218D01*
X200777136Y-60612214D01*
X200637785Y-60472863D01*
X200637781Y-60472860D01*
X200473920Y-60363371D01*
X200473907Y-60363364D01*
X200291839Y-60287950D01*
X200291829Y-60287947D01*
X200098543Y-60249500D01*
X200098541Y-60249500D01*
X199901459Y-60249500D01*
X199901457Y-60249500D01*
X199708170Y-60287947D01*
X199708160Y-60287950D01*
X199526092Y-60363364D01*
X199526079Y-60363371D01*
X199362218Y-60472860D01*
X199362214Y-60472863D01*
X199222863Y-60612214D01*
X199222860Y-60612218D01*
X199113371Y-60776079D01*
X199113364Y-60776092D01*
X199037950Y-60958160D01*
X199037947Y-60958170D01*
X198999500Y-61151456D01*
X198999500Y-61151459D01*
X198999500Y-61348541D01*
X198999500Y-61348543D01*
X198999499Y-61348543D01*
X185850500Y-61348543D01*
X185850500Y-58098543D01*
X198999499Y-58098543D01*
X199037947Y-58291829D01*
X199037950Y-58291839D01*
X199113364Y-58473907D01*
X199113371Y-58473920D01*
X199222860Y-58637781D01*
X199222863Y-58637785D01*
X199362214Y-58777136D01*
X199362218Y-58777139D01*
X199526079Y-58886628D01*
X199526092Y-58886635D01*
X199658441Y-58941455D01*
X199708165Y-58962051D01*
X199708169Y-58962051D01*
X199708170Y-58962052D01*
X199901456Y-59000500D01*
X199901459Y-59000500D01*
X200098543Y-59000500D01*
X200228582Y-58974632D01*
X200291835Y-58962051D01*
X200473914Y-58886632D01*
X200637782Y-58777139D01*
X200777139Y-58637782D01*
X200886632Y-58473914D01*
X200962051Y-58291835D01*
X200982711Y-58187973D01*
X245129500Y-58187973D01*
X245129500Y-58432026D01*
X245166590Y-58666204D01*
X245167679Y-58673076D01*
X245243096Y-58905185D01*
X245323062Y-59062128D01*
X245353896Y-59122642D01*
X245497339Y-59320076D01*
X245497343Y-59320081D01*
X245669918Y-59492656D01*
X245669923Y-59492660D01*
X245842136Y-59617779D01*
X245867361Y-59636106D01*
X246084815Y-59746904D01*
X246316924Y-59822321D01*
X246557973Y-59860500D01*
X246557974Y-59860500D01*
X246802026Y-59860500D01*
X246802027Y-59860500D01*
X247043076Y-59822321D01*
X247275185Y-59746904D01*
X247492639Y-59636106D01*
X247690083Y-59492655D01*
X247862655Y-59320083D01*
X248006106Y-59122639D01*
X248116904Y-58905185D01*
X248192321Y-58673076D01*
X248230500Y-58432027D01*
X248230500Y-58187973D01*
X248192321Y-57946924D01*
X248116904Y-57714815D01*
X248006106Y-57497361D01*
X247964003Y-57439411D01*
X247862660Y-57299923D01*
X247862656Y-57299918D01*
X247690081Y-57127343D01*
X247690076Y-57127339D01*
X247492642Y-56983896D01*
X247492641Y-56983895D01*
X247492639Y-56983894D01*
X247275185Y-56873096D01*
X247043076Y-56797679D01*
X247043074Y-56797678D01*
X247043072Y-56797678D01*
X246874769Y-56771021D01*
X246802027Y-56759500D01*
X246557973Y-56759500D01*
X246502093Y-56768350D01*
X246316927Y-56797678D01*
X246084812Y-56873097D01*
X245867357Y-56983896D01*
X245669923Y-57127339D01*
X245669918Y-57127343D01*
X245497343Y-57299918D01*
X245497339Y-57299923D01*
X245353896Y-57497357D01*
X245243097Y-57714812D01*
X245167678Y-57946927D01*
X245129500Y-58187973D01*
X200982711Y-58187973D01*
X201000500Y-58098541D01*
X201000500Y-57901459D01*
X201000500Y-57901456D01*
X200962052Y-57708170D01*
X200962051Y-57708169D01*
X200962051Y-57708165D01*
X200892906Y-57541232D01*
X200886635Y-57526092D01*
X200886628Y-57526079D01*
X200777139Y-57362218D01*
X200777136Y-57362214D01*
X200637785Y-57222863D01*
X200637781Y-57222860D01*
X200473920Y-57113371D01*
X200473907Y-57113364D01*
X200291839Y-57037950D01*
X200291829Y-57037947D01*
X200098543Y-56999500D01*
X200098541Y-56999500D01*
X199901459Y-56999500D01*
X199901457Y-56999500D01*
X199708170Y-57037947D01*
X199708160Y-57037950D01*
X199526092Y-57113364D01*
X199526079Y-57113371D01*
X199362218Y-57222860D01*
X199362214Y-57222863D01*
X199222863Y-57362214D01*
X199222860Y-57362218D01*
X199113371Y-57526079D01*
X199113364Y-57526092D01*
X199037950Y-57708160D01*
X199037947Y-57708170D01*
X198999500Y-57901456D01*
X198999500Y-57901459D01*
X198999500Y-58098541D01*
X198999500Y-58098543D01*
X198999499Y-58098543D01*
X185850500Y-58098543D01*
X185850500Y-56513389D01*
X194699500Y-56513389D01*
X194699500Y-56686611D01*
X194726598Y-56857701D01*
X194780127Y-57022445D01*
X194858768Y-57176788D01*
X194960586Y-57316928D01*
X195083072Y-57439414D01*
X195223212Y-57541232D01*
X195377555Y-57619873D01*
X195542299Y-57673402D01*
X195713389Y-57700500D01*
X195713390Y-57700500D01*
X195886610Y-57700500D01*
X195886611Y-57700500D01*
X196057701Y-57673402D01*
X196222445Y-57619873D01*
X196376788Y-57541232D01*
X196516928Y-57439414D01*
X196639414Y-57316928D01*
X196741232Y-57176788D01*
X196819873Y-57022445D01*
X196873402Y-56857701D01*
X196900500Y-56686611D01*
X196900500Y-56513389D01*
X196873402Y-56342299D01*
X196819873Y-56177555D01*
X196741232Y-56023212D01*
X196639414Y-55883072D01*
X196516928Y-55760586D01*
X196376788Y-55658768D01*
X196222445Y-55580127D01*
X196057701Y-55526598D01*
X196057699Y-55526597D01*
X196057698Y-55526597D01*
X195926271Y-55505781D01*
X195886611Y-55499500D01*
X195713389Y-55499500D01*
X195673728Y-55505781D01*
X195542302Y-55526597D01*
X195377552Y-55580128D01*
X195223211Y-55658768D01*
X195207064Y-55670500D01*
X195083072Y-55760586D01*
X195083070Y-55760588D01*
X195083069Y-55760588D01*
X194960588Y-55883069D01*
X194960588Y-55883070D01*
X194960586Y-55883072D01*
X194916859Y-55943256D01*
X194858768Y-56023211D01*
X194780128Y-56177552D01*
X194726597Y-56342302D01*
X194720626Y-56380003D01*
X194699500Y-56513389D01*
X185850500Y-56513389D01*
X185850500Y-54770614D01*
X202272200Y-54770614D01*
X202272200Y-54989385D01*
X202300754Y-55206283D01*
X202357377Y-55417603D01*
X202441095Y-55619715D01*
X202441100Y-55619726D01*
X202550478Y-55809173D01*
X202550489Y-55809189D01*
X202683660Y-55982741D01*
X202683666Y-55982748D01*
X202838351Y-56137433D01*
X202838358Y-56137439D01*
X202890638Y-56177555D01*
X203011919Y-56270617D01*
X203011926Y-56270621D01*
X203201373Y-56379999D01*
X203201378Y-56380001D01*
X203201381Y-56380003D01*
X203302440Y-56421863D01*
X203403496Y-56463722D01*
X203403497Y-56463722D01*
X203403499Y-56463723D01*
X203614815Y-56520345D01*
X203723265Y-56534622D01*
X203831714Y-56548900D01*
X203831715Y-56548900D01*
X204050486Y-56548900D01*
X204122785Y-56539381D01*
X204267385Y-56520345D01*
X204478701Y-56463723D01*
X204680819Y-56380003D01*
X204870281Y-56270617D01*
X205043843Y-56137438D01*
X205198538Y-55982743D01*
X205331717Y-55809181D01*
X205441103Y-55619719D01*
X205524823Y-55417601D01*
X205581445Y-55206285D01*
X205610000Y-54989385D01*
X205610000Y-54770615D01*
X205581445Y-54553715D01*
X205524823Y-54342399D01*
X205441103Y-54140281D01*
X205441101Y-54140278D01*
X205441099Y-54140273D01*
X205391926Y-54055103D01*
X205391925Y-54055102D01*
X205358941Y-53997973D01*
X245129500Y-53997973D01*
X245129500Y-54242027D01*
X245167679Y-54483076D01*
X245243096Y-54715185D01*
X245322771Y-54871557D01*
X245353896Y-54932642D01*
X245497339Y-55130076D01*
X245497343Y-55130081D01*
X245669918Y-55302656D01*
X245669923Y-55302660D01*
X245828127Y-55417601D01*
X245867361Y-55446106D01*
X246084815Y-55556904D01*
X246316924Y-55632321D01*
X246557973Y-55670500D01*
X246557974Y-55670500D01*
X246802026Y-55670500D01*
X246802027Y-55670500D01*
X247043076Y-55632321D01*
X247275185Y-55556904D01*
X247492639Y-55446106D01*
X247690083Y-55302655D01*
X247862655Y-55130083D01*
X248006106Y-54932639D01*
X248116904Y-54715185D01*
X248192321Y-54483076D01*
X248230500Y-54242027D01*
X248230500Y-53997973D01*
X248192321Y-53756924D01*
X248116904Y-53524815D01*
X248006106Y-53307361D01*
X247901917Y-53163956D01*
X247862660Y-53109923D01*
X247862656Y-53109918D01*
X247690081Y-52937343D01*
X247690076Y-52937339D01*
X247492642Y-52793896D01*
X247492641Y-52793895D01*
X247492639Y-52793894D01*
X247275185Y-52683096D01*
X247043076Y-52607679D01*
X247043074Y-52607678D01*
X247043072Y-52607678D01*
X246874769Y-52581021D01*
X246802027Y-52569500D01*
X246557973Y-52569500D01*
X246502093Y-52578350D01*
X246316927Y-52607678D01*
X246084812Y-52683097D01*
X245867357Y-52793896D01*
X245669923Y-52937339D01*
X245669918Y-52937343D01*
X245497343Y-53109918D01*
X245497339Y-53109923D01*
X245353896Y-53307357D01*
X245243097Y-53524812D01*
X245167678Y-53756927D01*
X245136967Y-53950826D01*
X245129500Y-53997973D01*
X205358941Y-53997973D01*
X205331717Y-53950819D01*
X205198538Y-53777257D01*
X205198533Y-53777251D01*
X205043848Y-53622566D01*
X205043841Y-53622560D01*
X204870289Y-53489389D01*
X204870287Y-53489387D01*
X204870281Y-53489383D01*
X204870276Y-53489380D01*
X204870273Y-53489378D01*
X204680826Y-53380000D01*
X204680815Y-53379995D01*
X204478703Y-53296277D01*
X204267383Y-53239654D01*
X204050486Y-53211100D01*
X204050485Y-53211100D01*
X203831715Y-53211100D01*
X203831714Y-53211100D01*
X203614816Y-53239654D01*
X203403496Y-53296277D01*
X203201384Y-53379995D01*
X203201373Y-53380000D01*
X203011926Y-53489378D01*
X203011910Y-53489389D01*
X202838358Y-53622560D01*
X202838351Y-53622566D01*
X202683666Y-53777251D01*
X202683660Y-53777258D01*
X202550489Y-53950810D01*
X202550478Y-53950826D01*
X202441100Y-54140273D01*
X202441095Y-54140284D01*
X202357377Y-54342396D01*
X202300754Y-54553716D01*
X202272200Y-54770614D01*
X185850500Y-54770614D01*
X185850500Y-46951902D01*
X221849500Y-46951902D01*
X221849500Y-47188097D01*
X221886446Y-47421368D01*
X221959433Y-47645996D01*
X222066657Y-47856433D01*
X222205483Y-48047510D01*
X222372490Y-48214517D01*
X222563567Y-48353343D01*
X222662991Y-48404002D01*
X222774003Y-48460566D01*
X222774005Y-48460566D01*
X222774008Y-48460568D01*
X222894412Y-48499689D01*
X222998631Y-48533553D01*
X223231903Y-48570500D01*
X223231908Y-48570500D01*
X223468097Y-48570500D01*
X223701368Y-48533553D01*
X223925992Y-48460568D01*
X224136433Y-48353343D01*
X224327510Y-48214517D01*
X224494517Y-48047510D01*
X224633343Y-47856433D01*
X224740568Y-47645992D01*
X224813553Y-47421368D01*
X224826211Y-47341447D01*
X224850500Y-47188097D01*
X224850500Y-46951902D01*
X224813553Y-46718631D01*
X224740566Y-46494003D01*
X224633342Y-46283566D01*
X224494517Y-46092490D01*
X224327510Y-45925483D01*
X224136433Y-45786657D01*
X224111080Y-45773739D01*
X223925996Y-45679433D01*
X223701368Y-45606446D01*
X223468097Y-45569500D01*
X223468092Y-45569500D01*
X223231908Y-45569500D01*
X223231903Y-45569500D01*
X222998631Y-45606446D01*
X222774003Y-45679433D01*
X222563566Y-45786657D01*
X222545068Y-45800097D01*
X222372490Y-45925483D01*
X222372488Y-45925485D01*
X222372487Y-45925485D01*
X222205485Y-46092487D01*
X222205485Y-46092488D01*
X222205483Y-46092490D01*
X222195460Y-46106286D01*
X222066657Y-46283566D01*
X221959433Y-46494003D01*
X221886446Y-46718631D01*
X221849500Y-46951902D01*
X185850500Y-46951902D01*
X185850500Y-45420945D01*
X185850500Y-45420943D01*
X185809577Y-45268216D01*
X185809577Y-45268215D01*
X185809577Y-45268214D01*
X185780639Y-45218095D01*
X185780637Y-45218092D01*
X185730520Y-45131284D01*
X185618716Y-45019480D01*
X185618715Y-45019479D01*
X185614385Y-45015149D01*
X185614374Y-45015139D01*
X182455378Y-41856143D01*
X207199499Y-41856143D01*
X207237947Y-42049429D01*
X207237950Y-42049439D01*
X207313364Y-42231507D01*
X207313371Y-42231520D01*
X207422860Y-42395381D01*
X207422863Y-42395385D01*
X207562214Y-42534736D01*
X207562218Y-42534739D01*
X207726079Y-42644228D01*
X207726092Y-42644235D01*
X207908160Y-42719649D01*
X207908165Y-42719651D01*
X207908169Y-42719651D01*
X207908170Y-42719652D01*
X208101456Y-42758100D01*
X208101459Y-42758100D01*
X208298543Y-42758100D01*
X208428582Y-42732232D01*
X208491835Y-42719651D01*
X208673914Y-42644232D01*
X208837782Y-42534739D01*
X208977139Y-42395382D01*
X209086632Y-42231514D01*
X209086761Y-42231204D01*
X209129696Y-42127547D01*
X209162051Y-42049435D01*
X209176436Y-41977116D01*
X209200500Y-41856143D01*
X209200500Y-41659056D01*
X209162052Y-41465770D01*
X209162051Y-41465769D01*
X209162051Y-41465765D01*
X209106460Y-41331555D01*
X209086635Y-41283692D01*
X209086628Y-41283679D01*
X208977139Y-41119818D01*
X208977136Y-41119814D01*
X208837786Y-40980464D01*
X208837782Y-40980461D01*
X208806840Y-40959786D01*
X208685507Y-40878713D01*
X242149500Y-40878713D01*
X242149500Y-41091286D01*
X242172269Y-41235048D01*
X242182754Y-41301243D01*
X242236212Y-41465770D01*
X242248444Y-41503414D01*
X242344951Y-41692820D01*
X242469890Y-41864786D01*
X242583430Y-41978326D01*
X242616915Y-42039649D01*
X242611931Y-42109341D01*
X242570059Y-42165274D01*
X242539083Y-42182189D01*
X242407669Y-42231203D01*
X242407664Y-42231206D01*
X242292455Y-42317452D01*
X242292452Y-42317455D01*
X242206206Y-42432664D01*
X242206202Y-42432671D01*
X242155908Y-42567517D01*
X242149501Y-42627116D01*
X242149501Y-42627123D01*
X242149500Y-42627135D01*
X242149500Y-44422870D01*
X242149501Y-44422876D01*
X242155908Y-44482483D01*
X242206202Y-44617328D01*
X242206206Y-44617335D01*
X242292452Y-44732544D01*
X242292455Y-44732547D01*
X242407664Y-44818793D01*
X242407671Y-44818797D01*
X242542517Y-44869091D01*
X242542516Y-44869091D01*
X242549444Y-44869835D01*
X242602127Y-44875500D01*
X244397872Y-44875499D01*
X244457483Y-44869091D01*
X244592331Y-44818796D01*
X244707546Y-44732546D01*
X244793796Y-44617331D01*
X244844091Y-44482483D01*
X244850500Y-44422873D01*
X244850499Y-42627128D01*
X244844091Y-42567517D01*
X244831864Y-42534736D01*
X244793797Y-42432671D01*
X244793793Y-42432664D01*
X244707547Y-42317455D01*
X244707544Y-42317452D01*
X244592335Y-42231206D01*
X244592328Y-42231202D01*
X244460917Y-42182189D01*
X244460916Y-42182189D01*
X244404982Y-42140317D01*
X244389127Y-42097806D01*
X244380566Y-42074853D01*
X244382933Y-42063974D01*
X244395418Y-42006580D01*
X244416563Y-41978332D01*
X244417760Y-41977135D01*
X248524500Y-41977135D01*
X248524500Y-44022870D01*
X248524501Y-44022876D01*
X248530908Y-44082483D01*
X248581202Y-44217328D01*
X248581206Y-44217335D01*
X248667452Y-44332544D01*
X248667455Y-44332547D01*
X248782664Y-44418793D01*
X248782671Y-44418797D01*
X248917517Y-44469091D01*
X248917516Y-44469091D01*
X248924444Y-44469835D01*
X248977127Y-44475500D01*
X251022872Y-44475499D01*
X251082483Y-44469091D01*
X251217331Y-44418796D01*
X251332546Y-44332546D01*
X251418796Y-44217331D01*
X251469091Y-44082483D01*
X251475500Y-44022873D01*
X251475499Y-41977128D01*
X251469091Y-41917517D01*
X251457382Y-41886124D01*
X251418797Y-41782671D01*
X251418793Y-41782664D01*
X251332547Y-41667455D01*
X251332544Y-41667452D01*
X251217335Y-41581206D01*
X251217328Y-41581202D01*
X251082482Y-41530908D01*
X251082483Y-41530908D01*
X251022883Y-41524501D01*
X251022881Y-41524500D01*
X251022873Y-41524500D01*
X251022864Y-41524500D01*
X248977129Y-41524500D01*
X248977123Y-41524501D01*
X248917516Y-41530908D01*
X248782671Y-41581202D01*
X248782664Y-41581206D01*
X248667455Y-41667452D01*
X248667452Y-41667455D01*
X248581206Y-41782664D01*
X248581202Y-41782671D01*
X248530908Y-41917517D01*
X248524501Y-41977116D01*
X248524501Y-41977123D01*
X248524500Y-41977135D01*
X244417760Y-41977135D01*
X244530104Y-41864792D01*
X244530106Y-41864788D01*
X244530109Y-41864786D01*
X244655048Y-41692820D01*
X244655047Y-41692820D01*
X244655051Y-41692816D01*
X244751557Y-41503412D01*
X244817246Y-41301243D01*
X244850500Y-41091287D01*
X244850500Y-40878713D01*
X244817246Y-40668757D01*
X244751557Y-40466588D01*
X244655051Y-40277184D01*
X244655049Y-40277181D01*
X244655048Y-40277179D01*
X244530109Y-40105213D01*
X244379786Y-39954890D01*
X244207820Y-39829951D01*
X244018414Y-39733444D01*
X244018413Y-39733443D01*
X244018412Y-39733443D01*
X243816243Y-39667754D01*
X243816241Y-39667753D01*
X243816240Y-39667753D01*
X243620928Y-39636819D01*
X243606287Y-39634500D01*
X243393713Y-39634500D01*
X243379072Y-39636819D01*
X243183760Y-39667753D01*
X242981585Y-39733444D01*
X242792179Y-39829951D01*
X242620213Y-39954890D01*
X242469890Y-40105213D01*
X242344951Y-40277179D01*
X242248444Y-40466585D01*
X242182753Y-40668760D01*
X242149500Y-40878713D01*
X208685507Y-40878713D01*
X208673920Y-40870971D01*
X208673907Y-40870964D01*
X208491839Y-40795550D01*
X208491829Y-40795547D01*
X208298543Y-40757100D01*
X208298541Y-40757100D01*
X208101459Y-40757100D01*
X208101457Y-40757100D01*
X207908170Y-40795547D01*
X207908160Y-40795550D01*
X207726092Y-40870964D01*
X207726079Y-40870971D01*
X207562218Y-40980460D01*
X207562214Y-40980463D01*
X207422863Y-41119814D01*
X207422860Y-41119818D01*
X207313371Y-41283679D01*
X207313364Y-41283692D01*
X207237950Y-41465760D01*
X207237947Y-41465770D01*
X207199500Y-41659056D01*
X207199500Y-41659059D01*
X207199500Y-41856141D01*
X207199500Y-41856143D01*
X207199499Y-41856143D01*
X182455378Y-41856143D01*
X179237590Y-38638355D01*
X179237588Y-38638352D01*
X179118717Y-38519481D01*
X179118716Y-38519480D01*
X179031904Y-38469360D01*
X179031904Y-38469359D01*
X179031900Y-38469358D01*
X178981785Y-38440423D01*
X178829057Y-38399499D01*
X178670943Y-38399499D01*
X178663347Y-38399499D01*
X178663331Y-38399500D01*
X174894782Y-38399500D01*
X174827743Y-38379815D01*
X174781988Y-38327011D01*
X174772044Y-38257853D01*
X174801069Y-38194297D01*
X174807101Y-38187819D01*
X177918101Y-35076819D01*
X177979424Y-35043334D01*
X178005782Y-35040500D01*
X183001705Y-35040500D01*
X183068744Y-35060185D01*
X183074576Y-35064171D01*
X183225286Y-35173670D01*
X183313116Y-35218421D01*
X183411179Y-35268387D01*
X183411181Y-35268387D01*
X183411184Y-35268389D01*
X183516216Y-35302516D01*
X183609610Y-35332862D01*
X183815676Y-35365500D01*
X183815681Y-35365500D01*
X184024324Y-35365500D01*
X184230389Y-35332862D01*
X184231543Y-35332487D01*
X184428816Y-35268389D01*
X184614714Y-35173670D01*
X184783505Y-35051035D01*
X184931035Y-34903505D01*
X185053670Y-34734714D01*
X185079515Y-34683990D01*
X185127489Y-34633194D01*
X185195310Y-34616398D01*
X185261445Y-34638935D01*
X185300485Y-34683990D01*
X185326328Y-34734712D01*
X185380666Y-34809500D01*
X185448965Y-34903505D01*
X185596495Y-35051035D01*
X185765286Y-35173670D01*
X185853116Y-35218421D01*
X185951179Y-35268387D01*
X185951181Y-35268387D01*
X185951184Y-35268389D01*
X186056216Y-35302516D01*
X186149610Y-35332862D01*
X186355676Y-35365500D01*
X186355681Y-35365500D01*
X186564324Y-35365500D01*
X186770389Y-35332862D01*
X186771543Y-35332487D01*
X186968816Y-35268389D01*
X187154714Y-35173670D01*
X187323505Y-35051035D01*
X187471035Y-34903505D01*
X187593670Y-34734714D01*
X187688389Y-34548816D01*
X187752862Y-34350389D01*
X187754312Y-34341232D01*
X187785500Y-34144324D01*
X187785500Y-33935675D01*
X187752862Y-33729610D01*
X187715080Y-33613331D01*
X187688389Y-33531184D01*
X187688387Y-33531181D01*
X187688387Y-33531179D01*
X187631729Y-33419982D01*
X187593670Y-33345286D01*
X187471035Y-33176495D01*
X187323505Y-33028965D01*
X187253928Y-32978414D01*
X187154712Y-32906328D01*
X187103990Y-32880485D01*
X187053194Y-32832511D01*
X187036398Y-32764690D01*
X187058935Y-32698555D01*
X187103990Y-32659515D01*
X187154712Y-32633671D01*
X187154711Y-32633671D01*
X187154714Y-32633670D01*
X187323505Y-32511035D01*
X187471035Y-32363505D01*
X187593670Y-32194714D01*
X187688389Y-32008816D01*
X187752862Y-31810389D01*
X187762081Y-31752184D01*
X187785500Y-31604324D01*
X187785500Y-31395675D01*
X190214500Y-31395675D01*
X190214500Y-31604324D01*
X190247137Y-31810389D01*
X190311612Y-32008820D01*
X190380366Y-32143757D01*
X190406330Y-32194714D01*
X190528965Y-32363505D01*
X190676495Y-32511035D01*
X190845286Y-32633670D01*
X190892271Y-32657610D01*
X190896010Y-32659515D01*
X190946806Y-32707490D01*
X190963601Y-32775310D01*
X190941064Y-32841445D01*
X190896010Y-32880485D01*
X190845285Y-32906330D01*
X190676493Y-33028966D01*
X190528966Y-33176493D01*
X190406330Y-33345285D01*
X190311612Y-33531179D01*
X190247137Y-33729610D01*
X190214500Y-33935675D01*
X190214500Y-34144324D01*
X190247137Y-34350389D01*
X190311612Y-34548820D01*
X190380485Y-34683990D01*
X190406330Y-34734714D01*
X190528965Y-34903505D01*
X190676495Y-35051035D01*
X190845286Y-35173670D01*
X190933116Y-35218421D01*
X191031179Y-35268387D01*
X191031181Y-35268387D01*
X191031184Y-35268389D01*
X191136216Y-35302516D01*
X191229610Y-35332862D01*
X191435676Y-35365500D01*
X191435681Y-35365500D01*
X191644324Y-35365500D01*
X191850389Y-35332862D01*
X191851543Y-35332487D01*
X192048816Y-35268389D01*
X192234714Y-35173670D01*
X192403505Y-35051035D01*
X192551035Y-34903505D01*
X192673670Y-34734714D01*
X192699515Y-34683990D01*
X192747489Y-34633194D01*
X192815310Y-34616398D01*
X192881445Y-34638935D01*
X192920485Y-34683990D01*
X192946328Y-34734712D01*
X193000666Y-34809500D01*
X193068965Y-34903505D01*
X193216495Y-35051035D01*
X193385286Y-35173670D01*
X193473116Y-35218421D01*
X193571179Y-35268387D01*
X193571181Y-35268387D01*
X193571184Y-35268389D01*
X193676216Y-35302516D01*
X193769610Y-35332862D01*
X193975676Y-35365500D01*
X193975681Y-35365500D01*
X194184324Y-35365500D01*
X194205569Y-35362135D01*
X207249500Y-35362135D01*
X207249500Y-37157870D01*
X207249501Y-37157876D01*
X207255908Y-37217483D01*
X207306202Y-37352328D01*
X207306206Y-37352335D01*
X207392452Y-37467544D01*
X207392455Y-37467547D01*
X207507664Y-37553793D01*
X207507671Y-37553797D01*
X207639082Y-37602810D01*
X207695016Y-37644681D01*
X207719433Y-37710145D01*
X207704582Y-37778418D01*
X207683431Y-37806673D01*
X207569889Y-37920215D01*
X207444951Y-38092179D01*
X207348444Y-38281585D01*
X207282753Y-38483760D01*
X207258268Y-38638352D01*
X207249500Y-38693713D01*
X207249500Y-38906287D01*
X207251421Y-38918414D01*
X207272245Y-39049896D01*
X207282754Y-39116243D01*
X207347844Y-39316569D01*
X207348444Y-39318414D01*
X207444951Y-39507820D01*
X207569890Y-39679786D01*
X207720213Y-39830109D01*
X207892179Y-39955048D01*
X207892181Y-39955049D01*
X207892184Y-39955051D01*
X208081588Y-40051557D01*
X208283757Y-40117246D01*
X208493713Y-40150500D01*
X208493714Y-40150500D01*
X208706286Y-40150500D01*
X208706287Y-40150500D01*
X208916243Y-40117246D01*
X209118412Y-40051557D01*
X209307816Y-39955051D01*
X209329789Y-39939086D01*
X209479786Y-39830109D01*
X209479788Y-39830106D01*
X209479792Y-39830104D01*
X209630104Y-39679792D01*
X209630106Y-39679788D01*
X209630109Y-39679786D01*
X209755048Y-39507820D01*
X209755047Y-39507820D01*
X209755051Y-39507816D01*
X209851557Y-39318412D01*
X209917246Y-39116243D01*
X209950500Y-38906287D01*
X209950500Y-38693713D01*
X209917246Y-38483757D01*
X209855497Y-38293713D01*
X228384500Y-38293713D01*
X228384500Y-38506287D01*
X228386590Y-38519480D01*
X228415104Y-38699516D01*
X228417754Y-38716243D01*
X228479503Y-38906287D01*
X228483444Y-38918414D01*
X228579951Y-39107820D01*
X228704890Y-39279786D01*
X228855213Y-39430109D01*
X229027179Y-39555048D01*
X229027181Y-39555049D01*
X229027184Y-39555051D01*
X229216588Y-39651557D01*
X229418757Y-39717246D01*
X229628713Y-39750500D01*
X229628714Y-39750500D01*
X229841286Y-39750500D01*
X229841287Y-39750500D01*
X230051243Y-39717246D01*
X230253412Y-39651557D01*
X230442816Y-39555051D01*
X230614792Y-39430104D01*
X230728329Y-39316566D01*
X230789648Y-39283084D01*
X230859340Y-39288068D01*
X230915274Y-39329939D01*
X230932189Y-39360917D01*
X230981202Y-39492328D01*
X230981206Y-39492335D01*
X231067452Y-39607544D01*
X231067455Y-39607547D01*
X231182664Y-39693793D01*
X231182671Y-39693797D01*
X231317517Y-39744091D01*
X231317516Y-39744091D01*
X231324444Y-39744835D01*
X231377127Y-39750500D01*
X233172872Y-39750499D01*
X233232483Y-39744091D01*
X233367331Y-39693796D01*
X233482546Y-39607546D01*
X233568796Y-39492331D01*
X233619091Y-39357483D01*
X233625500Y-39297873D01*
X233625499Y-37803870D01*
X248524500Y-37803870D01*
X248524500Y-38036129D01*
X248560831Y-38265514D01*
X248632601Y-38486400D01*
X248710027Y-38638355D01*
X248738039Y-38693331D01*
X248874551Y-38881224D01*
X249038776Y-39045449D01*
X249226669Y-39181961D01*
X249324436Y-39231776D01*
X249433599Y-39287398D01*
X249433601Y-39287398D01*
X249433604Y-39287400D01*
X249654486Y-39359169D01*
X249772668Y-39377886D01*
X249883871Y-39395500D01*
X249883876Y-39395500D01*
X250116129Y-39395500D01*
X250217502Y-39379443D01*
X250345514Y-39359169D01*
X250566396Y-39287400D01*
X250773331Y-39181961D01*
X250961224Y-39045449D01*
X251125449Y-38881224D01*
X251261961Y-38693331D01*
X251367400Y-38486396D01*
X251439169Y-38265514D01*
X251459443Y-38137502D01*
X251475500Y-38036129D01*
X251475500Y-37803870D01*
X251450541Y-37646287D01*
X251439169Y-37574486D01*
X251367400Y-37353604D01*
X251367398Y-37353601D01*
X251367398Y-37353599D01*
X251285290Y-37192455D01*
X251261961Y-37146669D01*
X251125449Y-36958776D01*
X250961224Y-36794551D01*
X250773331Y-36658039D01*
X250566400Y-36552601D01*
X250345514Y-36480831D01*
X250116129Y-36444500D01*
X250116124Y-36444500D01*
X249883876Y-36444500D01*
X249883871Y-36444500D01*
X249654485Y-36480831D01*
X249433599Y-36552601D01*
X249226668Y-36658039D01*
X249038773Y-36794553D01*
X248874553Y-36958773D01*
X248738039Y-37146668D01*
X248632601Y-37353599D01*
X248560831Y-37574485D01*
X248524500Y-37803870D01*
X233625499Y-37803870D01*
X233625499Y-37502128D01*
X233619091Y-37442517D01*
X233617810Y-37439083D01*
X233568797Y-37307671D01*
X233568793Y-37307664D01*
X233482547Y-37192455D01*
X233482544Y-37192452D01*
X233367335Y-37106206D01*
X233367328Y-37106202D01*
X233232482Y-37055908D01*
X233232483Y-37055908D01*
X233172883Y-37049501D01*
X233172881Y-37049500D01*
X233172873Y-37049500D01*
X233172864Y-37049500D01*
X231377129Y-37049500D01*
X231377123Y-37049501D01*
X231317516Y-37055908D01*
X231182671Y-37106202D01*
X231182664Y-37106206D01*
X231067455Y-37192452D01*
X231067452Y-37192455D01*
X230981206Y-37307664D01*
X230981203Y-37307669D01*
X230932189Y-37439083D01*
X230890317Y-37495016D01*
X230824853Y-37519433D01*
X230756580Y-37504581D01*
X230728326Y-37483430D01*
X230614786Y-37369890D01*
X230442820Y-37244951D01*
X230253414Y-37148444D01*
X230253413Y-37148443D01*
X230253412Y-37148443D01*
X230051243Y-37082754D01*
X230051241Y-37082753D01*
X230051240Y-37082753D01*
X229889957Y-37057208D01*
X229841287Y-37049500D01*
X229628713Y-37049500D01*
X229580042Y-37057208D01*
X229418760Y-37082753D01*
X229216585Y-37148444D01*
X229027179Y-37244951D01*
X228855213Y-37369890D01*
X228704890Y-37520213D01*
X228579951Y-37692179D01*
X228483444Y-37881585D01*
X228417753Y-38083760D01*
X228416420Y-38092179D01*
X228384500Y-38293713D01*
X209855497Y-38293713D01*
X209851557Y-38281588D01*
X209851555Y-38281585D01*
X209851555Y-38281583D01*
X209755048Y-38092179D01*
X209630109Y-37920213D01*
X209516569Y-37806673D01*
X209483084Y-37745350D01*
X209488068Y-37675658D01*
X209529940Y-37619725D01*
X209560915Y-37602810D01*
X209692331Y-37553796D01*
X209807546Y-37467546D01*
X209893796Y-37352331D01*
X209944091Y-37217483D01*
X209950500Y-37157873D01*
X209950499Y-36191902D01*
X220039500Y-36191902D01*
X220039500Y-36428097D01*
X220076446Y-36661368D01*
X220149433Y-36885996D01*
X220232743Y-37049500D01*
X220256657Y-37096433D01*
X220395483Y-37287510D01*
X220562490Y-37454517D01*
X220753567Y-37593343D01*
X220787238Y-37610499D01*
X220964003Y-37700566D01*
X220964005Y-37700566D01*
X220964008Y-37700568D01*
X221084412Y-37739689D01*
X221188631Y-37773553D01*
X221421903Y-37810500D01*
X221421908Y-37810500D01*
X221658097Y-37810500D01*
X221891368Y-37773553D01*
X221902623Y-37769896D01*
X222115992Y-37700568D01*
X222326433Y-37593343D01*
X222517510Y-37454517D01*
X222684517Y-37287510D01*
X222823343Y-37096433D01*
X222930568Y-36885992D01*
X223003553Y-36661368D01*
X223027545Y-36509890D01*
X223040500Y-36428097D01*
X223040500Y-36191902D01*
X223003553Y-35958631D01*
X222930566Y-35734003D01*
X222823342Y-35523566D01*
X222684517Y-35332490D01*
X222517510Y-35165483D01*
X222326433Y-35026657D01*
X222115996Y-34919433D01*
X221891368Y-34846446D01*
X221658097Y-34809500D01*
X221658092Y-34809500D01*
X221421908Y-34809500D01*
X221421903Y-34809500D01*
X221188631Y-34846446D01*
X220964003Y-34919433D01*
X220753566Y-35026657D01*
X220701918Y-35064182D01*
X220562490Y-35165483D01*
X220562488Y-35165485D01*
X220562487Y-35165485D01*
X220395485Y-35332487D01*
X220395485Y-35332488D01*
X220395483Y-35332490D01*
X220373950Y-35362128D01*
X220256657Y-35523566D01*
X220149433Y-35734003D01*
X220076446Y-35958631D01*
X220039500Y-36191902D01*
X209950499Y-36191902D01*
X209950499Y-35362128D01*
X209944091Y-35302517D01*
X209931361Y-35268387D01*
X209893797Y-35167671D01*
X209893793Y-35167664D01*
X209807547Y-35052455D01*
X209807544Y-35052452D01*
X209692335Y-34966206D01*
X209692328Y-34966202D01*
X209557482Y-34915908D01*
X209557483Y-34915908D01*
X209497883Y-34909501D01*
X209497881Y-34909500D01*
X209497873Y-34909500D01*
X209497864Y-34909500D01*
X207702129Y-34909500D01*
X207702123Y-34909501D01*
X207642516Y-34915908D01*
X207507671Y-34966202D01*
X207507664Y-34966206D01*
X207392455Y-35052452D01*
X207392452Y-35052455D01*
X207306206Y-35167664D01*
X207306202Y-35167671D01*
X207255908Y-35302517D01*
X207252686Y-35332490D01*
X207249501Y-35362123D01*
X207249500Y-35362135D01*
X194205569Y-35362135D01*
X194390389Y-35332862D01*
X194391543Y-35332487D01*
X194588816Y-35268389D01*
X194774714Y-35173670D01*
X194943505Y-35051035D01*
X195091035Y-34903505D01*
X195213670Y-34734714D01*
X195308389Y-34548816D01*
X195372862Y-34350389D01*
X195374312Y-34341232D01*
X195405500Y-34144324D01*
X195405500Y-33935675D01*
X195372862Y-33729610D01*
X195355280Y-33675499D01*
X195308389Y-33531184D01*
X195213670Y-33345286D01*
X195190495Y-33313389D01*
X207299500Y-33313389D01*
X207299500Y-33486610D01*
X207323662Y-33639168D01*
X207326598Y-33657701D01*
X207380127Y-33822445D01*
X207458768Y-33976788D01*
X207560586Y-34116928D01*
X207683072Y-34239414D01*
X207823212Y-34341232D01*
X207977555Y-34419873D01*
X208142299Y-34473402D01*
X208313389Y-34500500D01*
X208313390Y-34500500D01*
X208486610Y-34500500D01*
X208486611Y-34500500D01*
X208657701Y-34473402D01*
X208822445Y-34419873D01*
X208976788Y-34341232D01*
X209116928Y-34239414D01*
X209239414Y-34116928D01*
X209341232Y-33976788D01*
X209419873Y-33822445D01*
X209473402Y-33657701D01*
X209500500Y-33486611D01*
X209500500Y-33313389D01*
X209473402Y-33142299D01*
X209419873Y-32977555D01*
X209341232Y-32823212D01*
X209239414Y-32683072D01*
X209116928Y-32560586D01*
X208976788Y-32458768D01*
X208822445Y-32380127D01*
X208657701Y-32326598D01*
X208657698Y-32326597D01*
X208526271Y-32305781D01*
X208486611Y-32299500D01*
X208313389Y-32299500D01*
X208273728Y-32305781D01*
X208142302Y-32326597D01*
X207977552Y-32380128D01*
X207823211Y-32458768D01*
X207751276Y-32511033D01*
X207683072Y-32560586D01*
X207683070Y-32560588D01*
X207683069Y-32560588D01*
X207560588Y-32683069D01*
X207560588Y-32683070D01*
X207560586Y-32683072D01*
X207530940Y-32723876D01*
X207458768Y-32823211D01*
X207380128Y-32977552D01*
X207380127Y-32977554D01*
X207380127Y-32977555D01*
X207363423Y-33028965D01*
X207326597Y-33142302D01*
X207299500Y-33313389D01*
X195190495Y-33313389D01*
X195091035Y-33176495D01*
X194943505Y-33028965D01*
X194873928Y-32978414D01*
X194774712Y-32906328D01*
X194723990Y-32880485D01*
X194673194Y-32832511D01*
X194656398Y-32764690D01*
X194678935Y-32698555D01*
X194723990Y-32659515D01*
X194774712Y-32633671D01*
X194774711Y-32633671D01*
X194774714Y-32633670D01*
X194943505Y-32511035D01*
X195091035Y-32363505D01*
X195194303Y-32221370D01*
X212644500Y-32221370D01*
X212644500Y-32453629D01*
X212680831Y-32683014D01*
X212752601Y-32903900D01*
X212821591Y-33039298D01*
X212858039Y-33110831D01*
X212994551Y-33298724D01*
X213158776Y-33462949D01*
X213346669Y-33599461D01*
X213384618Y-33618797D01*
X213553599Y-33704898D01*
X213553601Y-33704898D01*
X213553604Y-33704900D01*
X213774486Y-33776669D01*
X213892668Y-33795386D01*
X214003871Y-33813000D01*
X214003876Y-33813000D01*
X214236129Y-33813000D01*
X214337502Y-33796943D01*
X214465514Y-33776669D01*
X214686396Y-33704900D01*
X214893331Y-33599461D01*
X215081224Y-33462949D01*
X215245449Y-33298724D01*
X215381961Y-33110831D01*
X215487400Y-32903896D01*
X215559169Y-32683014D01*
X215580946Y-32545514D01*
X215595500Y-32453629D01*
X215595500Y-32221370D01*
X217724500Y-32221370D01*
X217724500Y-32453629D01*
X217760831Y-32683014D01*
X217832601Y-32903900D01*
X217901591Y-33039298D01*
X217938039Y-33110831D01*
X218074551Y-33298724D01*
X218238776Y-33462949D01*
X218426669Y-33599461D01*
X218464618Y-33618797D01*
X218633599Y-33704898D01*
X218633601Y-33704898D01*
X218633604Y-33704900D01*
X218854486Y-33776669D01*
X218972668Y-33795386D01*
X219083871Y-33813000D01*
X219083876Y-33813000D01*
X219316129Y-33813000D01*
X219417502Y-33796943D01*
X219545514Y-33776669D01*
X219766396Y-33704900D01*
X219973331Y-33599461D01*
X220161224Y-33462949D01*
X220325449Y-33298724D01*
X220461961Y-33110831D01*
X220567400Y-32903896D01*
X220639169Y-32683014D01*
X220660946Y-32545514D01*
X220675500Y-32453629D01*
X220675500Y-32221370D01*
X220655198Y-32093194D01*
X220639169Y-31991986D01*
X220567400Y-31771104D01*
X220567398Y-31771101D01*
X220567398Y-31771099D01*
X220497337Y-31633599D01*
X220461961Y-31564169D01*
X220362059Y-31426665D01*
X220331204Y-31384197D01*
X220331203Y-31384196D01*
X220325449Y-31376276D01*
X220263808Y-31314635D01*
X222804500Y-31314635D01*
X222804500Y-33360370D01*
X222804501Y-33360376D01*
X222810908Y-33419983D01*
X222861202Y-33554828D01*
X222861206Y-33554835D01*
X222947452Y-33670044D01*
X222947455Y-33670047D01*
X223062664Y-33756293D01*
X223062671Y-33756297D01*
X223197517Y-33806591D01*
X223197516Y-33806591D01*
X223204444Y-33807335D01*
X223257127Y-33813000D01*
X225302872Y-33812999D01*
X225362483Y-33806591D01*
X225497331Y-33756296D01*
X225612546Y-33670046D01*
X225698796Y-33554831D01*
X225749091Y-33419983D01*
X225755500Y-33360373D01*
X225755499Y-32083870D01*
X229164500Y-32083870D01*
X229164500Y-32316129D01*
X229200831Y-32545514D01*
X229272601Y-32766400D01*
X229369274Y-32956129D01*
X229378039Y-32973331D01*
X229514551Y-33161224D01*
X229678776Y-33325449D01*
X229866669Y-33461961D01*
X229964436Y-33511776D01*
X230073599Y-33567398D01*
X230073601Y-33567398D01*
X230073604Y-33567400D01*
X230294486Y-33639169D01*
X230411470Y-33657697D01*
X230523871Y-33675500D01*
X230523876Y-33675500D01*
X230756129Y-33675500D01*
X230858731Y-33659249D01*
X230985514Y-33639169D01*
X231206396Y-33567400D01*
X231413331Y-33461961D01*
X231601224Y-33325449D01*
X231765449Y-33161224D01*
X231901961Y-32973331D01*
X232007400Y-32766396D01*
X232079169Y-32545514D01*
X232109547Y-32353713D01*
X232115500Y-32316129D01*
X232115500Y-32083870D01*
X234244500Y-32083870D01*
X234244500Y-32316129D01*
X234280831Y-32545514D01*
X234352601Y-32766400D01*
X234449274Y-32956129D01*
X234458039Y-32973331D01*
X234594551Y-33161224D01*
X234758776Y-33325449D01*
X234946669Y-33461961D01*
X235044436Y-33511776D01*
X235153599Y-33567398D01*
X235153601Y-33567398D01*
X235153604Y-33567400D01*
X235374486Y-33639169D01*
X235491470Y-33657697D01*
X235603871Y-33675500D01*
X235603876Y-33675500D01*
X235836129Y-33675500D01*
X235938731Y-33659249D01*
X236065514Y-33639169D01*
X236286396Y-33567400D01*
X236493331Y-33461961D01*
X236681224Y-33325449D01*
X236845449Y-33161224D01*
X236981961Y-32973331D01*
X237087400Y-32766396D01*
X237159169Y-32545514D01*
X237189547Y-32353713D01*
X237195500Y-32316129D01*
X237195500Y-32083870D01*
X237172964Y-31941585D01*
X237159169Y-31854486D01*
X237087400Y-31633604D01*
X237087398Y-31633601D01*
X237087398Y-31633599D01*
X237049145Y-31558526D01*
X236981961Y-31426669D01*
X236845449Y-31238776D01*
X236783808Y-31177135D01*
X239324500Y-31177135D01*
X239324500Y-33222870D01*
X239324501Y-33222876D01*
X239330908Y-33282483D01*
X239381202Y-33417328D01*
X239381206Y-33417335D01*
X239467452Y-33532544D01*
X239467455Y-33532547D01*
X239582664Y-33618793D01*
X239582671Y-33618797D01*
X239717517Y-33669091D01*
X239717516Y-33669091D01*
X239724444Y-33669835D01*
X239777127Y-33675500D01*
X241822872Y-33675499D01*
X241882483Y-33669091D01*
X242017331Y-33618796D01*
X242132546Y-33532546D01*
X242218796Y-33417331D01*
X242269091Y-33282483D01*
X242275500Y-33222873D01*
X242275500Y-32723870D01*
X248524500Y-32723870D01*
X248524500Y-32956129D01*
X248560831Y-33185514D01*
X248632601Y-33406400D01*
X248714635Y-33567398D01*
X248738039Y-33613331D01*
X248874551Y-33801224D01*
X249038776Y-33965449D01*
X249226669Y-34101961D01*
X249309801Y-34144319D01*
X249433599Y-34207398D01*
X249433601Y-34207398D01*
X249433604Y-34207400D01*
X249654486Y-34279169D01*
X249772668Y-34297886D01*
X249883871Y-34315500D01*
X249883876Y-34315500D01*
X250116129Y-34315500D01*
X250217502Y-34299443D01*
X250345514Y-34279169D01*
X250566396Y-34207400D01*
X250773331Y-34101961D01*
X250961224Y-33965449D01*
X251125449Y-33801224D01*
X251261961Y-33613331D01*
X251367400Y-33406396D01*
X251439169Y-33185514D01*
X251463963Y-33028966D01*
X251475500Y-32956129D01*
X251475500Y-32723870D01*
X251450541Y-32566287D01*
X251439169Y-32494486D01*
X251367400Y-32273604D01*
X251367398Y-32273601D01*
X251367398Y-32273599D01*
X251261960Y-32066668D01*
X251219928Y-32008816D01*
X251125449Y-31878776D01*
X250961224Y-31714551D01*
X250773331Y-31578039D01*
X250746102Y-31564165D01*
X250566400Y-31472601D01*
X250345514Y-31400831D01*
X250116129Y-31364500D01*
X250116124Y-31364500D01*
X249883876Y-31364500D01*
X249883871Y-31364500D01*
X249654485Y-31400831D01*
X249433599Y-31472601D01*
X249226668Y-31578039D01*
X249038773Y-31714553D01*
X248874553Y-31878773D01*
X248738039Y-32066668D01*
X248632601Y-32273599D01*
X248560831Y-32494485D01*
X248524500Y-32723870D01*
X242275500Y-32723870D01*
X242275499Y-32194714D01*
X242275499Y-31177129D01*
X242275498Y-31177123D01*
X242275497Y-31177116D01*
X242269091Y-31117517D01*
X242253434Y-31075539D01*
X242218797Y-30982671D01*
X242218793Y-30982664D01*
X242132547Y-30867455D01*
X242132544Y-30867452D01*
X242017335Y-30781206D01*
X242017328Y-30781202D01*
X241882482Y-30730908D01*
X241882483Y-30730908D01*
X241822883Y-30724501D01*
X241822881Y-30724500D01*
X241822873Y-30724500D01*
X241822864Y-30724500D01*
X239777129Y-30724500D01*
X239777123Y-30724501D01*
X239717516Y-30730908D01*
X239582671Y-30781202D01*
X239582664Y-30781206D01*
X239467455Y-30867452D01*
X239467452Y-30867455D01*
X239381206Y-30982664D01*
X239381202Y-30982671D01*
X239330908Y-31117517D01*
X239324501Y-31177116D01*
X239324501Y-31177123D01*
X239324500Y-31177135D01*
X236783808Y-31177135D01*
X236681224Y-31074551D01*
X236493331Y-30938039D01*
X236455384Y-30918704D01*
X236286400Y-30832601D01*
X236065514Y-30760831D01*
X235836129Y-30724500D01*
X235836124Y-30724500D01*
X235603876Y-30724500D01*
X235603871Y-30724500D01*
X235374485Y-30760831D01*
X235153599Y-30832601D01*
X234946668Y-30938039D01*
X234758773Y-31074553D01*
X234594553Y-31238773D01*
X234458039Y-31426668D01*
X234352601Y-31633599D01*
X234280831Y-31854485D01*
X234244500Y-32083870D01*
X232115500Y-32083870D01*
X232092964Y-31941585D01*
X232079169Y-31854486D01*
X232007400Y-31633604D01*
X232007398Y-31633601D01*
X232007398Y-31633599D01*
X231951776Y-31524436D01*
X231901961Y-31426669D01*
X231765449Y-31238776D01*
X231601224Y-31074551D01*
X231413331Y-30938039D01*
X231375384Y-30918704D01*
X231206400Y-30832601D01*
X230985514Y-30760831D01*
X230756129Y-30724500D01*
X230756124Y-30724500D01*
X230523876Y-30724500D01*
X230523871Y-30724500D01*
X230294485Y-30760831D01*
X230073599Y-30832601D01*
X229866668Y-30938039D01*
X229678773Y-31074553D01*
X229514553Y-31238773D01*
X229378039Y-31426668D01*
X229272601Y-31633599D01*
X229200831Y-31854485D01*
X229164500Y-32083870D01*
X225755499Y-32083870D01*
X225755499Y-31314628D01*
X225749091Y-31255017D01*
X225743032Y-31238773D01*
X225698797Y-31120171D01*
X225698793Y-31120164D01*
X225612547Y-31004955D01*
X225612544Y-31004952D01*
X225497335Y-30918706D01*
X225497328Y-30918702D01*
X225362482Y-30868408D01*
X225362483Y-30868408D01*
X225302883Y-30862001D01*
X225302881Y-30862000D01*
X225302873Y-30862000D01*
X225302864Y-30862000D01*
X223257129Y-30862000D01*
X223257123Y-30862001D01*
X223197516Y-30868408D01*
X223062671Y-30918702D01*
X223062664Y-30918706D01*
X222947455Y-31004952D01*
X222947452Y-31004955D01*
X222861206Y-31120164D01*
X222861202Y-31120171D01*
X222810908Y-31255017D01*
X222804501Y-31314616D01*
X222804501Y-31314623D01*
X222804500Y-31314635D01*
X220263808Y-31314635D01*
X220161224Y-31212051D01*
X219973331Y-31075539D01*
X219971392Y-31074551D01*
X219766400Y-30970101D01*
X219545514Y-30898331D01*
X219316129Y-30862000D01*
X219316124Y-30862000D01*
X219083876Y-30862000D01*
X219083871Y-30862000D01*
X218854485Y-30898331D01*
X218633599Y-30970101D01*
X218426668Y-31075539D01*
X218238773Y-31212053D01*
X218074553Y-31376273D01*
X217938039Y-31564168D01*
X217832601Y-31771099D01*
X217760831Y-31991985D01*
X217724500Y-32221370D01*
X215595500Y-32221370D01*
X215575198Y-32093194D01*
X215559169Y-31991986D01*
X215487400Y-31771104D01*
X215487398Y-31771101D01*
X215487398Y-31771099D01*
X215402421Y-31604324D01*
X215381961Y-31564169D01*
X215245449Y-31376276D01*
X215081224Y-31212051D01*
X214893331Y-31075539D01*
X214891392Y-31074551D01*
X214686400Y-30970101D01*
X214465514Y-30898331D01*
X214236129Y-30862000D01*
X214236124Y-30862000D01*
X214003876Y-30862000D01*
X214003871Y-30862000D01*
X213774485Y-30898331D01*
X213553599Y-30970101D01*
X213346668Y-31075539D01*
X213158773Y-31212053D01*
X212994553Y-31376273D01*
X212858039Y-31564168D01*
X212752601Y-31771099D01*
X212680831Y-31991985D01*
X212644500Y-32221370D01*
X195194303Y-32221370D01*
X195213670Y-32194714D01*
X195308389Y-32008816D01*
X195372862Y-31810389D01*
X195382081Y-31752184D01*
X195405500Y-31604324D01*
X195405500Y-31395675D01*
X195372862Y-31189610D01*
X195312863Y-31004954D01*
X195308389Y-30991184D01*
X195308387Y-30991181D01*
X195308387Y-30991179D01*
X195250455Y-30877482D01*
X195213670Y-30805286D01*
X195091035Y-30636495D01*
X194943505Y-30488965D01*
X194774714Y-30366330D01*
X194588820Y-30271612D01*
X194390389Y-30207137D01*
X194184324Y-30174500D01*
X194184319Y-30174500D01*
X193975681Y-30174500D01*
X193975676Y-30174500D01*
X193769610Y-30207137D01*
X193571179Y-30271612D01*
X193385285Y-30366330D01*
X193216493Y-30488966D01*
X193068966Y-30636493D01*
X192946330Y-30805285D01*
X192920485Y-30856010D01*
X192872510Y-30906806D01*
X192804690Y-30923601D01*
X192738555Y-30901064D01*
X192699515Y-30856010D01*
X192697610Y-30852271D01*
X192673670Y-30805286D01*
X192551035Y-30636495D01*
X192403505Y-30488965D01*
X192234714Y-30366330D01*
X192048820Y-30271612D01*
X191850389Y-30207137D01*
X191644324Y-30174500D01*
X191644319Y-30174500D01*
X191435681Y-30174500D01*
X191435676Y-30174500D01*
X191229610Y-30207137D01*
X191031179Y-30271612D01*
X190845285Y-30366330D01*
X190676493Y-30488966D01*
X190528966Y-30636493D01*
X190406330Y-30805285D01*
X190311612Y-30991179D01*
X190247137Y-31189610D01*
X190214500Y-31395675D01*
X187785500Y-31395675D01*
X187752862Y-31189610D01*
X187692863Y-31004954D01*
X187688389Y-30991184D01*
X187688387Y-30991181D01*
X187688387Y-30991179D01*
X187630455Y-30877482D01*
X187593670Y-30805286D01*
X187471035Y-30636495D01*
X187323505Y-30488965D01*
X187154714Y-30366330D01*
X186968820Y-30271612D01*
X186770389Y-30207137D01*
X186564324Y-30174500D01*
X186564319Y-30174500D01*
X186355681Y-30174500D01*
X186355676Y-30174500D01*
X186149610Y-30207137D01*
X185951179Y-30271612D01*
X185765285Y-30366330D01*
X185596493Y-30488966D01*
X185448966Y-30636493D01*
X185326330Y-30805285D01*
X185300485Y-30856010D01*
X185252510Y-30906806D01*
X185184690Y-30923601D01*
X185118555Y-30901064D01*
X185079515Y-30856010D01*
X185077610Y-30852271D01*
X185053670Y-30805286D01*
X184931035Y-30636495D01*
X184783505Y-30488965D01*
X184614714Y-30366330D01*
X184428820Y-30271612D01*
X184230389Y-30207137D01*
X184024324Y-30174500D01*
X184024319Y-30174500D01*
X183815681Y-30174500D01*
X183815676Y-30174500D01*
X183609610Y-30207137D01*
X183411179Y-30271612D01*
X183225285Y-30366330D01*
X183056493Y-30488966D01*
X182908966Y-30636493D01*
X182786330Y-30805285D01*
X182691612Y-30991179D01*
X182627137Y-31189610D01*
X182594500Y-31395675D01*
X182594500Y-31604324D01*
X182627137Y-31810389D01*
X182691612Y-32008820D01*
X182760366Y-32143757D01*
X182786330Y-32194714D01*
X182908965Y-32363505D01*
X183056495Y-32511035D01*
X183225286Y-32633670D01*
X183272271Y-32657610D01*
X183276010Y-32659515D01*
X183326806Y-32707490D01*
X183343601Y-32775310D01*
X183321064Y-32841445D01*
X183276010Y-32880485D01*
X183225285Y-32906330D01*
X183156751Y-32956124D01*
X183074589Y-33015818D01*
X183008785Y-33039298D01*
X183001705Y-33039500D01*
X177441455Y-33039500D01*
X177344812Y-33058724D01*
X177248167Y-33077947D01*
X177248161Y-33077949D01*
X177194834Y-33100037D01*
X177194834Y-33100038D01*
X177168778Y-33110831D01*
X177066089Y-33153366D01*
X177066079Y-33153371D01*
X176902219Y-33262859D01*
X176866355Y-33298724D01*
X176762861Y-33402218D01*
X176762858Y-33402221D01*
X172990756Y-37174322D01*
X172929433Y-37207807D01*
X172859741Y-37202823D01*
X172803808Y-37160951D01*
X172785144Y-37124959D01*
X172779051Y-37106206D01*
X172751557Y-37021588D01*
X172655051Y-36832184D01*
X172655049Y-36832181D01*
X172655048Y-36832179D01*
X172530109Y-36660213D01*
X172379786Y-36509890D01*
X172207820Y-36384951D01*
X172018414Y-36288444D01*
X172018413Y-36288443D01*
X172018412Y-36288443D01*
X171816243Y-36222754D01*
X171816241Y-36222753D01*
X171816240Y-36222753D01*
X171621490Y-36191908D01*
X171606287Y-36189500D01*
X171393713Y-36189500D01*
X171378510Y-36191908D01*
X171183760Y-36222753D01*
X170981585Y-36288444D01*
X170792179Y-36384951D01*
X170620213Y-36509890D01*
X170469890Y-36660213D01*
X170344951Y-36832179D01*
X170248444Y-37021585D01*
X170182753Y-37223760D01*
X170149500Y-37433713D01*
X165000500Y-37433713D01*
X165000500Y-29022135D01*
X170149500Y-29022135D01*
X170149500Y-30817870D01*
X170149501Y-30817876D01*
X170155908Y-30877483D01*
X170206202Y-31012328D01*
X170206206Y-31012335D01*
X170292452Y-31127544D01*
X170292455Y-31127547D01*
X170407664Y-31213793D01*
X170407671Y-31213797D01*
X170539082Y-31262810D01*
X170595016Y-31304681D01*
X170619433Y-31370145D01*
X170604582Y-31438418D01*
X170583431Y-31466673D01*
X170469889Y-31580215D01*
X170344951Y-31752179D01*
X170248444Y-31941585D01*
X170182753Y-32143760D01*
X170149500Y-32353713D01*
X170149500Y-32566286D01*
X170175174Y-32728389D01*
X170182754Y-32776243D01*
X170241201Y-32956124D01*
X170248444Y-32978414D01*
X170344951Y-33167820D01*
X170469890Y-33339786D01*
X170620213Y-33490109D01*
X170792179Y-33615048D01*
X170792181Y-33615049D01*
X170792184Y-33615051D01*
X170981588Y-33711557D01*
X171183757Y-33777246D01*
X171393713Y-33810500D01*
X171393714Y-33810500D01*
X171606286Y-33810500D01*
X171606287Y-33810500D01*
X171816243Y-33777246D01*
X172018412Y-33711557D01*
X172207816Y-33615051D01*
X172229789Y-33599086D01*
X172379786Y-33490109D01*
X172379788Y-33490106D01*
X172379792Y-33490104D01*
X172530104Y-33339792D01*
X172530106Y-33339788D01*
X172530109Y-33339786D01*
X172655048Y-33167820D01*
X172655047Y-33167820D01*
X172655051Y-33167816D01*
X172751557Y-32978412D01*
X172817246Y-32776243D01*
X172850500Y-32566287D01*
X172850500Y-32353713D01*
X172817246Y-32143757D01*
X172751557Y-31941588D01*
X172655051Y-31752184D01*
X172655049Y-31752181D01*
X172655048Y-31752179D01*
X172530109Y-31580213D01*
X172416569Y-31466673D01*
X172383084Y-31405350D01*
X172388068Y-31335658D01*
X172429940Y-31279725D01*
X172460915Y-31262810D01*
X172592331Y-31213796D01*
X172707546Y-31127546D01*
X172793796Y-31012331D01*
X172844091Y-30877483D01*
X172850500Y-30817873D01*
X172850499Y-29022128D01*
X172844091Y-28962517D01*
X172793796Y-28827669D01*
X172793795Y-28827668D01*
X172793793Y-28827664D01*
X172707547Y-28712455D01*
X172707544Y-28712452D01*
X172592335Y-28626206D01*
X172592328Y-28626202D01*
X172457482Y-28575908D01*
X172457483Y-28575908D01*
X172397883Y-28569501D01*
X172397881Y-28569500D01*
X172397873Y-28569500D01*
X172397864Y-28569500D01*
X170602129Y-28569500D01*
X170602123Y-28569501D01*
X170542516Y-28575908D01*
X170407671Y-28626202D01*
X170407664Y-28626206D01*
X170292455Y-28712452D01*
X170292452Y-28712455D01*
X170206206Y-28827664D01*
X170206202Y-28827671D01*
X170155908Y-28962517D01*
X170149501Y-29022116D01*
X170149501Y-29022123D01*
X170149500Y-29022135D01*
X165000500Y-29022135D01*
X165000500Y-28124500D01*
X165020185Y-28057461D01*
X165072989Y-28011706D01*
X165124500Y-28000500D01*
X253875500Y-28000500D01*
X253942539Y-28020185D01*
G37*
%TD.AperFunction*%
%TD*%
M02*
