M48
; DRILL file {KiCad 9.0.4} date 2026-01-09T15:48:27-0500
; FORMAT={-:-/ absolute / metric / decimal}
; #@! TF.CreationDate,2026-01-09T15:48:27-05:00
; #@! TF.GenerationSoftware,Kicad,Pcbnew,9.0.4
; #@! TF.FileFunction,Plated,1,4,PTH
FMAT,2
METRIC
; #@! TA.AperFunction,Plated,PTH,ViaDrill
T1C0.300
; #@! TA.AperFunction,Plated,PTH,ViaDrill
T2C0.550
; #@! TA.AperFunction,Plated,PTH,ViaDrill
T3C1.000
; #@! TA.AperFunction,Plated,PTH,ComponentDrill
T4C1.000
; #@! TA.AperFunction,Plated,PTH,ComponentDrill
T5C1.067
; #@! TA.AperFunction,Plated,PTH,ComponentDrill
T6C1.100
; #@! TA.AperFunction,Plated,PTH,ComponentDrill
T7C1.270
; #@! TA.AperFunction,Plated,PTH,ComponentDrill
T8C1.300
; #@! TA.AperFunction,Plated,PTH,ViaDrill
T9C1.333
; #@! TA.AperFunction,Plated,PTH,ComponentDrill
T10C1.400
; #@! TA.AperFunction,Plated,PTH,ComponentDrill
T11C1.829
%
G90
G05
T1
X166.25Y-89.0
X167.0Y-85.5
X179.0Y-70.0
X184.2Y-61.6
X184.45Y-60.75
X184.65Y-58.0
X185.25Y-67.0
X185.6Y-72.8
X187.25Y-61.0
X187.5Y-57.75
X192.5Y-63.5
X194.101Y-65.25
X195.0Y-59.6
X210.25Y-77.5
X239.01Y-52.59
X243.89Y-73.67
T2
X166.5Y-76.5
X171.75Y-94.5
X174.362Y-90.362
X176.23Y-91.245
X179.0Y-67.41
X180.938Y-67.882
X181.2Y-64.4
X181.9Y-47.49
X181.9Y-53.262
X183.75Y-47.752
X184.0Y-75.5
X184.04Y-77.01
X187.809Y-81.441
X196.76Y-54.9
X200.0Y-58.0
X200.0Y-61.25
X207.39Y-75.27
X208.2Y-41.758
X208.2Y-47.8
X212.0Y-94.0
T3
X172.0Y-76.5
X177.0Y-75.25
X177.83Y-86.882
X179.5Y-74.25
X180.5Y-71.5
X184.0Y-73.2
X195.8Y-56.6
X206.55Y-91.45
X208.4Y-33.4
X212.05Y-88.3
T4
X171.5Y-29.92
X171.5Y-32.46
X171.5Y-35.0
X171.5Y-37.54
X171.5Y-40.08
X176.0Y-40.92
X176.0Y-43.46
X176.0Y-46.0
X176.0Y-48.54
X176.0Y-51.08
X176.0Y-53.62
X176.0Y-56.16
X176.5Y-59.96
X176.5Y-62.5
X176.5Y-65.04
X202.0Y-79.84
X202.0Y-82.38
X202.0Y-84.92
X202.0Y-87.46
X202.0Y-90.0
X208.6Y-36.26
X208.6Y-38.8
X223.735Y-86.5
X226.275Y-86.5
X229.735Y-38.4
X232.275Y-38.4
X240.735Y-86.5
X242.0Y-78.725
X242.0Y-81.265
X243.275Y-86.5
X243.5Y-40.985
X243.5Y-43.525
T5
X190.5Y-71.0
X190.5Y-74.0
X193.5Y-71.0
X193.5Y-74.0
X196.5Y-71.0
X196.5Y-74.0
T6
X183.92Y-31.5
X183.92Y-34.04
X186.46Y-31.5
X186.46Y-34.04
X189.0Y-31.5
X189.0Y-34.04
X191.54Y-31.5
X191.54Y-34.04
X194.08Y-31.5
X194.08Y-34.04
T7
X203.941Y-62.5
X203.941Y-66.31
X231.881Y-54.88
X231.881Y-62.5
X231.881Y-70.12
T8
X214.12Y-32.337
X216.105Y-93.0
X219.2Y-32.337
X221.185Y-93.0
X224.28Y-32.337
X226.265Y-93.0
X230.64Y-32.2
X232.5Y-93.0
X235.72Y-32.2
X237.58Y-93.0
X240.8Y-32.2
X242.66Y-93.0
X250.0Y-32.84
X250.0Y-37.92
X250.0Y-43.0
X250.0Y-81.92
X250.0Y-87.0
X250.0Y-92.08
T9
X211.78Y-81.19
X221.54Y-36.31
X223.35Y-47.07
X223.93Y-81.08
X228.34Y-81.76
X239.28Y-83.42
T10
X166.68Y-54.12
X166.68Y-58.31
X166.68Y-62.5
X166.68Y-66.69
X166.68Y-70.88
X172.32Y-54.12
X172.32Y-58.31
X172.32Y-62.5
X172.32Y-66.69
X172.32Y-70.88
X246.68Y-54.12
X246.68Y-58.31
X246.68Y-62.5
X246.68Y-66.69
X246.68Y-70.88
X252.32Y-54.12
X252.32Y-58.31
X252.32Y-62.5
X252.32Y-66.69
X252.32Y-70.88
T11
X203.941Y-54.88
X203.941Y-70.12
M30
