%TF.GenerationSoftware,KiCad,Pcbnew,9.0.4*%
%TF.CreationDate,2026-01-09T15:46:23-05:00*%
%TF.ProjectId,x18-tool-board,7831382d-746f-46f6-9c2d-626f6172642e,rev?*%
%TF.SameCoordinates,Original*%
%TF.FileFunction,Copper,L3,Inr*%
%TF.FilePolarity,Positive*%
%FSLAX46Y46*%
G04 Gerber Fmt 4.6, Leading zero omitted, Abs format (unit mm)*
G04 Created by KiCad (PCBNEW 9.0.4) date 2026-01-09 15:46:23*
%MOMM*%
%LPD*%
G01*
G04 APERTURE LIST*
%TA.AperFunction,ComponentPad*%
%ADD10R,1.950000X1.950000*%
%TD*%
%TA.AperFunction,ComponentPad*%
%ADD11C,1.950000*%
%TD*%
%TA.AperFunction,ComponentPad*%
%ADD12R,1.700000X1.700000*%
%TD*%
%TA.AperFunction,ComponentPad*%
%ADD13C,1.700000*%
%TD*%
%TA.AperFunction,ComponentPad*%
%ADD14C,1.574800*%
%TD*%
%TA.AperFunction,ComponentPad*%
%ADD15C,1.778000*%
%TD*%
%TA.AperFunction,ComponentPad*%
%ADD16C,2.336800*%
%TD*%
%TA.AperFunction,ComponentPad*%
%ADD17C,1.650000*%
%TD*%
%TA.AperFunction,ComponentPad*%
%ADD18R,2.100000X2.100000*%
%TD*%
%TA.AperFunction,ComponentPad*%
%ADD19C,2.100000*%
%TD*%
%TA.AperFunction,ViaPad*%
%ADD20C,0.500000*%
%TD*%
%TA.AperFunction,ViaPad*%
%ADD21C,0.600000*%
%TD*%
%TA.AperFunction,ViaPad*%
%ADD22C,1.000000*%
%TD*%
%TA.AperFunction,ViaPad*%
%ADD23C,1.200000*%
%TD*%
%TA.AperFunction,ViaPad*%
%ADD24C,2.000000*%
%TD*%
%TA.AperFunction,Conductor*%
%ADD25C,0.200000*%
%TD*%
G04 APERTURE END LIST*
D10*
%TO.N,+6V*%
%TO.C,Servo5*%
X216105000Y-93000000D03*
D11*
%TO.N,6V_GND*%
X221185000Y-93000000D03*
%TO.N,/TIM2_CH2*%
X226265000Y-93000000D03*
%TD*%
D12*
%TO.N,/TIM1_CH4*%
%TO.C,J11*%
X208600000Y-36260000D03*
D13*
%TO.N,6V_GND*%
X208600000Y-38800000D03*
%TD*%
D12*
%TO.N,/TIM2_CH3*%
%TO.C,J14*%
X243275000Y-86500000D03*
D13*
%TO.N,6V_GND*%
X240735000Y-86500000D03*
%TD*%
D10*
%TO.N,+6V*%
%TO.C,Servo3*%
X240800000Y-32200000D03*
D11*
%TO.N,6V_GND*%
X235720000Y-32200000D03*
%TO.N,/TIM1_CH3*%
X230640000Y-32200000D03*
%TD*%
D10*
%TO.N,+6V*%
%TO.C,Servo2*%
X250000000Y-43000000D03*
D11*
%TO.N,6V_GND*%
X250000000Y-37920000D03*
%TO.N,/TIM1_CH2*%
X250000000Y-32840000D03*
%TD*%
D12*
%TO.N,+3.3V*%
%TO.C,J2*%
X171500000Y-29920000D03*
D13*
%TO.N,/SYS_SWCLK*%
X171500000Y-32460000D03*
%TO.N,GND*%
X171500000Y-35000000D03*
%TO.N,/SYS_SWDIO*%
X171500000Y-37540000D03*
%TO.N,/RST*%
X171500000Y-40080000D03*
%TD*%
D10*
%TO.N,+6V*%
%TO.C,Servo4*%
X224280000Y-32337500D03*
D11*
%TO.N,6V_GND*%
X219200000Y-32337500D03*
%TO.N,/TIM1_CH4*%
X214120000Y-32337500D03*
%TD*%
D12*
%TO.N,/GPIO_breakout6*%
%TO.C,J15*%
X176000000Y-40920000D03*
D13*
%TO.N,/GPIO_breakout5*%
X176000000Y-43460000D03*
%TO.N,/GPIO_breakout4*%
X176000000Y-46000000D03*
%TO.N,/GPIO_breakout3*%
X176000000Y-48540000D03*
%TO.N,/GPIO_breakout2*%
X176000000Y-51080000D03*
%TO.N,/GPIO_breakout1*%
X176000000Y-53620000D03*
%TO.N,GND*%
X176000000Y-56160000D03*
%TD*%
D12*
%TO.N,/CS_TOOLS_BOARD*%
%TO.C,J6*%
X202000000Y-90000000D03*
D13*
%TO.N,/SPI1_SCK*%
X202000000Y-87460000D03*
%TO.N,/SPI1_MISO*%
X202000000Y-84920000D03*
%TO.N,/SPI1_MOSI*%
X202000000Y-82380000D03*
%TO.N,GND*%
X202000000Y-79840000D03*
%TD*%
D12*
%TO.N,/TIM2_CH2*%
%TO.C,J12*%
X226275000Y-86500000D03*
D13*
%TO.N,6V_GND*%
X223735000Y-86500000D03*
%TD*%
D12*
%TO.N,/I2C1_SCL*%
%TO.C,J1*%
X176500000Y-59960000D03*
D13*
%TO.N,/I2C1_SDA*%
X176500000Y-62500000D03*
%TO.N,GND*%
X176500000Y-65040000D03*
%TD*%
D12*
%TO.N,/TIM1_CH2*%
%TO.C,J8*%
X243500000Y-43525000D03*
D13*
%TO.N,6V_GND*%
X243500000Y-40985000D03*
%TD*%
D10*
%TO.N,+6V*%
%TO.C,Servo1*%
X250000000Y-92080000D03*
D11*
%TO.N,6V_GND*%
X250000000Y-87000000D03*
%TO.N,/TIM1_CH1*%
X250000000Y-81920000D03*
%TD*%
D14*
%TO.N,unconnected-(J13-Pad1)*%
%TO.C,J13*%
X196499999Y-73999999D03*
%TO.N,/RST*%
X193500000Y-73999999D03*
%TO.N,/SPI1_MISO*%
X190500001Y-73999999D03*
%TO.N,/SPI1_MOSI*%
X196499999Y-71000000D03*
%TO.N,/CS_TOOLS_BOARD*%
X193500000Y-71000000D03*
%TO.N,/SPI1_SCK*%
X190500001Y-71000000D03*
%TD*%
D15*
%TO.N,+12V*%
%TO.C,U1*%
X231881100Y-70120000D03*
%TO.N,Net-(JP1-B)*%
X231881100Y-62500000D03*
%TO.N,GND*%
X231881100Y-54880000D03*
D16*
%TO.N,6V_GND*%
X203941100Y-54880000D03*
D15*
%TO.N,Net-(U1-TRIM)*%
X203941100Y-62500000D03*
%TO.N,+6V*%
X203941100Y-66310000D03*
D16*
X203941100Y-70120000D03*
%TD*%
D12*
%TO.N,/TIM1_CH1*%
%TO.C,J3*%
X242000000Y-78725000D03*
D13*
%TO.N,6V_GND*%
X242000000Y-81265000D03*
%TD*%
D17*
%TO.N,/RST*%
%TO.C,J4*%
X183920000Y-34040000D03*
%TO.N,/SYS_SWCLK*%
X183920000Y-31500000D03*
%TO.N,unconnected-(J4-Pad3)*%
X186460000Y-34040000D03*
%TO.N,/SYS_SWDIO*%
X186460000Y-31500000D03*
%TO.N,GND*%
X189000000Y-34040000D03*
X189000000Y-31500000D03*
%TO.N,+3.3V*%
X191540000Y-34040000D03*
X191540000Y-31500000D03*
%TO.N,unconnected-(J4-Pad9)*%
X194080000Y-34040000D03*
%TO.N,unconnected-(J4-Pad10)*%
X194080000Y-31500000D03*
%TD*%
D12*
%TO.N,/TIM1_CH3*%
%TO.C,J10*%
X232275000Y-38400000D03*
D13*
%TO.N,6V_GND*%
X229735000Y-38400000D03*
%TD*%
D10*
%TO.N,+6V*%
%TO.C,Servo6*%
X232500000Y-93000000D03*
D11*
%TO.N,6V_GND*%
X237580000Y-93000000D03*
%TO.N,/TIM2_CH3*%
X242660000Y-93000000D03*
%TD*%
D18*
%TO.N,GND*%
%TO.C,J9*%
X172320000Y-54120000D03*
D19*
X172320000Y-58310000D03*
X172320000Y-62500000D03*
X172320000Y-66690000D03*
%TO.N,/I2C1_SCL*%
X172320000Y-70880000D03*
%TO.N,+5V*%
X166680000Y-54120000D03*
X166680000Y-58310000D03*
X166680000Y-62500000D03*
X166680000Y-66690000D03*
%TO.N,/I2C1_SDA*%
X166680000Y-70880000D03*
%TD*%
D18*
%TO.N,GND*%
%TO.C,J7*%
X252320000Y-54120000D03*
D19*
X252320000Y-58310000D03*
X252320000Y-62500000D03*
X252320000Y-66690000D03*
X252320000Y-70880000D03*
%TO.N,+12V*%
X246680000Y-54120000D03*
X246680000Y-58310000D03*
X246680000Y-62500000D03*
X246680000Y-66690000D03*
%TO.N,/SALERT*%
X246680000Y-70880000D03*
%TD*%
D20*
%TO.N,GND*%
X185600000Y-72800000D03*
D21*
X184650000Y-58000000D03*
X187250000Y-61000000D03*
D22*
X181900000Y-47490000D03*
X179000000Y-67410000D03*
D23*
X179500000Y-74250000D03*
D22*
X187809314Y-81440686D03*
D21*
X195000000Y-59600000D03*
X239010000Y-52590000D03*
D22*
X180937500Y-67882500D03*
X208200000Y-47800000D03*
X183750000Y-47752500D03*
X196760000Y-54900000D03*
D21*
X167000000Y-85500000D03*
X184450000Y-60750000D03*
D22*
X184000000Y-75500000D03*
D21*
X166250000Y-89000000D03*
D23*
X177000000Y-75250000D03*
D21*
X184200000Y-61600000D03*
X187500000Y-57750000D03*
D24*
%TO.N,+6V*%
X223930000Y-81080000D03*
D23*
X206550000Y-91450000D03*
D22*
X212000000Y-94000000D03*
D24*
X221540000Y-36310000D03*
X239280000Y-83420000D03*
D22*
%TO.N,+3.3V*%
X184040000Y-77010000D03*
X171750000Y-94500000D03*
X181900000Y-53262500D03*
X166500000Y-76500000D03*
D23*
X172000000Y-76500000D03*
X195800000Y-56600000D03*
D22*
X181200000Y-64400000D03*
X174362500Y-90362500D03*
D21*
X179000000Y-70000000D03*
D23*
X180500000Y-71500000D03*
D22*
X176230000Y-91245000D03*
D23*
X184000000Y-73200000D03*
X177830000Y-86882500D03*
D21*
%TO.N,/RST*%
X185250000Y-67000000D03*
%TO.N,/CS_TOOLS_BOARD*%
X192500000Y-63500000D03*
X194101000Y-65250000D03*
%TO.N,/SALERT*%
X210250000Y-77500000D03*
X243890000Y-73670000D03*
D24*
%TO.N,6V_GND*%
X228340000Y-81760000D03*
X211780000Y-81190000D03*
D22*
X200000000Y-58000000D03*
D23*
X212050000Y-88300000D03*
D24*
X223350000Y-47070000D03*
D23*
X208400000Y-33400000D03*
D22*
X207390000Y-75270000D03*
X208200000Y-41757600D03*
X200000000Y-61250000D03*
%TD*%
D25*
%TO.N,/SALERT*%
X243890000Y-73670000D02*
X246680000Y-70880000D01*
%TD*%
%TA.AperFunction,Conductor*%
%TO.N,+12V*%
G36*
X253942539Y-46519685D02*
G01*
X253988294Y-46572489D01*
X253999500Y-46624000D01*
X253999500Y-52501404D01*
X253979815Y-52568443D01*
X253927011Y-52614198D01*
X253857853Y-52624142D01*
X253794297Y-52595117D01*
X253787819Y-52589085D01*
X253762603Y-52563869D01*
X253762595Y-52563863D01*
X253624393Y-52482131D01*
X253624388Y-52482129D01*
X253470208Y-52437335D01*
X253470202Y-52437334D01*
X253434181Y-52434500D01*
X251205831Y-52434500D01*
X251205806Y-52434501D01*
X251169795Y-52437335D01*
X251015611Y-52482129D01*
X251015606Y-52482131D01*
X250877404Y-52563863D01*
X250877396Y-52563869D01*
X250763869Y-52677396D01*
X250763863Y-52677404D01*
X250682131Y-52815606D01*
X250682129Y-52815611D01*
X250637335Y-52969791D01*
X250637334Y-52969797D01*
X250634500Y-53005811D01*
X250634500Y-55234168D01*
X250634501Y-55234193D01*
X250637335Y-55270204D01*
X250682129Y-55424388D01*
X250682131Y-55424393D01*
X250763863Y-55562595D01*
X250763869Y-55562603D01*
X250877396Y-55676130D01*
X250877400Y-55676133D01*
X250877402Y-55676135D01*
X251015607Y-55757869D01*
X251056268Y-55769682D01*
X251169791Y-55802664D01*
X251169794Y-55802664D01*
X251169796Y-55802665D01*
X251205819Y-55805500D01*
X253434180Y-55805499D01*
X253470204Y-55802665D01*
X253624393Y-55757869D01*
X253762598Y-55676135D01*
X253774447Y-55664286D01*
X253787819Y-55650915D01*
X253849142Y-55617430D01*
X253918834Y-55622414D01*
X253974767Y-55664286D01*
X253999184Y-55729750D01*
X253999500Y-55738596D01*
X253999500Y-57385204D01*
X253979815Y-57452243D01*
X253927011Y-57497998D01*
X253857853Y-57507942D01*
X253794297Y-57478917D01*
X253768113Y-57447205D01*
X253767203Y-57445629D01*
X253724449Y-57371577D01*
X253589945Y-57196288D01*
X253589940Y-57196282D01*
X253433717Y-57040059D01*
X253433710Y-57040053D01*
X253258431Y-56905557D01*
X253258429Y-56905555D01*
X253258423Y-56905551D01*
X253258418Y-56905548D01*
X253258415Y-56905546D01*
X253067084Y-56795080D01*
X253067067Y-56795072D01*
X252862949Y-56710524D01*
X252649530Y-56653339D01*
X252649524Y-56653338D01*
X252649519Y-56653337D01*
X252430484Y-56624501D01*
X252430479Y-56624500D01*
X252430474Y-56624500D01*
X252209526Y-56624500D01*
X252209520Y-56624500D01*
X252209515Y-56624501D01*
X251990480Y-56653337D01*
X251990473Y-56653338D01*
X251990470Y-56653339D01*
X251900264Y-56677509D01*
X251777050Y-56710524D01*
X251572932Y-56795072D01*
X251572915Y-56795080D01*
X251381584Y-56905546D01*
X251381568Y-56905557D01*
X251206289Y-57040053D01*
X251206282Y-57040059D01*
X251050059Y-57196282D01*
X251050053Y-57196289D01*
X250915557Y-57371568D01*
X250915546Y-57371584D01*
X250805080Y-57562915D01*
X250805072Y-57562932D01*
X250720524Y-57767050D01*
X250663340Y-57980467D01*
X250663337Y-57980480D01*
X250634501Y-58199515D01*
X250634500Y-58199532D01*
X250634500Y-58420467D01*
X250634501Y-58420484D01*
X250663337Y-58639519D01*
X250663338Y-58639524D01*
X250663339Y-58639530D01*
X250663340Y-58639532D01*
X250720524Y-58852949D01*
X250805072Y-59057067D01*
X250805080Y-59057084D01*
X250915546Y-59248415D01*
X250915557Y-59248431D01*
X251050053Y-59423710D01*
X251050059Y-59423717D01*
X251206282Y-59579940D01*
X251206288Y-59579945D01*
X251381577Y-59714449D01*
X251381584Y-59714453D01*
X251572915Y-59824919D01*
X251572920Y-59824921D01*
X251572923Y-59824923D01*
X251572927Y-59824924D01*
X251572932Y-59824927D01*
X251637666Y-59851740D01*
X251777051Y-59909476D01*
X251990470Y-59966661D01*
X252209526Y-59995500D01*
X252209533Y-59995500D01*
X252430467Y-59995500D01*
X252430474Y-59995500D01*
X252649530Y-59966661D01*
X252862949Y-59909476D01*
X253067077Y-59824923D01*
X253258423Y-59714449D01*
X253433712Y-59579945D01*
X253589945Y-59423712D01*
X253724449Y-59248423D01*
X253768113Y-59172795D01*
X253818680Y-59124579D01*
X253887287Y-59111357D01*
X253952152Y-59137325D01*
X253992680Y-59194239D01*
X253999500Y-59234795D01*
X253999500Y-61575204D01*
X253979815Y-61642243D01*
X253927011Y-61687998D01*
X253857853Y-61697942D01*
X253794297Y-61668917D01*
X253768113Y-61637205D01*
X253767203Y-61635629D01*
X253724449Y-61561577D01*
X253589945Y-61386288D01*
X253589940Y-61386282D01*
X253433717Y-61230059D01*
X253433710Y-61230053D01*
X253258431Y-61095557D01*
X253258429Y-61095555D01*
X253258423Y-61095551D01*
X253258418Y-61095548D01*
X253258415Y-61095546D01*
X253067084Y-60985080D01*
X253067067Y-60985072D01*
X252862949Y-60900524D01*
X252649530Y-60843339D01*
X252649524Y-60843338D01*
X252649519Y-60843337D01*
X252430484Y-60814501D01*
X252430479Y-60814500D01*
X252430474Y-60814500D01*
X252209526Y-60814500D01*
X252209520Y-60814500D01*
X252209515Y-60814501D01*
X251990480Y-60843337D01*
X251990473Y-60843338D01*
X251990470Y-60843339D01*
X251900264Y-60867509D01*
X251777050Y-60900524D01*
X251572932Y-60985072D01*
X251572915Y-60985080D01*
X251381584Y-61095546D01*
X251381568Y-61095557D01*
X251206289Y-61230053D01*
X251206282Y-61230059D01*
X251050059Y-61386282D01*
X251050053Y-61386289D01*
X250915557Y-61561568D01*
X250915546Y-61561584D01*
X250805080Y-61752915D01*
X250805072Y-61752932D01*
X250720524Y-61957050D01*
X250663340Y-62170467D01*
X250663337Y-62170480D01*
X250634501Y-62389515D01*
X250634500Y-62389532D01*
X250634500Y-62610467D01*
X250634501Y-62610484D01*
X250663337Y-62829519D01*
X250663338Y-62829524D01*
X250663339Y-62829530D01*
X250720524Y-63042949D01*
X250805072Y-63247067D01*
X250805080Y-63247084D01*
X250915546Y-63438415D01*
X250915557Y-63438431D01*
X251050053Y-63613710D01*
X251050059Y-63613717D01*
X251206282Y-63769940D01*
X251206289Y-63769946D01*
X251331110Y-63865724D01*
X251381577Y-63904449D01*
X251381584Y-63904453D01*
X251572915Y-64014919D01*
X251572920Y-64014921D01*
X251572923Y-64014923D01*
X251572927Y-64014924D01*
X251572932Y-64014927D01*
X251637666Y-64041740D01*
X251777051Y-64099476D01*
X251990470Y-64156661D01*
X252209526Y-64185500D01*
X252209533Y-64185500D01*
X252430467Y-64185500D01*
X252430474Y-64185500D01*
X252649530Y-64156661D01*
X252862949Y-64099476D01*
X253067077Y-64014923D01*
X253258423Y-63904449D01*
X253433712Y-63769945D01*
X253589945Y-63613712D01*
X253724449Y-63438423D01*
X253768113Y-63362795D01*
X253818680Y-63314579D01*
X253887287Y-63301357D01*
X253952152Y-63327325D01*
X253992680Y-63384239D01*
X253999500Y-63424795D01*
X253999500Y-65765204D01*
X253979815Y-65832243D01*
X253927011Y-65877998D01*
X253857853Y-65887942D01*
X253794297Y-65858917D01*
X253768113Y-65827205D01*
X253767203Y-65825629D01*
X253724449Y-65751577D01*
X253589945Y-65576288D01*
X253589940Y-65576282D01*
X253433717Y-65420059D01*
X253433710Y-65420053D01*
X253258431Y-65285557D01*
X253258429Y-65285555D01*
X253258423Y-65285551D01*
X253258418Y-65285548D01*
X253258415Y-65285546D01*
X253067084Y-65175080D01*
X253067067Y-65175072D01*
X252862949Y-65090524D01*
X252649530Y-65033339D01*
X252649524Y-65033338D01*
X252649519Y-65033337D01*
X252430484Y-65004501D01*
X252430479Y-65004500D01*
X252430474Y-65004500D01*
X252209526Y-65004500D01*
X252209520Y-65004500D01*
X252209515Y-65004501D01*
X251990480Y-65033337D01*
X251990473Y-65033338D01*
X251990470Y-65033339D01*
X251900264Y-65057509D01*
X251777050Y-65090524D01*
X251572932Y-65175072D01*
X251572915Y-65175080D01*
X251381584Y-65285546D01*
X251381568Y-65285557D01*
X251206289Y-65420053D01*
X251206282Y-65420059D01*
X251050059Y-65576282D01*
X251050053Y-65576289D01*
X250915557Y-65751568D01*
X250915546Y-65751584D01*
X250805080Y-65942915D01*
X250805072Y-65942932D01*
X250720524Y-66147050D01*
X250663340Y-66360467D01*
X250663337Y-66360480D01*
X250634501Y-66579515D01*
X250634500Y-66579532D01*
X250634500Y-66800467D01*
X250634501Y-66800484D01*
X250663337Y-67019519D01*
X250663338Y-67019524D01*
X250663339Y-67019530D01*
X250663340Y-67019532D01*
X250720524Y-67232949D01*
X250805072Y-67437067D01*
X250805080Y-67437084D01*
X250915546Y-67628415D01*
X250915557Y-67628431D01*
X251050053Y-67803710D01*
X251050059Y-67803717D01*
X251206282Y-67959940D01*
X251206288Y-67959945D01*
X251381577Y-68094449D01*
X251381584Y-68094453D01*
X251572915Y-68204919D01*
X251572920Y-68204921D01*
X251572923Y-68204923D01*
X251572927Y-68204924D01*
X251572932Y-68204927D01*
X251637666Y-68231740D01*
X251777051Y-68289476D01*
X251990470Y-68346661D01*
X252209526Y-68375500D01*
X252209533Y-68375500D01*
X252430467Y-68375500D01*
X252430474Y-68375500D01*
X252649530Y-68346661D01*
X252862949Y-68289476D01*
X253067077Y-68204923D01*
X253258423Y-68094449D01*
X253433712Y-67959945D01*
X253589945Y-67803712D01*
X253724449Y-67628423D01*
X253768113Y-67552795D01*
X253818680Y-67504579D01*
X253887287Y-67491357D01*
X253952152Y-67517325D01*
X253992680Y-67574239D01*
X253999500Y-67614795D01*
X253999500Y-69955204D01*
X253979815Y-70022243D01*
X253927011Y-70067998D01*
X253857853Y-70077942D01*
X253794297Y-70048917D01*
X253768113Y-70017205D01*
X253767203Y-70015629D01*
X253724449Y-69941577D01*
X253589945Y-69766288D01*
X253589940Y-69766282D01*
X253433717Y-69610059D01*
X253433710Y-69610053D01*
X253258431Y-69475557D01*
X253258429Y-69475555D01*
X253258423Y-69475551D01*
X253258418Y-69475548D01*
X253258415Y-69475546D01*
X253067084Y-69365080D01*
X253067067Y-69365072D01*
X252862949Y-69280524D01*
X252649530Y-69223339D01*
X252649524Y-69223338D01*
X252649519Y-69223337D01*
X252430484Y-69194501D01*
X252430479Y-69194500D01*
X252430474Y-69194500D01*
X252209526Y-69194500D01*
X252209520Y-69194500D01*
X252209515Y-69194501D01*
X251990480Y-69223337D01*
X251990473Y-69223338D01*
X251990470Y-69223339D01*
X251900264Y-69247509D01*
X251777050Y-69280524D01*
X251572932Y-69365072D01*
X251572915Y-69365080D01*
X251381584Y-69475546D01*
X251381568Y-69475557D01*
X251206289Y-69610053D01*
X251206282Y-69610059D01*
X251050059Y-69766282D01*
X251050053Y-69766289D01*
X250915557Y-69941568D01*
X250915546Y-69941584D01*
X250805080Y-70132915D01*
X250805072Y-70132932D01*
X250720524Y-70337050D01*
X250663340Y-70550467D01*
X250663337Y-70550480D01*
X250634501Y-70769515D01*
X250634500Y-70769532D01*
X250634500Y-70990467D01*
X250634501Y-70990484D01*
X250663337Y-71209519D01*
X250663338Y-71209524D01*
X250663339Y-71209530D01*
X250663340Y-71209532D01*
X250720524Y-71422949D01*
X250805072Y-71627067D01*
X250805080Y-71627084D01*
X250915546Y-71818415D01*
X250915557Y-71818431D01*
X251050053Y-71993710D01*
X251050059Y-71993717D01*
X251206282Y-72149940D01*
X251206288Y-72149945D01*
X251381577Y-72284449D01*
X251381584Y-72284453D01*
X251572915Y-72394919D01*
X251572920Y-72394921D01*
X251572923Y-72394923D01*
X251572927Y-72394924D01*
X251572932Y-72394927D01*
X251637666Y-72421740D01*
X251777051Y-72479476D01*
X251990470Y-72536661D01*
X252209526Y-72565500D01*
X252209533Y-72565500D01*
X252430467Y-72565500D01*
X252430474Y-72565500D01*
X252649530Y-72536661D01*
X252862949Y-72479476D01*
X253067077Y-72394923D01*
X253258423Y-72284449D01*
X253433712Y-72149945D01*
X253589945Y-71993712D01*
X253724449Y-71818423D01*
X253768113Y-71742795D01*
X253818680Y-71694579D01*
X253887287Y-71681357D01*
X253952152Y-71707325D01*
X253992680Y-71764239D01*
X253999500Y-71804795D01*
X253999500Y-78876000D01*
X253979815Y-78943039D01*
X253927011Y-78988794D01*
X253875500Y-79000000D01*
X243609500Y-79000000D01*
X243542461Y-78980315D01*
X243496706Y-78927511D01*
X243485500Y-78876000D01*
X243485499Y-77810831D01*
X243485498Y-77810806D01*
X243485217Y-77807236D01*
X243482665Y-77774796D01*
X243437869Y-77620607D01*
X243356135Y-77482402D01*
X243356133Y-77482400D01*
X243356130Y-77482396D01*
X243242603Y-77368869D01*
X243242595Y-77368863D01*
X243104393Y-77287131D01*
X243104388Y-77287129D01*
X242950208Y-77242335D01*
X242950202Y-77242334D01*
X242914181Y-77239500D01*
X241085831Y-77239500D01*
X241085806Y-77239501D01*
X241049795Y-77242335D01*
X240895611Y-77287129D01*
X240895606Y-77287131D01*
X240757404Y-77368863D01*
X240757396Y-77368869D01*
X240643869Y-77482396D01*
X240643863Y-77482404D01*
X240562131Y-77620606D01*
X240562129Y-77620611D01*
X240517335Y-77774791D01*
X240517334Y-77774797D01*
X240514500Y-77810811D01*
X240514500Y-78314253D01*
X240494815Y-78381292D01*
X240442011Y-78427047D01*
X240372853Y-78436991D01*
X240309802Y-78408401D01*
X237500000Y-75999999D01*
X226118614Y-75505157D01*
X226052493Y-75482579D01*
X226009075Y-75427837D01*
X226000000Y-75381274D01*
X226000000Y-73762141D01*
X242954499Y-73762141D01*
X242990449Y-73942869D01*
X242990451Y-73942875D01*
X243060969Y-74113122D01*
X243060974Y-74113131D01*
X243163349Y-74266345D01*
X243163352Y-74266349D01*
X243293650Y-74396647D01*
X243293654Y-74396650D01*
X243446868Y-74499025D01*
X243446874Y-74499028D01*
X243446875Y-74499029D01*
X243617125Y-74569549D01*
X243617129Y-74569549D01*
X243617130Y-74569550D01*
X243797858Y-74605500D01*
X243797861Y-74605500D01*
X243982141Y-74605500D01*
X244103732Y-74581313D01*
X244162875Y-74569549D01*
X244333125Y-74499029D01*
X244486346Y-74396650D01*
X244616650Y-74266346D01*
X244719029Y-74113125D01*
X244789549Y-73942875D01*
X244815054Y-73814649D01*
X244847437Y-73752743D01*
X244848933Y-73751219D01*
X246073516Y-72526636D01*
X246134837Y-72493153D01*
X246193285Y-72494543D01*
X246350470Y-72536661D01*
X246569526Y-72565500D01*
X246569533Y-72565500D01*
X246790467Y-72565500D01*
X246790474Y-72565500D01*
X247009530Y-72536661D01*
X247222949Y-72479476D01*
X247427077Y-72394923D01*
X247618423Y-72284449D01*
X247793712Y-72149945D01*
X247949945Y-71993712D01*
X248084449Y-71818423D01*
X248194923Y-71627077D01*
X248279476Y-71422949D01*
X248336661Y-71209530D01*
X248365500Y-70990474D01*
X248365500Y-70769526D01*
X248336661Y-70550470D01*
X248279476Y-70337051D01*
X248194923Y-70132923D01*
X248194921Y-70132920D01*
X248194919Y-70132915D01*
X248084453Y-69941584D01*
X248084449Y-69941577D01*
X247949945Y-69766288D01*
X247949940Y-69766282D01*
X247793717Y-69610059D01*
X247793710Y-69610053D01*
X247618431Y-69475557D01*
X247618429Y-69475555D01*
X247618423Y-69475551D01*
X247618418Y-69475548D01*
X247618415Y-69475546D01*
X247427084Y-69365080D01*
X247427067Y-69365072D01*
X247222949Y-69280524D01*
X247009530Y-69223339D01*
X247009524Y-69223338D01*
X247009519Y-69223337D01*
X246790484Y-69194501D01*
X246790479Y-69194500D01*
X246790474Y-69194500D01*
X246569526Y-69194500D01*
X246569520Y-69194500D01*
X246569515Y-69194501D01*
X246350480Y-69223337D01*
X246350473Y-69223338D01*
X246350470Y-69223339D01*
X246260264Y-69247509D01*
X246137050Y-69280524D01*
X245932932Y-69365072D01*
X245932915Y-69365080D01*
X245741584Y-69475546D01*
X245741568Y-69475557D01*
X245566289Y-69610053D01*
X245566282Y-69610059D01*
X245410059Y-69766282D01*
X245410053Y-69766289D01*
X245275557Y-69941568D01*
X245275546Y-69941584D01*
X245165080Y-70132915D01*
X245165072Y-70132932D01*
X245080524Y-70337050D01*
X245023340Y-70550467D01*
X245023337Y-70550480D01*
X244994501Y-70769515D01*
X244994500Y-70769532D01*
X244994500Y-70990467D01*
X244994501Y-70990484D01*
X245023337Y-71209519D01*
X245023338Y-71209524D01*
X245023339Y-71209530D01*
X245023340Y-71209532D01*
X245065455Y-71366709D01*
X245063792Y-71436559D01*
X245033361Y-71486483D01*
X243808835Y-72711009D01*
X243747512Y-72744494D01*
X243745346Y-72744945D01*
X243617130Y-72770449D01*
X243617124Y-72770451D01*
X243446877Y-72840969D01*
X243446868Y-72840974D01*
X243293654Y-72943349D01*
X243293650Y-72943352D01*
X243163352Y-73073650D01*
X243163349Y-73073654D01*
X243060974Y-73226868D01*
X243060969Y-73226877D01*
X242990451Y-73397124D01*
X242990449Y-73397130D01*
X242954500Y-73577858D01*
X242954500Y-73577861D01*
X242954500Y-73762139D01*
X242954500Y-73762141D01*
X242954499Y-73762141D01*
X226000000Y-73762141D01*
X226000000Y-62380013D01*
X230356600Y-62380013D01*
X230356600Y-62619986D01*
X230394137Y-62856988D01*
X230449059Y-63026018D01*
X230468290Y-63085205D01*
X230577231Y-63299012D01*
X230718277Y-63493145D01*
X230887955Y-63662823D01*
X231082088Y-63803869D01*
X231295895Y-63912810D01*
X231469189Y-63969116D01*
X231524111Y-63986962D01*
X231761114Y-64024500D01*
X231761119Y-64024500D01*
X232001086Y-64024500D01*
X232238088Y-63986962D01*
X232466305Y-63912810D01*
X232680112Y-63803869D01*
X232874245Y-63662823D01*
X233043923Y-63493145D01*
X233184969Y-63299012D01*
X233293910Y-63085205D01*
X233368062Y-62856988D01*
X233399888Y-62656048D01*
X233405600Y-62619986D01*
X233405600Y-62380013D01*
X233368062Y-62143011D01*
X233350216Y-62088089D01*
X233293910Y-61914795D01*
X233184969Y-61700988D01*
X233043923Y-61506855D01*
X232874245Y-61337177D01*
X232680112Y-61196131D01*
X232466305Y-61087190D01*
X232407118Y-61067959D01*
X232238088Y-61013037D01*
X232001086Y-60975500D01*
X232001081Y-60975500D01*
X231761119Y-60975500D01*
X231761114Y-60975500D01*
X231524111Y-61013037D01*
X231295892Y-61087191D01*
X231082087Y-61196131D01*
X231035390Y-61230059D01*
X230887955Y-61337177D01*
X230887953Y-61337179D01*
X230887952Y-61337179D01*
X230718279Y-61506852D01*
X230718279Y-61506853D01*
X230718277Y-61506855D01*
X230678526Y-61561568D01*
X230577231Y-61700987D01*
X230468291Y-61914792D01*
X230394137Y-62143011D01*
X230356600Y-62380013D01*
X226000000Y-62380013D01*
X226000000Y-54760013D01*
X230356600Y-54760013D01*
X230356600Y-54999986D01*
X230394137Y-55236988D01*
X230449059Y-55406018D01*
X230468290Y-55465205D01*
X230577231Y-55679012D01*
X230718277Y-55873145D01*
X230887955Y-56042823D01*
X231082088Y-56183869D01*
X231295895Y-56292810D01*
X231469189Y-56349116D01*
X231524111Y-56366962D01*
X231761114Y-56404500D01*
X231761119Y-56404500D01*
X232001086Y-56404500D01*
X232238088Y-56366962D01*
X232466305Y-56292810D01*
X232680112Y-56183869D01*
X232874245Y-56042823D01*
X233043923Y-55873145D01*
X233184969Y-55679012D01*
X233293910Y-55465205D01*
X233368062Y-55236988D01*
X233368509Y-55234168D01*
X233405600Y-54999986D01*
X233405600Y-54760013D01*
X233368062Y-54523011D01*
X233350216Y-54468089D01*
X233293910Y-54294795D01*
X233184969Y-54080988D01*
X233043923Y-53886855D01*
X232874245Y-53717177D01*
X232680112Y-53576131D01*
X232466305Y-53467190D01*
X232407118Y-53447959D01*
X232238088Y-53393037D01*
X232001086Y-53355500D01*
X232001081Y-53355500D01*
X231761119Y-53355500D01*
X231761114Y-53355500D01*
X231524111Y-53393037D01*
X231295892Y-53467191D01*
X231082087Y-53576131D01*
X230971328Y-53656602D01*
X230887955Y-53717177D01*
X230887953Y-53717179D01*
X230887952Y-53717179D01*
X230718279Y-53886852D01*
X230718279Y-53886853D01*
X230718277Y-53886855D01*
X230657702Y-53970228D01*
X230577231Y-54080987D01*
X230468291Y-54294792D01*
X230394137Y-54523011D01*
X230356600Y-54760013D01*
X226000000Y-54760013D01*
X226000000Y-52682141D01*
X238074499Y-52682141D01*
X238110449Y-52862869D01*
X238110451Y-52862875D01*
X238180969Y-53033122D01*
X238180974Y-53033131D01*
X238283349Y-53186345D01*
X238283352Y-53186349D01*
X238413650Y-53316647D01*
X238413654Y-53316650D01*
X238566868Y-53419025D01*
X238566874Y-53419028D01*
X238566875Y-53419029D01*
X238737125Y-53489549D01*
X238737129Y-53489549D01*
X238737130Y-53489550D01*
X238917858Y-53525500D01*
X238917861Y-53525500D01*
X239102141Y-53525500D01*
X239223732Y-53501313D01*
X239282875Y-53489549D01*
X239453125Y-53419029D01*
X239606346Y-53316650D01*
X239736650Y-53186346D01*
X239839029Y-53033125D01*
X239909549Y-52862875D01*
X239945500Y-52682139D01*
X239945500Y-52497861D01*
X239945500Y-52497858D01*
X239909550Y-52317130D01*
X239909549Y-52317129D01*
X239909549Y-52317125D01*
X239839029Y-52146875D01*
X239839028Y-52146874D01*
X239839025Y-52146868D01*
X239736650Y-51993654D01*
X239736647Y-51993650D01*
X239606349Y-51863352D01*
X239606345Y-51863349D01*
X239453131Y-51760974D01*
X239453122Y-51760969D01*
X239282875Y-51690451D01*
X239282869Y-51690449D01*
X239102141Y-51654500D01*
X239102139Y-51654500D01*
X238917861Y-51654500D01*
X238917859Y-51654500D01*
X238737130Y-51690449D01*
X238737124Y-51690451D01*
X238566877Y-51760969D01*
X238566868Y-51760974D01*
X238413654Y-51863349D01*
X238413650Y-51863352D01*
X238283352Y-51993650D01*
X238283349Y-51993654D01*
X238180974Y-52146868D01*
X238180969Y-52146877D01*
X238110451Y-52317124D01*
X238110449Y-52317130D01*
X238074500Y-52497858D01*
X238074500Y-52497861D01*
X238074500Y-52682139D01*
X238074500Y-52682141D01*
X238074499Y-52682141D01*
X226000000Y-52682141D01*
X226000000Y-51124021D01*
X226019685Y-51056982D01*
X226072489Y-51011227D01*
X226124018Y-51000021D01*
X244493366Y-51003198D01*
X244500399Y-51003200D01*
X244500399Y-51003199D01*
X244500400Y-51003200D01*
X244500011Y-46624010D01*
X244519690Y-46556970D01*
X244572490Y-46511210D01*
X244624011Y-46500000D01*
X253875500Y-46500000D01*
X253942539Y-46519685D01*
G37*
%TD.AperFunction*%
%TD*%
%TA.AperFunction,Conductor*%
%TO.N,+6V*%
G36*
X253942539Y-28020185D02*
G01*
X253988294Y-28072989D01*
X253999500Y-28124500D01*
X253999500Y-45735500D01*
X253979815Y-45802539D01*
X253927011Y-45848294D01*
X253875500Y-45859500D01*
X244624005Y-45859500D01*
X244487837Y-45874142D01*
X244436318Y-45885351D01*
X244436304Y-45885356D01*
X244286557Y-45938075D01*
X244153002Y-46027194D01*
X244100218Y-46072941D01*
X244068045Y-46102814D01*
X243993891Y-46197868D01*
X243969292Y-46229399D01*
X243927885Y-46324363D01*
X243905121Y-46376569D01*
X243885444Y-46443600D01*
X243879619Y-46464777D01*
X243859511Y-46624061D01*
X243859511Y-46624067D01*
X243859831Y-50238555D01*
X243840152Y-50305596D01*
X243787352Y-50351356D01*
X243735810Y-50362566D01*
X226124132Y-50359520D01*
X226124130Y-50359520D01*
X225987908Y-50374150D01*
X225936374Y-50385357D01*
X225786611Y-50438065D01*
X225786602Y-50438069D01*
X225653052Y-50527167D01*
X225653045Y-50527172D01*
X225600263Y-50572909D01*
X225568083Y-50602784D01*
X225568076Y-50602791D01*
X225469315Y-50729364D01*
X225405131Y-50876525D01*
X225405131Y-50876526D01*
X225385451Y-50943548D01*
X225379621Y-50964737D01*
X225359500Y-51124009D01*
X225359500Y-75381286D01*
X225371329Y-75503799D01*
X225371331Y-75503812D01*
X225380403Y-75550361D01*
X225380403Y-75550364D01*
X225424034Y-75688543D01*
X225424035Y-75688545D01*
X225424036Y-75688547D01*
X225424037Y-75688549D01*
X225479514Y-75780083D01*
X225507254Y-75825853D01*
X225507255Y-75825855D01*
X225550669Y-75880591D01*
X225579110Y-75914030D01*
X225701276Y-76018197D01*
X225701279Y-76018198D01*
X225701281Y-76018200D01*
X225845519Y-76088716D01*
X225845525Y-76088718D01*
X225911613Y-76111285D01*
X225911624Y-76111288D01*
X225911640Y-76111294D01*
X225932531Y-76118030D01*
X225932535Y-76118030D01*
X225932536Y-76118031D01*
X225969358Y-76124318D01*
X226090793Y-76145052D01*
X237208354Y-76628422D01*
X237274474Y-76651000D01*
X237283661Y-76658154D01*
X239892970Y-78894705D01*
X239908536Y-78907626D01*
X240045295Y-78991733D01*
X240108346Y-79020323D01*
X240147313Y-79036467D01*
X240147314Y-79036467D01*
X240147316Y-79036468D01*
X240303480Y-79073723D01*
X240303482Y-79073722D01*
X240303483Y-79073723D01*
X240388375Y-79072267D01*
X240455740Y-79090799D01*
X240502394Y-79142811D01*
X240514500Y-79196249D01*
X240514500Y-79639168D01*
X240514501Y-79639193D01*
X240517335Y-79675204D01*
X240562129Y-79829388D01*
X240562131Y-79829393D01*
X240643863Y-79967595D01*
X240643869Y-79967603D01*
X240757396Y-80081130D01*
X240757405Y-80081137D01*
X240826543Y-80122025D01*
X240874226Y-80173094D01*
X240886730Y-80241836D01*
X240863741Y-80301642D01*
X240729486Y-80486429D01*
X240623335Y-80694763D01*
X240551077Y-80917148D01*
X240514500Y-81148089D01*
X240514500Y-81381910D01*
X240544762Y-81572981D01*
X240551078Y-81612855D01*
X240623334Y-81835234D01*
X240672080Y-81930904D01*
X240729489Y-82043574D01*
X240866918Y-82232731D01*
X240866922Y-82232736D01*
X241032263Y-82398077D01*
X241032268Y-82398081D01*
X241132595Y-82470972D01*
X241221429Y-82535513D01*
X241429766Y-82641666D01*
X241652145Y-82713922D01*
X241883089Y-82750500D01*
X241883090Y-82750500D01*
X242116910Y-82750500D01*
X242116911Y-82750500D01*
X242347855Y-82713922D01*
X242570234Y-82641666D01*
X242778571Y-82535513D01*
X242967738Y-82398076D01*
X243133076Y-82232738D01*
X243270513Y-82043571D01*
X243376666Y-81835234D01*
X243390307Y-81793251D01*
X248389500Y-81793251D01*
X248389500Y-82046748D01*
X248429156Y-82297127D01*
X248429156Y-82297130D01*
X248507489Y-82538214D01*
X248622579Y-82764089D01*
X248667166Y-82825458D01*
X248771579Y-82969170D01*
X248950830Y-83148421D01*
X249155914Y-83297423D01*
X249348401Y-83395500D01*
X249381785Y-83412510D01*
X249622870Y-83490843D01*
X249622871Y-83490843D01*
X249622874Y-83490844D01*
X249873251Y-83530500D01*
X249873252Y-83530500D01*
X250126748Y-83530500D01*
X250126749Y-83530500D01*
X250377126Y-83490844D01*
X250377129Y-83490843D01*
X250377130Y-83490843D01*
X250618214Y-83412510D01*
X250618214Y-83412509D01*
X250618217Y-83412509D01*
X250844086Y-83297423D01*
X251049170Y-83148421D01*
X251228421Y-82969170D01*
X251377423Y-82764086D01*
X251492509Y-82538217D01*
X251500879Y-82512457D01*
X251570843Y-82297130D01*
X251570843Y-82297129D01*
X251570844Y-82297126D01*
X251610500Y-82046749D01*
X251610500Y-81793251D01*
X251570844Y-81542874D01*
X251570843Y-81542870D01*
X251570843Y-81542869D01*
X251492510Y-81301785D01*
X251466465Y-81250669D01*
X251377423Y-81075914D01*
X251228421Y-80870830D01*
X251049170Y-80691579D01*
X251038407Y-80683759D01*
X250844089Y-80542579D01*
X250844088Y-80542578D01*
X250844086Y-80542577D01*
X250731151Y-80485034D01*
X250618214Y-80427489D01*
X250377129Y-80349156D01*
X250189343Y-80319414D01*
X250126749Y-80309500D01*
X249873251Y-80309500D01*
X249789792Y-80322718D01*
X249622872Y-80349156D01*
X249622869Y-80349156D01*
X249381785Y-80427489D01*
X249155910Y-80542579D01*
X248950833Y-80691576D01*
X248950827Y-80691581D01*
X248771581Y-80870827D01*
X248771576Y-80870833D01*
X248622579Y-81075910D01*
X248507489Y-81301785D01*
X248429156Y-81542869D01*
X248429156Y-81542872D01*
X248389500Y-81793251D01*
X243390307Y-81793251D01*
X243448922Y-81612855D01*
X243485500Y-81381911D01*
X243485500Y-81148089D01*
X243448922Y-80917145D01*
X243376666Y-80694766D01*
X243270513Y-80486429D01*
X243179526Y-80361195D01*
X243136259Y-80301642D01*
X243112779Y-80235836D01*
X243128605Y-80167782D01*
X243173457Y-80122025D01*
X243242592Y-80081139D01*
X243242593Y-80081137D01*
X243242598Y-80081135D01*
X243356135Y-79967598D01*
X243437869Y-79829393D01*
X243467334Y-79727971D01*
X243504940Y-79669088D01*
X243568412Y-79639881D01*
X243601956Y-79639547D01*
X243609500Y-79640500D01*
X243609502Y-79640500D01*
X253875500Y-79640500D01*
X253942539Y-79660185D01*
X253988294Y-79712989D01*
X253999500Y-79764500D01*
X253999500Y-96875500D01*
X253979815Y-96942539D01*
X253927011Y-96988294D01*
X253875500Y-96999500D01*
X204264500Y-96999500D01*
X204197461Y-96979815D01*
X204151706Y-96927011D01*
X204140500Y-96875500D01*
X204140500Y-92873251D01*
X219574500Y-92873251D01*
X219574500Y-93126748D01*
X219614156Y-93377127D01*
X219614156Y-93377130D01*
X219692489Y-93618214D01*
X219692491Y-93618217D01*
X219807577Y-93844086D01*
X219956579Y-94049170D01*
X220135830Y-94228421D01*
X220340914Y-94377423D01*
X220566783Y-94492509D01*
X220566785Y-94492510D01*
X220807870Y-94570843D01*
X220807871Y-94570843D01*
X220807874Y-94570844D01*
X221058251Y-94610500D01*
X221058252Y-94610500D01*
X221311748Y-94610500D01*
X221311749Y-94610500D01*
X221562126Y-94570844D01*
X221562129Y-94570843D01*
X221562130Y-94570843D01*
X221803214Y-94492510D01*
X221803214Y-94492509D01*
X221803217Y-94492509D01*
X222029086Y-94377423D01*
X222234170Y-94228421D01*
X222413421Y-94049170D01*
X222562423Y-93844086D01*
X222677509Y-93618217D01*
X222755844Y-93377126D01*
X222795500Y-93126749D01*
X222795500Y-92873251D01*
X224654500Y-92873251D01*
X224654500Y-93126748D01*
X224694156Y-93377127D01*
X224694156Y-93377130D01*
X224772489Y-93618214D01*
X224772491Y-93618217D01*
X224887577Y-93844086D01*
X225036579Y-94049170D01*
X225215830Y-94228421D01*
X225420914Y-94377423D01*
X225646783Y-94492509D01*
X225646785Y-94492510D01*
X225887870Y-94570843D01*
X225887871Y-94570843D01*
X225887874Y-94570844D01*
X226138251Y-94610500D01*
X226138252Y-94610500D01*
X226391748Y-94610500D01*
X226391749Y-94610500D01*
X226642126Y-94570844D01*
X226642129Y-94570843D01*
X226642130Y-94570843D01*
X226883214Y-94492510D01*
X226883214Y-94492509D01*
X226883217Y-94492509D01*
X227109086Y-94377423D01*
X227314170Y-94228421D01*
X227493421Y-94049170D01*
X227642423Y-93844086D01*
X227757509Y-93618217D01*
X227835844Y-93377126D01*
X227875500Y-93126749D01*
X227875500Y-92873251D01*
X235969500Y-92873251D01*
X235969500Y-93126748D01*
X236009156Y-93377127D01*
X236009156Y-93377130D01*
X236087489Y-93618214D01*
X236087491Y-93618217D01*
X236202577Y-93844086D01*
X236351579Y-94049170D01*
X236530830Y-94228421D01*
X236735914Y-94377423D01*
X236961783Y-94492509D01*
X236961785Y-94492510D01*
X237202870Y-94570843D01*
X237202871Y-94570843D01*
X237202874Y-94570844D01*
X237453251Y-94610500D01*
X237453252Y-94610500D01*
X237706748Y-94610500D01*
X237706749Y-94610500D01*
X237957126Y-94570844D01*
X237957129Y-94570843D01*
X237957130Y-94570843D01*
X238198214Y-94492510D01*
X238198214Y-94492509D01*
X238198217Y-94492509D01*
X238424086Y-94377423D01*
X238629170Y-94228421D01*
X238808421Y-94049170D01*
X238957423Y-93844086D01*
X239072509Y-93618217D01*
X239150844Y-93377126D01*
X239190500Y-93126749D01*
X239190500Y-92873251D01*
X241049500Y-92873251D01*
X241049500Y-93126748D01*
X241089156Y-93377127D01*
X241089156Y-93377130D01*
X241167489Y-93618214D01*
X241167491Y-93618217D01*
X241282577Y-93844086D01*
X241431579Y-94049170D01*
X241610830Y-94228421D01*
X241815914Y-94377423D01*
X242041783Y-94492509D01*
X242041785Y-94492510D01*
X242282870Y-94570843D01*
X242282871Y-94570843D01*
X242282874Y-94570844D01*
X242533251Y-94610500D01*
X242533252Y-94610500D01*
X242786748Y-94610500D01*
X242786749Y-94610500D01*
X243037126Y-94570844D01*
X243037129Y-94570843D01*
X243037130Y-94570843D01*
X243278214Y-94492510D01*
X243278214Y-94492509D01*
X243278217Y-94492509D01*
X243504086Y-94377423D01*
X243709170Y-94228421D01*
X243888421Y-94049170D01*
X244037423Y-93844086D01*
X244152509Y-93618217D01*
X244230844Y-93377126D01*
X244270500Y-93126749D01*
X244270500Y-92873251D01*
X244230844Y-92622874D01*
X244230843Y-92622870D01*
X244230843Y-92622869D01*
X244152510Y-92381785D01*
X244152509Y-92381783D01*
X244037423Y-92155914D01*
X243888421Y-91950830D01*
X243709170Y-91771579D01*
X243504086Y-91622577D01*
X243391151Y-91565034D01*
X243278214Y-91507489D01*
X243037129Y-91429156D01*
X242840902Y-91398077D01*
X242786749Y-91389500D01*
X242533251Y-91389500D01*
X242449792Y-91402718D01*
X242282872Y-91429156D01*
X242282869Y-91429156D01*
X242041785Y-91507489D01*
X241815910Y-91622579D01*
X241610833Y-91771576D01*
X241610827Y-91771581D01*
X241431581Y-91950827D01*
X241431576Y-91950833D01*
X241282579Y-92155910D01*
X241167489Y-92381785D01*
X241089156Y-92622869D01*
X241089156Y-92622872D01*
X241049500Y-92873251D01*
X239190500Y-92873251D01*
X239150844Y-92622874D01*
X239150843Y-92622870D01*
X239150843Y-92622869D01*
X239072510Y-92381785D01*
X239072509Y-92381783D01*
X238957423Y-92155914D01*
X238808421Y-91950830D01*
X238629170Y-91771579D01*
X238424086Y-91622577D01*
X238311151Y-91565034D01*
X238198214Y-91507489D01*
X237957129Y-91429156D01*
X237760902Y-91398077D01*
X237706749Y-91389500D01*
X237453251Y-91389500D01*
X237369792Y-91402718D01*
X237202872Y-91429156D01*
X237202869Y-91429156D01*
X236961785Y-91507489D01*
X236735910Y-91622579D01*
X236530833Y-91771576D01*
X236530827Y-91771581D01*
X236351581Y-91950827D01*
X236351576Y-91950833D01*
X236202579Y-92155910D01*
X236087489Y-92381785D01*
X236009156Y-92622869D01*
X236009156Y-92622872D01*
X235969500Y-92873251D01*
X227875500Y-92873251D01*
X227835844Y-92622874D01*
X227835843Y-92622870D01*
X227835843Y-92622869D01*
X227757510Y-92381785D01*
X227757509Y-92381783D01*
X227642423Y-92155914D01*
X227493421Y-91950830D01*
X227314170Y-91771579D01*
X227109086Y-91622577D01*
X226996151Y-91565034D01*
X226883214Y-91507489D01*
X226642129Y-91429156D01*
X226445902Y-91398077D01*
X226391749Y-91389500D01*
X226138251Y-91389500D01*
X226054792Y-91402718D01*
X225887872Y-91429156D01*
X225887869Y-91429156D01*
X225646785Y-91507489D01*
X225420910Y-91622579D01*
X225215833Y-91771576D01*
X225215827Y-91771581D01*
X225036581Y-91950827D01*
X225036576Y-91950833D01*
X224887579Y-92155910D01*
X224772489Y-92381785D01*
X224694156Y-92622869D01*
X224694156Y-92622872D01*
X224654500Y-92873251D01*
X222795500Y-92873251D01*
X222755844Y-92622874D01*
X222755843Y-92622870D01*
X222755843Y-92622869D01*
X222677510Y-92381785D01*
X222677509Y-92381783D01*
X222562423Y-92155914D01*
X222413421Y-91950830D01*
X222234170Y-91771579D01*
X222029086Y-91622577D01*
X221916151Y-91565034D01*
X221803214Y-91507489D01*
X221562129Y-91429156D01*
X221365902Y-91398077D01*
X221311749Y-91389500D01*
X221058251Y-91389500D01*
X220974792Y-91402718D01*
X220807872Y-91429156D01*
X220807869Y-91429156D01*
X220566785Y-91507489D01*
X220340910Y-91622579D01*
X220135833Y-91771576D01*
X220135827Y-91771581D01*
X219956581Y-91950827D01*
X219956576Y-91950833D01*
X219807579Y-92155910D01*
X219692489Y-92381785D01*
X219614156Y-92622869D01*
X219614156Y-92622872D01*
X219574500Y-92873251D01*
X204140500Y-92873251D01*
X204140500Y-91398077D01*
X204140093Y-91375273D01*
X204140092Y-91375260D01*
X204140092Y-91375230D01*
X204139776Y-91366384D01*
X204136611Y-91321692D01*
X204099800Y-91165417D01*
X204099796Y-91165408D01*
X204099796Y-91165404D01*
X204075387Y-91099965D01*
X204075383Y-91099953D01*
X204058647Y-91059385D01*
X203974565Y-90922611D01*
X203974564Y-90922610D01*
X203859117Y-90811049D01*
X203859113Y-90811046D01*
X203859111Y-90811044D01*
X203803178Y-90769172D01*
X203778311Y-90751854D01*
X203767150Y-90744081D01*
X203767148Y-90744080D01*
X203622467Y-90674479D01*
X203622463Y-90674478D01*
X203599720Y-90669937D01*
X203537833Y-90637506D01*
X203503303Y-90576766D01*
X203500000Y-90548337D01*
X203500000Y-89451449D01*
X203506047Y-89430854D01*
X203507337Y-89409428D01*
X203515695Y-89397995D01*
X203519685Y-89384410D01*
X203535904Y-89370355D01*
X203548575Y-89353026D01*
X203569345Y-89341378D01*
X203572489Y-89338655D01*
X203579360Y-89335763D01*
X203582537Y-89334536D01*
X203604174Y-89326188D01*
X203607749Y-89324872D01*
X203713406Y-89287851D01*
X203752609Y-89261695D01*
X203766777Y-89254068D01*
X203804737Y-89231920D01*
X203837004Y-89205388D01*
X203846962Y-89198745D01*
X203863425Y-89184479D01*
X203863424Y-89184478D01*
X203880611Y-89169586D01*
X203883066Y-89167514D01*
X203928745Y-89129957D01*
X203928747Y-89129954D01*
X203928750Y-89129952D01*
X203959539Y-89087837D01*
X203961832Y-89084802D01*
X204030697Y-88996541D01*
X204049538Y-88953335D01*
X204057329Y-88939268D01*
X204077287Y-88900117D01*
X204090087Y-88860353D01*
X204094876Y-88849374D01*
X204101013Y-88828471D01*
X204101012Y-88828470D01*
X204107421Y-88806642D01*
X204108342Y-88803648D01*
X204126486Y-88747289D01*
X204130204Y-88685507D01*
X204130952Y-88677482D01*
X204140500Y-88601904D01*
X204140500Y-88303753D01*
X204133088Y-88207399D01*
X204133089Y-88207397D01*
X204133088Y-88207393D01*
X204132965Y-88205798D01*
X204132965Y-88205793D01*
X204132496Y-88202765D01*
X210814500Y-88202765D01*
X210814500Y-88397234D01*
X210841997Y-88570844D01*
X210844923Y-88589314D01*
X210905018Y-88774267D01*
X210993306Y-88947543D01*
X211107614Y-89104874D01*
X211245126Y-89242386D01*
X211402457Y-89356694D01*
X211575733Y-89444982D01*
X211760686Y-89505077D01*
X211952764Y-89535500D01*
X211952765Y-89535500D01*
X212147235Y-89535500D01*
X212147236Y-89535500D01*
X212339314Y-89505077D01*
X212524267Y-89444982D01*
X212697543Y-89356694D01*
X212854874Y-89242386D01*
X212992386Y-89104874D01*
X213106694Y-88947543D01*
X213194982Y-88774267D01*
X213255077Y-88589314D01*
X213285500Y-88397236D01*
X213285500Y-88202764D01*
X213255077Y-88010686D01*
X213194982Y-87825733D01*
X213106694Y-87652457D01*
X212992386Y-87495126D01*
X212854874Y-87357614D01*
X212697543Y-87243306D01*
X212524267Y-87155018D01*
X212339314Y-87094923D01*
X212339312Y-87094922D01*
X212339310Y-87094922D01*
X212205201Y-87073681D01*
X212147236Y-87064500D01*
X211952764Y-87064500D01*
X211908236Y-87071552D01*
X211760689Y-87094922D01*
X211575730Y-87155019D01*
X211402456Y-87243306D01*
X211321402Y-87302196D01*
X211245126Y-87357614D01*
X211245124Y-87357616D01*
X211245123Y-87357616D01*
X211107616Y-87495123D01*
X211107616Y-87495124D01*
X211107614Y-87495126D01*
X211087740Y-87522480D01*
X210993306Y-87652456D01*
X210905019Y-87825730D01*
X210844922Y-88010689D01*
X210814500Y-88202765D01*
X204132496Y-88202765D01*
X204127164Y-88168310D01*
X204097742Y-88051849D01*
X204025456Y-87908490D01*
X203986427Y-87850537D01*
X203960680Y-87814998D01*
X203960679Y-87814996D01*
X203846986Y-87701641D01*
X203846984Y-87701639D01*
X203708669Y-87620117D01*
X203644505Y-87592464D01*
X203644496Y-87592460D01*
X203644488Y-87592457D01*
X203598991Y-87574673D01*
X203599661Y-87572958D01*
X203547786Y-87539073D01*
X203519234Y-87475303D01*
X203529692Y-87406220D01*
X203575838Y-87353758D01*
X203601089Y-87341548D01*
X203713392Y-87302200D01*
X203846950Y-87213097D01*
X203846950Y-87213096D01*
X203846954Y-87213094D01*
X203870090Y-87193045D01*
X203899754Y-87167342D01*
X203931918Y-87137482D01*
X204030684Y-87010904D01*
X204094869Y-86863740D01*
X204114554Y-86796701D01*
X204120378Y-86775532D01*
X204139663Y-86622872D01*
X204140499Y-86616257D01*
X204140500Y-86616244D01*
X204140500Y-86383089D01*
X222249500Y-86383089D01*
X222249500Y-86616911D01*
X222260537Y-86686601D01*
X222277978Y-86796718D01*
X222286078Y-86847855D01*
X222358334Y-87070234D01*
X222431127Y-87213099D01*
X222464489Y-87278574D01*
X222601918Y-87467731D01*
X222601922Y-87467736D01*
X222767263Y-87633077D01*
X222767268Y-87633081D01*
X222918003Y-87742595D01*
X222956429Y-87770513D01*
X223164766Y-87876666D01*
X223387145Y-87948922D01*
X223618089Y-87985500D01*
X223618090Y-87985500D01*
X223851910Y-87985500D01*
X223851911Y-87985500D01*
X224082855Y-87948922D01*
X224305234Y-87876666D01*
X224513571Y-87770513D01*
X224698357Y-87636259D01*
X224764163Y-87612779D01*
X224832217Y-87628605D01*
X224877974Y-87673456D01*
X224918862Y-87742594D01*
X224918869Y-87742603D01*
X225032396Y-87856130D01*
X225032400Y-87856133D01*
X225032402Y-87856135D01*
X225170607Y-87937869D01*
X225208652Y-87948922D01*
X225324791Y-87982664D01*
X225324794Y-87982664D01*
X225324796Y-87982665D01*
X225360819Y-87985500D01*
X227189180Y-87985499D01*
X227225204Y-87982665D01*
X227379393Y-87937869D01*
X227517598Y-87856135D01*
X227631135Y-87742598D01*
X227712869Y-87604393D01*
X227752571Y-87467738D01*
X227757664Y-87450208D01*
X227757665Y-87450202D01*
X227760499Y-87414188D01*
X227760500Y-87414181D01*
X227760499Y-86383089D01*
X239249500Y-86383089D01*
X239249500Y-86616911D01*
X239260537Y-86686601D01*
X239277978Y-86796718D01*
X239286078Y-86847855D01*
X239358334Y-87070234D01*
X239431127Y-87213099D01*
X239464489Y-87278574D01*
X239601918Y-87467731D01*
X239601922Y-87467736D01*
X239767263Y-87633077D01*
X239767268Y-87633081D01*
X239918003Y-87742595D01*
X239956429Y-87770513D01*
X240164766Y-87876666D01*
X240387145Y-87948922D01*
X240618089Y-87985500D01*
X240618090Y-87985500D01*
X240851910Y-87985500D01*
X240851911Y-87985500D01*
X241082855Y-87948922D01*
X241305234Y-87876666D01*
X241513571Y-87770513D01*
X241698357Y-87636259D01*
X241764163Y-87612779D01*
X241832217Y-87628605D01*
X241877974Y-87673456D01*
X241918862Y-87742594D01*
X241918869Y-87742603D01*
X242032396Y-87856130D01*
X242032400Y-87856133D01*
X242032402Y-87856135D01*
X242170607Y-87937869D01*
X242208652Y-87948922D01*
X242324791Y-87982664D01*
X242324794Y-87982664D01*
X242324796Y-87982665D01*
X242360819Y-87985500D01*
X244189180Y-87985499D01*
X244225204Y-87982665D01*
X244379393Y-87937869D01*
X244517598Y-87856135D01*
X244631135Y-87742598D01*
X244712869Y-87604393D01*
X244752571Y-87467738D01*
X244757664Y-87450208D01*
X244757665Y-87450202D01*
X244760499Y-87414188D01*
X244760500Y-87414181D01*
X244760499Y-86873251D01*
X248389500Y-86873251D01*
X248389500Y-87126749D01*
X248393978Y-87155019D01*
X248429156Y-87377127D01*
X248429156Y-87377130D01*
X248507489Y-87618214D01*
X248549997Y-87701639D01*
X248622577Y-87844086D01*
X248771579Y-88049170D01*
X248950830Y-88228421D01*
X249155914Y-88377423D01*
X249381783Y-88492509D01*
X249381785Y-88492510D01*
X249622870Y-88570843D01*
X249622871Y-88570843D01*
X249622874Y-88570844D01*
X249873251Y-88610500D01*
X249873252Y-88610500D01*
X250126748Y-88610500D01*
X250126749Y-88610500D01*
X250377126Y-88570844D01*
X250377129Y-88570843D01*
X250377130Y-88570843D01*
X250618214Y-88492510D01*
X250618214Y-88492509D01*
X250618217Y-88492509D01*
X250844086Y-88377423D01*
X251049170Y-88228421D01*
X251228421Y-88049170D01*
X251377423Y-87844086D01*
X251492509Y-87618217D01*
X251500879Y-87592457D01*
X251570843Y-87377130D01*
X251570843Y-87377129D01*
X251570844Y-87377126D01*
X251610500Y-87126749D01*
X251610500Y-86873251D01*
X251570844Y-86622874D01*
X251570843Y-86622870D01*
X251570843Y-86622869D01*
X251492510Y-86381785D01*
X251492509Y-86381783D01*
X251377423Y-86155914D01*
X251228421Y-85950830D01*
X251049170Y-85771579D01*
X251038407Y-85763759D01*
X250844089Y-85622579D01*
X250844088Y-85622578D01*
X250844086Y-85622577D01*
X250701245Y-85549796D01*
X250618214Y-85507489D01*
X250377129Y-85429156D01*
X250165307Y-85395607D01*
X250126749Y-85389500D01*
X249873251Y-85389500D01*
X249834668Y-85395611D01*
X249622872Y-85429156D01*
X249622869Y-85429156D01*
X249381785Y-85507489D01*
X249155910Y-85622579D01*
X248950833Y-85771576D01*
X248950827Y-85771581D01*
X248771581Y-85950827D01*
X248771576Y-85950833D01*
X248622579Y-86155910D01*
X248507489Y-86381785D01*
X248429156Y-86622869D01*
X248429156Y-86622872D01*
X248429156Y-86622874D01*
X248389500Y-86873251D01*
X244760499Y-86873251D01*
X244760499Y-86383089D01*
X244760499Y-85585831D01*
X244760498Y-85585806D01*
X244760217Y-85582236D01*
X244757665Y-85549796D01*
X244712869Y-85395607D01*
X244631135Y-85257402D01*
X244631133Y-85257400D01*
X244631130Y-85257396D01*
X244517603Y-85143869D01*
X244517595Y-85143863D01*
X244379393Y-85062131D01*
X244379388Y-85062129D01*
X244225208Y-85017335D01*
X244225202Y-85017334D01*
X244189181Y-85014500D01*
X242360831Y-85014500D01*
X242360806Y-85014501D01*
X242324795Y-85017335D01*
X242170611Y-85062129D01*
X242170606Y-85062131D01*
X242032404Y-85143863D01*
X242032396Y-85143869D01*
X241918869Y-85257396D01*
X241918860Y-85257407D01*
X241877973Y-85326544D01*
X241826904Y-85374227D01*
X241758162Y-85386730D01*
X241698357Y-85363740D01*
X241513574Y-85229489D01*
X241513573Y-85229488D01*
X241513571Y-85229487D01*
X241305234Y-85123334D01*
X241082855Y-85051078D01*
X241082853Y-85051077D01*
X241082852Y-85051077D01*
X240869810Y-85017335D01*
X240851911Y-85014500D01*
X240618089Y-85014500D01*
X240600190Y-85017335D01*
X240387148Y-85051077D01*
X240164763Y-85123335D01*
X239956425Y-85229489D01*
X239767268Y-85366918D01*
X239767263Y-85366922D01*
X239601922Y-85532263D01*
X239601918Y-85532268D01*
X239464489Y-85721425D01*
X239358335Y-85929763D01*
X239286077Y-86152148D01*
X239285481Y-86155914D01*
X239249500Y-86383089D01*
X227760499Y-86383089D01*
X227760499Y-85585820D01*
X227757665Y-85549796D01*
X227712869Y-85395607D01*
X227631135Y-85257402D01*
X227631133Y-85257400D01*
X227631130Y-85257396D01*
X227517603Y-85143869D01*
X227517595Y-85143863D01*
X227379393Y-85062131D01*
X227379388Y-85062129D01*
X227225208Y-85017335D01*
X227225202Y-85017334D01*
X227189181Y-85014500D01*
X225360831Y-85014500D01*
X225360806Y-85014501D01*
X225324795Y-85017335D01*
X225170611Y-85062129D01*
X225170606Y-85062131D01*
X225032404Y-85143863D01*
X225032396Y-85143869D01*
X224918869Y-85257396D01*
X224918860Y-85257407D01*
X224877973Y-85326544D01*
X224826904Y-85374227D01*
X224758162Y-85386730D01*
X224698357Y-85363740D01*
X224513574Y-85229489D01*
X224513573Y-85229488D01*
X224513571Y-85229487D01*
X224305234Y-85123334D01*
X224082855Y-85051078D01*
X224082853Y-85051077D01*
X224082852Y-85051077D01*
X223869810Y-85017335D01*
X223851911Y-85014500D01*
X223618089Y-85014500D01*
X223600190Y-85017335D01*
X223387148Y-85051077D01*
X223164763Y-85123335D01*
X222956425Y-85229489D01*
X222767268Y-85366918D01*
X222767263Y-85366922D01*
X222601922Y-85532263D01*
X222601918Y-85532268D01*
X222464489Y-85721425D01*
X222358335Y-85929763D01*
X222286077Y-86152148D01*
X222285481Y-86155914D01*
X222249500Y-86383089D01*
X204140500Y-86383089D01*
X204140500Y-85763759D01*
X204140500Y-85763753D01*
X204132965Y-85665793D01*
X204127164Y-85628310D01*
X204097742Y-85511849D01*
X204025456Y-85368490D01*
X203986427Y-85310537D01*
X203960680Y-85274998D01*
X203960679Y-85274996D01*
X203846986Y-85161641D01*
X203846984Y-85161639D01*
X203708669Y-85080117D01*
X203644505Y-85052464D01*
X203644496Y-85052460D01*
X203644488Y-85052457D01*
X203598991Y-85034673D01*
X203599661Y-85032958D01*
X203547786Y-84999073D01*
X203519234Y-84935303D01*
X203529692Y-84866220D01*
X203575838Y-84813758D01*
X203601089Y-84801548D01*
X203713392Y-84762200D01*
X203846950Y-84673097D01*
X203846950Y-84673096D01*
X203846954Y-84673094D01*
X203870090Y-84653045D01*
X203899754Y-84627342D01*
X203931918Y-84597482D01*
X204030684Y-84470904D01*
X204094869Y-84323740D01*
X204114554Y-84256701D01*
X204120378Y-84235532D01*
X204140500Y-84076246D01*
X204140500Y-83223753D01*
X204132965Y-83125793D01*
X204127164Y-83088310D01*
X204097742Y-82971849D01*
X204025456Y-82828490D01*
X203986427Y-82770537D01*
X203960680Y-82734998D01*
X203960679Y-82734996D01*
X203846986Y-82621641D01*
X203846984Y-82621639D01*
X203708669Y-82540117D01*
X203644505Y-82512464D01*
X203644496Y-82512460D01*
X203644488Y-82512457D01*
X203598991Y-82494673D01*
X203599661Y-82492958D01*
X203547786Y-82459073D01*
X203519234Y-82395303D01*
X203529692Y-82326220D01*
X203575838Y-82273758D01*
X203601089Y-82261548D01*
X203713392Y-82222200D01*
X203846950Y-82133097D01*
X203846950Y-82133096D01*
X203846954Y-82133094D01*
X203870090Y-82113045D01*
X203899754Y-82087342D01*
X203931918Y-82057482D01*
X204030684Y-81930904D01*
X204094869Y-81783740D01*
X204114554Y-81716701D01*
X204120378Y-81695532D01*
X204130823Y-81612849D01*
X204140499Y-81536257D01*
X204140500Y-81536244D01*
X204140500Y-81061283D01*
X210144500Y-81061283D01*
X210144500Y-81318717D01*
X210154509Y-81381910D01*
X210184772Y-81572981D01*
X210184772Y-81572984D01*
X210264321Y-81817811D01*
X210264323Y-81817814D01*
X210381195Y-82047189D01*
X210532511Y-82255457D01*
X210714543Y-82437489D01*
X210922811Y-82588805D01*
X211152186Y-82705677D01*
X211152188Y-82705678D01*
X211351812Y-82770539D01*
X211397020Y-82785228D01*
X211651283Y-82825500D01*
X211651284Y-82825500D01*
X211908716Y-82825500D01*
X211908717Y-82825500D01*
X212162980Y-82785228D01*
X212162983Y-82785227D01*
X212162984Y-82785227D01*
X212407811Y-82705678D01*
X212407811Y-82705677D01*
X212407814Y-82705677D01*
X212637189Y-82588805D01*
X212845457Y-82437489D01*
X213027489Y-82255457D01*
X213178805Y-82047189D01*
X213295677Y-81817814D01*
X213328525Y-81716718D01*
X213356285Y-81631283D01*
X226704500Y-81631283D01*
X226704500Y-81888716D01*
X226744772Y-82142981D01*
X226744772Y-82142984D01*
X226824321Y-82387811D01*
X226824323Y-82387814D01*
X226941195Y-82617189D01*
X227092511Y-82825457D01*
X227274543Y-83007489D01*
X227482811Y-83158805D01*
X227712186Y-83275677D01*
X227712188Y-83275678D01*
X227940552Y-83349877D01*
X227957020Y-83355228D01*
X228211283Y-83395500D01*
X228211284Y-83395500D01*
X228468716Y-83395500D01*
X228468717Y-83395500D01*
X228722980Y-83355228D01*
X228722983Y-83355227D01*
X228722984Y-83355227D01*
X228967811Y-83275678D01*
X228967811Y-83275677D01*
X228967814Y-83275677D01*
X229197189Y-83158805D01*
X229405457Y-83007489D01*
X229587489Y-82825457D01*
X229738805Y-82617189D01*
X229855677Y-82387814D01*
X229888177Y-82287789D01*
X229935227Y-82142984D01*
X229935227Y-82142983D01*
X229935228Y-82142980D01*
X229975500Y-81888717D01*
X229975500Y-81631283D01*
X229935228Y-81377020D01*
X229935227Y-81377016D01*
X229935227Y-81377015D01*
X229855678Y-81132188D01*
X229855676Y-81132185D01*
X229848560Y-81118218D01*
X229738805Y-80902811D01*
X229587489Y-80694543D01*
X229405457Y-80512511D01*
X229197189Y-80361195D01*
X228967814Y-80244323D01*
X228967811Y-80244321D01*
X228722982Y-80164772D01*
X228553471Y-80137924D01*
X228468717Y-80124500D01*
X228211283Y-80124500D01*
X228126528Y-80137924D01*
X227957018Y-80164772D01*
X227957015Y-80164772D01*
X227712188Y-80244321D01*
X227712185Y-80244323D01*
X227482810Y-80361195D01*
X227385564Y-80431849D01*
X227274543Y-80512511D01*
X227274541Y-80512513D01*
X227274540Y-80512513D01*
X227092513Y-80694540D01*
X227092513Y-80694541D01*
X227092511Y-80694543D01*
X227027526Y-80783986D01*
X226941195Y-80902810D01*
X226824323Y-81132185D01*
X226824321Y-81132188D01*
X226744772Y-81377015D01*
X226744772Y-81377018D01*
X226704500Y-81631283D01*
X213356285Y-81631283D01*
X213370318Y-81588093D01*
X213370318Y-81588092D01*
X213375228Y-81572980D01*
X213381046Y-81536246D01*
X213415500Y-81318717D01*
X213415500Y-81061283D01*
X213375228Y-80807020D01*
X213375227Y-80807016D01*
X213375227Y-80807015D01*
X213295678Y-80562188D01*
X213295676Y-80562185D01*
X213288607Y-80548310D01*
X213178805Y-80332811D01*
X213027489Y-80124543D01*
X212845457Y-79942511D01*
X212637189Y-79791195D01*
X212407814Y-79674323D01*
X212407811Y-79674321D01*
X212162982Y-79594772D01*
X211993471Y-79567924D01*
X211908717Y-79554500D01*
X211651283Y-79554500D01*
X211566528Y-79567924D01*
X211397018Y-79594772D01*
X211397015Y-79594772D01*
X211152188Y-79674321D01*
X211152185Y-79674323D01*
X210922810Y-79791195D01*
X210870236Y-79829393D01*
X210714543Y-79942511D01*
X210714541Y-79942513D01*
X210714540Y-79942513D01*
X210532513Y-80124540D01*
X210532513Y-80124541D01*
X210532511Y-80124543D01*
X210503283Y-80164772D01*
X210381195Y-80332810D01*
X210264323Y-80562185D01*
X210264321Y-80562188D01*
X210184772Y-80807015D01*
X210184772Y-80807018D01*
X210151462Y-81017325D01*
X210144500Y-81061283D01*
X204140500Y-81061283D01*
X204140500Y-80683759D01*
X204140500Y-80683753D01*
X204132965Y-80585793D01*
X204127164Y-80548310D01*
X204097742Y-80431849D01*
X204025456Y-80288490D01*
X203986427Y-80230537D01*
X203960680Y-80194998D01*
X203960679Y-80194996D01*
X203846986Y-80081641D01*
X203846984Y-80081639D01*
X203708669Y-80000117D01*
X203644505Y-79972464D01*
X203644496Y-79972460D01*
X203644488Y-79972457D01*
X203598991Y-79954673D01*
X203599661Y-79952958D01*
X203547786Y-79919073D01*
X203519234Y-79855303D01*
X203529692Y-79786220D01*
X203575838Y-79733758D01*
X203601089Y-79721548D01*
X203713392Y-79682200D01*
X203846950Y-79593097D01*
X203846950Y-79593096D01*
X203846954Y-79593094D01*
X203891493Y-79554500D01*
X203899754Y-79547342D01*
X203931918Y-79517482D01*
X204030684Y-79390904D01*
X204094869Y-79243740D01*
X204114554Y-79176701D01*
X204120378Y-79155532D01*
X204135419Y-79036467D01*
X204140499Y-78996257D01*
X204140500Y-78996244D01*
X204140500Y-78278061D01*
X204140500Y-78278025D01*
X204140304Y-78262198D01*
X204116252Y-78103458D01*
X204097830Y-78038425D01*
X204086469Y-78002404D01*
X204051042Y-77931022D01*
X204015096Y-77858593D01*
X204015094Y-77858590D01*
X203910199Y-77737048D01*
X203910196Y-77737044D01*
X203858277Y-77690288D01*
X203841716Y-77675879D01*
X203841713Y-77675877D01*
X203841712Y-77675876D01*
X203841709Y-77675874D01*
X203711983Y-77592141D01*
X209314499Y-77592141D01*
X209350449Y-77772869D01*
X209350451Y-77772875D01*
X209420969Y-77943122D01*
X209420974Y-77943131D01*
X209523349Y-78096345D01*
X209523352Y-78096349D01*
X209653650Y-78226647D01*
X209653654Y-78226650D01*
X209806868Y-78329025D01*
X209806874Y-78329028D01*
X209806875Y-78329029D01*
X209977125Y-78399549D01*
X209977129Y-78399549D01*
X209977130Y-78399550D01*
X210157858Y-78435500D01*
X210157861Y-78435500D01*
X210342141Y-78435500D01*
X210463732Y-78411313D01*
X210522875Y-78399549D01*
X210693125Y-78329029D01*
X210846346Y-78226650D01*
X210976650Y-78096346D01*
X211079029Y-77943125D01*
X211149549Y-77772875D01*
X211185500Y-77592139D01*
X211185500Y-77407861D01*
X211185500Y-77407858D01*
X211149550Y-77227130D01*
X211149549Y-77227129D01*
X211149549Y-77227125D01*
X211079029Y-77056875D01*
X211079028Y-77056874D01*
X211079025Y-77056868D01*
X210976650Y-76903654D01*
X210976647Y-76903650D01*
X210846349Y-76773352D01*
X210846345Y-76773349D01*
X210693131Y-76670974D01*
X210693122Y-76670969D01*
X210522875Y-76600451D01*
X210522869Y-76600449D01*
X210342141Y-76564500D01*
X210342139Y-76564500D01*
X210157861Y-76564500D01*
X210157859Y-76564500D01*
X209977130Y-76600449D01*
X209977124Y-76600451D01*
X209806877Y-76670969D01*
X209806868Y-76670974D01*
X209653654Y-76773349D01*
X209653650Y-76773352D01*
X209523352Y-76903650D01*
X209523349Y-76903654D01*
X209420974Y-77056868D01*
X209420969Y-77056877D01*
X209350451Y-77227124D01*
X209350449Y-77227130D01*
X209314500Y-77407858D01*
X209314500Y-77407861D01*
X209314500Y-77592139D01*
X209314500Y-77592141D01*
X209314499Y-77592141D01*
X203711983Y-77592141D01*
X203706833Y-77588817D01*
X203706827Y-77588813D01*
X203706823Y-77588811D01*
X200869608Y-76226947D01*
X200817689Y-76180191D01*
X200799606Y-76124318D01*
X200729704Y-75180634D01*
X206254500Y-75180634D01*
X206254500Y-75359365D01*
X206282460Y-75535898D01*
X206282460Y-75535901D01*
X206337689Y-75705878D01*
X206337691Y-75705881D01*
X206418833Y-75865132D01*
X206523889Y-76009728D01*
X206650272Y-76136111D01*
X206794868Y-76241167D01*
X206954119Y-76322309D01*
X206954121Y-76322310D01*
X207112670Y-76373825D01*
X207124103Y-76377540D01*
X207300634Y-76405500D01*
X207300635Y-76405500D01*
X207479365Y-76405500D01*
X207479366Y-76405500D01*
X207655897Y-76377540D01*
X207655900Y-76377539D01*
X207655901Y-76377539D01*
X207825878Y-76322310D01*
X207825878Y-76322309D01*
X207825881Y-76322309D01*
X207985132Y-76241167D01*
X208129728Y-76136111D01*
X208256111Y-76009728D01*
X208361167Y-75865132D01*
X208442309Y-75705881D01*
X208447464Y-75690016D01*
X208497539Y-75535901D01*
X208497539Y-75535900D01*
X208497540Y-75535897D01*
X208525500Y-75359366D01*
X208525500Y-75180634D01*
X208497540Y-75004103D01*
X208497539Y-75004099D01*
X208497539Y-75004098D01*
X208442310Y-74834121D01*
X208442308Y-74834118D01*
X208440388Y-74830348D01*
X208361167Y-74674868D01*
X208256111Y-74530272D01*
X208129728Y-74403889D01*
X207985132Y-74298833D01*
X207825881Y-74217691D01*
X207825878Y-74217689D01*
X207655899Y-74162460D01*
X207538209Y-74143820D01*
X207479366Y-74134500D01*
X207300634Y-74134500D01*
X207241790Y-74143820D01*
X207124101Y-74162460D01*
X207124098Y-74162460D01*
X206954121Y-74217689D01*
X206954118Y-74217691D01*
X206794867Y-74298833D01*
X206650270Y-74403890D01*
X206523890Y-74530270D01*
X206418833Y-74674867D01*
X206337691Y-74834118D01*
X206337689Y-74834121D01*
X206282460Y-75004098D01*
X206282460Y-75004101D01*
X206254500Y-75180634D01*
X200729704Y-75180634D01*
X200412571Y-70899341D01*
X200411246Y-70883968D01*
X200375630Y-70727417D01*
X200352545Y-70664049D01*
X200338738Y-70629331D01*
X200338736Y-70629327D01*
X200338735Y-70629325D01*
X200287983Y-70543371D01*
X200257108Y-70491079D01*
X200257106Y-70491077D01*
X200257106Y-70491076D01*
X200253987Y-70487953D01*
X200220545Y-70426607D01*
X200225577Y-70356919D01*
X200227143Y-70352942D01*
X200253773Y-70288654D01*
X200283898Y-70137206D01*
X200283898Y-69982792D01*
X200283898Y-69982789D01*
X200283897Y-69982787D01*
X200273978Y-69932920D01*
X200253773Y-69831344D01*
X200194681Y-69688683D01*
X200178746Y-69664835D01*
X200157868Y-69598160D01*
X200176352Y-69530780D01*
X200178697Y-69527128D01*
X200198606Y-69497308D01*
X200251742Y-69345804D01*
X200266420Y-69277494D01*
X200270662Y-69255961D01*
X200278963Y-69095624D01*
X200053134Y-66046945D01*
X200049463Y-66011100D01*
X200048236Y-66001736D01*
X200047654Y-65997284D01*
X200047652Y-65997273D01*
X200047651Y-65997262D01*
X200037519Y-65940133D01*
X199982997Y-65789123D01*
X199982996Y-65789121D01*
X199982995Y-65789118D01*
X199951217Y-65726891D01*
X199929929Y-65688512D01*
X199929927Y-65688508D01*
X199830685Y-65562302D01*
X199703174Y-65464742D01*
X199703175Y-65464742D01*
X199703173Y-65464741D01*
X199703171Y-65464740D01*
X199657353Y-65438052D01*
X199642800Y-65429575D01*
X199634279Y-65424805D01*
X199623655Y-65418857D01*
X199623650Y-65418855D01*
X199473819Y-65361169D01*
X199140962Y-65279061D01*
X198952128Y-65232480D01*
X198891754Y-65197313D01*
X198859977Y-65135087D01*
X198857849Y-65109689D01*
X198859569Y-65020859D01*
X198916699Y-62069119D01*
X198937677Y-62002474D01*
X198991357Y-61957750D01*
X199060695Y-61949147D01*
X199123677Y-61979396D01*
X199130413Y-61986313D01*
X199130444Y-61986283D01*
X199133889Y-61989728D01*
X199260272Y-62116111D01*
X199404868Y-62221167D01*
X199564119Y-62302309D01*
X199564121Y-62302310D01*
X199634016Y-62325020D01*
X199734103Y-62357540D01*
X199910634Y-62385500D01*
X199910635Y-62385500D01*
X200089365Y-62385500D01*
X200089366Y-62385500D01*
X200124009Y-62380013D01*
X202416600Y-62380013D01*
X202416600Y-62619986D01*
X202454137Y-62856988D01*
X202509059Y-63026018D01*
X202528290Y-63085205D01*
X202637231Y-63299012D01*
X202778277Y-63493145D01*
X202947955Y-63662823D01*
X203142088Y-63803869D01*
X203355895Y-63912810D01*
X203529189Y-63969116D01*
X203584111Y-63986962D01*
X203821114Y-64024500D01*
X203821119Y-64024500D01*
X204061086Y-64024500D01*
X204298088Y-63986962D01*
X204526305Y-63912810D01*
X204740112Y-63803869D01*
X204934245Y-63662823D01*
X205103923Y-63493145D01*
X205244969Y-63299012D01*
X205353910Y-63085205D01*
X205428062Y-62856988D01*
X205431287Y-62836627D01*
X205465600Y-62619986D01*
X205465600Y-62380013D01*
X205428062Y-62143011D01*
X205400153Y-62057118D01*
X205353910Y-61914795D01*
X205244969Y-61700988D01*
X205103923Y-61506855D01*
X204934245Y-61337177D01*
X204740112Y-61196131D01*
X204526305Y-61087190D01*
X204467118Y-61067959D01*
X204298088Y-61013037D01*
X204061086Y-60975500D01*
X204061081Y-60975500D01*
X203821119Y-60975500D01*
X203821114Y-60975500D01*
X203584111Y-61013037D01*
X203355892Y-61087191D01*
X203142087Y-61196131D01*
X203057340Y-61257704D01*
X202947955Y-61337177D01*
X202947953Y-61337179D01*
X202947952Y-61337179D01*
X202778279Y-61506852D01*
X202778279Y-61506853D01*
X202778277Y-61506855D01*
X202731716Y-61570941D01*
X202637231Y-61700987D01*
X202528291Y-61914792D01*
X202528290Y-61914794D01*
X202528290Y-61914795D01*
X202527189Y-61918183D01*
X202454137Y-62143011D01*
X202416600Y-62380013D01*
X200124009Y-62380013D01*
X200265897Y-62357540D01*
X200265900Y-62357539D01*
X200265901Y-62357539D01*
X200435878Y-62302310D01*
X200435878Y-62302309D01*
X200435881Y-62302309D01*
X200595132Y-62221167D01*
X200739728Y-62116111D01*
X200866111Y-61989728D01*
X200971167Y-61845132D01*
X201052309Y-61685881D01*
X201107540Y-61515897D01*
X201135500Y-61339366D01*
X201135500Y-61160634D01*
X201107540Y-60984103D01*
X201107539Y-60984099D01*
X201107539Y-60984098D01*
X201052310Y-60814121D01*
X201052308Y-60814118D01*
X201051204Y-60811950D01*
X200971167Y-60654868D01*
X200866111Y-60510272D01*
X200739728Y-60383889D01*
X200595132Y-60278833D01*
X200435881Y-60197691D01*
X200435878Y-60197689D01*
X200265899Y-60142460D01*
X200148209Y-60123820D01*
X200089366Y-60114500D01*
X199910634Y-60114500D01*
X199851790Y-60123820D01*
X199734101Y-60142460D01*
X199734098Y-60142460D01*
X199564121Y-60197689D01*
X199564118Y-60197691D01*
X199404867Y-60278833D01*
X199260273Y-60383888D01*
X199160792Y-60483369D01*
X199099469Y-60516853D01*
X199029777Y-60511869D01*
X198973844Y-60469997D01*
X198949427Y-60404532D01*
X198949134Y-60393301D01*
X198978401Y-58881177D01*
X198999379Y-58814533D01*
X199053059Y-58769809D01*
X199122397Y-58761206D01*
X199185379Y-58791455D01*
X199190059Y-58795898D01*
X199260272Y-58866111D01*
X199404868Y-58971167D01*
X199564119Y-59052309D01*
X199564121Y-59052310D01*
X199702763Y-59097357D01*
X199734103Y-59107540D01*
X199910634Y-59135500D01*
X199910635Y-59135500D01*
X200089365Y-59135500D01*
X200089366Y-59135500D01*
X200265897Y-59107540D01*
X200265900Y-59107539D01*
X200265901Y-59107539D01*
X200435878Y-59052310D01*
X200435878Y-59052309D01*
X200435881Y-59052309D01*
X200595132Y-58971167D01*
X200739728Y-58866111D01*
X200866111Y-58739728D01*
X200971167Y-58595132D01*
X201052309Y-58435881D01*
X201052310Y-58435878D01*
X201107539Y-58265901D01*
X201107539Y-58265900D01*
X201107540Y-58265897D01*
X201135500Y-58089366D01*
X201135500Y-57910634D01*
X201107540Y-57734103D01*
X201107539Y-57734099D01*
X201107539Y-57734098D01*
X201052310Y-57564121D01*
X201052308Y-57564118D01*
X201051204Y-57561950D01*
X200971167Y-57404868D01*
X200866111Y-57260272D01*
X200739728Y-57133889D01*
X200595132Y-57028833D01*
X200435881Y-56947691D01*
X200435878Y-56947689D01*
X200265899Y-56892460D01*
X200148209Y-56873820D01*
X200089366Y-56864500D01*
X199910634Y-56864500D01*
X199851790Y-56873820D01*
X199734101Y-56892460D01*
X199734098Y-56892460D01*
X199564121Y-56947689D01*
X199564118Y-56947691D01*
X199404867Y-57028833D01*
X199260270Y-57133890D01*
X199224937Y-57169223D01*
X199163614Y-57202708D01*
X199093922Y-57197722D01*
X199037989Y-57155850D01*
X199013573Y-57090385D01*
X199013280Y-57079141D01*
X199015825Y-56947691D01*
X199058133Y-54761772D01*
X202137200Y-54761772D01*
X202137200Y-54998227D01*
X202137201Y-54998244D01*
X202168063Y-55232668D01*
X202168064Y-55232673D01*
X202168065Y-55232679D01*
X202229104Y-55460479D01*
X202229267Y-55461088D01*
X202229270Y-55461098D01*
X202319757Y-55679553D01*
X202319762Y-55679564D01*
X202437988Y-55884336D01*
X202438000Y-55884354D01*
X202581946Y-56071946D01*
X202581954Y-56071955D01*
X202749145Y-56239146D01*
X202749153Y-56239153D01*
X202936745Y-56383099D01*
X202936749Y-56383101D01*
X202936756Y-56383107D01*
X202936763Y-56383111D01*
X203141535Y-56501337D01*
X203141540Y-56501339D01*
X203141543Y-56501341D01*
X203360011Y-56591833D01*
X203588421Y-56653035D01*
X203822866Y-56683900D01*
X203822873Y-56683900D01*
X204059327Y-56683900D01*
X204059334Y-56683900D01*
X204293779Y-56653035D01*
X204522189Y-56591833D01*
X204740657Y-56501341D01*
X204945444Y-56383107D01*
X205133046Y-56239154D01*
X205133050Y-56239149D01*
X205133055Y-56239146D01*
X205300246Y-56071955D01*
X205300249Y-56071950D01*
X205300254Y-56071946D01*
X205444207Y-55884344D01*
X205562441Y-55679557D01*
X205652933Y-55461089D01*
X205714135Y-55232679D01*
X205745000Y-54998234D01*
X205745000Y-54761766D01*
X205714135Y-54527321D01*
X205652933Y-54298911D01*
X205648445Y-54288077D01*
X205562442Y-54080446D01*
X205562437Y-54080435D01*
X205444211Y-53875663D01*
X205444207Y-53875656D01*
X205399864Y-53817868D01*
X205300253Y-53688053D01*
X205300246Y-53688045D01*
X205133055Y-53520854D01*
X205133046Y-53520846D01*
X204945454Y-53376900D01*
X204945436Y-53376888D01*
X204740664Y-53258662D01*
X204740653Y-53258657D01*
X204522198Y-53168170D01*
X204522191Y-53168168D01*
X204522189Y-53168167D01*
X204293779Y-53106965D01*
X204293773Y-53106964D01*
X204293768Y-53106963D01*
X204059344Y-53076101D01*
X204059339Y-53076100D01*
X204059334Y-53076100D01*
X203822866Y-53076100D01*
X203822860Y-53076100D01*
X203822855Y-53076101D01*
X203588431Y-53106963D01*
X203588424Y-53106964D01*
X203588421Y-53106965D01*
X203508667Y-53128335D01*
X203360011Y-53168167D01*
X203360001Y-53168170D01*
X203141546Y-53258657D01*
X203141535Y-53258662D01*
X202936763Y-53376888D01*
X202936745Y-53376900D01*
X202749153Y-53520846D01*
X202581946Y-53688053D01*
X202438000Y-53875645D01*
X202437988Y-53875663D01*
X202319762Y-54080435D01*
X202319757Y-54080446D01*
X202229270Y-54298901D01*
X202229267Y-54298911D01*
X202181646Y-54476638D01*
X202168066Y-54527318D01*
X202168063Y-54527331D01*
X202137201Y-54761755D01*
X202137200Y-54761772D01*
X199058133Y-54761772D01*
X199126869Y-51210412D01*
X199147847Y-51143769D01*
X199201527Y-51099045D01*
X199242010Y-51089130D01*
X205427817Y-50647287D01*
X205533008Y-50629634D01*
X205547591Y-50627188D01*
X205547592Y-50627187D01*
X205547596Y-50627187D01*
X205592822Y-50615097D01*
X205726238Y-50562842D01*
X205857737Y-50470728D01*
X205909488Y-50423785D01*
X205940971Y-50393196D01*
X206036834Y-50264405D01*
X206097657Y-50115820D01*
X206115813Y-50048351D01*
X206121153Y-50027062D01*
X206137651Y-49867360D01*
X206137034Y-49840195D01*
X206088635Y-47710634D01*
X207064500Y-47710634D01*
X207064500Y-47889366D01*
X207068301Y-47913362D01*
X207092460Y-48065898D01*
X207092460Y-48065901D01*
X207147689Y-48235878D01*
X207147691Y-48235881D01*
X207228833Y-48395132D01*
X207333889Y-48539728D01*
X207460272Y-48666111D01*
X207604868Y-48771167D01*
X207764119Y-48852309D01*
X207764121Y-48852310D01*
X207922670Y-48903825D01*
X207934103Y-48907540D01*
X208110634Y-48935500D01*
X208110635Y-48935500D01*
X208289365Y-48935500D01*
X208289366Y-48935500D01*
X208465897Y-48907540D01*
X208465900Y-48907539D01*
X208465901Y-48907539D01*
X208635878Y-48852310D01*
X208635878Y-48852309D01*
X208635881Y-48852309D01*
X208795132Y-48771167D01*
X208939728Y-48666111D01*
X209066111Y-48539728D01*
X209171167Y-48395132D01*
X209252309Y-48235881D01*
X209284938Y-48135459D01*
X209307539Y-48065901D01*
X209307539Y-48065900D01*
X209307540Y-48065897D01*
X209335500Y-47889366D01*
X209335500Y-47710634D01*
X209307540Y-47534103D01*
X209307539Y-47534099D01*
X209307539Y-47534098D01*
X209252310Y-47364121D01*
X209252308Y-47364118D01*
X209239902Y-47339768D01*
X209171167Y-47204868D01*
X209066111Y-47060272D01*
X208947122Y-46941283D01*
X221714500Y-46941283D01*
X221714500Y-47198717D01*
X221725285Y-47266809D01*
X221754772Y-47452981D01*
X221754772Y-47452984D01*
X221834321Y-47697811D01*
X221834323Y-47697814D01*
X221951195Y-47927189D01*
X222102511Y-48135457D01*
X222284543Y-48317489D01*
X222492811Y-48468805D01*
X222722186Y-48585677D01*
X222722188Y-48585678D01*
X222786288Y-48606505D01*
X222967020Y-48665228D01*
X223221283Y-48705500D01*
X223221284Y-48705500D01*
X223478716Y-48705500D01*
X223478717Y-48705500D01*
X223732980Y-48665228D01*
X223732983Y-48665227D01*
X223732984Y-48665227D01*
X223977811Y-48585678D01*
X223977811Y-48585677D01*
X223977814Y-48585677D01*
X224207189Y-48468805D01*
X224415457Y-48317489D01*
X224597489Y-48135457D01*
X224748805Y-47927189D01*
X224865677Y-47697814D01*
X224885571Y-47636586D01*
X224945227Y-47452984D01*
X224945227Y-47452983D01*
X224945228Y-47452980D01*
X224985500Y-47198717D01*
X224985500Y-46941283D01*
X224945228Y-46687020D01*
X224945227Y-46687016D01*
X224945227Y-46687015D01*
X224865678Y-46442188D01*
X224865676Y-46442185D01*
X224832244Y-46376569D01*
X224748805Y-46212811D01*
X224597489Y-46004543D01*
X224415457Y-45822511D01*
X224207189Y-45671195D01*
X223977814Y-45554323D01*
X223977811Y-45554321D01*
X223732982Y-45474772D01*
X223563471Y-45447924D01*
X223478717Y-45434500D01*
X223221283Y-45434500D01*
X223136528Y-45447924D01*
X222967018Y-45474772D01*
X222967015Y-45474772D01*
X222722188Y-45554321D01*
X222722185Y-45554323D01*
X222492810Y-45671195D01*
X222404303Y-45735500D01*
X222284543Y-45822511D01*
X222284541Y-45822513D01*
X222284540Y-45822513D01*
X222102513Y-46004540D01*
X222102513Y-46004541D01*
X222102511Y-46004543D01*
X222086054Y-46027194D01*
X221951195Y-46212810D01*
X221834323Y-46442185D01*
X221834321Y-46442188D01*
X221754772Y-46687015D01*
X221754772Y-46687018D01*
X221731508Y-46833902D01*
X221714500Y-46941283D01*
X208947122Y-46941283D01*
X208939728Y-46933889D01*
X208795132Y-46828833D01*
X208635881Y-46747691D01*
X208635878Y-46747689D01*
X208465899Y-46692460D01*
X208348209Y-46673820D01*
X208289366Y-46664500D01*
X208110634Y-46664500D01*
X208051790Y-46673820D01*
X207934101Y-46692460D01*
X207934098Y-46692460D01*
X207764121Y-46747689D01*
X207764118Y-46747691D01*
X207604867Y-46828833D01*
X207460270Y-46933890D01*
X207333890Y-47060270D01*
X207228833Y-47204867D01*
X207147691Y-47364118D01*
X207147689Y-47364121D01*
X207092460Y-47534098D01*
X207092460Y-47534101D01*
X207066404Y-47698612D01*
X207064500Y-47710634D01*
X206088635Y-47710634D01*
X206088588Y-47708579D01*
X205951308Y-41668234D01*
X207064500Y-41668234D01*
X207064500Y-41846966D01*
X207069718Y-41879909D01*
X207092460Y-42023498D01*
X207092460Y-42023501D01*
X207147689Y-42193478D01*
X207147691Y-42193481D01*
X207228833Y-42352732D01*
X207333889Y-42497328D01*
X207460272Y-42623711D01*
X207604868Y-42728767D01*
X207764119Y-42809909D01*
X207764121Y-42809910D01*
X207922670Y-42861425D01*
X207934103Y-42865140D01*
X208110634Y-42893100D01*
X208110635Y-42893100D01*
X208289365Y-42893100D01*
X208289366Y-42893100D01*
X208465897Y-42865140D01*
X208465900Y-42865139D01*
X208465901Y-42865139D01*
X208635878Y-42809910D01*
X208635878Y-42809909D01*
X208635881Y-42809909D01*
X208795132Y-42728767D01*
X208939728Y-42623711D01*
X209066111Y-42497328D01*
X209171167Y-42352732D01*
X209252309Y-42193481D01*
X209260309Y-42168860D01*
X209307539Y-42023501D01*
X209307539Y-42023500D01*
X209307540Y-42023497D01*
X209335500Y-41846966D01*
X209335500Y-41668234D01*
X209307540Y-41491703D01*
X209307539Y-41491699D01*
X209307539Y-41491698D01*
X209252310Y-41321721D01*
X209252308Y-41321718D01*
X209171166Y-41162467D01*
X209127169Y-41101911D01*
X209066111Y-41017872D01*
X208939728Y-40891489D01*
X208907521Y-40868089D01*
X242014500Y-40868089D01*
X242014500Y-41101910D01*
X242049314Y-41321721D01*
X242051078Y-41332855D01*
X242123334Y-41555234D01*
X242180910Y-41668234D01*
X242229489Y-41763574D01*
X242363740Y-41948357D01*
X242387220Y-42014163D01*
X242371394Y-42082217D01*
X242326544Y-42127973D01*
X242257407Y-42168860D01*
X242257396Y-42168869D01*
X242143869Y-42282396D01*
X242143863Y-42282404D01*
X242062131Y-42420606D01*
X242062129Y-42420611D01*
X242017335Y-42574791D01*
X242017334Y-42574797D01*
X242014500Y-42610811D01*
X242014500Y-44439168D01*
X242014501Y-44439193D01*
X242017335Y-44475204D01*
X242062129Y-44629388D01*
X242062131Y-44629393D01*
X242143863Y-44767595D01*
X242143869Y-44767603D01*
X242257396Y-44881130D01*
X242257400Y-44881133D01*
X242257402Y-44881135D01*
X242395607Y-44962869D01*
X242436268Y-44974682D01*
X242549791Y-45007664D01*
X242549794Y-45007664D01*
X242549796Y-45007665D01*
X242585819Y-45010500D01*
X244414180Y-45010499D01*
X244450204Y-45007665D01*
X244604393Y-44962869D01*
X244742598Y-44881135D01*
X244856135Y-44767598D01*
X244937869Y-44629393D01*
X244982665Y-44475204D01*
X244985500Y-44439181D01*
X244985499Y-42610820D01*
X244982665Y-42574796D01*
X244937869Y-42420607D01*
X244856135Y-42282402D01*
X244856133Y-42282400D01*
X244856130Y-42282396D01*
X244742603Y-42168869D01*
X244742594Y-42168862D01*
X244673456Y-42127974D01*
X244625772Y-42076904D01*
X244613269Y-42008163D01*
X244636259Y-41948357D01*
X244709924Y-41846965D01*
X244770513Y-41763571D01*
X244876666Y-41555234D01*
X244948922Y-41332855D01*
X244985500Y-41101911D01*
X244985500Y-40868089D01*
X244948922Y-40637145D01*
X244876666Y-40414766D01*
X244770513Y-40206429D01*
X244671763Y-40070510D01*
X244633081Y-40017268D01*
X244633077Y-40017263D01*
X244467736Y-39851922D01*
X244467731Y-39851918D01*
X244278574Y-39714489D01*
X244278573Y-39714488D01*
X244278571Y-39714487D01*
X244070234Y-39608334D01*
X243847855Y-39536078D01*
X243847853Y-39536077D01*
X243847852Y-39536077D01*
X243647804Y-39504393D01*
X243616911Y-39499500D01*
X243383089Y-39499500D01*
X243352196Y-39504393D01*
X243152148Y-39536077D01*
X242929763Y-39608335D01*
X242721425Y-39714489D01*
X242532268Y-39851918D01*
X242532263Y-39851922D01*
X242366922Y-40017263D01*
X242366918Y-40017268D01*
X242229489Y-40206425D01*
X242123335Y-40414763D01*
X242051077Y-40637148D01*
X242014500Y-40868089D01*
X208907521Y-40868089D01*
X208795132Y-40786433D01*
X208635881Y-40705291D01*
X208635878Y-40705289D01*
X208465899Y-40650060D01*
X208342256Y-40630477D01*
X208289366Y-40622100D01*
X208110634Y-40622100D01*
X208057744Y-40630477D01*
X207934101Y-40650060D01*
X207934098Y-40650060D01*
X207764121Y-40705289D01*
X207764118Y-40705291D01*
X207604867Y-40786433D01*
X207460270Y-40891490D01*
X207333890Y-41017870D01*
X207228833Y-41162467D01*
X207147691Y-41321718D01*
X207147689Y-41321721D01*
X207092460Y-41491698D01*
X207092460Y-41491701D01*
X207082397Y-41555236D01*
X207064500Y-41668234D01*
X205951308Y-41668234D01*
X205951261Y-41666179D01*
X205807625Y-35346201D01*
X205807616Y-35345811D01*
X207114500Y-35345811D01*
X207114500Y-37174168D01*
X207114501Y-37174193D01*
X207117335Y-37210204D01*
X207162129Y-37364388D01*
X207162131Y-37364393D01*
X207243863Y-37502595D01*
X207243869Y-37502603D01*
X207357396Y-37616130D01*
X207357405Y-37616137D01*
X207426543Y-37657025D01*
X207474226Y-37708094D01*
X207486730Y-37776836D01*
X207463741Y-37836642D01*
X207329486Y-38021429D01*
X207223335Y-38229763D01*
X207151077Y-38452148D01*
X207114500Y-38683089D01*
X207114500Y-38916910D01*
X207148808Y-39133527D01*
X207151078Y-39147855D01*
X207223334Y-39370234D01*
X207307835Y-39536077D01*
X207329489Y-39578574D01*
X207466918Y-39767731D01*
X207466922Y-39767736D01*
X207632263Y-39933077D01*
X207632268Y-39933081D01*
X207742955Y-40013499D01*
X207821429Y-40070513D01*
X208029766Y-40176666D01*
X208252145Y-40248922D01*
X208483089Y-40285500D01*
X208483090Y-40285500D01*
X208716910Y-40285500D01*
X208716911Y-40285500D01*
X208947855Y-40248922D01*
X209170234Y-40176666D01*
X209378571Y-40070513D01*
X209567738Y-39933076D01*
X209733076Y-39767738D01*
X209870513Y-39578571D01*
X209976666Y-39370234D01*
X210048922Y-39147855D01*
X210085500Y-38916911D01*
X210085500Y-38683089D01*
X210048922Y-38452145D01*
X209993992Y-38283089D01*
X228249500Y-38283089D01*
X228249500Y-38516910D01*
X228275294Y-38679771D01*
X228286078Y-38747855D01*
X228358334Y-38970234D01*
X228449123Y-39148418D01*
X228464489Y-39178574D01*
X228601918Y-39367731D01*
X228601922Y-39367736D01*
X228767263Y-39533077D01*
X228767268Y-39533081D01*
X228918003Y-39642595D01*
X228956429Y-39670513D01*
X229164766Y-39776666D01*
X229387145Y-39848922D01*
X229618089Y-39885500D01*
X229618090Y-39885500D01*
X229851910Y-39885500D01*
X229851911Y-39885500D01*
X230082855Y-39848922D01*
X230305234Y-39776666D01*
X230513571Y-39670513D01*
X230698357Y-39536259D01*
X230764163Y-39512779D01*
X230832217Y-39528605D01*
X230877974Y-39573456D01*
X230918862Y-39642594D01*
X230918869Y-39642603D01*
X231032396Y-39756130D01*
X231032400Y-39756133D01*
X231032402Y-39756135D01*
X231170607Y-39837869D01*
X231208652Y-39848922D01*
X231324791Y-39882664D01*
X231324794Y-39882664D01*
X231324796Y-39882665D01*
X231360819Y-39885500D01*
X233189180Y-39885499D01*
X233225204Y-39882665D01*
X233379393Y-39837869D01*
X233517598Y-39756135D01*
X233631135Y-39642598D01*
X233712869Y-39504393D01*
X233752571Y-39367738D01*
X233757664Y-39350208D01*
X233757665Y-39350202D01*
X233760499Y-39314188D01*
X233760500Y-39314181D01*
X233760499Y-37793251D01*
X248389500Y-37793251D01*
X248389500Y-38046748D01*
X248429156Y-38297127D01*
X248429156Y-38297130D01*
X248507489Y-38538214D01*
X248507491Y-38538217D01*
X248622577Y-38764086D01*
X248771579Y-38969170D01*
X248950830Y-39148421D01*
X249155914Y-39297423D01*
X249298814Y-39370234D01*
X249381785Y-39412510D01*
X249622870Y-39490843D01*
X249622871Y-39490843D01*
X249622874Y-39490844D01*
X249873251Y-39530500D01*
X249873252Y-39530500D01*
X250126748Y-39530500D01*
X250126749Y-39530500D01*
X250377126Y-39490844D01*
X250377129Y-39490843D01*
X250377130Y-39490843D01*
X250618214Y-39412510D01*
X250618214Y-39412509D01*
X250618217Y-39412509D01*
X250844086Y-39297423D01*
X251049170Y-39148421D01*
X251228421Y-38969170D01*
X251377423Y-38764086D01*
X251492509Y-38538217D01*
X251509319Y-38486482D01*
X251570843Y-38297130D01*
X251570843Y-38297129D01*
X251570844Y-38297126D01*
X251610500Y-38046749D01*
X251610500Y-37793251D01*
X251570844Y-37542874D01*
X251570843Y-37542870D01*
X251570843Y-37542869D01*
X251492510Y-37301785D01*
X251484839Y-37286730D01*
X251377423Y-37075914D01*
X251228421Y-36870830D01*
X251049170Y-36691579D01*
X251049166Y-36691576D01*
X250844089Y-36542579D01*
X250844088Y-36542578D01*
X250844086Y-36542577D01*
X250731151Y-36485034D01*
X250618214Y-36427489D01*
X250377129Y-36349156D01*
X250189343Y-36319414D01*
X250126749Y-36309500D01*
X249873251Y-36309500D01*
X249789792Y-36322718D01*
X249622872Y-36349156D01*
X249622869Y-36349156D01*
X249381785Y-36427489D01*
X249155910Y-36542579D01*
X248950833Y-36691576D01*
X248950827Y-36691581D01*
X248771581Y-36870827D01*
X248771576Y-36870833D01*
X248622579Y-37075910D01*
X248507489Y-37301785D01*
X248429156Y-37542869D01*
X248429156Y-37542872D01*
X248389500Y-37793251D01*
X233760499Y-37793251D01*
X233760499Y-37485820D01*
X233757665Y-37449796D01*
X233712869Y-37295607D01*
X233631135Y-37157402D01*
X233631133Y-37157400D01*
X233631130Y-37157396D01*
X233517603Y-37043869D01*
X233517595Y-37043863D01*
X233379393Y-36962131D01*
X233379388Y-36962129D01*
X233225208Y-36917335D01*
X233225202Y-36917334D01*
X233189181Y-36914500D01*
X231360831Y-36914500D01*
X231360806Y-36914501D01*
X231324795Y-36917335D01*
X231170611Y-36962129D01*
X231170606Y-36962131D01*
X231032404Y-37043863D01*
X231032396Y-37043869D01*
X230918869Y-37157396D01*
X230918860Y-37157407D01*
X230877973Y-37226544D01*
X230826904Y-37274227D01*
X230758162Y-37286730D01*
X230698357Y-37263740D01*
X230513574Y-37129489D01*
X230513573Y-37129488D01*
X230513571Y-37129487D01*
X230305234Y-37023334D01*
X230082855Y-36951078D01*
X230082853Y-36951077D01*
X230082852Y-36951077D01*
X229869810Y-36917335D01*
X229851911Y-36914500D01*
X229618089Y-36914500D01*
X229600190Y-36917335D01*
X229387148Y-36951077D01*
X229164763Y-37023335D01*
X228956425Y-37129489D01*
X228767268Y-37266918D01*
X228767263Y-37266922D01*
X228601922Y-37432263D01*
X228601918Y-37432268D01*
X228464489Y-37621425D01*
X228358335Y-37829763D01*
X228286077Y-38052148D01*
X228249500Y-38283089D01*
X209993992Y-38283089D01*
X209976666Y-38229766D01*
X209976664Y-38229763D01*
X209976664Y-38229761D01*
X209905697Y-38090482D01*
X209870513Y-38021429D01*
X209756399Y-37864363D01*
X209736259Y-37836642D01*
X209712779Y-37770836D01*
X209728605Y-37702782D01*
X209773457Y-37657025D01*
X209842592Y-37616139D01*
X209842593Y-37616137D01*
X209842598Y-37616135D01*
X209956135Y-37502598D01*
X210037869Y-37364393D01*
X210082665Y-37210204D01*
X210085500Y-37174181D01*
X210085499Y-35345820D01*
X210082665Y-35309796D01*
X210037869Y-35155607D01*
X209956135Y-35017402D01*
X209956133Y-35017400D01*
X209956130Y-35017396D01*
X209842603Y-34903869D01*
X209842595Y-34903863D01*
X209704393Y-34822131D01*
X209704388Y-34822129D01*
X209550208Y-34777335D01*
X209550202Y-34777334D01*
X209514188Y-34774500D01*
X208940309Y-34774500D01*
X208873270Y-34754815D01*
X208827515Y-34702011D01*
X208817571Y-34632853D01*
X208846596Y-34569297D01*
X208884015Y-34540015D01*
X208887301Y-34538341D01*
X209047543Y-34456694D01*
X209204874Y-34342386D01*
X209342386Y-34204874D01*
X209456694Y-34047543D01*
X209544982Y-33874267D01*
X209605077Y-33689314D01*
X209635500Y-33497236D01*
X209635500Y-33302764D01*
X209605077Y-33110686D01*
X209544982Y-32925733D01*
X209456694Y-32752457D01*
X209342386Y-32595126D01*
X209204874Y-32457614D01*
X209047543Y-32343306D01*
X208874267Y-32255018D01*
X208738027Y-32210751D01*
X212509500Y-32210751D01*
X212509500Y-32464249D01*
X212527378Y-32577126D01*
X212549156Y-32714627D01*
X212549156Y-32714630D01*
X212627489Y-32955714D01*
X212655395Y-33010482D01*
X212724249Y-33145616D01*
X212742579Y-33181589D01*
X212861077Y-33344687D01*
X212891579Y-33386670D01*
X213070830Y-33565921D01*
X213275914Y-33714923D01*
X213501783Y-33830009D01*
X213501785Y-33830010D01*
X213742870Y-33908343D01*
X213742871Y-33908343D01*
X213742874Y-33908344D01*
X213993251Y-33948000D01*
X213993252Y-33948000D01*
X214246748Y-33948000D01*
X214246749Y-33948000D01*
X214497126Y-33908344D01*
X214497129Y-33908343D01*
X214497130Y-33908343D01*
X214738214Y-33830010D01*
X214738214Y-33830009D01*
X214738217Y-33830009D01*
X214964086Y-33714923D01*
X215169170Y-33565921D01*
X215348421Y-33386670D01*
X215497423Y-33181586D01*
X215612509Y-32955717D01*
X215640425Y-32869799D01*
X215690843Y-32714630D01*
X215690843Y-32714629D01*
X215690844Y-32714626D01*
X215730500Y-32464249D01*
X215730500Y-32210751D01*
X217589500Y-32210751D01*
X217589500Y-32464249D01*
X217607378Y-32577126D01*
X217629156Y-32714627D01*
X217629156Y-32714630D01*
X217707489Y-32955714D01*
X217735395Y-33010482D01*
X217804249Y-33145616D01*
X217822579Y-33181589D01*
X217941077Y-33344687D01*
X217971579Y-33386670D01*
X218150830Y-33565921D01*
X218355914Y-33714923D01*
X218581783Y-33830009D01*
X218581785Y-33830010D01*
X218822870Y-33908343D01*
X218822871Y-33908343D01*
X218822874Y-33908344D01*
X219073251Y-33948000D01*
X219073252Y-33948000D01*
X219326748Y-33948000D01*
X219326749Y-33948000D01*
X219577126Y-33908344D01*
X219577129Y-33908343D01*
X219577130Y-33908343D01*
X219818214Y-33830010D01*
X219818214Y-33830009D01*
X219818217Y-33830009D01*
X220044086Y-33714923D01*
X220249170Y-33565921D01*
X220428421Y-33386670D01*
X220577423Y-33181586D01*
X220692509Y-32955717D01*
X220720425Y-32869799D01*
X220770843Y-32714630D01*
X220770843Y-32714629D01*
X220770844Y-32714626D01*
X220810500Y-32464249D01*
X220810500Y-32210751D01*
X220788722Y-32073251D01*
X229029500Y-32073251D01*
X229029500Y-32326749D01*
X229038677Y-32384690D01*
X229069156Y-32577127D01*
X229069156Y-32577130D01*
X229147489Y-32818214D01*
X229147491Y-32818217D01*
X229245452Y-33010477D01*
X229262579Y-33044089D01*
X229388298Y-33217126D01*
X229411579Y-33249170D01*
X229590830Y-33428421D01*
X229795914Y-33577423D01*
X230021783Y-33692509D01*
X230021785Y-33692510D01*
X230262870Y-33770843D01*
X230262871Y-33770843D01*
X230262874Y-33770844D01*
X230513251Y-33810500D01*
X230513252Y-33810500D01*
X230766748Y-33810500D01*
X230766749Y-33810500D01*
X231017126Y-33770844D01*
X231017129Y-33770843D01*
X231017130Y-33770843D01*
X231258214Y-33692510D01*
X231258214Y-33692509D01*
X231258217Y-33692509D01*
X231484086Y-33577423D01*
X231689170Y-33428421D01*
X231868421Y-33249170D01*
X232017423Y-33044086D01*
X232132509Y-32818217D01*
X232157983Y-32739815D01*
X232210843Y-32577130D01*
X232210843Y-32577129D01*
X232210844Y-32577126D01*
X232250500Y-32326749D01*
X232250500Y-32073251D01*
X234109500Y-32073251D01*
X234109500Y-32326749D01*
X234118677Y-32384690D01*
X234149156Y-32577127D01*
X234149156Y-32577130D01*
X234227489Y-32818214D01*
X234227491Y-32818217D01*
X234325452Y-33010477D01*
X234342579Y-33044089D01*
X234468298Y-33217126D01*
X234491579Y-33249170D01*
X234670830Y-33428421D01*
X234875914Y-33577423D01*
X235101783Y-33692509D01*
X235101785Y-33692510D01*
X235342870Y-33770843D01*
X235342871Y-33770843D01*
X235342874Y-33770844D01*
X235593251Y-33810500D01*
X235593252Y-33810500D01*
X235846748Y-33810500D01*
X235846749Y-33810500D01*
X236097126Y-33770844D01*
X236097129Y-33770843D01*
X236097130Y-33770843D01*
X236338214Y-33692510D01*
X236338214Y-33692509D01*
X236338217Y-33692509D01*
X236564086Y-33577423D01*
X236769170Y-33428421D01*
X236948421Y-33249170D01*
X237097423Y-33044086D01*
X237212509Y-32818217D01*
X237237983Y-32739815D01*
X237246614Y-32713251D01*
X248389500Y-32713251D01*
X248389500Y-32966748D01*
X248429156Y-33217127D01*
X248429156Y-33217130D01*
X248507489Y-33458214D01*
X248507491Y-33458217D01*
X248568229Y-33577423D01*
X248622579Y-33684089D01*
X248714422Y-33810500D01*
X248771579Y-33889170D01*
X248950830Y-34068421D01*
X249155914Y-34217423D01*
X249318921Y-34300479D01*
X249381785Y-34332510D01*
X249622870Y-34410843D01*
X249622871Y-34410843D01*
X249622874Y-34410844D01*
X249873251Y-34450500D01*
X249873252Y-34450500D01*
X250126748Y-34450500D01*
X250126749Y-34450500D01*
X250377126Y-34410844D01*
X250377129Y-34410843D01*
X250377130Y-34410843D01*
X250618214Y-34332510D01*
X250618214Y-34332509D01*
X250618217Y-34332509D01*
X250844086Y-34217423D01*
X251049170Y-34068421D01*
X251228421Y-33889170D01*
X251377423Y-33684086D01*
X251492509Y-33458217D01*
X251560432Y-33249172D01*
X251570843Y-33217130D01*
X251570843Y-33217129D01*
X251570844Y-33217126D01*
X251610500Y-32966749D01*
X251610500Y-32713251D01*
X251570844Y-32462874D01*
X251570843Y-32462870D01*
X251570843Y-32462869D01*
X251492510Y-32221785D01*
X251463322Y-32164500D01*
X251377423Y-31995914D01*
X251228421Y-31790830D01*
X251049170Y-31611579D01*
X250984422Y-31564537D01*
X250844089Y-31462579D01*
X250844088Y-31462578D01*
X250844086Y-31462577D01*
X250731151Y-31405034D01*
X250618214Y-31347489D01*
X250377129Y-31269156D01*
X250189343Y-31239414D01*
X250126749Y-31229500D01*
X249873251Y-31229500D01*
X249805031Y-31240305D01*
X249622872Y-31269156D01*
X249622869Y-31269156D01*
X249381785Y-31347489D01*
X249155910Y-31462579D01*
X248950833Y-31611576D01*
X248950827Y-31611581D01*
X248771581Y-31790827D01*
X248771576Y-31790833D01*
X248622579Y-31995910D01*
X248507489Y-32221785D01*
X248429156Y-32462869D01*
X248429156Y-32462872D01*
X248389500Y-32713251D01*
X237246614Y-32713251D01*
X237260648Y-32670061D01*
X237290843Y-32577130D01*
X237290843Y-32577129D01*
X237290844Y-32577126D01*
X237330500Y-32326749D01*
X237330500Y-32073251D01*
X237290844Y-31822874D01*
X237290843Y-31822870D01*
X237290843Y-31822869D01*
X237212510Y-31581785D01*
X237203721Y-31564535D01*
X237097423Y-31355914D01*
X236948421Y-31150830D01*
X236769170Y-30971579D01*
X236753339Y-30960077D01*
X236564089Y-30822579D01*
X236564088Y-30822578D01*
X236564086Y-30822577D01*
X236376506Y-30727000D01*
X236338214Y-30707489D01*
X236097129Y-30629156D01*
X235909343Y-30599414D01*
X235846749Y-30589500D01*
X235593251Y-30589500D01*
X235509792Y-30602718D01*
X235342872Y-30629156D01*
X235342869Y-30629156D01*
X235101785Y-30707489D01*
X234875910Y-30822579D01*
X234670833Y-30971576D01*
X234670827Y-30971581D01*
X234491581Y-31150827D01*
X234491576Y-31150833D01*
X234342579Y-31355910D01*
X234227489Y-31581785D01*
X234149156Y-31822869D01*
X234149156Y-31822872D01*
X234115686Y-32034192D01*
X234109500Y-32073251D01*
X232250500Y-32073251D01*
X232210844Y-31822874D01*
X232210843Y-31822870D01*
X232210843Y-31822869D01*
X232132510Y-31581785D01*
X232123721Y-31564535D01*
X232017423Y-31355914D01*
X231868421Y-31150830D01*
X231689170Y-30971579D01*
X231673339Y-30960077D01*
X231484089Y-30822579D01*
X231484088Y-30822578D01*
X231484086Y-30822577D01*
X231296506Y-30727000D01*
X231258214Y-30707489D01*
X231017129Y-30629156D01*
X230829343Y-30599414D01*
X230766749Y-30589500D01*
X230513251Y-30589500D01*
X230429792Y-30602718D01*
X230262872Y-30629156D01*
X230262869Y-30629156D01*
X230021785Y-30707489D01*
X229795910Y-30822579D01*
X229590833Y-30971576D01*
X229590827Y-30971581D01*
X229411581Y-31150827D01*
X229411576Y-31150833D01*
X229262579Y-31355910D01*
X229147489Y-31581785D01*
X229069156Y-31822869D01*
X229069156Y-31822872D01*
X229035686Y-32034192D01*
X229029500Y-32073251D01*
X220788722Y-32073251D01*
X220770844Y-31960374D01*
X220770843Y-31960370D01*
X220770843Y-31960369D01*
X220692510Y-31719285D01*
X220637631Y-31611579D01*
X220577423Y-31493414D01*
X220428421Y-31288330D01*
X220249170Y-31109079D01*
X220249166Y-31109076D01*
X220044089Y-30960079D01*
X220044088Y-30960078D01*
X220044086Y-30960077D01*
X219931151Y-30902534D01*
X219818214Y-30844989D01*
X219577129Y-30766656D01*
X219389343Y-30736914D01*
X219326749Y-30727000D01*
X219073251Y-30727000D01*
X218990705Y-30740074D01*
X218822872Y-30766656D01*
X218822869Y-30766656D01*
X218581785Y-30844989D01*
X218355910Y-30960079D01*
X218150833Y-31109076D01*
X218150827Y-31109081D01*
X217971581Y-31288327D01*
X217971576Y-31288333D01*
X217822579Y-31493410D01*
X217707489Y-31719285D01*
X217629156Y-31960369D01*
X217629156Y-31960372D01*
X217620168Y-32017120D01*
X217589500Y-32210751D01*
X215730500Y-32210751D01*
X215690844Y-31960374D01*
X215690843Y-31960370D01*
X215690843Y-31960369D01*
X215612510Y-31719285D01*
X215557631Y-31611579D01*
X215497423Y-31493414D01*
X215348421Y-31288330D01*
X215169170Y-31109079D01*
X215169166Y-31109076D01*
X214964089Y-30960079D01*
X214964088Y-30960078D01*
X214964086Y-30960077D01*
X214851151Y-30902534D01*
X214738214Y-30844989D01*
X214497129Y-30766656D01*
X214309343Y-30736914D01*
X214246749Y-30727000D01*
X213993251Y-30727000D01*
X213910705Y-30740074D01*
X213742872Y-30766656D01*
X213742869Y-30766656D01*
X213501785Y-30844989D01*
X213275910Y-30960079D01*
X213070833Y-31109076D01*
X213070827Y-31109081D01*
X212891581Y-31288327D01*
X212891576Y-31288333D01*
X212742579Y-31493410D01*
X212627489Y-31719285D01*
X212549156Y-31960369D01*
X212549156Y-31960372D01*
X212540168Y-32017120D01*
X212509500Y-32210751D01*
X208738027Y-32210751D01*
X208689314Y-32194923D01*
X208689312Y-32194922D01*
X208689310Y-32194922D01*
X208555201Y-32173681D01*
X208497236Y-32164500D01*
X208302764Y-32164500D01*
X208258236Y-32171552D01*
X208110689Y-32194922D01*
X207925730Y-32255019D01*
X207752456Y-32343306D01*
X207695497Y-32384690D01*
X207595126Y-32457614D01*
X207595124Y-32457616D01*
X207595123Y-32457616D01*
X207457616Y-32595123D01*
X207457616Y-32595124D01*
X207457614Y-32595126D01*
X207425183Y-32639763D01*
X207343306Y-32752456D01*
X207255019Y-32925730D01*
X207194922Y-33110689D01*
X207179809Y-33206107D01*
X207164500Y-33302764D01*
X207164500Y-33497236D01*
X207175379Y-33565921D01*
X207182395Y-33610221D01*
X207194923Y-33689314D01*
X207255018Y-33874267D01*
X207343306Y-34047543D01*
X207457614Y-34204874D01*
X207595126Y-34342386D01*
X207684888Y-34407602D01*
X207752458Y-34456695D01*
X207828363Y-34495370D01*
X207912699Y-34538341D01*
X207915985Y-34540015D01*
X207966782Y-34587989D01*
X207983577Y-34655810D01*
X207961040Y-34721945D01*
X207906325Y-34765397D01*
X207859692Y-34774500D01*
X207685832Y-34774500D01*
X207685806Y-34774501D01*
X207649795Y-34777335D01*
X207495611Y-34822129D01*
X207495606Y-34822131D01*
X207357404Y-34903863D01*
X207357396Y-34903869D01*
X207243869Y-35017396D01*
X207243863Y-35017404D01*
X207162131Y-35155606D01*
X207162129Y-35155611D01*
X207117335Y-35309791D01*
X207117334Y-35309797D01*
X207114500Y-35345811D01*
X205807616Y-35345811D01*
X205643559Y-28127317D01*
X205661715Y-28059848D01*
X205713466Y-28012905D01*
X205767527Y-28000500D01*
X253875500Y-28000500D01*
X253942539Y-28020185D01*
G37*
%TD.AperFunction*%
%TD*%
%TA.AperFunction,Conductor*%
%TO.N,+3.3V*%
G36*
X204945836Y-28020185D02*
G01*
X204991591Y-28072989D01*
X205002765Y-28121683D01*
X205497316Y-49881913D01*
X205479160Y-49949382D01*
X205427409Y-49996325D01*
X205382183Y-50008415D01*
X198500000Y-50500000D01*
X198205649Y-65708042D01*
X198601789Y-65805760D01*
X199320421Y-65983029D01*
X199380795Y-66018196D01*
X199412572Y-66080422D01*
X199414384Y-66094260D01*
X199640213Y-69142939D01*
X199625535Y-69211249D01*
X199576255Y-69260780D01*
X199516552Y-69276099D01*
X199422788Y-69276099D01*
X199271350Y-69306222D01*
X199271338Y-69306225D01*
X199128688Y-69365312D01*
X199128675Y-69365319D01*
X199000291Y-69451103D01*
X199000287Y-69451106D01*
X198891105Y-69560288D01*
X198891102Y-69560292D01*
X198805318Y-69688676D01*
X198805311Y-69688689D01*
X198746224Y-69831339D01*
X198746221Y-69831351D01*
X198716098Y-69982787D01*
X198716098Y-70137210D01*
X198746221Y-70288646D01*
X198746224Y-70288658D01*
X198805311Y-70431308D01*
X198805318Y-70431321D01*
X198891102Y-70559705D01*
X198891105Y-70559709D01*
X199000287Y-70668891D01*
X199000291Y-70668894D01*
X199128675Y-70754678D01*
X199128688Y-70754685D01*
X199271338Y-70813772D01*
X199271343Y-70813774D01*
X199405326Y-70840425D01*
X199422786Y-70843898D01*
X199422789Y-70843899D01*
X199422791Y-70843899D01*
X199577206Y-70843899D01*
X199589398Y-70841473D01*
X199625969Y-70834199D01*
X199695558Y-70840425D01*
X199750736Y-70883288D01*
X199773821Y-70946656D01*
X200193543Y-76612899D01*
X200193543Y-76612900D01*
X200193544Y-76612901D01*
X203429659Y-78166236D01*
X203481578Y-78212992D01*
X203500000Y-78278025D01*
X203500000Y-78996246D01*
X203480315Y-79063285D01*
X203427511Y-79109040D01*
X203358353Y-79118984D01*
X203294797Y-79089959D01*
X203273729Y-79065113D01*
X203273377Y-79065370D01*
X203133081Y-78872268D01*
X203133077Y-78872263D01*
X202967736Y-78706922D01*
X202967731Y-78706918D01*
X202778574Y-78569489D01*
X202778573Y-78569488D01*
X202778571Y-78569487D01*
X202570234Y-78463334D01*
X202347855Y-78391078D01*
X202347853Y-78391077D01*
X202347852Y-78391077D01*
X202170446Y-78362979D01*
X202116911Y-78354500D01*
X201883089Y-78354500D01*
X201829553Y-78362979D01*
X201652148Y-78391077D01*
X201429763Y-78463335D01*
X201221425Y-78569489D01*
X201032268Y-78706918D01*
X201032263Y-78706922D01*
X200866922Y-78872263D01*
X200866918Y-78872268D01*
X200729489Y-79061425D01*
X200623335Y-79269763D01*
X200551077Y-79492148D01*
X200514500Y-79723089D01*
X200514500Y-79956911D01*
X200551078Y-80187855D01*
X200623334Y-80410234D01*
X200727825Y-80615310D01*
X200729489Y-80618574D01*
X200866918Y-80807731D01*
X200866922Y-80807736D01*
X200866924Y-80807738D01*
X201032262Y-80973076D01*
X201075932Y-81004804D01*
X201082646Y-81009682D01*
X201125311Y-81065013D01*
X201131290Y-81134626D01*
X201098684Y-81196421D01*
X201082646Y-81210318D01*
X201032260Y-81246925D01*
X200866922Y-81412263D01*
X200866918Y-81412268D01*
X200729489Y-81601425D01*
X200623335Y-81809763D01*
X200551077Y-82032148D01*
X200550496Y-82035818D01*
X200514500Y-82263089D01*
X200514500Y-82496911D01*
X200551078Y-82727855D01*
X200623334Y-82950234D01*
X200727825Y-83155310D01*
X200729489Y-83158574D01*
X200866918Y-83347731D01*
X200866922Y-83347736D01*
X200866924Y-83347738D01*
X201032262Y-83513076D01*
X201082645Y-83549681D01*
X201082646Y-83549682D01*
X201125311Y-83605013D01*
X201131290Y-83674626D01*
X201098684Y-83736421D01*
X201082646Y-83750318D01*
X201032260Y-83786925D01*
X200866922Y-83952263D01*
X200866918Y-83952268D01*
X200729489Y-84141425D01*
X200623335Y-84349763D01*
X200551077Y-84572148D01*
X200535425Y-84670971D01*
X200514500Y-84803089D01*
X200514500Y-85036911D01*
X200551078Y-85267855D01*
X200623334Y-85490234D01*
X200727825Y-85695310D01*
X200729489Y-85698574D01*
X200866918Y-85887731D01*
X200866922Y-85887736D01*
X200866924Y-85887738D01*
X201032262Y-86053076D01*
X201082645Y-86089681D01*
X201082646Y-86089682D01*
X201125311Y-86145013D01*
X201131290Y-86214626D01*
X201098684Y-86276421D01*
X201082646Y-86290318D01*
X201032260Y-86326925D01*
X200866922Y-86492263D01*
X200866918Y-86492268D01*
X200729489Y-86681425D01*
X200623335Y-86889763D01*
X200551077Y-87112148D01*
X200514500Y-87343089D01*
X200514500Y-87576911D01*
X200551078Y-87807855D01*
X200623334Y-88030234D01*
X200727825Y-88235310D01*
X200729489Y-88238574D01*
X200863740Y-88423357D01*
X200887220Y-88489163D01*
X200871394Y-88557217D01*
X200826544Y-88602973D01*
X200757407Y-88643860D01*
X200757396Y-88643869D01*
X200643869Y-88757396D01*
X200643863Y-88757404D01*
X200562131Y-88895606D01*
X200562129Y-88895611D01*
X200517335Y-89049791D01*
X200517334Y-89049797D01*
X200514500Y-89085811D01*
X200514500Y-90914168D01*
X200514501Y-90914193D01*
X200517335Y-90950204D01*
X200562129Y-91104388D01*
X200562131Y-91104393D01*
X200643863Y-91242595D01*
X200643869Y-91242603D01*
X200757396Y-91356130D01*
X200757400Y-91356133D01*
X200757402Y-91356135D01*
X200895607Y-91437869D01*
X200936268Y-91449682D01*
X201049791Y-91482664D01*
X201049794Y-91482664D01*
X201049796Y-91482665D01*
X201085819Y-91485500D01*
X202914180Y-91485499D01*
X202950204Y-91482665D01*
X203104393Y-91437869D01*
X203242598Y-91356135D01*
X203245969Y-91352764D01*
X203288319Y-91310415D01*
X203349642Y-91276930D01*
X203419334Y-91281914D01*
X203475267Y-91323786D01*
X203499684Y-91389250D01*
X203500000Y-91398096D01*
X203500000Y-96875500D01*
X203480315Y-96942539D01*
X203427511Y-96988294D01*
X203376000Y-96999500D01*
X165124500Y-96999500D01*
X165057461Y-96979815D01*
X165011706Y-96927011D01*
X165000500Y-96875500D01*
X165000500Y-89092141D01*
X165314499Y-89092141D01*
X165350449Y-89272869D01*
X165350451Y-89272875D01*
X165420969Y-89443122D01*
X165420974Y-89443131D01*
X165523349Y-89596345D01*
X165523352Y-89596349D01*
X165653650Y-89726647D01*
X165653654Y-89726650D01*
X165806868Y-89829025D01*
X165806874Y-89829028D01*
X165806875Y-89829029D01*
X165977125Y-89899549D01*
X165977129Y-89899549D01*
X165977130Y-89899550D01*
X166157858Y-89935500D01*
X166157861Y-89935500D01*
X166342141Y-89935500D01*
X166463732Y-89911313D01*
X166522875Y-89899549D01*
X166693125Y-89829029D01*
X166846346Y-89726650D01*
X166976650Y-89596346D01*
X167079029Y-89443125D01*
X167149549Y-89272875D01*
X167185500Y-89092139D01*
X167185500Y-88907861D01*
X167185500Y-88907858D01*
X167149550Y-88727130D01*
X167149549Y-88727129D01*
X167149549Y-88727125D01*
X167079029Y-88556875D01*
X167079028Y-88556874D01*
X167079025Y-88556868D01*
X166976650Y-88403654D01*
X166976647Y-88403650D01*
X166846349Y-88273352D01*
X166846345Y-88273349D01*
X166693131Y-88170974D01*
X166693122Y-88170969D01*
X166522875Y-88100451D01*
X166522869Y-88100449D01*
X166342141Y-88064500D01*
X166342139Y-88064500D01*
X166157861Y-88064500D01*
X166157859Y-88064500D01*
X165977130Y-88100449D01*
X165977124Y-88100451D01*
X165806877Y-88170969D01*
X165806868Y-88170974D01*
X165653654Y-88273349D01*
X165653650Y-88273352D01*
X165523352Y-88403650D01*
X165523349Y-88403654D01*
X165420974Y-88556868D01*
X165420969Y-88556877D01*
X165350451Y-88727124D01*
X165350449Y-88727130D01*
X165314500Y-88907858D01*
X165314500Y-88907861D01*
X165314500Y-89092139D01*
X165314500Y-89092141D01*
X165314499Y-89092141D01*
X165000500Y-89092141D01*
X165000500Y-85592141D01*
X166064499Y-85592141D01*
X166100449Y-85772869D01*
X166100451Y-85772875D01*
X166170969Y-85943122D01*
X166170974Y-85943131D01*
X166273349Y-86096345D01*
X166273352Y-86096349D01*
X166403650Y-86226647D01*
X166403654Y-86226650D01*
X166556868Y-86329025D01*
X166556874Y-86329028D01*
X166556875Y-86329029D01*
X166727125Y-86399549D01*
X166727129Y-86399549D01*
X166727130Y-86399550D01*
X166907858Y-86435500D01*
X166907861Y-86435500D01*
X167092141Y-86435500D01*
X167213732Y-86411313D01*
X167272875Y-86399549D01*
X167443125Y-86329029D01*
X167596346Y-86226650D01*
X167726650Y-86096346D01*
X167829029Y-85943125D01*
X167899549Y-85772875D01*
X167920347Y-85668317D01*
X167935500Y-85592141D01*
X167935500Y-85407858D01*
X167899550Y-85227130D01*
X167899549Y-85227129D01*
X167899549Y-85227125D01*
X167829029Y-85056875D01*
X167829028Y-85056874D01*
X167829025Y-85056868D01*
X167726650Y-84903654D01*
X167726647Y-84903650D01*
X167596349Y-84773352D01*
X167596345Y-84773349D01*
X167443131Y-84670974D01*
X167443122Y-84670969D01*
X167272875Y-84600451D01*
X167272869Y-84600449D01*
X167092141Y-84564500D01*
X167092139Y-84564500D01*
X166907861Y-84564500D01*
X166907859Y-84564500D01*
X166727130Y-84600449D01*
X166727124Y-84600451D01*
X166556877Y-84670969D01*
X166556868Y-84670974D01*
X166403654Y-84773349D01*
X166403650Y-84773352D01*
X166273352Y-84903650D01*
X166273349Y-84903654D01*
X166170974Y-85056868D01*
X166170969Y-85056877D01*
X166100451Y-85227124D01*
X166100449Y-85227130D01*
X166064500Y-85407858D01*
X166064500Y-85407861D01*
X166064500Y-85592139D01*
X166064500Y-85592141D01*
X166064499Y-85592141D01*
X165000500Y-85592141D01*
X165000500Y-81351320D01*
X186673814Y-81351320D01*
X186673814Y-81530051D01*
X186701774Y-81706584D01*
X186701774Y-81706587D01*
X186757003Y-81876564D01*
X186757005Y-81876567D01*
X186838147Y-82035818D01*
X186943203Y-82180414D01*
X187069586Y-82306797D01*
X187214182Y-82411853D01*
X187373433Y-82492995D01*
X187373435Y-82492996D01*
X187531984Y-82544511D01*
X187543417Y-82548226D01*
X187719948Y-82576186D01*
X187719949Y-82576186D01*
X187898679Y-82576186D01*
X187898680Y-82576186D01*
X188075211Y-82548226D01*
X188075214Y-82548225D01*
X188075215Y-82548225D01*
X188245192Y-82492996D01*
X188245192Y-82492995D01*
X188245195Y-82492995D01*
X188404446Y-82411853D01*
X188549042Y-82306797D01*
X188675425Y-82180414D01*
X188780481Y-82035818D01*
X188861623Y-81876567D01*
X188916854Y-81706583D01*
X188944814Y-81530052D01*
X188944814Y-81351320D01*
X188916854Y-81174789D01*
X188916853Y-81174785D01*
X188916853Y-81174784D01*
X188861624Y-81004807D01*
X188861622Y-81004804D01*
X188845458Y-80973079D01*
X188780481Y-80845554D01*
X188675425Y-80700958D01*
X188549042Y-80574575D01*
X188404446Y-80469519D01*
X188245195Y-80388377D01*
X188245192Y-80388375D01*
X188075213Y-80333146D01*
X187957523Y-80314506D01*
X187898680Y-80305186D01*
X187719948Y-80305186D01*
X187661104Y-80314506D01*
X187543415Y-80333146D01*
X187543412Y-80333146D01*
X187373435Y-80388375D01*
X187373432Y-80388377D01*
X187214181Y-80469519D01*
X187069584Y-80574576D01*
X186943204Y-80700956D01*
X186838147Y-80845553D01*
X186757005Y-81004804D01*
X186757003Y-81004807D01*
X186701774Y-81174784D01*
X186701774Y-81174787D01*
X186673814Y-81351320D01*
X165000500Y-81351320D01*
X165000500Y-75152764D01*
X175764500Y-75152764D01*
X175764500Y-75347236D01*
X175794923Y-75539314D01*
X175855018Y-75724267D01*
X175943306Y-75897543D01*
X176057614Y-76054874D01*
X176195126Y-76192386D01*
X176352457Y-76306694D01*
X176525733Y-76394982D01*
X176710686Y-76455077D01*
X176902764Y-76485500D01*
X176902765Y-76485500D01*
X177097235Y-76485500D01*
X177097236Y-76485500D01*
X177289314Y-76455077D01*
X177474267Y-76394982D01*
X177647543Y-76306694D01*
X177804874Y-76192386D01*
X177942386Y-76054874D01*
X178056694Y-75897543D01*
X178144982Y-75724267D01*
X178205077Y-75539314D01*
X178235500Y-75347236D01*
X178235500Y-75152764D01*
X178205583Y-74963883D01*
X178214537Y-74894592D01*
X178259533Y-74841140D01*
X178326284Y-74820500D01*
X178393598Y-74839224D01*
X178438539Y-74888188D01*
X178443306Y-74897543D01*
X178557614Y-75054874D01*
X178695126Y-75192386D01*
X178852457Y-75306694D01*
X179025733Y-75394982D01*
X179210686Y-75455077D01*
X179402764Y-75485500D01*
X179402765Y-75485500D01*
X179597235Y-75485500D01*
X179597236Y-75485500D01*
X179789314Y-75455077D01*
X179926095Y-75410634D01*
X182864500Y-75410634D01*
X182864500Y-75589365D01*
X182892460Y-75765898D01*
X182892460Y-75765901D01*
X182947689Y-75935878D01*
X182947691Y-75935881D01*
X183028833Y-76095132D01*
X183133889Y-76239728D01*
X183260272Y-76366111D01*
X183404868Y-76471167D01*
X183564119Y-76552309D01*
X183564121Y-76552310D01*
X183722670Y-76603825D01*
X183734103Y-76607540D01*
X183910634Y-76635500D01*
X183910635Y-76635500D01*
X184089365Y-76635500D01*
X184089366Y-76635500D01*
X184265897Y-76607540D01*
X184265900Y-76607539D01*
X184265901Y-76607539D01*
X184435878Y-76552310D01*
X184435878Y-76552309D01*
X184435881Y-76552309D01*
X184595132Y-76471167D01*
X184739728Y-76366111D01*
X184866111Y-76239728D01*
X184971167Y-76095132D01*
X185052309Y-75935881D01*
X185107540Y-75765897D01*
X185135500Y-75589366D01*
X185135500Y-75410634D01*
X185107540Y-75234103D01*
X185107539Y-75234099D01*
X185107539Y-75234098D01*
X185052310Y-75064121D01*
X185052308Y-75064118D01*
X185047599Y-75054875D01*
X184971167Y-74904868D01*
X184866111Y-74760272D01*
X184739728Y-74633889D01*
X184595132Y-74528833D01*
X184435881Y-74447691D01*
X184435878Y-74447689D01*
X184265899Y-74392460D01*
X184148209Y-74373820D01*
X184089366Y-74364500D01*
X183910634Y-74364500D01*
X183851790Y-74373820D01*
X183734101Y-74392460D01*
X183734098Y-74392460D01*
X183564121Y-74447689D01*
X183564118Y-74447691D01*
X183404867Y-74528833D01*
X183260270Y-74633890D01*
X183133890Y-74760270D01*
X183028833Y-74904867D01*
X182947691Y-75064118D01*
X182947689Y-75064121D01*
X182892460Y-75234098D01*
X182892460Y-75234101D01*
X182864500Y-75410634D01*
X179926095Y-75410634D01*
X179974267Y-75394982D01*
X180147543Y-75306694D01*
X180147546Y-75306692D01*
X180149260Y-75305447D01*
X180149263Y-75305444D01*
X180304874Y-75192386D01*
X180442386Y-75054874D01*
X180556694Y-74897543D01*
X180644982Y-74724267D01*
X180705077Y-74539314D01*
X180735500Y-74347236D01*
X180735500Y-74152764D01*
X180705077Y-73960686D01*
X180644982Y-73775733D01*
X180556694Y-73602457D01*
X180442386Y-73445126D01*
X180304874Y-73307614D01*
X180147543Y-73193306D01*
X179974267Y-73105018D01*
X179789314Y-73044923D01*
X179789312Y-73044922D01*
X179789310Y-73044922D01*
X179655201Y-73023681D01*
X179597236Y-73014500D01*
X179402764Y-73014500D01*
X179358236Y-73021552D01*
X179210689Y-73044922D01*
X179025730Y-73105019D01*
X178852456Y-73193306D01*
X178768594Y-73254236D01*
X178695126Y-73307614D01*
X178695124Y-73307616D01*
X178695123Y-73307616D01*
X178557616Y-73445123D01*
X178557616Y-73445124D01*
X178557614Y-73445126D01*
X178551318Y-73453792D01*
X178443306Y-73602456D01*
X178355019Y-73775730D01*
X178294922Y-73960689D01*
X178286399Y-74014500D01*
X178264500Y-74152764D01*
X178264500Y-74347236D01*
X178271663Y-74392460D01*
X178294416Y-74536114D01*
X178285462Y-74605407D01*
X178240465Y-74658859D01*
X178173714Y-74679499D01*
X178106400Y-74660774D01*
X178061458Y-74611807D01*
X178056693Y-74602456D01*
X177942386Y-74445126D01*
X177804874Y-74307614D01*
X177647543Y-74193306D01*
X177474267Y-74105018D01*
X177289314Y-74044923D01*
X177289312Y-74044922D01*
X177289310Y-74044922D01*
X177155201Y-74023681D01*
X177097236Y-74014500D01*
X176902764Y-74014500D01*
X176858236Y-74021552D01*
X176710689Y-74044922D01*
X176525730Y-74105019D01*
X176352456Y-74193306D01*
X176262693Y-74258523D01*
X176195126Y-74307614D01*
X176195124Y-74307616D01*
X176195123Y-74307616D01*
X176057616Y-74445123D01*
X176057616Y-74445124D01*
X176057614Y-74445126D01*
X176008523Y-74512693D01*
X175943306Y-74602456D01*
X175855019Y-74775730D01*
X175794922Y-74960689D01*
X175778540Y-75064119D01*
X175764500Y-75152764D01*
X165000500Y-75152764D01*
X165000500Y-72712781D01*
X184714500Y-72712781D01*
X184714500Y-72887218D01*
X184748527Y-73058283D01*
X184748529Y-73058291D01*
X184815278Y-73219439D01*
X184815283Y-73219448D01*
X184912186Y-73364473D01*
X184912189Y-73364477D01*
X185035522Y-73487810D01*
X185035526Y-73487813D01*
X185180551Y-73584716D01*
X185180557Y-73584719D01*
X185180558Y-73584720D01*
X185341709Y-73651471D01*
X185458395Y-73674681D01*
X185512781Y-73685499D01*
X185512785Y-73685500D01*
X185512786Y-73685500D01*
X185687215Y-73685500D01*
X185687216Y-73685499D01*
X185858291Y-73651471D01*
X186019442Y-73584720D01*
X186164474Y-73487813D01*
X186287813Y-73364474D01*
X186384720Y-73219442D01*
X186451471Y-73058291D01*
X186485500Y-72887214D01*
X186485500Y-72712786D01*
X186451471Y-72541709D01*
X186387746Y-72387864D01*
X186384721Y-72380560D01*
X186384716Y-72380551D01*
X186287813Y-72235526D01*
X186287810Y-72235522D01*
X186164477Y-72112189D01*
X186164473Y-72112186D01*
X186019448Y-72015283D01*
X186019439Y-72015278D01*
X185858291Y-71948529D01*
X185858283Y-71948527D01*
X185687218Y-71914500D01*
X185687214Y-71914500D01*
X185512786Y-71914500D01*
X185512781Y-71914500D01*
X185341716Y-71948527D01*
X185341708Y-71948529D01*
X185180560Y-72015278D01*
X185180551Y-72015283D01*
X185035526Y-72112186D01*
X185035522Y-72112189D01*
X184912189Y-72235522D01*
X184912186Y-72235526D01*
X184815283Y-72380551D01*
X184815278Y-72380560D01*
X184748529Y-72541708D01*
X184748527Y-72541716D01*
X184714500Y-72712781D01*
X165000500Y-72712781D01*
X165000500Y-71804795D01*
X165020185Y-71737756D01*
X165072989Y-71692001D01*
X165142147Y-71682057D01*
X165205703Y-71711082D01*
X165231887Y-71742795D01*
X165275546Y-71818415D01*
X165275557Y-71818431D01*
X165410053Y-71993710D01*
X165410059Y-71993717D01*
X165566282Y-72149940D01*
X165566289Y-72149946D01*
X165677814Y-72235522D01*
X165741577Y-72284449D01*
X165741584Y-72284453D01*
X165932915Y-72394919D01*
X165932920Y-72394921D01*
X165932923Y-72394923D01*
X165932927Y-72394924D01*
X165932932Y-72394927D01*
X165997100Y-72421506D01*
X166137051Y-72479476D01*
X166350470Y-72536661D01*
X166569526Y-72565500D01*
X166569533Y-72565500D01*
X166790467Y-72565500D01*
X166790474Y-72565500D01*
X167009530Y-72536661D01*
X167222949Y-72479476D01*
X167427077Y-72394923D01*
X167618423Y-72284449D01*
X167793712Y-72149945D01*
X167949945Y-71993712D01*
X168084449Y-71818423D01*
X168194923Y-71627077D01*
X168279476Y-71422949D01*
X168336661Y-71209530D01*
X168365500Y-70990474D01*
X168365500Y-70769532D01*
X170634500Y-70769532D01*
X170634500Y-70990467D01*
X170634501Y-70990484D01*
X170663337Y-71209519D01*
X170663338Y-71209524D01*
X170663339Y-71209530D01*
X170693961Y-71323812D01*
X170720524Y-71422949D01*
X170805072Y-71627067D01*
X170805080Y-71627084D01*
X170915546Y-71818415D01*
X170915557Y-71818431D01*
X171050053Y-71993710D01*
X171050059Y-71993717D01*
X171206282Y-72149940D01*
X171206289Y-72149946D01*
X171317814Y-72235522D01*
X171381577Y-72284449D01*
X171381584Y-72284453D01*
X171572915Y-72394919D01*
X171572920Y-72394921D01*
X171572923Y-72394923D01*
X171572927Y-72394924D01*
X171572932Y-72394927D01*
X171637100Y-72421506D01*
X171777051Y-72479476D01*
X171990470Y-72536661D01*
X172209526Y-72565500D01*
X172209533Y-72565500D01*
X172430467Y-72565500D01*
X172430474Y-72565500D01*
X172649530Y-72536661D01*
X172862949Y-72479476D01*
X173067077Y-72394923D01*
X173258423Y-72284449D01*
X173433712Y-72149945D01*
X173589945Y-71993712D01*
X173724449Y-71818423D01*
X173834923Y-71627077D01*
X173919476Y-71422949D01*
X173976661Y-71209530D01*
X174005500Y-70990474D01*
X174005500Y-70888009D01*
X189077101Y-70888009D01*
X189077101Y-71111990D01*
X189110837Y-71324989D01*
X189112137Y-71333197D01*
X189181348Y-71546204D01*
X189283028Y-71745762D01*
X189414674Y-71926957D01*
X189573044Y-72085327D01*
X189754239Y-72216973D01*
X189953797Y-72318653D01*
X190148969Y-72382069D01*
X190206644Y-72421506D01*
X190233842Y-72485864D01*
X190221927Y-72554711D01*
X190174683Y-72606186D01*
X190148969Y-72617930D01*
X189953792Y-72681347D01*
X189754238Y-72783026D01*
X189650860Y-72858134D01*
X189573044Y-72914672D01*
X189573042Y-72914674D01*
X189573041Y-72914674D01*
X189414676Y-73073039D01*
X189414676Y-73073040D01*
X189414674Y-73073042D01*
X189358136Y-73150858D01*
X189283028Y-73254236D01*
X189181349Y-73453792D01*
X189112136Y-73666805D01*
X189077101Y-73888008D01*
X189077101Y-74111989D01*
X189110889Y-74325316D01*
X189112137Y-74333196D01*
X189181348Y-74546203D01*
X189283028Y-74745761D01*
X189414674Y-74926956D01*
X189573044Y-75085326D01*
X189754239Y-75216972D01*
X189953797Y-75318652D01*
X190166804Y-75387863D01*
X190249758Y-75401001D01*
X190388011Y-75422899D01*
X190388016Y-75422899D01*
X190611991Y-75422899D01*
X190734881Y-75403434D01*
X190833198Y-75387863D01*
X191046205Y-75318652D01*
X191245763Y-75216972D01*
X191426958Y-75085326D01*
X191585328Y-74926956D01*
X191716974Y-74745761D01*
X191818654Y-74546203D01*
X191882070Y-74351028D01*
X191921506Y-74293355D01*
X191985865Y-74266157D01*
X192054711Y-74278072D01*
X192106187Y-74325316D01*
X192117929Y-74351027D01*
X192131392Y-74392460D01*
X192181348Y-74546207D01*
X192272075Y-74724267D01*
X192283027Y-74745761D01*
X192414673Y-74926956D01*
X192573043Y-75085326D01*
X192754238Y-75216972D01*
X192953796Y-75318652D01*
X193166803Y-75387863D01*
X193249757Y-75401001D01*
X193388010Y-75422899D01*
X193388015Y-75422899D01*
X193611990Y-75422899D01*
X193734880Y-75403434D01*
X193833197Y-75387863D01*
X194046204Y-75318652D01*
X194245762Y-75216972D01*
X194426957Y-75085326D01*
X194585327Y-74926956D01*
X194716973Y-74745761D01*
X194818653Y-74546203D01*
X194882069Y-74351028D01*
X194921505Y-74293355D01*
X194985864Y-74266157D01*
X195054710Y-74278072D01*
X195106186Y-74325316D01*
X195117928Y-74351027D01*
X195131391Y-74392460D01*
X195181347Y-74546207D01*
X195272074Y-74724267D01*
X195283026Y-74745761D01*
X195414672Y-74926956D01*
X195573042Y-75085326D01*
X195754237Y-75216972D01*
X195953795Y-75318652D01*
X196166802Y-75387863D01*
X196249756Y-75401001D01*
X196388009Y-75422899D01*
X196388014Y-75422899D01*
X196611989Y-75422899D01*
X196734879Y-75403434D01*
X196833196Y-75387863D01*
X197046203Y-75318652D01*
X197245761Y-75216972D01*
X197426956Y-75085326D01*
X197585326Y-74926956D01*
X197716972Y-74745761D01*
X197818652Y-74546203D01*
X197887863Y-74333196D01*
X197910019Y-74193306D01*
X197922899Y-74111989D01*
X197922899Y-73888008D01*
X197890824Y-73685499D01*
X197887863Y-73666802D01*
X197818652Y-73453795D01*
X197716972Y-73254237D01*
X197585326Y-73073042D01*
X197426956Y-72914672D01*
X197245761Y-72783026D01*
X197046207Y-72681347D01*
X196950679Y-72650308D01*
X196851029Y-72617929D01*
X196793355Y-72578492D01*
X196766157Y-72514133D01*
X196778072Y-72445287D01*
X196825316Y-72393811D01*
X196851023Y-72382071D01*
X197046203Y-72318653D01*
X197245761Y-72216973D01*
X197426956Y-72085327D01*
X197585326Y-71926957D01*
X197716972Y-71745762D01*
X197818652Y-71546204D01*
X197887863Y-71333197D01*
X197907450Y-71209530D01*
X197922899Y-71111990D01*
X197922899Y-70888009D01*
X197893293Y-70701089D01*
X197887863Y-70666803D01*
X197818652Y-70453796D01*
X197716972Y-70254238D01*
X197585326Y-70073043D01*
X197426956Y-69914673D01*
X197245761Y-69783027D01*
X197212897Y-69766282D01*
X197046205Y-69681348D01*
X197046204Y-69681347D01*
X197046203Y-69681347D01*
X196833196Y-69612136D01*
X196833194Y-69612135D01*
X196833192Y-69612135D01*
X196611989Y-69577100D01*
X196611984Y-69577100D01*
X196388014Y-69577100D01*
X196388009Y-69577100D01*
X196166805Y-69612135D01*
X195953792Y-69681348D01*
X195754236Y-69783027D01*
X195650858Y-69858135D01*
X195573042Y-69914673D01*
X195573040Y-69914675D01*
X195573039Y-69914675D01*
X195414674Y-70073040D01*
X195414674Y-70073041D01*
X195414672Y-70073043D01*
X195371167Y-70132922D01*
X195283026Y-70254237D01*
X195181347Y-70453791D01*
X195117930Y-70648968D01*
X195078492Y-70706643D01*
X195014133Y-70733841D01*
X194945287Y-70721926D01*
X194893811Y-70674682D01*
X194882070Y-70648972D01*
X194818653Y-70453796D01*
X194716973Y-70254238D01*
X194585327Y-70073043D01*
X194426957Y-69914673D01*
X194245762Y-69783027D01*
X194212898Y-69766282D01*
X194046206Y-69681348D01*
X194046205Y-69681347D01*
X194046204Y-69681347D01*
X193833197Y-69612136D01*
X193833195Y-69612135D01*
X193833193Y-69612135D01*
X193611990Y-69577100D01*
X193611985Y-69577100D01*
X193388015Y-69577100D01*
X193388010Y-69577100D01*
X193166806Y-69612135D01*
X192953793Y-69681348D01*
X192754237Y-69783027D01*
X192650859Y-69858135D01*
X192573043Y-69914673D01*
X192573041Y-69914675D01*
X192573040Y-69914675D01*
X192414675Y-70073040D01*
X192414675Y-70073041D01*
X192414673Y-70073043D01*
X192371168Y-70132922D01*
X192283027Y-70254237D01*
X192181348Y-70453791D01*
X192117931Y-70648968D01*
X192078493Y-70706643D01*
X192014134Y-70733841D01*
X191945288Y-70721926D01*
X191893812Y-70674682D01*
X191882071Y-70648972D01*
X191818654Y-70453796D01*
X191716974Y-70254238D01*
X191585328Y-70073043D01*
X191426958Y-69914673D01*
X191245763Y-69783027D01*
X191212899Y-69766282D01*
X191046207Y-69681348D01*
X191046206Y-69681347D01*
X191046205Y-69681347D01*
X190833198Y-69612136D01*
X190833196Y-69612135D01*
X190833194Y-69612135D01*
X190611991Y-69577100D01*
X190611986Y-69577100D01*
X190388016Y-69577100D01*
X190388011Y-69577100D01*
X190166807Y-69612135D01*
X189953794Y-69681348D01*
X189754238Y-69783027D01*
X189650860Y-69858135D01*
X189573044Y-69914673D01*
X189573042Y-69914675D01*
X189573041Y-69914675D01*
X189414676Y-70073040D01*
X189414676Y-70073041D01*
X189414674Y-70073043D01*
X189371169Y-70132922D01*
X189283028Y-70254237D01*
X189181349Y-70453793D01*
X189112136Y-70666806D01*
X189077101Y-70888009D01*
X174005500Y-70888009D01*
X174005500Y-70769526D01*
X173976661Y-70550470D01*
X173919476Y-70337051D01*
X173834923Y-70132923D01*
X173748242Y-69982787D01*
X186716102Y-69982787D01*
X186716102Y-70137210D01*
X186746225Y-70288646D01*
X186746228Y-70288658D01*
X186805315Y-70431308D01*
X186805322Y-70431321D01*
X186891106Y-70559705D01*
X186891109Y-70559709D01*
X187000291Y-70668891D01*
X187000295Y-70668894D01*
X187128679Y-70754678D01*
X187128692Y-70754685D01*
X187271342Y-70813772D01*
X187271347Y-70813774D01*
X187405330Y-70840425D01*
X187422790Y-70843898D01*
X187422793Y-70843899D01*
X187422795Y-70843899D01*
X187577211Y-70843899D01*
X187577212Y-70843898D01*
X187728657Y-70813774D01*
X187837760Y-70768582D01*
X187837761Y-70768582D01*
X187847379Y-70764597D01*
X187871318Y-70754682D01*
X187999709Y-70668894D01*
X188108897Y-70559706D01*
X188194685Y-70431315D01*
X188253777Y-70288654D01*
X188283902Y-70137206D01*
X188283902Y-69982792D01*
X188283902Y-69982789D01*
X188283901Y-69982787D01*
X188275702Y-69941568D01*
X188253777Y-69831344D01*
X188253775Y-69831339D01*
X188194688Y-69688689D01*
X188194681Y-69688676D01*
X188108897Y-69560292D01*
X188108894Y-69560288D01*
X187999712Y-69451106D01*
X187999708Y-69451103D01*
X187871324Y-69365319D01*
X187871311Y-69365312D01*
X187728661Y-69306225D01*
X187728649Y-69306222D01*
X187577212Y-69276099D01*
X187577209Y-69276099D01*
X187422795Y-69276099D01*
X187422792Y-69276099D01*
X187271354Y-69306222D01*
X187271342Y-69306225D01*
X187128692Y-69365312D01*
X187128679Y-69365319D01*
X187000295Y-69451103D01*
X187000291Y-69451106D01*
X186891109Y-69560288D01*
X186891106Y-69560292D01*
X186805322Y-69688676D01*
X186805315Y-69688689D01*
X186746228Y-69831339D01*
X186746225Y-69831351D01*
X186716102Y-69982787D01*
X173748242Y-69982787D01*
X173724449Y-69941577D01*
X173639864Y-69831344D01*
X173589946Y-69766289D01*
X173589940Y-69766282D01*
X173433717Y-69610059D01*
X173433710Y-69610053D01*
X173258431Y-69475557D01*
X173258429Y-69475555D01*
X173258423Y-69475551D01*
X173258418Y-69475548D01*
X173258415Y-69475546D01*
X173067084Y-69365080D01*
X173067067Y-69365072D01*
X172862949Y-69280524D01*
X172649530Y-69223339D01*
X172649524Y-69223338D01*
X172649519Y-69223337D01*
X172430484Y-69194501D01*
X172430479Y-69194500D01*
X172430474Y-69194500D01*
X172209526Y-69194500D01*
X172209520Y-69194500D01*
X172209515Y-69194501D01*
X171990480Y-69223337D01*
X171990473Y-69223338D01*
X171990470Y-69223339D01*
X171900264Y-69247509D01*
X171777050Y-69280524D01*
X171572932Y-69365072D01*
X171572915Y-69365080D01*
X171381584Y-69475546D01*
X171381568Y-69475557D01*
X171206289Y-69610053D01*
X171206282Y-69610059D01*
X171050059Y-69766282D01*
X171050053Y-69766289D01*
X170915557Y-69941568D01*
X170915546Y-69941584D01*
X170805080Y-70132915D01*
X170805072Y-70132932D01*
X170720524Y-70337050D01*
X170663340Y-70550467D01*
X170663337Y-70550480D01*
X170634501Y-70769515D01*
X170634500Y-70769532D01*
X168365500Y-70769532D01*
X168365500Y-70769526D01*
X168336661Y-70550470D01*
X168279476Y-70337051D01*
X168194923Y-70132923D01*
X168194921Y-70132920D01*
X168194919Y-70132915D01*
X168084453Y-69941584D01*
X168084452Y-69941583D01*
X168084449Y-69941577D01*
X167999864Y-69831344D01*
X167949946Y-69766289D01*
X167949940Y-69766282D01*
X167793717Y-69610059D01*
X167793710Y-69610053D01*
X167618431Y-69475557D01*
X167618429Y-69475555D01*
X167618423Y-69475551D01*
X167618418Y-69475548D01*
X167618415Y-69475546D01*
X167427084Y-69365080D01*
X167427067Y-69365072D01*
X167222949Y-69280524D01*
X167009530Y-69223339D01*
X167009524Y-69223338D01*
X167009519Y-69223337D01*
X166790484Y-69194501D01*
X166790479Y-69194500D01*
X166790474Y-69194500D01*
X166569526Y-69194500D01*
X166569520Y-69194500D01*
X166569515Y-69194501D01*
X166350480Y-69223337D01*
X166350473Y-69223338D01*
X166350470Y-69223339D01*
X166260264Y-69247509D01*
X166137050Y-69280524D01*
X165932932Y-69365072D01*
X165932915Y-69365080D01*
X165741584Y-69475546D01*
X165741568Y-69475557D01*
X165566289Y-69610053D01*
X165566282Y-69610059D01*
X165410059Y-69766282D01*
X165410053Y-69766289D01*
X165275557Y-69941568D01*
X165275551Y-69941577D01*
X165231887Y-70017205D01*
X165181319Y-70065420D01*
X165112712Y-70078642D01*
X165047848Y-70052674D01*
X165007320Y-69995760D01*
X165000500Y-69955204D01*
X165000500Y-67614795D01*
X165020185Y-67547756D01*
X165072989Y-67502001D01*
X165142147Y-67492057D01*
X165205703Y-67521082D01*
X165231887Y-67552795D01*
X165275546Y-67628415D01*
X165275557Y-67628431D01*
X165410053Y-67803710D01*
X165410059Y-67803717D01*
X165566282Y-67959940D01*
X165566289Y-67959946D01*
X165625177Y-68005132D01*
X165741577Y-68094449D01*
X165741584Y-68094453D01*
X165932915Y-68204919D01*
X165932920Y-68204921D01*
X165932923Y-68204923D01*
X165932927Y-68204924D01*
X165932932Y-68204927D01*
X165997666Y-68231740D01*
X166137051Y-68289476D01*
X166350470Y-68346661D01*
X166569526Y-68375500D01*
X166569533Y-68375500D01*
X166790467Y-68375500D01*
X166790474Y-68375500D01*
X167009530Y-68346661D01*
X167222949Y-68289476D01*
X167427077Y-68204923D01*
X167618423Y-68094449D01*
X167793712Y-67959945D01*
X167949945Y-67803712D01*
X168084449Y-67628423D01*
X168194923Y-67437077D01*
X168279476Y-67232949D01*
X168336661Y-67019530D01*
X168365500Y-66800474D01*
X168365500Y-66579532D01*
X170634500Y-66579532D01*
X170634500Y-66800467D01*
X170634501Y-66800484D01*
X170663337Y-67019519D01*
X170663338Y-67019524D01*
X170663339Y-67019530D01*
X170696718Y-67144103D01*
X170720524Y-67232949D01*
X170805072Y-67437067D01*
X170805080Y-67437084D01*
X170915546Y-67628415D01*
X170915557Y-67628431D01*
X171050053Y-67803710D01*
X171050059Y-67803717D01*
X171206282Y-67959940D01*
X171206289Y-67959946D01*
X171265177Y-68005132D01*
X171381577Y-68094449D01*
X171381584Y-68094453D01*
X171572915Y-68204919D01*
X171572920Y-68204921D01*
X171572923Y-68204923D01*
X171572927Y-68204924D01*
X171572932Y-68204927D01*
X171637666Y-68231740D01*
X171777051Y-68289476D01*
X171990470Y-68346661D01*
X172209526Y-68375500D01*
X172209533Y-68375500D01*
X172430467Y-68375500D01*
X172430474Y-68375500D01*
X172649530Y-68346661D01*
X172862949Y-68289476D01*
X173067077Y-68204923D01*
X173258423Y-68094449D01*
X173433712Y-67959945D01*
X173589945Y-67803712D01*
X173724449Y-67628423D01*
X173834923Y-67437077D01*
X173883156Y-67320634D01*
X177864500Y-67320634D01*
X177864500Y-67499366D01*
X177867940Y-67521082D01*
X177892460Y-67675898D01*
X177892460Y-67675901D01*
X177947689Y-67845878D01*
X177947691Y-67845881D01*
X178028833Y-68005132D01*
X178133889Y-68149728D01*
X178260272Y-68276111D01*
X178404868Y-68381167D01*
X178564119Y-68462309D01*
X178564121Y-68462310D01*
X178611278Y-68477632D01*
X178734103Y-68517540D01*
X178910634Y-68545500D01*
X178910635Y-68545500D01*
X179089365Y-68545500D01*
X179089366Y-68545500D01*
X179265897Y-68517540D01*
X179265900Y-68517539D01*
X179265901Y-68517539D01*
X179435878Y-68462310D01*
X179435878Y-68462309D01*
X179435881Y-68462309D01*
X179595132Y-68381167D01*
X179712715Y-68295736D01*
X179778518Y-68272257D01*
X179846573Y-68288082D01*
X179895268Y-68338187D01*
X179896084Y-68339760D01*
X179966333Y-68477632D01*
X180071389Y-68622228D01*
X180197772Y-68748611D01*
X180342368Y-68853667D01*
X180501619Y-68934809D01*
X180501621Y-68934810D01*
X180660170Y-68986325D01*
X180671603Y-68990040D01*
X180848134Y-69018000D01*
X180848135Y-69018000D01*
X181026865Y-69018000D01*
X181026866Y-69018000D01*
X181203397Y-68990040D01*
X181203400Y-68990039D01*
X181203401Y-68990039D01*
X181373378Y-68934810D01*
X181373378Y-68934809D01*
X181373381Y-68934809D01*
X181532632Y-68853667D01*
X181677228Y-68748611D01*
X181803611Y-68622228D01*
X181908667Y-68477632D01*
X181989809Y-68318381D01*
X182004796Y-68272257D01*
X182045039Y-68148401D01*
X182045039Y-68148400D01*
X182045040Y-68148397D01*
X182073000Y-67971866D01*
X182073000Y-67793134D01*
X182045040Y-67616603D01*
X182045039Y-67616599D01*
X182045039Y-67616598D01*
X181989810Y-67446621D01*
X181989808Y-67446618D01*
X181988032Y-67443131D01*
X181908667Y-67287368D01*
X181803611Y-67142772D01*
X181752980Y-67092141D01*
X184314499Y-67092141D01*
X184350449Y-67272869D01*
X184350451Y-67272875D01*
X184420969Y-67443122D01*
X184420974Y-67443131D01*
X184523349Y-67596345D01*
X184523352Y-67596349D01*
X184653650Y-67726647D01*
X184653654Y-67726650D01*
X184806868Y-67829025D01*
X184806874Y-67829028D01*
X184806875Y-67829029D01*
X184977125Y-67899549D01*
X184977129Y-67899549D01*
X184977130Y-67899550D01*
X185157858Y-67935500D01*
X185157861Y-67935500D01*
X185342141Y-67935500D01*
X185463732Y-67911313D01*
X185522875Y-67899549D01*
X185693125Y-67829029D01*
X185846346Y-67726650D01*
X185976650Y-67596346D01*
X186079029Y-67443125D01*
X186149549Y-67272875D01*
X186175165Y-67144098D01*
X186185500Y-67092141D01*
X186185500Y-66907858D01*
X186149550Y-66727130D01*
X186149549Y-66727129D01*
X186149549Y-66727125D01*
X186079029Y-66556875D01*
X186079028Y-66556874D01*
X186079025Y-66556868D01*
X185976650Y-66403654D01*
X185976647Y-66403650D01*
X185846349Y-66273352D01*
X185846345Y-66273349D01*
X185693131Y-66170974D01*
X185693122Y-66170969D01*
X185522875Y-66100451D01*
X185522869Y-66100449D01*
X185342141Y-66064500D01*
X185342139Y-66064500D01*
X185157861Y-66064500D01*
X185157859Y-66064500D01*
X184977130Y-66100449D01*
X184977124Y-66100451D01*
X184806877Y-66170969D01*
X184806868Y-66170974D01*
X184653654Y-66273349D01*
X184653650Y-66273352D01*
X184523352Y-66403650D01*
X184523349Y-66403654D01*
X184420974Y-66556868D01*
X184420969Y-66556877D01*
X184350451Y-66727124D01*
X184350449Y-66727130D01*
X184314500Y-66907858D01*
X184314500Y-66907861D01*
X184314500Y-67092139D01*
X184314500Y-67092141D01*
X184314499Y-67092141D01*
X181752980Y-67092141D01*
X181677228Y-67016389D01*
X181532632Y-66911333D01*
X181373381Y-66830191D01*
X181373378Y-66830189D01*
X181203399Y-66774960D01*
X181085709Y-66756320D01*
X181026866Y-66747000D01*
X180848134Y-66747000D01*
X180789290Y-66756320D01*
X180671601Y-66774960D01*
X180671598Y-66774960D01*
X180501621Y-66830189D01*
X180501618Y-66830191D01*
X180342367Y-66911333D01*
X180224786Y-66996762D01*
X180158979Y-67020242D01*
X180090925Y-67004417D01*
X180042231Y-66954311D01*
X180041415Y-66952738D01*
X179971168Y-66814869D01*
X179936148Y-66766669D01*
X179866111Y-66670272D01*
X179739728Y-66543889D01*
X179595132Y-66438833D01*
X179435881Y-66357691D01*
X179435878Y-66357689D01*
X179265899Y-66302460D01*
X179148209Y-66283820D01*
X179089366Y-66274500D01*
X178910634Y-66274500D01*
X178851790Y-66283820D01*
X178734101Y-66302460D01*
X178734098Y-66302460D01*
X178564121Y-66357689D01*
X178564118Y-66357691D01*
X178404867Y-66438833D01*
X178260270Y-66543890D01*
X178133890Y-66670270D01*
X178028833Y-66814867D01*
X177947691Y-66974118D01*
X177947689Y-66974121D01*
X177892460Y-67144098D01*
X177892460Y-67144101D01*
X177872065Y-67272869D01*
X177864500Y-67320634D01*
X173883156Y-67320634D01*
X173919476Y-67232949D01*
X173976661Y-67019530D01*
X174005500Y-66800474D01*
X174005500Y-66579526D01*
X173976661Y-66360470D01*
X173919476Y-66147051D01*
X173834923Y-65942923D01*
X173834921Y-65942920D01*
X173834919Y-65942915D01*
X173724453Y-65751584D01*
X173724449Y-65751577D01*
X173589945Y-65576288D01*
X173589940Y-65576282D01*
X173433717Y-65420059D01*
X173433710Y-65420053D01*
X173258431Y-65285557D01*
X173258429Y-65285555D01*
X173258423Y-65285551D01*
X173258418Y-65285548D01*
X173258415Y-65285546D01*
X173067084Y-65175080D01*
X173067067Y-65175072D01*
X172862949Y-65090524D01*
X172649530Y-65033339D01*
X172649524Y-65033338D01*
X172649519Y-65033337D01*
X172430484Y-65004501D01*
X172430479Y-65004500D01*
X172430474Y-65004500D01*
X172209526Y-65004500D01*
X172209520Y-65004500D01*
X172209515Y-65004501D01*
X171990480Y-65033337D01*
X171990473Y-65033338D01*
X171990470Y-65033339D01*
X171900264Y-65057509D01*
X171777050Y-65090524D01*
X171572932Y-65175072D01*
X171572915Y-65175080D01*
X171381584Y-65285546D01*
X171381568Y-65285557D01*
X171206289Y-65420053D01*
X171206282Y-65420059D01*
X171050059Y-65576282D01*
X171050053Y-65576289D01*
X170915557Y-65751568D01*
X170915546Y-65751584D01*
X170805080Y-65942915D01*
X170805072Y-65942932D01*
X170720524Y-66147050D01*
X170663340Y-66360467D01*
X170663337Y-66360480D01*
X170634501Y-66579515D01*
X170634500Y-66579532D01*
X168365500Y-66579532D01*
X168365500Y-66579526D01*
X168336661Y-66360470D01*
X168279476Y-66147051D01*
X168194923Y-65942923D01*
X168194921Y-65942920D01*
X168194919Y-65942915D01*
X168084453Y-65751584D01*
X168084449Y-65751577D01*
X167949945Y-65576288D01*
X167949940Y-65576282D01*
X167793717Y-65420059D01*
X167793710Y-65420053D01*
X167618431Y-65285557D01*
X167618429Y-65285555D01*
X167618423Y-65285551D01*
X167618418Y-65285548D01*
X167618415Y-65285546D01*
X167427084Y-65175080D01*
X167427067Y-65175072D01*
X167222949Y-65090524D01*
X167009530Y-65033339D01*
X167009524Y-65033338D01*
X167009519Y-65033337D01*
X166790484Y-65004501D01*
X166790479Y-65004500D01*
X166790474Y-65004500D01*
X166569526Y-65004500D01*
X166569520Y-65004500D01*
X166569515Y-65004501D01*
X166350480Y-65033337D01*
X166350473Y-65033338D01*
X166350470Y-65033339D01*
X166260264Y-65057509D01*
X166137050Y-65090524D01*
X165932932Y-65175072D01*
X165932915Y-65175080D01*
X165741584Y-65285546D01*
X165741568Y-65285557D01*
X165566289Y-65420053D01*
X165566282Y-65420059D01*
X165410059Y-65576282D01*
X165410053Y-65576289D01*
X165275557Y-65751568D01*
X165275551Y-65751577D01*
X165231887Y-65827205D01*
X165181319Y-65875420D01*
X165112712Y-65888642D01*
X165047848Y-65862674D01*
X165007320Y-65805760D01*
X165000500Y-65765204D01*
X165000500Y-63424795D01*
X165020185Y-63357756D01*
X165072989Y-63312001D01*
X165142147Y-63302057D01*
X165205703Y-63331082D01*
X165231887Y-63362795D01*
X165275546Y-63438415D01*
X165275557Y-63438431D01*
X165410053Y-63613710D01*
X165410059Y-63613717D01*
X165566282Y-63769940D01*
X165566289Y-63769946D01*
X165624992Y-63814990D01*
X165741577Y-63904449D01*
X165741584Y-63904453D01*
X165932915Y-64014919D01*
X165932920Y-64014921D01*
X165932923Y-64014923D01*
X165932927Y-64014924D01*
X165932932Y-64014927D01*
X165997666Y-64041740D01*
X166137051Y-64099476D01*
X166350470Y-64156661D01*
X166569526Y-64185500D01*
X166569533Y-64185500D01*
X166790467Y-64185500D01*
X166790474Y-64185500D01*
X167009530Y-64156661D01*
X167222949Y-64099476D01*
X167427077Y-64014923D01*
X167618423Y-63904449D01*
X167793712Y-63769945D01*
X167949945Y-63613712D01*
X168084449Y-63438423D01*
X168194923Y-63247077D01*
X168279476Y-63042949D01*
X168336661Y-62829530D01*
X168365500Y-62610474D01*
X168365500Y-62389532D01*
X170634500Y-62389532D01*
X170634500Y-62610467D01*
X170634501Y-62610484D01*
X170663337Y-62829519D01*
X170663338Y-62829524D01*
X170663339Y-62829530D01*
X170720524Y-63042949D01*
X170805072Y-63247067D01*
X170805080Y-63247084D01*
X170915546Y-63438415D01*
X170915557Y-63438431D01*
X171050053Y-63613710D01*
X171050059Y-63613717D01*
X171206282Y-63769940D01*
X171206289Y-63769946D01*
X171264992Y-63814990D01*
X171381577Y-63904449D01*
X171381584Y-63904453D01*
X171572915Y-64014919D01*
X171572920Y-64014921D01*
X171572923Y-64014923D01*
X171572927Y-64014924D01*
X171572932Y-64014927D01*
X171637666Y-64041740D01*
X171777051Y-64099476D01*
X171990470Y-64156661D01*
X172209526Y-64185500D01*
X172209533Y-64185500D01*
X172430467Y-64185500D01*
X172430474Y-64185500D01*
X172649530Y-64156661D01*
X172862949Y-64099476D01*
X173067077Y-64014923D01*
X173258423Y-63904449D01*
X173433712Y-63769945D01*
X173589945Y-63613712D01*
X173724449Y-63438423D01*
X173834923Y-63247077D01*
X173919476Y-63042949D01*
X173976661Y-62829530D01*
X174005500Y-62610474D01*
X174005500Y-62389526D01*
X173976661Y-62170470D01*
X173919476Y-61957051D01*
X173834923Y-61752923D01*
X173834921Y-61752920D01*
X173834919Y-61752915D01*
X173724453Y-61561584D01*
X173724449Y-61561577D01*
X173633555Y-61443122D01*
X173589946Y-61386289D01*
X173589940Y-61386282D01*
X173433717Y-61230059D01*
X173433710Y-61230053D01*
X173258431Y-61095557D01*
X173258429Y-61095555D01*
X173258423Y-61095551D01*
X173258418Y-61095548D01*
X173258415Y-61095546D01*
X173067084Y-60985080D01*
X173067067Y-60985072D01*
X172862949Y-60900524D01*
X172649530Y-60843339D01*
X172649524Y-60843338D01*
X172649519Y-60843337D01*
X172430484Y-60814501D01*
X172430479Y-60814500D01*
X172430474Y-60814500D01*
X172209526Y-60814500D01*
X172209520Y-60814500D01*
X172209515Y-60814501D01*
X171990480Y-60843337D01*
X171990473Y-60843338D01*
X171990470Y-60843339D01*
X171900264Y-60867509D01*
X171777050Y-60900524D01*
X171572932Y-60985072D01*
X171572915Y-60985080D01*
X171381584Y-61095546D01*
X171381568Y-61095557D01*
X171206289Y-61230053D01*
X171206282Y-61230059D01*
X171050059Y-61386282D01*
X171050053Y-61386289D01*
X170915557Y-61561568D01*
X170915546Y-61561584D01*
X170805080Y-61752915D01*
X170805072Y-61752932D01*
X170720524Y-61957050D01*
X170663340Y-62170467D01*
X170663337Y-62170480D01*
X170634501Y-62389515D01*
X170634500Y-62389532D01*
X168365500Y-62389532D01*
X168365500Y-62389526D01*
X168336661Y-62170470D01*
X168279476Y-61957051D01*
X168194923Y-61752923D01*
X168194921Y-61752920D01*
X168194919Y-61752915D01*
X168084453Y-61561584D01*
X168084449Y-61561577D01*
X167993555Y-61443122D01*
X167949946Y-61386289D01*
X167949940Y-61386282D01*
X167793717Y-61230059D01*
X167793710Y-61230053D01*
X167618431Y-61095557D01*
X167618429Y-61095555D01*
X167618423Y-61095551D01*
X167618418Y-61095548D01*
X167618415Y-61095546D01*
X167427084Y-60985080D01*
X167427067Y-60985072D01*
X167222949Y-60900524D01*
X167009530Y-60843339D01*
X167009524Y-60843338D01*
X167009519Y-60843337D01*
X166790484Y-60814501D01*
X166790479Y-60814500D01*
X166790474Y-60814500D01*
X166569526Y-60814500D01*
X166569520Y-60814500D01*
X166569515Y-60814501D01*
X166350480Y-60843337D01*
X166350473Y-60843338D01*
X166350470Y-60843339D01*
X166260264Y-60867509D01*
X166137050Y-60900524D01*
X165932932Y-60985072D01*
X165932915Y-60985080D01*
X165741584Y-61095546D01*
X165741568Y-61095557D01*
X165566289Y-61230053D01*
X165566282Y-61230059D01*
X165410059Y-61386282D01*
X165410053Y-61386289D01*
X165275557Y-61561568D01*
X165275551Y-61561577D01*
X165231887Y-61637205D01*
X165181319Y-61685420D01*
X165112712Y-61698642D01*
X165047848Y-61672674D01*
X165007320Y-61615760D01*
X165000500Y-61575204D01*
X165000500Y-59234795D01*
X165020185Y-59167756D01*
X165072989Y-59122001D01*
X165142147Y-59112057D01*
X165205703Y-59141082D01*
X165231887Y-59172795D01*
X165275546Y-59248415D01*
X165275557Y-59248431D01*
X165410053Y-59423710D01*
X165410059Y-59423717D01*
X165566282Y-59579940D01*
X165566288Y-59579945D01*
X165741577Y-59714449D01*
X165741584Y-59714453D01*
X165932915Y-59824919D01*
X165932920Y-59824921D01*
X165932923Y-59824923D01*
X165932927Y-59824924D01*
X165932932Y-59824927D01*
X165994548Y-59850449D01*
X166137051Y-59909476D01*
X166350470Y-59966661D01*
X166569526Y-59995500D01*
X166569533Y-59995500D01*
X166790467Y-59995500D01*
X166790474Y-59995500D01*
X167009530Y-59966661D01*
X167222949Y-59909476D01*
X167427077Y-59824923D01*
X167618423Y-59714449D01*
X167793712Y-59579945D01*
X167949945Y-59423712D01*
X168084449Y-59248423D01*
X168194923Y-59057077D01*
X168279476Y-58852949D01*
X168336661Y-58639530D01*
X168365500Y-58420474D01*
X168365500Y-58199532D01*
X170634500Y-58199532D01*
X170634500Y-58420467D01*
X170634501Y-58420484D01*
X170663337Y-58639519D01*
X170663338Y-58639524D01*
X170663339Y-58639530D01*
X170666024Y-58649549D01*
X170720524Y-58852949D01*
X170805072Y-59057067D01*
X170805080Y-59057084D01*
X170915546Y-59248415D01*
X170915557Y-59248431D01*
X171050053Y-59423710D01*
X171050059Y-59423717D01*
X171206282Y-59579940D01*
X171206288Y-59579945D01*
X171381577Y-59714449D01*
X171381584Y-59714453D01*
X171572915Y-59824919D01*
X171572920Y-59824921D01*
X171572923Y-59824923D01*
X171572927Y-59824924D01*
X171572932Y-59824927D01*
X171634548Y-59850449D01*
X171777051Y-59909476D01*
X171990470Y-59966661D01*
X172209526Y-59995500D01*
X172209533Y-59995500D01*
X172430467Y-59995500D01*
X172430474Y-59995500D01*
X172649530Y-59966661D01*
X172862949Y-59909476D01*
X173067077Y-59824923D01*
X173258423Y-59714449D01*
X173433712Y-59579945D01*
X173589945Y-59423712D01*
X173724449Y-59248423D01*
X173834923Y-59057077D01*
X173839590Y-59045811D01*
X175014500Y-59045811D01*
X175014500Y-60874168D01*
X175014501Y-60874193D01*
X175017335Y-60910204D01*
X175062129Y-61064388D01*
X175062131Y-61064393D01*
X175143863Y-61202595D01*
X175143869Y-61202603D01*
X175257396Y-61316130D01*
X175257405Y-61316137D01*
X175326543Y-61357025D01*
X175374226Y-61408094D01*
X175386730Y-61476836D01*
X175363741Y-61536642D01*
X175229486Y-61721429D01*
X175123335Y-61929763D01*
X175123334Y-61929765D01*
X175123334Y-61929766D01*
X175103851Y-61989728D01*
X175051077Y-62152148D01*
X175014500Y-62383089D01*
X175014500Y-62616910D01*
X175048175Y-62829530D01*
X175051078Y-62847855D01*
X175123334Y-63070234D01*
X175203273Y-63227124D01*
X175229489Y-63278574D01*
X175366918Y-63467731D01*
X175366922Y-63467736D01*
X175366924Y-63467738D01*
X175532262Y-63633076D01*
X175582645Y-63669681D01*
X175582646Y-63669682D01*
X175625311Y-63725013D01*
X175631290Y-63794626D01*
X175598684Y-63856421D01*
X175582646Y-63870318D01*
X175532260Y-63906925D01*
X175366922Y-64072263D01*
X175366918Y-64072268D01*
X175229489Y-64261425D01*
X175123335Y-64469763D01*
X175051077Y-64692148D01*
X175018602Y-64897190D01*
X175014500Y-64923089D01*
X175014500Y-65156911D01*
X175017377Y-65175077D01*
X175043837Y-65342141D01*
X175051078Y-65387855D01*
X175123334Y-65610234D01*
X175222959Y-65805760D01*
X175229489Y-65818574D01*
X175366918Y-66007731D01*
X175366922Y-66007736D01*
X175532263Y-66173077D01*
X175532268Y-66173081D01*
X175670277Y-66273349D01*
X175721429Y-66310513D01*
X175929766Y-66416666D01*
X176152145Y-66488922D01*
X176383089Y-66525500D01*
X176383090Y-66525500D01*
X176616910Y-66525500D01*
X176616911Y-66525500D01*
X176847855Y-66488922D01*
X177070234Y-66416666D01*
X177278571Y-66310513D01*
X177467738Y-66173076D01*
X177633076Y-66007738D01*
X177770513Y-65818571D01*
X177876666Y-65610234D01*
X177948922Y-65387855D01*
X177956162Y-65342141D01*
X193165499Y-65342141D01*
X193201449Y-65522869D01*
X193201451Y-65522875D01*
X193271969Y-65693122D01*
X193271974Y-65693131D01*
X193374349Y-65846345D01*
X193374352Y-65846349D01*
X193504650Y-65976647D01*
X193504654Y-65976650D01*
X193657868Y-66079025D01*
X193657874Y-66079028D01*
X193657875Y-66079029D01*
X193828125Y-66149549D01*
X193828129Y-66149549D01*
X193828130Y-66149550D01*
X194008858Y-66185500D01*
X194008861Y-66185500D01*
X194193141Y-66185500D01*
X194314732Y-66161313D01*
X194373875Y-66149549D01*
X194544125Y-66079029D01*
X194697346Y-65976650D01*
X194827650Y-65846346D01*
X194930029Y-65693125D01*
X195000549Y-65522875D01*
X195021001Y-65420059D01*
X195036500Y-65342141D01*
X195036500Y-65157858D01*
X195000550Y-64977130D01*
X195000549Y-64977129D01*
X195000549Y-64977125D01*
X194930029Y-64806875D01*
X194930028Y-64806874D01*
X194930025Y-64806868D01*
X194827650Y-64653654D01*
X194827647Y-64653650D01*
X194697349Y-64523352D01*
X194697345Y-64523349D01*
X194544131Y-64420974D01*
X194544122Y-64420969D01*
X194373875Y-64350451D01*
X194373869Y-64350449D01*
X194193141Y-64314500D01*
X194193139Y-64314500D01*
X194008861Y-64314500D01*
X194008859Y-64314500D01*
X193828130Y-64350449D01*
X193828124Y-64350451D01*
X193657877Y-64420969D01*
X193657868Y-64420974D01*
X193504654Y-64523349D01*
X193504650Y-64523352D01*
X193374352Y-64653650D01*
X193374349Y-64653654D01*
X193271974Y-64806868D01*
X193271969Y-64806877D01*
X193201451Y-64977124D01*
X193201449Y-64977130D01*
X193165500Y-65157858D01*
X193165500Y-65157861D01*
X193165500Y-65342139D01*
X193165500Y-65342141D01*
X193165499Y-65342141D01*
X177956162Y-65342141D01*
X177985500Y-65156911D01*
X177985500Y-64923089D01*
X177948922Y-64692145D01*
X177876666Y-64469766D01*
X177770513Y-64261429D01*
X177694394Y-64156659D01*
X177633081Y-64072268D01*
X177633077Y-64072263D01*
X177467735Y-63906921D01*
X177417355Y-63870319D01*
X177374688Y-63814990D01*
X177368708Y-63745376D01*
X177401313Y-63683581D01*
X177417355Y-63669681D01*
X177467734Y-63633079D01*
X177467734Y-63633078D01*
X177467738Y-63633076D01*
X177508673Y-63592141D01*
X191564499Y-63592141D01*
X191600449Y-63772869D01*
X191600451Y-63772875D01*
X191670969Y-63943122D01*
X191670974Y-63943131D01*
X191773349Y-64096345D01*
X191773352Y-64096349D01*
X191903650Y-64226647D01*
X191903654Y-64226650D01*
X192056868Y-64329025D01*
X192056874Y-64329028D01*
X192056875Y-64329029D01*
X192227125Y-64399549D01*
X192227129Y-64399549D01*
X192227130Y-64399550D01*
X192407858Y-64435500D01*
X192407861Y-64435500D01*
X192592141Y-64435500D01*
X192713732Y-64411313D01*
X192772875Y-64399549D01*
X192943125Y-64329029D01*
X193096346Y-64226650D01*
X193226650Y-64096346D01*
X193329029Y-63943125D01*
X193399549Y-63772875D01*
X193421440Y-63662823D01*
X193435500Y-63592141D01*
X193435500Y-63407858D01*
X193399550Y-63227130D01*
X193399549Y-63227129D01*
X193399549Y-63227125D01*
X193334563Y-63070236D01*
X193329030Y-63056877D01*
X193329025Y-63056868D01*
X193226650Y-62903654D01*
X193226647Y-62903650D01*
X193096349Y-62773352D01*
X193096345Y-62773349D01*
X192943131Y-62670974D01*
X192943122Y-62670969D01*
X192772875Y-62600451D01*
X192772869Y-62600449D01*
X192592141Y-62564500D01*
X192592139Y-62564500D01*
X192407861Y-62564500D01*
X192407859Y-62564500D01*
X192227130Y-62600449D01*
X192227124Y-62600451D01*
X192056877Y-62670969D01*
X192056868Y-62670974D01*
X191903654Y-62773349D01*
X191903650Y-62773352D01*
X191773352Y-62903650D01*
X191773349Y-62903654D01*
X191670974Y-63056868D01*
X191670969Y-63056877D01*
X191600451Y-63227124D01*
X191600449Y-63227130D01*
X191564500Y-63407858D01*
X191564500Y-63407861D01*
X191564500Y-63592139D01*
X191564500Y-63592141D01*
X191564499Y-63592141D01*
X177508673Y-63592141D01*
X177633076Y-63467738D01*
X177770513Y-63278571D01*
X177876666Y-63070234D01*
X177948922Y-62847855D01*
X177985500Y-62616911D01*
X177985500Y-62383089D01*
X177948922Y-62152145D01*
X177876666Y-61929766D01*
X177770513Y-61721429D01*
X177749234Y-61692141D01*
X183264499Y-61692141D01*
X183300449Y-61872869D01*
X183300451Y-61872875D01*
X183370969Y-62043122D01*
X183370974Y-62043131D01*
X183473349Y-62196345D01*
X183473352Y-62196349D01*
X183603650Y-62326647D01*
X183603654Y-62326650D01*
X183756868Y-62429025D01*
X183756874Y-62429028D01*
X183756875Y-62429029D01*
X183927125Y-62499549D01*
X183927129Y-62499549D01*
X183927130Y-62499550D01*
X184107858Y-62535500D01*
X184107861Y-62535500D01*
X184292141Y-62535500D01*
X184413732Y-62511313D01*
X184472875Y-62499549D01*
X184643125Y-62429029D01*
X184796346Y-62326650D01*
X184926650Y-62196346D01*
X185029029Y-62043125D01*
X185099549Y-61872875D01*
X185111313Y-61813732D01*
X185135500Y-61692141D01*
X185135500Y-61507861D01*
X185129328Y-61476836D01*
X185128460Y-61472471D01*
X185134686Y-61402883D01*
X185162394Y-61360601D01*
X185176650Y-61346346D01*
X185279029Y-61193125D01*
X185320858Y-61092141D01*
X186314499Y-61092141D01*
X186350449Y-61272869D01*
X186350451Y-61272875D01*
X186420969Y-61443122D01*
X186420974Y-61443131D01*
X186523349Y-61596345D01*
X186523352Y-61596349D01*
X186653650Y-61726647D01*
X186653654Y-61726650D01*
X186806868Y-61829025D01*
X186806874Y-61829028D01*
X186806875Y-61829029D01*
X186977125Y-61899549D01*
X186977129Y-61899549D01*
X186977130Y-61899550D01*
X187157858Y-61935500D01*
X187157861Y-61935500D01*
X187342141Y-61935500D01*
X187463732Y-61911313D01*
X187522875Y-61899549D01*
X187693125Y-61829029D01*
X187846346Y-61726650D01*
X187976650Y-61596346D01*
X188079029Y-61443125D01*
X188149549Y-61272875D01*
X188163529Y-61202595D01*
X188185500Y-61092141D01*
X188185500Y-60907858D01*
X188149550Y-60727130D01*
X188149549Y-60727129D01*
X188149549Y-60727125D01*
X188079029Y-60556875D01*
X188079028Y-60556874D01*
X188079025Y-60556868D01*
X187976650Y-60403654D01*
X187976647Y-60403650D01*
X187846349Y-60273352D01*
X187846345Y-60273349D01*
X187693131Y-60170974D01*
X187693122Y-60170969D01*
X187522875Y-60100451D01*
X187522869Y-60100449D01*
X187342141Y-60064500D01*
X187342139Y-60064500D01*
X187157861Y-60064500D01*
X187157859Y-60064500D01*
X186977130Y-60100449D01*
X186977124Y-60100451D01*
X186806877Y-60170969D01*
X186806868Y-60170974D01*
X186653654Y-60273349D01*
X186653650Y-60273352D01*
X186523352Y-60403650D01*
X186523349Y-60403654D01*
X186420974Y-60556868D01*
X186420969Y-60556877D01*
X186350451Y-60727124D01*
X186350449Y-60727130D01*
X186314500Y-60907858D01*
X186314500Y-60907861D01*
X186314500Y-61092139D01*
X186314500Y-61092141D01*
X186314499Y-61092141D01*
X185320858Y-61092141D01*
X185349549Y-61022875D01*
X185372428Y-60907858D01*
X185378451Y-60877578D01*
X185378451Y-60877577D01*
X185385500Y-60842141D01*
X185385500Y-60657858D01*
X185349550Y-60477130D01*
X185349549Y-60477129D01*
X185349549Y-60477125D01*
X185279029Y-60306875D01*
X185279028Y-60306874D01*
X185279025Y-60306868D01*
X185176650Y-60153654D01*
X185176647Y-60153650D01*
X185046349Y-60023352D01*
X185046345Y-60023349D01*
X184893131Y-59920974D01*
X184893122Y-59920969D01*
X184722875Y-59850451D01*
X184722869Y-59850449D01*
X184542141Y-59814500D01*
X184542139Y-59814500D01*
X184357861Y-59814500D01*
X184357859Y-59814500D01*
X184177130Y-59850449D01*
X184177124Y-59850451D01*
X184006877Y-59920969D01*
X184006868Y-59920974D01*
X183853654Y-60023349D01*
X183853650Y-60023352D01*
X183723352Y-60153650D01*
X183723349Y-60153654D01*
X183620974Y-60306868D01*
X183620969Y-60306877D01*
X183550451Y-60477124D01*
X183550449Y-60477130D01*
X183514500Y-60657858D01*
X183514500Y-60842141D01*
X183521539Y-60877527D01*
X183515312Y-60947118D01*
X183487606Y-60989398D01*
X183473347Y-61003657D01*
X183370974Y-61156868D01*
X183370969Y-61156877D01*
X183300451Y-61327124D01*
X183300449Y-61327130D01*
X183264500Y-61507858D01*
X183264500Y-61507861D01*
X183264500Y-61692139D01*
X183264500Y-61692141D01*
X183264499Y-61692141D01*
X177749234Y-61692141D01*
X177709321Y-61637205D01*
X177663878Y-61574657D01*
X177663875Y-61574654D01*
X177654379Y-61561584D01*
X177636257Y-61536641D01*
X177612779Y-61470835D01*
X177628605Y-61402781D01*
X177673457Y-61357025D01*
X177742592Y-61316139D01*
X177742593Y-61316137D01*
X177742598Y-61316135D01*
X177856135Y-61202598D01*
X177937869Y-61064393D01*
X177982665Y-60910204D01*
X177985500Y-60874181D01*
X177985499Y-59692141D01*
X194064499Y-59692141D01*
X194100449Y-59872869D01*
X194100451Y-59872875D01*
X194170969Y-60043122D01*
X194170974Y-60043131D01*
X194273349Y-60196345D01*
X194273352Y-60196349D01*
X194403650Y-60326647D01*
X194403654Y-60326650D01*
X194556868Y-60429025D01*
X194556874Y-60429028D01*
X194556875Y-60429029D01*
X194727125Y-60499549D01*
X194727129Y-60499549D01*
X194727130Y-60499550D01*
X194907858Y-60535500D01*
X194907861Y-60535500D01*
X195092141Y-60535500D01*
X195218967Y-60510272D01*
X195272875Y-60499549D01*
X195443125Y-60429029D01*
X195596346Y-60326650D01*
X195726650Y-60196346D01*
X195829029Y-60043125D01*
X195899549Y-59872875D01*
X195911313Y-59813732D01*
X195935500Y-59692141D01*
X195935500Y-59507858D01*
X195899550Y-59327130D01*
X195899549Y-59327129D01*
X195899549Y-59327125D01*
X195829029Y-59156875D01*
X195829028Y-59156874D01*
X195829025Y-59156868D01*
X195726650Y-59003654D01*
X195726647Y-59003650D01*
X195596349Y-58873352D01*
X195596345Y-58873349D01*
X195443131Y-58770974D01*
X195443122Y-58770969D01*
X195272875Y-58700451D01*
X195272869Y-58700449D01*
X195092141Y-58664500D01*
X195092139Y-58664500D01*
X194907861Y-58664500D01*
X194907859Y-58664500D01*
X194727130Y-58700449D01*
X194727124Y-58700451D01*
X194556877Y-58770969D01*
X194556868Y-58770974D01*
X194403654Y-58873349D01*
X194403650Y-58873352D01*
X194273352Y-59003650D01*
X194273349Y-59003654D01*
X194170974Y-59156868D01*
X194170969Y-59156877D01*
X194100451Y-59327124D01*
X194100449Y-59327130D01*
X194064500Y-59507858D01*
X194064500Y-59507861D01*
X194064500Y-59692139D01*
X194064500Y-59692141D01*
X194064499Y-59692141D01*
X177985499Y-59692141D01*
X177985499Y-59045820D01*
X177982665Y-59009796D01*
X177937869Y-58855607D01*
X177856135Y-58717402D01*
X177856133Y-58717400D01*
X177856130Y-58717396D01*
X177742603Y-58603869D01*
X177742595Y-58603863D01*
X177604393Y-58522131D01*
X177604388Y-58522129D01*
X177450208Y-58477335D01*
X177450202Y-58477334D01*
X177414181Y-58474500D01*
X175585831Y-58474500D01*
X175585806Y-58474501D01*
X175549795Y-58477335D01*
X175395611Y-58522129D01*
X175395606Y-58522131D01*
X175257404Y-58603863D01*
X175257396Y-58603869D01*
X175143869Y-58717396D01*
X175143863Y-58717404D01*
X175062131Y-58855606D01*
X175062129Y-58855611D01*
X175017335Y-59009791D01*
X175017334Y-59009797D01*
X175014500Y-59045811D01*
X173839590Y-59045811D01*
X173919476Y-58852949D01*
X173976661Y-58639530D01*
X174005500Y-58420474D01*
X174005500Y-58199526D01*
X173991363Y-58092141D01*
X183714499Y-58092141D01*
X183750449Y-58272869D01*
X183750451Y-58272875D01*
X183820969Y-58443122D01*
X183820974Y-58443131D01*
X183923349Y-58596345D01*
X183923352Y-58596349D01*
X184053650Y-58726647D01*
X184053654Y-58726650D01*
X184206868Y-58829025D01*
X184206874Y-58829028D01*
X184206875Y-58829029D01*
X184377125Y-58899549D01*
X184377129Y-58899549D01*
X184377130Y-58899550D01*
X184557858Y-58935500D01*
X184557861Y-58935500D01*
X184742141Y-58935500D01*
X184863732Y-58911313D01*
X184922875Y-58899549D01*
X185093125Y-58829029D01*
X185246346Y-58726650D01*
X185376650Y-58596346D01*
X185479029Y-58443125D01*
X185549549Y-58272875D01*
X185585500Y-58092139D01*
X185585500Y-57907861D01*
X185585500Y-57907858D01*
X185572428Y-57842141D01*
X186564499Y-57842141D01*
X186600449Y-58022869D01*
X186600451Y-58022875D01*
X186670969Y-58193122D01*
X186670974Y-58193131D01*
X186773349Y-58346345D01*
X186773352Y-58346349D01*
X186903650Y-58476647D01*
X186903654Y-58476650D01*
X187056868Y-58579025D01*
X187056874Y-58579028D01*
X187056875Y-58579029D01*
X187227125Y-58649549D01*
X187227129Y-58649549D01*
X187227130Y-58649550D01*
X187407858Y-58685500D01*
X187407861Y-58685500D01*
X187592141Y-58685500D01*
X187713732Y-58661313D01*
X187772875Y-58649549D01*
X187943125Y-58579029D01*
X188096346Y-58476650D01*
X188226650Y-58346346D01*
X188329029Y-58193125D01*
X188399549Y-58022875D01*
X188417255Y-57933862D01*
X188435500Y-57842141D01*
X188435500Y-57657858D01*
X188399550Y-57477130D01*
X188399549Y-57477129D01*
X188399549Y-57477125D01*
X188329029Y-57306875D01*
X188329028Y-57306874D01*
X188329025Y-57306868D01*
X188226650Y-57153654D01*
X188226647Y-57153650D01*
X188096349Y-57023352D01*
X188096345Y-57023349D01*
X187943131Y-56920974D01*
X187943122Y-56920969D01*
X187772875Y-56850451D01*
X187772869Y-56850449D01*
X187592141Y-56814500D01*
X187592139Y-56814500D01*
X187407861Y-56814500D01*
X187407859Y-56814500D01*
X187227130Y-56850449D01*
X187227124Y-56850451D01*
X187056877Y-56920969D01*
X187056868Y-56920974D01*
X186903654Y-57023349D01*
X186903650Y-57023352D01*
X186773352Y-57153650D01*
X186773349Y-57153654D01*
X186670974Y-57306868D01*
X186670969Y-57306877D01*
X186600451Y-57477124D01*
X186600449Y-57477130D01*
X186564500Y-57657858D01*
X186564500Y-57657861D01*
X186564500Y-57842139D01*
X186564500Y-57842141D01*
X186564499Y-57842141D01*
X185572428Y-57842141D01*
X185549550Y-57727130D01*
X185549549Y-57727129D01*
X185549549Y-57727125D01*
X185479029Y-57556875D01*
X185479028Y-57556874D01*
X185479025Y-57556868D01*
X185376650Y-57403654D01*
X185376647Y-57403650D01*
X185246349Y-57273352D01*
X185246345Y-57273349D01*
X185093131Y-57170974D01*
X185093122Y-57170969D01*
X184922875Y-57100451D01*
X184922869Y-57100449D01*
X184742141Y-57064500D01*
X184742139Y-57064500D01*
X184557861Y-57064500D01*
X184557859Y-57064500D01*
X184377130Y-57100449D01*
X184377124Y-57100451D01*
X184206877Y-57170969D01*
X184206868Y-57170974D01*
X184053654Y-57273349D01*
X184053650Y-57273352D01*
X183923352Y-57403650D01*
X183923349Y-57403654D01*
X183820974Y-57556868D01*
X183820969Y-57556877D01*
X183750451Y-57727124D01*
X183750449Y-57727130D01*
X183714500Y-57907858D01*
X183714500Y-57907861D01*
X183714500Y-58092139D01*
X183714500Y-58092141D01*
X183714499Y-58092141D01*
X173991363Y-58092141D01*
X173976661Y-57980470D01*
X173919476Y-57767051D01*
X173853977Y-57608922D01*
X173834927Y-57562932D01*
X173834919Y-57562915D01*
X173724453Y-57371584D01*
X173724449Y-57371577D01*
X173589945Y-57196288D01*
X173589940Y-57196282D01*
X173433717Y-57040059D01*
X173433710Y-57040053D01*
X173258431Y-56905557D01*
X173258429Y-56905555D01*
X173258423Y-56905551D01*
X173258418Y-56905548D01*
X173258415Y-56905546D01*
X173067084Y-56795080D01*
X173067067Y-56795072D01*
X172862949Y-56710524D01*
X172649530Y-56653339D01*
X172649524Y-56653338D01*
X172649519Y-56653337D01*
X172430484Y-56624501D01*
X172430479Y-56624500D01*
X172430474Y-56624500D01*
X172209526Y-56624500D01*
X172209520Y-56624500D01*
X172209515Y-56624501D01*
X171990480Y-56653337D01*
X171990473Y-56653338D01*
X171990470Y-56653339D01*
X171900264Y-56677509D01*
X171777050Y-56710524D01*
X171572932Y-56795072D01*
X171572915Y-56795080D01*
X171381584Y-56905546D01*
X171381568Y-56905557D01*
X171206289Y-57040053D01*
X171206282Y-57040059D01*
X171050059Y-57196282D01*
X171050053Y-57196289D01*
X170915557Y-57371568D01*
X170915546Y-57371584D01*
X170805080Y-57562915D01*
X170805072Y-57562932D01*
X170720524Y-57767050D01*
X170720524Y-57767051D01*
X170675828Y-57933862D01*
X170663340Y-57980467D01*
X170663337Y-57980480D01*
X170634501Y-58199515D01*
X170634500Y-58199532D01*
X168365500Y-58199532D01*
X168365500Y-58199526D01*
X168336661Y-57980470D01*
X168279476Y-57767051D01*
X168213977Y-57608922D01*
X168194927Y-57562932D01*
X168194919Y-57562915D01*
X168084453Y-57371584D01*
X168084449Y-57371577D01*
X167949945Y-57196288D01*
X167949940Y-57196282D01*
X167793717Y-57040059D01*
X167793710Y-57040053D01*
X167618431Y-56905557D01*
X167618429Y-56905555D01*
X167618423Y-56905551D01*
X167618418Y-56905548D01*
X167618415Y-56905546D01*
X167427084Y-56795080D01*
X167427067Y-56795072D01*
X167222949Y-56710524D01*
X167009530Y-56653339D01*
X167009524Y-56653338D01*
X167009519Y-56653337D01*
X166790484Y-56624501D01*
X166790479Y-56624500D01*
X166790474Y-56624500D01*
X166569526Y-56624500D01*
X166569520Y-56624500D01*
X166569515Y-56624501D01*
X166350480Y-56653337D01*
X166350473Y-56653338D01*
X166350470Y-56653339D01*
X166260264Y-56677509D01*
X166137050Y-56710524D01*
X165932932Y-56795072D01*
X165932915Y-56795080D01*
X165741584Y-56905546D01*
X165741568Y-56905557D01*
X165566289Y-57040053D01*
X165566282Y-57040059D01*
X165410059Y-57196282D01*
X165410053Y-57196289D01*
X165275557Y-57371568D01*
X165275551Y-57371577D01*
X165231887Y-57447205D01*
X165181319Y-57495420D01*
X165112712Y-57508642D01*
X165047848Y-57482674D01*
X165007320Y-57425760D01*
X165000500Y-57385204D01*
X165000500Y-55044795D01*
X165020185Y-54977756D01*
X165072989Y-54932001D01*
X165142147Y-54922057D01*
X165205703Y-54951082D01*
X165231887Y-54982795D01*
X165275546Y-55058415D01*
X165275557Y-55058431D01*
X165410053Y-55233710D01*
X165410059Y-55233717D01*
X165566282Y-55389940D01*
X165566289Y-55389946D01*
X165659005Y-55461089D01*
X165741577Y-55524449D01*
X165741584Y-55524453D01*
X165932915Y-55634919D01*
X165932920Y-55634921D01*
X165932923Y-55634923D01*
X165932927Y-55634924D01*
X165932932Y-55634927D01*
X165997666Y-55661740D01*
X166137051Y-55719476D01*
X166350470Y-55776661D01*
X166569526Y-55805500D01*
X166569533Y-55805500D01*
X166790467Y-55805500D01*
X166790474Y-55805500D01*
X167009530Y-55776661D01*
X167222949Y-55719476D01*
X167427077Y-55634923D01*
X167618423Y-55524449D01*
X167793712Y-55389945D01*
X167949945Y-55233712D01*
X168084449Y-55058423D01*
X168194923Y-54867077D01*
X168279476Y-54662949D01*
X168336661Y-54449530D01*
X168365500Y-54230474D01*
X168365500Y-54009526D01*
X168336661Y-53790470D01*
X168279476Y-53577051D01*
X168221740Y-53437666D01*
X168194927Y-53372932D01*
X168194919Y-53372915D01*
X168084453Y-53181584D01*
X168084449Y-53181577D01*
X168073152Y-53166855D01*
X168005642Y-53078873D01*
X168005640Y-53078871D01*
X167983307Y-53049766D01*
X167949945Y-53006288D01*
X167949943Y-53006286D01*
X167949940Y-53006282D01*
X167949469Y-53005811D01*
X170634500Y-53005811D01*
X170634500Y-55234168D01*
X170634501Y-55234193D01*
X170637335Y-55270204D01*
X170682129Y-55424388D01*
X170682131Y-55424393D01*
X170763863Y-55562595D01*
X170763869Y-55562603D01*
X170877396Y-55676130D01*
X170877400Y-55676133D01*
X170877402Y-55676135D01*
X171015607Y-55757869D01*
X171043969Y-55766109D01*
X171169791Y-55802664D01*
X171169794Y-55802664D01*
X171169796Y-55802665D01*
X171205819Y-55805500D01*
X173434180Y-55805499D01*
X173470204Y-55802665D01*
X173624393Y-55757869D01*
X173762598Y-55676135D01*
X173876135Y-55562598D01*
X173957869Y-55424393D01*
X174002665Y-55270204D01*
X174005500Y-55234181D01*
X174005499Y-53005820D01*
X174002665Y-52969796D01*
X173957869Y-52815607D01*
X173876135Y-52677402D01*
X173876133Y-52677400D01*
X173876130Y-52677396D01*
X173762603Y-52563869D01*
X173762595Y-52563863D01*
X173624393Y-52482131D01*
X173624388Y-52482129D01*
X173470208Y-52437335D01*
X173470202Y-52437334D01*
X173434181Y-52434500D01*
X171205831Y-52434500D01*
X171205806Y-52434501D01*
X171169795Y-52437335D01*
X171015611Y-52482129D01*
X171015606Y-52482131D01*
X170877404Y-52563863D01*
X170877396Y-52563869D01*
X170763869Y-52677396D01*
X170763863Y-52677404D01*
X170682131Y-52815606D01*
X170682129Y-52815611D01*
X170637335Y-52969791D01*
X170637334Y-52969797D01*
X170634500Y-53005811D01*
X167949469Y-53005811D01*
X167793717Y-52850059D01*
X167793710Y-52850053D01*
X167618431Y-52715557D01*
X167618429Y-52715555D01*
X167618423Y-52715551D01*
X167618418Y-52715548D01*
X167618415Y-52715546D01*
X167427084Y-52605080D01*
X167427067Y-52605072D01*
X167222949Y-52520524D01*
X167009530Y-52463339D01*
X167009524Y-52463338D01*
X167009519Y-52463337D01*
X166790484Y-52434501D01*
X166790479Y-52434500D01*
X166790474Y-52434500D01*
X166569526Y-52434500D01*
X166569520Y-52434500D01*
X166569515Y-52434501D01*
X166350480Y-52463337D01*
X166350473Y-52463338D01*
X166350470Y-52463339D01*
X166280344Y-52482129D01*
X166137050Y-52520524D01*
X165932932Y-52605072D01*
X165932915Y-52605080D01*
X165741584Y-52715546D01*
X165741568Y-52715557D01*
X165566289Y-52850053D01*
X165566282Y-52850059D01*
X165410059Y-53006282D01*
X165410053Y-53006289D01*
X165275557Y-53181568D01*
X165275551Y-53181577D01*
X165231887Y-53257205D01*
X165181319Y-53305420D01*
X165112712Y-53318642D01*
X165047848Y-53292674D01*
X165007320Y-53235760D01*
X165000500Y-53195204D01*
X165000500Y-32343089D01*
X170014500Y-32343089D01*
X170014500Y-32576911D01*
X170020376Y-32614008D01*
X170048982Y-32794625D01*
X170051078Y-32807855D01*
X170123334Y-33030234D01*
X170213830Y-33207843D01*
X170229489Y-33238574D01*
X170366918Y-33427731D01*
X170366922Y-33427736D01*
X170366924Y-33427738D01*
X170532262Y-33593076D01*
X170582645Y-33629681D01*
X170582646Y-33629682D01*
X170625311Y-33685013D01*
X170631290Y-33754626D01*
X170598684Y-33816421D01*
X170582646Y-33830318D01*
X170532260Y-33866925D01*
X170366922Y-34032263D01*
X170366918Y-34032268D01*
X170229489Y-34221425D01*
X170123335Y-34429763D01*
X170051077Y-34652148D01*
X170033281Y-34764511D01*
X170014500Y-34883089D01*
X170014500Y-35116911D01*
X170020376Y-35154008D01*
X170041776Y-35289128D01*
X170051078Y-35347855D01*
X170088990Y-35464536D01*
X170123335Y-35570236D01*
X170229489Y-35778574D01*
X170366918Y-35967731D01*
X170366922Y-35967736D01*
X170366924Y-35967738D01*
X170532262Y-36133076D01*
X170582645Y-36169681D01*
X170582646Y-36169682D01*
X170625311Y-36225013D01*
X170631290Y-36294626D01*
X170598684Y-36356421D01*
X170582646Y-36370318D01*
X170532260Y-36406925D01*
X170366922Y-36572263D01*
X170366918Y-36572268D01*
X170229489Y-36761425D01*
X170123335Y-36969763D01*
X170051077Y-37192148D01*
X170014500Y-37423089D01*
X170014500Y-37656910D01*
X170051077Y-37887851D01*
X170123335Y-38110236D01*
X170229489Y-38318574D01*
X170366918Y-38507731D01*
X170366922Y-38507736D01*
X170366924Y-38507738D01*
X170532262Y-38673076D01*
X170582645Y-38709681D01*
X170582646Y-38709682D01*
X170625311Y-38765013D01*
X170631290Y-38834626D01*
X170598684Y-38896421D01*
X170582646Y-38910318D01*
X170532260Y-38946925D01*
X170366922Y-39112263D01*
X170366918Y-39112268D01*
X170229489Y-39301425D01*
X170123335Y-39509763D01*
X170051077Y-39732148D01*
X170014500Y-39963089D01*
X170014500Y-40196910D01*
X170051077Y-40427851D01*
X170123335Y-40650236D01*
X170229489Y-40858574D01*
X170366918Y-41047731D01*
X170366922Y-41047736D01*
X170532263Y-41213077D01*
X170532268Y-41213081D01*
X170697260Y-41332953D01*
X170721429Y-41350513D01*
X170929766Y-41456666D01*
X171152145Y-41528922D01*
X171383089Y-41565500D01*
X171383090Y-41565500D01*
X171616910Y-41565500D01*
X171616911Y-41565500D01*
X171847855Y-41528922D01*
X172070234Y-41456666D01*
X172278571Y-41350513D01*
X172467738Y-41213076D01*
X172633076Y-41047738D01*
X172770513Y-40858571D01*
X172876666Y-40650234D01*
X172948922Y-40427855D01*
X172985500Y-40196911D01*
X172985500Y-40005811D01*
X174514500Y-40005811D01*
X174514500Y-41834168D01*
X174514501Y-41834193D01*
X174517335Y-41870204D01*
X174562129Y-42024388D01*
X174562131Y-42024393D01*
X174643863Y-42162595D01*
X174643869Y-42162603D01*
X174757396Y-42276130D01*
X174757405Y-42276137D01*
X174826543Y-42317025D01*
X174874226Y-42368094D01*
X174886730Y-42436836D01*
X174863741Y-42496642D01*
X174729486Y-42681429D01*
X174623335Y-42889763D01*
X174551077Y-43112148D01*
X174514500Y-43343089D01*
X174514500Y-43576910D01*
X174551077Y-43807851D01*
X174623335Y-44030236D01*
X174729489Y-44238574D01*
X174866918Y-44427731D01*
X174866922Y-44427736D01*
X174866924Y-44427738D01*
X175032262Y-44593076D01*
X175082645Y-44629681D01*
X175082646Y-44629682D01*
X175125311Y-44685013D01*
X175131290Y-44754626D01*
X175098684Y-44816421D01*
X175082646Y-44830318D01*
X175032260Y-44866925D01*
X174866922Y-45032263D01*
X174866918Y-45032268D01*
X174729489Y-45221425D01*
X174623335Y-45429763D01*
X174551077Y-45652148D01*
X174514500Y-45883089D01*
X174514500Y-46116911D01*
X174551078Y-46347855D01*
X174623334Y-46570234D01*
X174689550Y-46700191D01*
X174729489Y-46778574D01*
X174866918Y-46967731D01*
X174866922Y-46967736D01*
X174866924Y-46967738D01*
X175032262Y-47133076D01*
X175065696Y-47157367D01*
X175082646Y-47169682D01*
X175125311Y-47225013D01*
X175131290Y-47294626D01*
X175098684Y-47356421D01*
X175082646Y-47370318D01*
X175032260Y-47406925D01*
X174866922Y-47572263D01*
X174866918Y-47572268D01*
X174729489Y-47761425D01*
X174623335Y-47969763D01*
X174551077Y-48192148D01*
X174514500Y-48423089D01*
X174514500Y-48656910D01*
X174551077Y-48887851D01*
X174623335Y-49110236D01*
X174729489Y-49318574D01*
X174866918Y-49507731D01*
X174866922Y-49507736D01*
X174866924Y-49507738D01*
X175032262Y-49673076D01*
X175082645Y-49709681D01*
X175082646Y-49709682D01*
X175125311Y-49765013D01*
X175131290Y-49834626D01*
X175098684Y-49896421D01*
X175082646Y-49910318D01*
X175032260Y-49946925D01*
X174866922Y-50112263D01*
X174866918Y-50112268D01*
X174729489Y-50301425D01*
X174623335Y-50509763D01*
X174551077Y-50732148D01*
X174514500Y-50963089D01*
X174514500Y-51196910D01*
X174551077Y-51427851D01*
X174623335Y-51650236D01*
X174729489Y-51858574D01*
X174866918Y-52047731D01*
X174866922Y-52047736D01*
X174866924Y-52047738D01*
X175032262Y-52213076D01*
X175082645Y-52249681D01*
X175082646Y-52249682D01*
X175125311Y-52305013D01*
X175131290Y-52374626D01*
X175098684Y-52436421D01*
X175082646Y-52450318D01*
X175032260Y-52486925D01*
X174866922Y-52652263D01*
X174866918Y-52652268D01*
X174729489Y-52841425D01*
X174623335Y-53049763D01*
X174623334Y-53049765D01*
X174623334Y-53049766D01*
X174613877Y-53078871D01*
X174551077Y-53272148D01*
X174514500Y-53503089D01*
X174514500Y-53736910D01*
X174550459Y-53963951D01*
X174551078Y-53967855D01*
X174623334Y-54190234D01*
X174681742Y-54304867D01*
X174729489Y-54398574D01*
X174866918Y-54587731D01*
X174866922Y-54587736D01*
X174866924Y-54587738D01*
X175032262Y-54753076D01*
X175044223Y-54761766D01*
X175082646Y-54789682D01*
X175125311Y-54845013D01*
X175131290Y-54914626D01*
X175098684Y-54976421D01*
X175082646Y-54990318D01*
X175032260Y-55026925D01*
X174866922Y-55192263D01*
X174866918Y-55192268D01*
X174729489Y-55381425D01*
X174623335Y-55589763D01*
X174551077Y-55812148D01*
X174520130Y-56007540D01*
X174514500Y-56043089D01*
X174514500Y-56276911D01*
X174551078Y-56507855D01*
X174623334Y-56730234D01*
X174720519Y-56920971D01*
X174729489Y-56938574D01*
X174866918Y-57127731D01*
X174866922Y-57127736D01*
X175032263Y-57293077D01*
X175032268Y-57293081D01*
X175186131Y-57404868D01*
X175221429Y-57430513D01*
X175429766Y-57536666D01*
X175652145Y-57608922D01*
X175883089Y-57645500D01*
X175883090Y-57645500D01*
X176116910Y-57645500D01*
X176116911Y-57645500D01*
X176347855Y-57608922D01*
X176570234Y-57536666D01*
X176778571Y-57430513D01*
X176967738Y-57293076D01*
X177133076Y-57127738D01*
X177270513Y-56938571D01*
X177376666Y-56730234D01*
X177448922Y-56507855D01*
X177485500Y-56276911D01*
X177485500Y-56043089D01*
X177448922Y-55812145D01*
X177376666Y-55589766D01*
X177270513Y-55381429D01*
X177237421Y-55335881D01*
X177133081Y-55192268D01*
X177133077Y-55192263D01*
X176967734Y-55026920D01*
X176917355Y-54990319D01*
X176902765Y-54971400D01*
X176884942Y-54955488D01*
X176881818Y-54944236D01*
X176874688Y-54934990D01*
X176872642Y-54911182D01*
X176866253Y-54888164D01*
X176869707Y-54877012D01*
X176868708Y-54865376D01*
X176879859Y-54844241D01*
X176886928Y-54821423D01*
X176897269Y-54810634D01*
X195624500Y-54810634D01*
X195624500Y-54989365D01*
X195652460Y-55165898D01*
X195652460Y-55165901D01*
X195707689Y-55335878D01*
X195707691Y-55335881D01*
X195788833Y-55495132D01*
X195893889Y-55639728D01*
X196020272Y-55766111D01*
X196164868Y-55871167D01*
X196324119Y-55952309D01*
X196324121Y-55952310D01*
X196482670Y-56003825D01*
X196494103Y-56007540D01*
X196670634Y-56035500D01*
X196670635Y-56035500D01*
X196849365Y-56035500D01*
X196849366Y-56035500D01*
X197025897Y-56007540D01*
X197025900Y-56007539D01*
X197025901Y-56007539D01*
X197195878Y-55952310D01*
X197195878Y-55952309D01*
X197195881Y-55952309D01*
X197355132Y-55871167D01*
X197499728Y-55766111D01*
X197626111Y-55639728D01*
X197731167Y-55495132D01*
X197812309Y-55335881D01*
X197812310Y-55335878D01*
X197867539Y-55165901D01*
X197867539Y-55165900D01*
X197867540Y-55165897D01*
X197895500Y-54989366D01*
X197895500Y-54810634D01*
X197867540Y-54634103D01*
X197867539Y-54634099D01*
X197867539Y-54634098D01*
X197812310Y-54464121D01*
X197812308Y-54464118D01*
X197804877Y-54449532D01*
X197731167Y-54304868D01*
X197626111Y-54160272D01*
X197499728Y-54033889D01*
X197355132Y-53928833D01*
X197195881Y-53847691D01*
X197195878Y-53847689D01*
X197025899Y-53792460D01*
X196908209Y-53773820D01*
X196849366Y-53764500D01*
X196670634Y-53764500D01*
X196611790Y-53773820D01*
X196494101Y-53792460D01*
X196494098Y-53792460D01*
X196324121Y-53847689D01*
X196324118Y-53847691D01*
X196164867Y-53928833D01*
X196020270Y-54033890D01*
X195893890Y-54160270D01*
X195788833Y-54304867D01*
X195707691Y-54464118D01*
X195707689Y-54464121D01*
X195652460Y-54634098D01*
X195652460Y-54634101D01*
X195624500Y-54810634D01*
X176897269Y-54810634D01*
X176897985Y-54809887D01*
X176901313Y-54803581D01*
X176910433Y-54795095D01*
X176913796Y-54792266D01*
X176967738Y-54753076D01*
X177133076Y-54587738D01*
X177270513Y-54398571D01*
X177376666Y-54190234D01*
X177448922Y-53967855D01*
X177485500Y-53736911D01*
X177485500Y-53503089D01*
X177448922Y-53272145D01*
X177376666Y-53049766D01*
X177270513Y-52841429D01*
X177251752Y-52815606D01*
X177133081Y-52652268D01*
X177133077Y-52652263D01*
X176967734Y-52486920D01*
X176917355Y-52450319D01*
X176874688Y-52394990D01*
X176868708Y-52325376D01*
X176901313Y-52263581D01*
X176917355Y-52249681D01*
X176967734Y-52213079D01*
X176967734Y-52213078D01*
X176967738Y-52213076D01*
X177133076Y-52047738D01*
X177270513Y-51858571D01*
X177376666Y-51650234D01*
X177448922Y-51427855D01*
X177485500Y-51196911D01*
X177485500Y-50963089D01*
X177448922Y-50732145D01*
X177376666Y-50509766D01*
X177270513Y-50301429D01*
X177252953Y-50277260D01*
X177133081Y-50112268D01*
X177133077Y-50112263D01*
X176967734Y-49946920D01*
X176917355Y-49910319D01*
X176874688Y-49854990D01*
X176868708Y-49785376D01*
X176901313Y-49723581D01*
X176917355Y-49709681D01*
X176967734Y-49673079D01*
X176967734Y-49673078D01*
X176967738Y-49673076D01*
X177133076Y-49507738D01*
X177270513Y-49318571D01*
X177376666Y-49110234D01*
X177448922Y-48887855D01*
X177485500Y-48656911D01*
X177485500Y-48423089D01*
X177448922Y-48192145D01*
X177376666Y-47969766D01*
X177270513Y-47761429D01*
X177199098Y-47663134D01*
X177133081Y-47572268D01*
X177133077Y-47572263D01*
X177046870Y-47486056D01*
X176967738Y-47406924D01*
X176959081Y-47400634D01*
X180764500Y-47400634D01*
X180764500Y-47579365D01*
X180792460Y-47755898D01*
X180792460Y-47755901D01*
X180847689Y-47925878D01*
X180847691Y-47925881D01*
X180928833Y-48085132D01*
X181033889Y-48229728D01*
X181160272Y-48356111D01*
X181304868Y-48461167D01*
X181464119Y-48542309D01*
X181464121Y-48542310D01*
X181622670Y-48593825D01*
X181634103Y-48597540D01*
X181810634Y-48625500D01*
X181810635Y-48625500D01*
X181989365Y-48625500D01*
X181989366Y-48625500D01*
X182165897Y-48597540D01*
X182165900Y-48597539D01*
X182165901Y-48597539D01*
X182335878Y-48542310D01*
X182335878Y-48542309D01*
X182335881Y-48542309D01*
X182495132Y-48461167D01*
X182634487Y-48359918D01*
X182700292Y-48336438D01*
X182768346Y-48352263D01*
X182807690Y-48387350D01*
X182883889Y-48492228D01*
X183010272Y-48618611D01*
X183154868Y-48723667D01*
X183314119Y-48804809D01*
X183314121Y-48804810D01*
X183472670Y-48856325D01*
X183484103Y-48860040D01*
X183660634Y-48888000D01*
X183660635Y-48888000D01*
X183839365Y-48888000D01*
X183839366Y-48888000D01*
X184015897Y-48860040D01*
X184015900Y-48860039D01*
X184015901Y-48860039D01*
X184185878Y-48804810D01*
X184185878Y-48804809D01*
X184185881Y-48804809D01*
X184345132Y-48723667D01*
X184489728Y-48618611D01*
X184616111Y-48492228D01*
X184721167Y-48347632D01*
X184802309Y-48188381D01*
X184857540Y-48018397D01*
X184885500Y-47841866D01*
X184885500Y-47663134D01*
X184857540Y-47486603D01*
X184857539Y-47486599D01*
X184857539Y-47486598D01*
X184802310Y-47316621D01*
X184802308Y-47316618D01*
X184801479Y-47314990D01*
X184721167Y-47157368D01*
X184616111Y-47012772D01*
X184489728Y-46886389D01*
X184345132Y-46781333D01*
X184185881Y-46700191D01*
X184185878Y-46700189D01*
X184015899Y-46644960D01*
X183882861Y-46623889D01*
X183839366Y-46617000D01*
X183660634Y-46617000D01*
X183617139Y-46623889D01*
X183484101Y-46644960D01*
X183484098Y-46644960D01*
X183314121Y-46700189D01*
X183314118Y-46700191D01*
X183154867Y-46781333D01*
X183015513Y-46882581D01*
X182949706Y-46906061D01*
X182881652Y-46890236D01*
X182842309Y-46855149D01*
X182788678Y-46781333D01*
X182766111Y-46750272D01*
X182639728Y-46623889D01*
X182495132Y-46518833D01*
X182335881Y-46437691D01*
X182335878Y-46437689D01*
X182165899Y-46382460D01*
X182048209Y-46363820D01*
X181989366Y-46354500D01*
X181810634Y-46354500D01*
X181751790Y-46363820D01*
X181634101Y-46382460D01*
X181634098Y-46382460D01*
X181464121Y-46437689D01*
X181464118Y-46437691D01*
X181304867Y-46518833D01*
X181160270Y-46623890D01*
X181033890Y-46750270D01*
X180928833Y-46894867D01*
X180847691Y-47054118D01*
X180847689Y-47054121D01*
X180792460Y-47224098D01*
X180792460Y-47224101D01*
X180764500Y-47400634D01*
X176959081Y-47400634D01*
X176912454Y-47366758D01*
X176907928Y-47362741D01*
X176892475Y-47338056D01*
X176874688Y-47314990D01*
X176874155Y-47308790D01*
X176870855Y-47303518D01*
X176871200Y-47274396D01*
X176868708Y-47245376D01*
X176871611Y-47239873D01*
X176871685Y-47233654D01*
X176887718Y-47209345D01*
X176901313Y-47183581D01*
X176909248Y-47176705D01*
X176910156Y-47175329D01*
X176911546Y-47174713D01*
X176917355Y-47169681D01*
X176967734Y-47133079D01*
X176967734Y-47133078D01*
X176967738Y-47133076D01*
X177133076Y-46967738D01*
X177270513Y-46778571D01*
X177376666Y-46570234D01*
X177448922Y-46347855D01*
X177485500Y-46116911D01*
X177485500Y-45883089D01*
X177448922Y-45652145D01*
X177376666Y-45429766D01*
X177270513Y-45221429D01*
X177252953Y-45197260D01*
X177133081Y-45032268D01*
X177133077Y-45032263D01*
X176967734Y-44866920D01*
X176917355Y-44830319D01*
X176874688Y-44774990D01*
X176868708Y-44705376D01*
X176901313Y-44643581D01*
X176917355Y-44629681D01*
X176967734Y-44593079D01*
X176967734Y-44593078D01*
X176967738Y-44593076D01*
X177133076Y-44427738D01*
X177270513Y-44238571D01*
X177376666Y-44030234D01*
X177448922Y-43807855D01*
X177485500Y-43576911D01*
X177485500Y-43343089D01*
X177448922Y-43112145D01*
X177376666Y-42889766D01*
X177270513Y-42681429D01*
X177255820Y-42661206D01*
X177136259Y-42496642D01*
X177112779Y-42430836D01*
X177128605Y-42362782D01*
X177173457Y-42317025D01*
X177242592Y-42276139D01*
X177242593Y-42276137D01*
X177242598Y-42276135D01*
X177356135Y-42162598D01*
X177437869Y-42024393D01*
X177482665Y-41870204D01*
X177485500Y-41834181D01*
X177485499Y-40005820D01*
X177482665Y-39969796D01*
X177437869Y-39815607D01*
X177356135Y-39677402D01*
X177356133Y-39677400D01*
X177356130Y-39677396D01*
X177242603Y-39563869D01*
X177242595Y-39563863D01*
X177104393Y-39482131D01*
X177104388Y-39482129D01*
X176950208Y-39437335D01*
X176950202Y-39437334D01*
X176914181Y-39434500D01*
X175085831Y-39434500D01*
X175085806Y-39434501D01*
X175049795Y-39437335D01*
X174895611Y-39482129D01*
X174895606Y-39482131D01*
X174757404Y-39563863D01*
X174757396Y-39563869D01*
X174643869Y-39677396D01*
X174643863Y-39677404D01*
X174562131Y-39815606D01*
X174562129Y-39815611D01*
X174517335Y-39969791D01*
X174517334Y-39969797D01*
X174514500Y-40005811D01*
X172985500Y-40005811D01*
X172985500Y-39963089D01*
X172948922Y-39732145D01*
X172876666Y-39509766D01*
X172770513Y-39301429D01*
X172752953Y-39277260D01*
X172633081Y-39112268D01*
X172633077Y-39112263D01*
X172467734Y-38946920D01*
X172417355Y-38910319D01*
X172374688Y-38854990D01*
X172368708Y-38785376D01*
X172401313Y-38723581D01*
X172417355Y-38709681D01*
X172467734Y-38673079D01*
X172467734Y-38673078D01*
X172467738Y-38673076D01*
X172633076Y-38507738D01*
X172770513Y-38318571D01*
X172876666Y-38110234D01*
X172948922Y-37887855D01*
X172985500Y-37656911D01*
X172985500Y-37423089D01*
X172948922Y-37192145D01*
X172876666Y-36969766D01*
X172770513Y-36761429D01*
X172752953Y-36737260D01*
X172633081Y-36572268D01*
X172633077Y-36572263D01*
X172467734Y-36406920D01*
X172417355Y-36370319D01*
X172374688Y-36314990D01*
X172368708Y-36245376D01*
X172401313Y-36183581D01*
X172417355Y-36169681D01*
X172467734Y-36133079D01*
X172467734Y-36133078D01*
X172467738Y-36133076D01*
X172633076Y-35967738D01*
X172770513Y-35778571D01*
X172876666Y-35570234D01*
X172948922Y-35347855D01*
X172985500Y-35116911D01*
X172985500Y-34883089D01*
X172948922Y-34652145D01*
X172876666Y-34429766D01*
X172770513Y-34221429D01*
X172722209Y-34154944D01*
X172633081Y-34032268D01*
X172633077Y-34032263D01*
X172467734Y-33866920D01*
X172417355Y-33830319D01*
X172374688Y-33774990D01*
X172368708Y-33705376D01*
X172401313Y-33643581D01*
X172417355Y-33629681D01*
X172467734Y-33593079D01*
X172467734Y-33593078D01*
X172467738Y-33593076D01*
X172633076Y-33427738D01*
X172770513Y-33238571D01*
X172876666Y-33030234D01*
X172948922Y-32807855D01*
X172985500Y-32576911D01*
X172985500Y-32343089D01*
X172948922Y-32112145D01*
X172876666Y-31889766D01*
X172770513Y-31681429D01*
X172722209Y-31614944D01*
X172633081Y-31492268D01*
X172633077Y-31492263D01*
X172525870Y-31385056D01*
X182459500Y-31385056D01*
X182459500Y-31614943D01*
X182495463Y-31842002D01*
X182495463Y-31842005D01*
X182566500Y-32060634D01*
X182670871Y-32265472D01*
X182805987Y-32451445D01*
X182805991Y-32451450D01*
X182968549Y-32614008D01*
X182968554Y-32614012D01*
X183045177Y-32669682D01*
X183087843Y-32725012D01*
X183093822Y-32794625D01*
X183061217Y-32856420D01*
X183045177Y-32870318D01*
X182968554Y-32925987D01*
X182968549Y-32925991D01*
X182805991Y-33088549D01*
X182805987Y-33088554D01*
X182670871Y-33274527D01*
X182566500Y-33479365D01*
X182495463Y-33697994D01*
X182495463Y-33697997D01*
X182459500Y-33925056D01*
X182459500Y-34154943D01*
X182495463Y-34382002D01*
X182495463Y-34382005D01*
X182566500Y-34600634D01*
X182670871Y-34805472D01*
X182805987Y-34991445D01*
X182805991Y-34991450D01*
X182968549Y-35154008D01*
X182968554Y-35154012D01*
X183130769Y-35271867D01*
X183154531Y-35289131D01*
X183359363Y-35393498D01*
X183359365Y-35393499D01*
X183563294Y-35459759D01*
X183577999Y-35464537D01*
X183805056Y-35500500D01*
X183805057Y-35500500D01*
X184034943Y-35500500D01*
X184034944Y-35500500D01*
X184262001Y-35464537D01*
X184262004Y-35464536D01*
X184262005Y-35464536D01*
X184480634Y-35393499D01*
X184480634Y-35393498D01*
X184480637Y-35393498D01*
X184685469Y-35289131D01*
X184871452Y-35154007D01*
X185034007Y-34991452D01*
X185089682Y-34914820D01*
X185145011Y-34872156D01*
X185214624Y-34866177D01*
X185276420Y-34898782D01*
X185290314Y-34914816D01*
X185345988Y-34991445D01*
X185345993Y-34991452D01*
X185508549Y-35154008D01*
X185508554Y-35154012D01*
X185670769Y-35271867D01*
X185694531Y-35289131D01*
X185899363Y-35393498D01*
X185899365Y-35393499D01*
X186103294Y-35459759D01*
X186117999Y-35464537D01*
X186345056Y-35500500D01*
X186345057Y-35500500D01*
X186574943Y-35500500D01*
X186574944Y-35500500D01*
X186802001Y-35464537D01*
X186802004Y-35464536D01*
X186802005Y-35464536D01*
X187020634Y-35393499D01*
X187020634Y-35393498D01*
X187020637Y-35393498D01*
X187225469Y-35289131D01*
X187411452Y-35154007D01*
X187574007Y-34991452D01*
X187629682Y-34914820D01*
X187685011Y-34872156D01*
X187754624Y-34866177D01*
X187816420Y-34898782D01*
X187830314Y-34914816D01*
X187885988Y-34991445D01*
X187885993Y-34991452D01*
X188048549Y-35154008D01*
X188048554Y-35154012D01*
X188210769Y-35271867D01*
X188234531Y-35289131D01*
X188439363Y-35393498D01*
X188439365Y-35393499D01*
X188643294Y-35459759D01*
X188657999Y-35464537D01*
X188885056Y-35500500D01*
X188885057Y-35500500D01*
X189114943Y-35500500D01*
X189114944Y-35500500D01*
X189342001Y-35464537D01*
X189342004Y-35464536D01*
X189342005Y-35464536D01*
X189560634Y-35393499D01*
X189560634Y-35393498D01*
X189560637Y-35393498D01*
X189765469Y-35289131D01*
X189951452Y-35154007D01*
X190114007Y-34991452D01*
X190249131Y-34805469D01*
X190353498Y-34600637D01*
X190424537Y-34382001D01*
X190460500Y-34154944D01*
X190460500Y-33925056D01*
X190424537Y-33697999D01*
X190424536Y-33697995D01*
X190424536Y-33697994D01*
X190353499Y-33479365D01*
X190327190Y-33427731D01*
X190249131Y-33274531D01*
X190169681Y-33165177D01*
X190114012Y-33088554D01*
X190114008Y-33088549D01*
X189951452Y-32925993D01*
X189951444Y-32925987D01*
X189874820Y-32870317D01*
X189832156Y-32814989D01*
X189826177Y-32745376D01*
X189858782Y-32683580D01*
X189874816Y-32669685D01*
X189951452Y-32614007D01*
X190114007Y-32451452D01*
X190249131Y-32265469D01*
X190353498Y-32060637D01*
X190424537Y-31842001D01*
X190460500Y-31614944D01*
X190460500Y-31385056D01*
X192619500Y-31385056D01*
X192619500Y-31614943D01*
X192655463Y-31842002D01*
X192655463Y-31842005D01*
X192726500Y-32060634D01*
X192830871Y-32265472D01*
X192965987Y-32451445D01*
X192965991Y-32451450D01*
X193128549Y-32614008D01*
X193128554Y-32614012D01*
X193205177Y-32669682D01*
X193247843Y-32725012D01*
X193253822Y-32794625D01*
X193221217Y-32856420D01*
X193205177Y-32870318D01*
X193128554Y-32925987D01*
X193128549Y-32925991D01*
X192965991Y-33088549D01*
X192965987Y-33088554D01*
X192830871Y-33274527D01*
X192726500Y-33479365D01*
X192655463Y-33697994D01*
X192655463Y-33697997D01*
X192619500Y-33925056D01*
X192619500Y-34154943D01*
X192655463Y-34382002D01*
X192655463Y-34382005D01*
X192726500Y-34600634D01*
X192830871Y-34805472D01*
X192965987Y-34991445D01*
X192965991Y-34991450D01*
X193128549Y-35154008D01*
X193128554Y-35154012D01*
X193290769Y-35271867D01*
X193314531Y-35289131D01*
X193519363Y-35393498D01*
X193519365Y-35393499D01*
X193723294Y-35459759D01*
X193737999Y-35464537D01*
X193965056Y-35500500D01*
X193965057Y-35500500D01*
X194194943Y-35500500D01*
X194194944Y-35500500D01*
X194422001Y-35464537D01*
X194422004Y-35464536D01*
X194422005Y-35464536D01*
X194640634Y-35393499D01*
X194640634Y-35393498D01*
X194640637Y-35393498D01*
X194845469Y-35289131D01*
X195031452Y-35154007D01*
X195194007Y-34991452D01*
X195329131Y-34805469D01*
X195433498Y-34600637D01*
X195504537Y-34382001D01*
X195540500Y-34154944D01*
X195540500Y-33925056D01*
X195504537Y-33697999D01*
X195504536Y-33697995D01*
X195504536Y-33697994D01*
X195433499Y-33479365D01*
X195407190Y-33427731D01*
X195329131Y-33274531D01*
X195249681Y-33165177D01*
X195194012Y-33088554D01*
X195194008Y-33088549D01*
X195031452Y-32925993D01*
X195031444Y-32925987D01*
X194954820Y-32870317D01*
X194912156Y-32814989D01*
X194906177Y-32745376D01*
X194938782Y-32683580D01*
X194954816Y-32669685D01*
X195031452Y-32614007D01*
X195194007Y-32451452D01*
X195329131Y-32265469D01*
X195433498Y-32060637D01*
X195504537Y-31842001D01*
X195540500Y-31614944D01*
X195540500Y-31385056D01*
X195504537Y-31157999D01*
X195504536Y-31157995D01*
X195504536Y-31157994D01*
X195433499Y-30939365D01*
X195433498Y-30939363D01*
X195329131Y-30734531D01*
X195249681Y-30625177D01*
X195194012Y-30548554D01*
X195194008Y-30548549D01*
X195031450Y-30385991D01*
X195031445Y-30385987D01*
X194845472Y-30250871D01*
X194845471Y-30250870D01*
X194845469Y-30250869D01*
X194743053Y-30198685D01*
X194640634Y-30146500D01*
X194422003Y-30075463D01*
X194270629Y-30051487D01*
X194194944Y-30039500D01*
X193965056Y-30039500D01*
X193889370Y-30051487D01*
X193737997Y-30075463D01*
X193737994Y-30075463D01*
X193519365Y-30146500D01*
X193314527Y-30250871D01*
X193128554Y-30385987D01*
X193128549Y-30385991D01*
X192965991Y-30548549D01*
X192965987Y-30548554D01*
X192830871Y-30734527D01*
X192726500Y-30939365D01*
X192655463Y-31157994D01*
X192655463Y-31157997D01*
X192619500Y-31385056D01*
X190460500Y-31385056D01*
X190424537Y-31157999D01*
X190424536Y-31157995D01*
X190424536Y-31157994D01*
X190353499Y-30939365D01*
X190353498Y-30939363D01*
X190249131Y-30734531D01*
X190169681Y-30625177D01*
X190114012Y-30548554D01*
X190114008Y-30548549D01*
X189951450Y-30385991D01*
X189951445Y-30385987D01*
X189765472Y-30250871D01*
X189765471Y-30250870D01*
X189765469Y-30250869D01*
X189663053Y-30198685D01*
X189560634Y-30146500D01*
X189342003Y-30075463D01*
X189190629Y-30051487D01*
X189114944Y-30039500D01*
X188885056Y-30039500D01*
X188809370Y-30051487D01*
X188657997Y-30075463D01*
X188657994Y-30075463D01*
X188439365Y-30146500D01*
X188234527Y-30250871D01*
X188048554Y-30385987D01*
X188048549Y-30385991D01*
X187885991Y-30548549D01*
X187885987Y-30548554D01*
X187830318Y-30625177D01*
X187774988Y-30667843D01*
X187705375Y-30673822D01*
X187643580Y-30641217D01*
X187629682Y-30625177D01*
X187574012Y-30548554D01*
X187574008Y-30548549D01*
X187411450Y-30385991D01*
X187411445Y-30385987D01*
X187225472Y-30250871D01*
X187225471Y-30250870D01*
X187225469Y-30250869D01*
X187123053Y-30198685D01*
X187020634Y-30146500D01*
X186802003Y-30075463D01*
X186650629Y-30051487D01*
X186574944Y-30039500D01*
X186345056Y-30039500D01*
X186269370Y-30051487D01*
X186117997Y-30075463D01*
X186117994Y-30075463D01*
X185899365Y-30146500D01*
X185694527Y-30250871D01*
X185508554Y-30385987D01*
X185508549Y-30385991D01*
X185345991Y-30548549D01*
X185345987Y-30548554D01*
X185290318Y-30625177D01*
X185234988Y-30667843D01*
X185165375Y-30673822D01*
X185103580Y-30641217D01*
X185089682Y-30625177D01*
X185034012Y-30548554D01*
X185034008Y-30548549D01*
X184871450Y-30385991D01*
X184871445Y-30385987D01*
X184685472Y-30250871D01*
X184685471Y-30250870D01*
X184685469Y-30250869D01*
X184583053Y-30198685D01*
X184480634Y-30146500D01*
X184262003Y-30075463D01*
X184110629Y-30051487D01*
X184034944Y-30039500D01*
X183805056Y-30039500D01*
X183729370Y-30051487D01*
X183577997Y-30075463D01*
X183577994Y-30075463D01*
X183359365Y-30146500D01*
X183154527Y-30250871D01*
X182968554Y-30385987D01*
X182968549Y-30385991D01*
X182805991Y-30548549D01*
X182805987Y-30548554D01*
X182670871Y-30734527D01*
X182566500Y-30939365D01*
X182495463Y-31157994D01*
X182495463Y-31157997D01*
X182459500Y-31385056D01*
X172525870Y-31385056D01*
X172467736Y-31326922D01*
X172467731Y-31326918D01*
X172278574Y-31189489D01*
X172278573Y-31189488D01*
X172278571Y-31189487D01*
X172070234Y-31083334D01*
X171847855Y-31011078D01*
X171847853Y-31011077D01*
X171847852Y-31011077D01*
X171670446Y-30982979D01*
X171616911Y-30974500D01*
X171383089Y-30974500D01*
X171329553Y-30982979D01*
X171152148Y-31011077D01*
X170929763Y-31083335D01*
X170721425Y-31189489D01*
X170532268Y-31326918D01*
X170532263Y-31326922D01*
X170366922Y-31492263D01*
X170366918Y-31492268D01*
X170229489Y-31681425D01*
X170123335Y-31889763D01*
X170051077Y-32112148D01*
X170033281Y-32224511D01*
X170014500Y-32343089D01*
X165000500Y-32343089D01*
X165000500Y-28124500D01*
X165020185Y-28057461D01*
X165072989Y-28011706D01*
X165124500Y-28000500D01*
X204878797Y-28000500D01*
X204945836Y-28020185D01*
G37*
%TD.AperFunction*%
%TD*%
M02*
