%TF.GenerationSoftware,KiCad,Pcbnew,9.0.4*%
%TF.CreationDate,2026-01-09T15:46:24-05:00*%
%TF.ProjectId,x18-tool-board,7831382d-746f-46f6-9c2d-626f6172642e,rev?*%
%TF.SameCoordinates,Original*%
%TF.FileFunction,Legend,Bot*%
%TF.FilePolarity,Positive*%
%FSLAX46Y46*%
G04 Gerber Fmt 4.6, Leading zero omitted, Abs format (unit mm)*
G04 Created by KiCad (PCBNEW 9.0.4) date 2026-01-09 15:46:24*
%MOMM*%
%LPD*%
G01*
G04 APERTURE LIST*
G04 Aperture macros list*
%AMRoundRect*
0 Rectangle with rounded corners*
0 $1 Rounding radius*
0 $2 $3 $4 $5 $6 $7 $8 $9 X,Y pos of 4 corners*
0 Add a 4 corners polygon primitive as box body*
4,1,4,$2,$3,$4,$5,$6,$7,$8,$9,$2,$3,0*
0 Add four circle primitives for the rounded corners*
1,1,$1+$1,$2,$3*
1,1,$1+$1,$4,$5*
1,1,$1+$1,$6,$7*
1,1,$1+$1,$8,$9*
0 Add four rect primitives between the rounded corners*
20,1,$1+$1,$2,$3,$4,$5,0*
20,1,$1+$1,$4,$5,$6,$7,0*
20,1,$1+$1,$6,$7,$8,$9,0*
20,1,$1+$1,$8,$9,$2,$3,0*%
G04 Aperture macros list end*
%ADD10C,0.150000*%
%ADD11C,0.508000*%
%ADD12C,0.200000*%
%ADD13C,0.152400*%
%ADD14C,0.120000*%
%ADD15RoundRect,0.102000X-0.975000X-0.975000X0.975000X-0.975000X0.975000X0.975000X-0.975000X0.975000X0*%
%ADD16C,2.154000*%
%ADD17R,1.700000X1.700000*%
%ADD18C,1.700000*%
%ADD19RoundRect,0.102000X0.975000X0.975000X-0.975000X0.975000X-0.975000X-0.975000X0.975000X-0.975000X0*%
%ADD20RoundRect,0.102000X0.975000X-0.975000X0.975000X0.975000X-0.975000X0.975000X-0.975000X-0.975000X0*%
%ADD21C,1.066800*%
%ADD22C,1.574800*%
%ADD23C,1.778000*%
%ADD24C,2.336800*%
%ADD25C,1.854000*%
%ADD26RoundRect,0.102000X-1.050000X1.050000X-1.050000X-1.050000X1.050000X-1.050000X1.050000X1.050000X0*%
%ADD27C,2.304000*%
%ADD28R,1.761200X0.850800*%
%ADD29R,1.761200X3.150799*%
%ADD30RoundRect,0.237500X-0.237500X0.300000X-0.237500X-0.300000X0.237500X-0.300000X0.237500X0.300000X0*%
%ADD31RoundRect,0.237500X0.237500X-0.300000X0.237500X0.300000X-0.237500X0.300000X-0.237500X-0.300000X0*%
G04 APERTURE END LIST*
D10*
X168354819Y-44541666D02*
X169069104Y-44541666D01*
X169069104Y-44541666D02*
X169211961Y-44494047D01*
X169211961Y-44494047D02*
X169307200Y-44398809D01*
X169307200Y-44398809D02*
X169354819Y-44255952D01*
X169354819Y-44255952D02*
X169354819Y-44160714D01*
X169354819Y-45065476D02*
X169354819Y-45255952D01*
X169354819Y-45255952D02*
X169307200Y-45351190D01*
X169307200Y-45351190D02*
X169259580Y-45398809D01*
X169259580Y-45398809D02*
X169116723Y-45494047D01*
X169116723Y-45494047D02*
X168926247Y-45541666D01*
X168926247Y-45541666D02*
X168545295Y-45541666D01*
X168545295Y-45541666D02*
X168450057Y-45494047D01*
X168450057Y-45494047D02*
X168402438Y-45446428D01*
X168402438Y-45446428D02*
X168354819Y-45351190D01*
X168354819Y-45351190D02*
X168354819Y-45160714D01*
X168354819Y-45160714D02*
X168402438Y-45065476D01*
X168402438Y-45065476D02*
X168450057Y-45017857D01*
X168450057Y-45017857D02*
X168545295Y-44970238D01*
X168545295Y-44970238D02*
X168783390Y-44970238D01*
X168783390Y-44970238D02*
X168878628Y-45017857D01*
X168878628Y-45017857D02*
X168926247Y-45065476D01*
X168926247Y-45065476D02*
X168973866Y-45160714D01*
X168973866Y-45160714D02*
X168973866Y-45351190D01*
X168973866Y-45351190D02*
X168926247Y-45446428D01*
X168926247Y-45446428D02*
X168878628Y-45494047D01*
X168878628Y-45494047D02*
X168783390Y-45541666D01*
X242319819Y-49451666D02*
X243034104Y-49451666D01*
X243034104Y-49451666D02*
X243176961Y-49404047D01*
X243176961Y-49404047D02*
X243272200Y-49308809D01*
X243272200Y-49308809D02*
X243319819Y-49165952D01*
X243319819Y-49165952D02*
X243319819Y-49070714D01*
X242319819Y-49832619D02*
X242319819Y-50499285D01*
X242319819Y-50499285D02*
X243319819Y-50070714D01*
X186795180Y-90511904D02*
X185985657Y-90511904D01*
X185985657Y-90511904D02*
X185890419Y-90464285D01*
X185890419Y-90464285D02*
X185842800Y-90416666D01*
X185842800Y-90416666D02*
X185795180Y-90321428D01*
X185795180Y-90321428D02*
X185795180Y-90130952D01*
X185795180Y-90130952D02*
X185842800Y-90035714D01*
X185842800Y-90035714D02*
X185890419Y-89988095D01*
X185890419Y-89988095D02*
X185985657Y-89940476D01*
X185985657Y-89940476D02*
X186795180Y-89940476D01*
X186699942Y-89511904D02*
X186747561Y-89464285D01*
X186747561Y-89464285D02*
X186795180Y-89369047D01*
X186795180Y-89369047D02*
X186795180Y-89130952D01*
X186795180Y-89130952D02*
X186747561Y-89035714D01*
X186747561Y-89035714D02*
X186699942Y-88988095D01*
X186699942Y-88988095D02*
X186604704Y-88940476D01*
X186604704Y-88940476D02*
X186509466Y-88940476D01*
X186509466Y-88940476D02*
X186366609Y-88988095D01*
X186366609Y-88988095D02*
X185795180Y-89559523D01*
X185795180Y-89559523D02*
X185795180Y-88940476D01*
X175179580Y-84833333D02*
X175227200Y-84785714D01*
X175227200Y-84785714D02*
X175274819Y-84642857D01*
X175274819Y-84642857D02*
X175274819Y-84547619D01*
X175274819Y-84547619D02*
X175227200Y-84404762D01*
X175227200Y-84404762D02*
X175131961Y-84309524D01*
X175131961Y-84309524D02*
X175036723Y-84261905D01*
X175036723Y-84261905D02*
X174846247Y-84214286D01*
X174846247Y-84214286D02*
X174703390Y-84214286D01*
X174703390Y-84214286D02*
X174512914Y-84261905D01*
X174512914Y-84261905D02*
X174417676Y-84309524D01*
X174417676Y-84309524D02*
X174322438Y-84404762D01*
X174322438Y-84404762D02*
X174274819Y-84547619D01*
X174274819Y-84547619D02*
X174274819Y-84642857D01*
X174274819Y-84642857D02*
X174322438Y-84785714D01*
X174322438Y-84785714D02*
X174370057Y-84833333D01*
X174370057Y-85214286D02*
X174322438Y-85261905D01*
X174322438Y-85261905D02*
X174274819Y-85357143D01*
X174274819Y-85357143D02*
X174274819Y-85595238D01*
X174274819Y-85595238D02*
X174322438Y-85690476D01*
X174322438Y-85690476D02*
X174370057Y-85738095D01*
X174370057Y-85738095D02*
X174465295Y-85785714D01*
X174465295Y-85785714D02*
X174560533Y-85785714D01*
X174560533Y-85785714D02*
X174703390Y-85738095D01*
X174703390Y-85738095D02*
X175274819Y-85166667D01*
X175274819Y-85166667D02*
X175274819Y-85785714D01*
X176146666Y-93242080D02*
X176194285Y-93289700D01*
X176194285Y-93289700D02*
X176337142Y-93337319D01*
X176337142Y-93337319D02*
X176432380Y-93337319D01*
X176432380Y-93337319D02*
X176575237Y-93289700D01*
X176575237Y-93289700D02*
X176670475Y-93194461D01*
X176670475Y-93194461D02*
X176718094Y-93099223D01*
X176718094Y-93099223D02*
X176765713Y-92908747D01*
X176765713Y-92908747D02*
X176765713Y-92765890D01*
X176765713Y-92765890D02*
X176718094Y-92575414D01*
X176718094Y-92575414D02*
X176670475Y-92480176D01*
X176670475Y-92480176D02*
X176575237Y-92384938D01*
X176575237Y-92384938D02*
X176432380Y-92337319D01*
X176432380Y-92337319D02*
X176337142Y-92337319D01*
X176337142Y-92337319D02*
X176194285Y-92384938D01*
X176194285Y-92384938D02*
X176146666Y-92432557D01*
X175813332Y-92337319D02*
X175194285Y-92337319D01*
X175194285Y-92337319D02*
X175527618Y-92718271D01*
X175527618Y-92718271D02*
X175384761Y-92718271D01*
X175384761Y-92718271D02*
X175289523Y-92765890D01*
X175289523Y-92765890D02*
X175241904Y-92813509D01*
X175241904Y-92813509D02*
X175194285Y-92908747D01*
X175194285Y-92908747D02*
X175194285Y-93146842D01*
X175194285Y-93146842D02*
X175241904Y-93242080D01*
X175241904Y-93242080D02*
X175289523Y-93289700D01*
X175289523Y-93289700D02*
X175384761Y-93337319D01*
X175384761Y-93337319D02*
X175670475Y-93337319D01*
X175670475Y-93337319D02*
X175765713Y-93289700D01*
X175765713Y-93289700D02*
X175813332Y-93242080D01*
D11*
%TO.C,J13*%
X201475600Y-73999999D02*
G75*
G02*
X200713600Y-73999999I-381000J0D01*
G01*
X200713600Y-73999999D02*
G75*
G02*
X201475600Y-73999999I381000J0D01*
G01*
D12*
%TO.C,J9*%
X164700000Y-46435000D02*
X174300000Y-46435000D01*
X164700000Y-78565000D02*
X164700000Y-46435000D01*
X174300000Y-46435000D02*
X174300000Y-78565000D01*
X174300000Y-78565000D02*
X164700000Y-78565000D01*
X174900000Y-54120000D02*
G75*
G02*
X174700000Y-54120000I-100000J0D01*
G01*
X174700000Y-54120000D02*
G75*
G02*
X174900000Y-54120000I100000J0D01*
G01*
%TO.C,J7*%
X244700000Y-46435000D02*
X254300000Y-46435000D01*
X244700000Y-78565000D02*
X244700000Y-46435000D01*
X254300000Y-46435000D02*
X254300000Y-78565000D01*
X254300000Y-78565000D02*
X244700000Y-78565000D01*
X254900000Y-54120000D02*
G75*
G02*
X254700000Y-54120000I-100000J0D01*
G01*
X254700000Y-54120000D02*
G75*
G02*
X254900000Y-54120000I100000J0D01*
G01*
D13*
%TO.C,U2*%
X181130550Y-83098000D02*
X184934550Y-83098000D01*
X181130550Y-83546656D02*
X181130550Y-83098000D01*
X181130550Y-85846657D02*
X181130550Y-84853343D01*
X181130550Y-88146657D02*
X181130550Y-87153343D01*
X181130550Y-89902000D02*
X181130550Y-89453343D01*
X184934550Y-83098000D02*
X184934550Y-84696657D01*
X184934550Y-88303343D02*
X184934550Y-89902000D01*
X184934550Y-89902000D02*
X181130550Y-89902000D01*
X179609550Y-91045000D02*
G75*
G02*
X179355550Y-91045000I-127000J0D01*
G01*
X179355550Y-91045000D02*
G75*
G02*
X179609550Y-91045000I127000J0D01*
G01*
D14*
%TO.C,C2*%
X175740000Y-84853733D02*
X175740000Y-85146267D01*
X176760000Y-84853733D02*
X176760000Y-85146267D01*
%TO.C,C3*%
X175720000Y-89028767D02*
X175720000Y-88736233D01*
X176740000Y-89028767D02*
X176740000Y-88736233D01*
%TD*%
%LPC*%
D15*
%TO.C,Servo5*%
X216105000Y-93000000D03*
D16*
X221185000Y-93000000D03*
X226265000Y-93000000D03*
%TD*%
D17*
%TO.C,J11*%
X208600000Y-36260000D03*
D18*
X208600000Y-38800000D03*
%TD*%
D17*
%TO.C,J14*%
X243275000Y-86500000D03*
D18*
X240735000Y-86500000D03*
%TD*%
D19*
%TO.C,Servo3*%
X240800000Y-32200000D03*
D16*
X235720000Y-32200000D03*
X230640000Y-32200000D03*
%TD*%
D20*
%TO.C,Servo2*%
X250000000Y-43000000D03*
D16*
X250000000Y-37920000D03*
X250000000Y-32840000D03*
%TD*%
D17*
%TO.C,J2*%
X171500000Y-29920000D03*
D18*
X171500000Y-32460000D03*
X171500000Y-35000000D03*
X171500000Y-37540000D03*
X171500000Y-40080000D03*
%TD*%
D19*
%TO.C,Servo4*%
X224280000Y-32337500D03*
D16*
X219200000Y-32337500D03*
X214120000Y-32337500D03*
%TD*%
D17*
%TO.C,J15*%
X176000000Y-40920000D03*
D18*
X176000000Y-43460000D03*
X176000000Y-46000000D03*
X176000000Y-48540000D03*
X176000000Y-51080000D03*
X176000000Y-53620000D03*
X176000000Y-56160000D03*
%TD*%
D17*
%TO.C,J6*%
X202000000Y-90000000D03*
D18*
X202000000Y-87460000D03*
X202000000Y-84920000D03*
X202000000Y-82380000D03*
X202000000Y-79840000D03*
%TD*%
D17*
%TO.C,J12*%
X226275000Y-86500000D03*
D18*
X223735000Y-86500000D03*
%TD*%
D17*
%TO.C,J1*%
X176500000Y-59960000D03*
D18*
X176500000Y-62500000D03*
X176500000Y-65040000D03*
%TD*%
D17*
%TO.C,J8*%
X243500000Y-43525000D03*
D18*
X243500000Y-40985000D03*
%TD*%
D20*
%TO.C,Servo1*%
X250000000Y-92080000D03*
D16*
X250000000Y-87000000D03*
X250000000Y-81920000D03*
%TD*%
D21*
%TO.C,J13*%
X187500002Y-70059999D03*
X199499998Y-70059999D03*
D22*
X196499999Y-73999999D03*
X193500000Y-73999999D03*
X190500001Y-73999999D03*
X196499999Y-71000000D03*
X193500000Y-71000000D03*
X190500001Y-71000000D03*
%TD*%
D23*
%TO.C,U1*%
X231881100Y-70120000D03*
X231881100Y-62500000D03*
X231881100Y-54880000D03*
D24*
X203941100Y-54880000D03*
D23*
X203941100Y-62500000D03*
X203941100Y-66310000D03*
D24*
X203941100Y-70120000D03*
%TD*%
D17*
%TO.C,J3*%
X242000000Y-78725000D03*
D18*
X242000000Y-81265000D03*
%TD*%
D25*
%TO.C,J4*%
X183920000Y-34040000D03*
X183920000Y-31500000D03*
X186460000Y-34040000D03*
X186460000Y-31500000D03*
X189000000Y-34040000D03*
X189000000Y-31500000D03*
X191540000Y-34040000D03*
X191540000Y-31500000D03*
X194080000Y-34040000D03*
X194080000Y-31500000D03*
%TD*%
D17*
%TO.C,J10*%
X232275000Y-38400000D03*
D18*
X229735000Y-38400000D03*
%TD*%
D15*
%TO.C,Servo6*%
X232500000Y-93000000D03*
D16*
X237580000Y-93000000D03*
X242660000Y-93000000D03*
%TD*%
D26*
%TO.C,J9*%
X172320000Y-54120000D03*
D27*
X172320000Y-58310000D03*
X172320000Y-62500000D03*
X172320000Y-66690000D03*
X172320000Y-70880000D03*
X166680000Y-54120000D03*
X166680000Y-58310000D03*
X166680000Y-62500000D03*
X166680000Y-66690000D03*
X166680000Y-70880000D03*
%TD*%
D26*
%TO.C,J7*%
X252320000Y-54120000D03*
D27*
X252320000Y-58310000D03*
X252320000Y-62500000D03*
X252320000Y-66690000D03*
X252320000Y-70880000D03*
X246680000Y-54120000D03*
X246680000Y-58310000D03*
X246680000Y-62500000D03*
X246680000Y-66690000D03*
X246680000Y-70880000D03*
%TD*%
D28*
%TO.C,U2*%
X180007550Y-88800000D03*
X180007550Y-86500000D03*
X180007550Y-84200000D03*
D29*
X186057550Y-86500000D03*
%TD*%
D30*
%TO.C,C2*%
X176250000Y-84137500D03*
X176250000Y-85862500D03*
%TD*%
D31*
%TO.C,C3*%
X176230000Y-89745000D03*
X176230000Y-88020000D03*
%TD*%
%LPD*%
M02*
